<svg width="24" height="24" viewBox="0 0 24 24" fill="none" xmlns="http://www.w3.org/2000/svg">
<path fill-rule="evenodd" clip-rule="evenodd" d="M16.0351 14.7206C17.8288 13.4531 19 11.3633 19 9C19 5.13401 15.866 2 12 2C8.13401 2 5 5.13401 5 9C5 11.3378 6.146 13.4079 7.90687 14.6792C4.26631 16.0101 2.61941 18.9795 2.05132 20.6838C1.94967 20.9887 2.00081 21.3239 2.18877 21.5847C2.37672 21.8455 2.67856 22 3.00001 22H21C21.3215 22 21.6233 21.8455 21.8113 21.5847C21.9992 21.3239 22.0503 20.9887 21.9487 20.6838C21.3795 18.9762 19.5277 16.0657 16.0351 14.7206Z" fill="#121D33"/>
</svg>
