<svg width="24" height="24" viewBox="0 0 24 24" fill="none" xmlns="http://www.w3.org/2000/svg">
<path d="M12 15C13.1046 15 14 13.6569 14 12C14 10.3431 13.1046 9 12 9C10.8954 9 10 10.3431 10 12C10 13.6569 10.8954 15 12 15Z" fill="#121D33"/>
<path fill-rule="evenodd" clip-rule="evenodd" d="M19 6H5C3.34315 6 2 7.34315 2 9V15C2 16.6569 3.34315 18 5 18H19C20.6569 18 22 16.6569 22 15V9C22 7.34315 20.6569 6 19 6ZM6 8L18 8C18 8.53043 18.2107 9.03914 18.5858 9.41421C18.9609 9.78929 19.4696 10 20 10V14C19.4696 14 18.9609 14.2107 18.5858 14.5858C18.2107 14.9609 18 15.4696 18 16H6C6 15.7374 5.94827 15.4773 5.84776 15.2346C5.74725 14.992 5.59993 14.7715 5.41421 14.5858C5.2285 14.4001 5.00802 14.2528 4.76537 14.1522C4.52272 14.0517 4.26264 14 4 14V10C4.26264 10 4.52272 9.94827 4.76537 9.84776C5.00802 9.74725 5.2285 9.59993 5.41421 9.41421C5.59993 9.2285 5.74725 9.00802 5.84776 8.76537C5.94827 8.52272 6 8.26264 6 8Z" fill="#121D33"/>
</svg>
