<svg width="375" height="160" viewBox="0 0 375 160" fill="none" xmlns="http://www.w3.org/2000/svg">
<g clip-path="url(#clip0_991_106609)">
<path d="M239.126 120.916L239.068 120.965C238.859 121.144 238.648 121.323 238.434 121.5L238.321 121.593C238.138 121.744 237.954 121.894 237.771 122.047L237.609 122.177C237.392 122.349 237.174 122.52 236.954 122.689L236.854 122.765C236.661 122.913 236.465 123.06 236.269 123.205L236.098 123.33C235.873 123.496 235.646 123.66 235.419 123.821L235.346 123.873C235.138 124.019 234.929 124.164 234.719 124.307L234.54 124.425C234.307 124.583 234.075 124.739 233.839 124.896L233.801 124.921C233.576 125.066 233.349 125.211 233.122 125.354L232.935 125.473C232.699 125.619 232.462 125.765 232.223 125.909L232.211 125.917C231.969 126.062 231.724 126.205 231.479 126.346L231.291 126.454C231.062 126.585 230.833 126.714 230.603 126.841L230.543 126.874C230.296 127.01 230.046 127.143 229.796 127.276L229.607 127.375C229.383 127.497 229.157 127.608 228.931 127.721L228.836 127.77C228.583 127.895 228.328 128.021 228.073 128.147L227.883 128.237C227.66 128.343 227.437 128.448 227.212 128.55L227.087 128.607C226.829 128.724 226.57 128.839 226.308 128.952L226.117 129.033C225.894 129.129 225.67 129.223 225.445 129.316L225.296 129.377C225.032 129.484 224.767 129.589 224.501 129.692L224.31 129.764C224.085 129.85 223.858 129.936 223.631 130.019L223.462 130.081C223.193 130.179 222.923 130.273 222.652 130.364L222.469 130.426C222.24 130.503 222.01 130.579 221.78 130.654L221.593 130.715C221.319 130.803 221.044 130.888 220.767 130.971L220.596 131.022C220.361 131.091 220.124 131.159 219.888 131.227L219.689 131.282C219.41 131.36 219.128 131.436 218.845 131.509L218.691 131.548C218.449 131.61 218.205 131.67 217.961 131.729L217.749 131.78C217.464 131.847 217.178 131.913 216.89 131.975L216.755 132.003C216.503 132.058 216.251 132.11 215.997 132.162L215.777 132.205C215.484 132.262 215.191 132.317 214.898 132.369L214.793 132.388C214.528 132.434 214.262 132.479 213.997 132.521L213.769 132.557C213.476 132.603 213.174 132.649 212.874 132.69L212.815 132.696C212.532 132.734 212.249 132.77 211.965 132.805L211.732 132.829C211.429 132.861 211.125 132.899 210.82 132.924C195.974 134.402 181.608 129.641 170.376 120.749C159.144 111.856 151.05 98.8374 148.76 83.7907C146.47 68.7439 150.414 54.5221 158.641 43.6931C158.889 43.3692 159.142 43.0448 159.398 42.7201C159.48 42.6172 159.563 42.5161 159.646 42.4151C159.823 42.198 160.001 41.9806 160.183 41.7631C160.28 41.6469 160.378 41.5311 160.477 41.4155C160.65 41.2133 160.824 41.0127 161 40.8136L161.301 40.4742C161.49 40.2638 161.682 40.0561 161.874 39.8482C161.964 39.7535 162.053 39.6577 162.138 39.5644C162.42 39.2655 162.705 38.9709 162.993 38.6806L163.016 38.6584C163.298 38.3747 163.583 38.0946 163.871 37.8182C163.966 37.7268 164.063 37.6363 164.16 37.5458C164.364 37.353 164.569 37.1617 164.776 36.9719C164.888 36.8689 165.001 36.7677 165.114 36.6666C165.312 36.4876 165.512 36.3108 165.714 36.1362C165.781 36.0775 165.846 36.017 165.915 35.9582L162.284 39.0812C159.594 41.3966 157.156 43.9886 155.011 46.814C151.954 50.8401 149.51 55.2949 147.758 60.0341L147.811 59.8885L147.794 59.935L147.776 59.9805L147.742 60.0735C147.731 60.1005 147.718 60.1376 147.707 60.1656L147.69 60.2121L147.656 60.3041L147.621 60.3961L147.603 60.4427L147.569 60.5347L147.552 60.5812L147.518 60.6732L147.501 60.7197C147.49 60.7477 147.476 60.7839 147.466 60.8118C144.421 68.9708 143.369 78.1082 144.811 87.5787C147.079 102.482 155.092 115.381 166.214 124.188C177.337 132.996 191.569 137.708 206.272 136.247C208.184 136.057 210.083 135.763 211.963 135.366L212.929 135.166C212.704 135.215 212.476 135.261 212.247 135.306C221.149 133.545 229.055 129.584 235.495 124.046L239.126 120.916Z" fill="#DFE3EB"/>
<path d="M253.912 99.2633C253.816 99.5208 253.718 99.7803 253.617 100.032L253.567 100.157C253.479 100.377 253.39 100.597 253.299 100.817C253.272 100.884 253.244 100.951 253.22 101.017C253.114 101.271 253.008 101.525 252.901 101.776L252.877 101.83C252.774 102.067 252.668 102.301 252.561 102.536L252.469 102.735C252.361 102.969 252.251 103.203 252.144 103.435L252.119 103.486C251.999 103.734 251.879 103.979 251.754 104.22L251.658 104.412C251.55 104.622 251.443 104.831 251.333 105.042L251.272 105.157C251.145 105.398 251.016 105.638 250.885 105.876L250.786 106.054C250.676 106.253 250.564 106.451 250.45 106.648L250.365 106.797C250.231 107.031 250.093 107.265 249.954 107.497C249.922 107.55 249.89 107.603 249.858 107.655C249.742 107.848 249.625 108.039 249.507 108.23L249.404 108.396C249.259 108.626 249.113 108.854 248.967 109.082L248.881 109.209C248.755 109.401 248.629 109.592 248.501 109.782L248.383 109.957C248.231 110.182 248.077 110.405 247.921 110.626L247.865 110.707C247.724 110.905 247.581 111.103 247.438 111.299L247.311 111.474C247.149 111.689 246.987 111.914 246.822 112.131C238.672 122.856 226.28 130.222 211.576 131.686C196.871 133.15 182.641 128.432 171.519 119.626C160.397 110.821 152.375 97.9267 150.106 83.0228C147.838 68.1189 151.743 54.0342 159.892 43.3087C160.094 43.0433 160.299 42.7805 160.507 42.5194L160.602 42.3992C160.801 42.1513 161.001 41.905 161.203 41.6601L161.318 41.5209C161.523 41.2763 161.73 41.0332 161.94 40.7915L162.029 40.6898C162.24 40.4472 162.454 40.2054 162.67 39.9673L162.704 39.929C162.925 39.6861 163.148 39.4459 163.374 39.2085L163.487 39.0884C163.705 38.859 163.926 38.6318 164.148 38.4066L164.273 38.2793C164.5 38.0523 164.729 37.8265 164.96 37.6018L165.042 37.5237C165.271 37.3012 165.502 37.0831 165.734 36.8694L165.8 36.809C166.037 36.5855 166.278 36.3681 166.521 36.1566L166.652 36.0437C166.89 35.8341 167.13 35.6267 167.372 35.4213L167.503 35.3083C167.752 35.0989 168.004 34.8913 168.257 34.6854L168.32 34.6351C168.57 34.4343 168.821 34.236 169.073 34.0401L169.165 33.968C169.421 33.7705 169.678 33.5761 169.938 33.3848L170.083 33.2773C170.339 33.089 170.598 32.9029 170.858 32.7188L170.993 32.6213C171.265 32.431 171.537 32.2428 171.813 32.0581L171.849 32.0345C172.12 31.8527 172.394 31.6735 172.671 31.497L172.788 31.4212C173.06 31.2478 173.334 31.077 173.609 30.9086L173.765 30.8138C174.041 30.6474 174.318 30.4828 174.597 30.32L174.729 30.2457C175.019 30.0784 175.311 29.9155 175.607 29.7569L175.617 29.7509C175.913 29.589 176.212 29.4297 176.511 29.2734L176.651 29.2003C176.939 29.051 177.229 28.9047 177.519 28.7612L177.685 28.6804C177.979 28.5366 178.274 28.3956 178.571 28.2574L178.693 28.2011C178.992 28.0633 179.292 27.9281 179.594 27.7954L179.651 27.7705C179.959 27.6365 180.27 27.5049 180.582 27.3757L180.74 27.3096C181.041 27.1843 181.345 27.0619 181.653 26.9425L181.824 26.8769C182.136 26.7584 182.449 26.6421 182.765 26.5278L182.867 26.4913C183.179 26.3808 183.491 26.2728 183.805 26.1673L183.902 26.1354C184.221 26.0287 184.544 25.9256 184.865 25.8256L185.04 25.7717C185.357 25.6741 185.676 25.5804 185.997 25.4884L186.168 25.4408C186.495 25.3462 186.826 25.2591 187.16 25.1777L187.237 25.1578C187.564 25.0742 187.892 24.993 188.221 24.9145L188.346 24.8845C188.679 24.8073 189.011 24.7329 189.347 24.6614L189.444 24.6393L188.479 24.8419C180.05 26.6056 172.212 30.4946 165.714 36.1381C165.512 36.3129 165.312 36.4897 165.114 36.6685C165.001 36.7697 164.888 36.8709 164.776 36.9739C164.569 37.1631 164.364 37.3544 164.16 37.5478C164.064 37.6382 163.967 37.7288 163.872 37.8202C163.584 38.0965 163.299 38.3766 163.016 38.6603L162.994 38.6826C162.705 38.9742 162.42 39.2688 162.139 39.5664C162.049 39.6602 161.959 39.756 161.875 39.8502C161.682 40.058 161.491 40.2658 161.302 40.4762L161 40.8156C160.822 41.015 160.648 41.2156 160.477 41.4174C160.379 41.533 160.281 41.6488 160.183 41.765C160.003 41.9825 159.824 42.1999 159.646 42.417C159.563 42.5181 159.48 42.6191 159.398 42.7221C159.142 43.0468 158.889 43.3653 158.641 43.6951C150.414 54.5221 146.473 68.7436 148.76 83.7907C151.048 98.8378 159.144 111.86 170.371 120.752C181.597 129.644 195.968 134.406 210.814 132.926C211.119 132.894 211.423 132.862 211.726 132.831L211.96 132.807C212.244 132.772 212.528 132.736 212.81 132.697L212.869 132.691C213.168 132.65 213.466 132.605 213.764 132.559L213.991 132.523C214.257 132.48 214.523 132.436 214.788 132.39L214.892 132.371C215.185 132.318 215.478 132.263 215.771 132.207L215.992 132.163C216.245 132.112 216.498 132.06 216.75 132.005L216.884 131.977C217.176 131.914 217.458 131.849 217.744 131.781L217.956 131.73C218.199 131.671 218.442 131.611 218.686 131.549L218.84 131.51C219.123 131.437 219.404 131.362 219.683 131.284L219.883 131.228C220.119 131.161 220.355 131.093 220.59 131.023L220.761 130.973C221.038 130.889 221.313 130.804 221.588 130.716L221.774 130.656C222.005 130.582 222.235 130.505 222.464 130.427L222.646 130.366C222.917 130.272 223.187 130.177 223.456 130.083L223.626 130.02C223.852 129.937 224.079 129.852 224.304 129.766L224.496 129.693C224.762 129.59 225.027 129.485 225.29 129.378L225.439 129.317C225.665 129.227 225.889 129.133 226.112 129.035L226.303 128.953C226.564 128.841 226.823 128.726 227.081 128.609L227.207 128.551C227.432 128.449 227.655 128.345 227.878 128.239L228.068 128.149C228.322 128.023 228.578 127.902 228.831 127.771L228.925 127.723C229.152 127.61 229.377 127.494 229.601 127.376L229.79 127.277C230.04 127.145 230.29 127.012 230.538 126.875L230.597 126.842C230.828 126.715 231.058 126.586 231.286 126.456L231.474 126.348C231.719 126.206 231.964 126.063 232.205 125.918L232.218 125.911C232.456 125.767 232.693 125.621 232.93 125.474L233.117 125.355C233.345 125.212 233.571 125.068 233.795 124.922L233.834 124.897C234.068 124.744 234.299 124.588 234.534 124.427L234.713 124.309C234.923 124.166 235.132 124.021 235.34 123.874L235.413 123.823C235.641 123.661 235.868 123.498 236.092 123.332L236.263 123.207C236.459 123.061 236.655 122.915 236.849 122.766L236.948 122.691C237.169 122.521 237.387 122.35 237.604 122.178L237.766 122.049C237.949 121.9 238.133 121.75 238.316 121.594L238.429 121.501C238.642 121.325 238.854 121.146 239.063 120.966C241.775 118.639 244.233 116.031 246.394 113.187C249.418 109.203 251.842 104.8 253.59 100.117C253.706 99.8084 253.821 99.5006 253.935 99.1934C253.932 99.2145 253.922 99.2385 253.912 99.2633Z" fill="#F0F2F7"/>
<path d="M256.6 72.4194C254.331 57.5154 246.318 44.6176 235.195 35.8101C224.073 27.0025 209.842 22.2893 195.138 23.7525C193.192 23.9447 191.258 24.2452 189.346 24.6525C189.011 24.7241 188.678 24.7984 188.346 24.8757L188.22 24.9056C187.891 24.9875 187.565 25.0698 187.241 25.1524L187.165 25.1723C186.831 25.2586 186.5 25.3496 186.171 25.4425L185.999 25.4901C185.678 25.5821 185.359 25.6759 185.042 25.7734L184.867 25.8274C184.544 25.9275 184.222 26.0306 183.904 26.1371L183.808 26.169C183.494 26.2738 183.182 26.3818 182.87 26.493L182.767 26.5296C182.451 26.6432 182.138 26.7596 181.827 26.8787L181.653 26.9424C181.347 27.061 181.043 27.1818 180.74 27.3046L180.582 27.3708C180.27 27.4986 179.96 27.6302 179.651 27.7656L179.594 27.7904C179.292 27.9231 178.992 28.0583 178.692 28.1961L178.571 28.2525C178.274 28.3907 177.979 28.5317 177.685 28.6755L177.519 28.7563C177.229 28.8997 176.939 29.0461 176.651 29.1953L176.511 29.2685C176.212 29.4248 175.913 29.584 175.617 29.7459L175.607 29.752C175.312 29.9151 175.02 30.078 174.728 30.2407L174.597 30.316C174.318 30.4774 174.041 30.6421 173.765 30.8099L173.609 30.9046C173.334 31.073 173.06 31.2439 172.788 31.4172L172.67 31.493C172.394 31.6701 172.12 31.8493 171.849 32.0305L171.813 32.0542C171.533 32.2392 171.265 32.4271 170.993 32.6173L170.859 32.7118C170.598 32.8959 170.339 33.0821 170.083 33.2703L169.938 33.3778C169.679 33.5698 169.421 33.7641 169.166 33.961L169.074 34.0331C168.821 34.229 168.57 34.4273 168.321 34.6281L168.258 34.6784C168.004 34.8836 167.753 35.0912 167.504 35.3013L167.372 35.4143C167.128 35.6199 166.888 35.8273 166.652 36.0367L166.522 36.1496C166.279 36.3643 166.038 36.5818 165.8 36.802L165.735 36.8624C165.502 37.0787 165.272 37.2968 165.042 37.5167L164.961 37.5947C164.729 37.8176 164.5 38.0434 164.273 38.2723L164.148 38.3996C163.925 38.6216 163.705 38.8488 163.487 39.0814L163.374 39.2015C163.15 39.4395 162.926 39.6797 162.705 39.922L162.671 39.9603C162.455 40.1984 162.241 40.4402 162.029 40.6828L161.94 40.7845C161.732 41.0254 161.524 41.2686 161.319 41.5138L161.203 41.6531C161.002 41.898 160.801 42.1443 160.603 42.3922L160.508 42.5124C160.302 42.7732 160.096 43.0361 159.893 43.3017C151.749 54.0267 147.836 68.1121 150.107 83.0158C152.377 97.9195 160.389 110.818 171.511 119.625C182.634 128.433 196.864 133.148 211.568 131.685C226.271 130.221 238.664 122.855 246.814 112.129C246.979 111.914 247.142 111.693 247.303 111.472L247.431 111.298C247.573 111.102 247.716 110.904 247.857 110.705L247.913 110.625C248.069 110.403 248.223 110.18 248.375 109.956L248.494 109.781C248.621 109.59 248.748 109.399 248.873 109.208L248.959 109.08C249.106 108.854 249.252 108.625 249.396 108.395L249.499 108.229C249.618 108.038 249.734 107.847 249.851 107.654C249.882 107.601 249.914 107.548 249.947 107.496C250.085 107.264 250.223 107.03 250.358 106.796L250.442 106.647C250.554 106.45 250.665 106.252 250.778 106.053L250.877 105.875C251.008 105.637 251.137 105.397 251.264 105.156L251.325 105.04C251.435 104.83 251.542 104.62 251.65 104.41L251.746 104.219C251.87 103.973 251.994 103.728 252.111 103.485L252.136 103.434C252.247 103.202 252.357 102.968 252.461 102.734L252.553 102.535C252.66 102.3 252.766 102.065 252.869 101.829L252.893 101.775C253.003 101.523 253.11 101.27 253.213 101.015C253.241 100.949 253.268 100.882 253.291 100.815C253.382 100.597 253.471 100.377 253.559 100.156L253.609 100.031C253.71 99.7762 253.808 99.5196 253.904 99.2621C256.984 91.0876 258.05 81.9209 256.6 72.4194ZM210.841 127.2C183.691 130.021 158.328 110.014 154.193 82.5117C150.058 55.0093 168.718 30.429 195.868 27.6079C223.018 24.7868 248.383 44.7935 252.518 72.2949C256.653 99.7963 237.994 124.379 210.841 127.2Z" fill="white"/>
<path d="M210.84 127.2C183.69 130.021 158.327 110.014 154.192 82.5117C150.058 55.0102 168.714 30.4293 195.867 27.6079C223.02 24.7865 248.382 44.7926 252.517 72.295C256.652 99.7974 237.99 124.379 210.84 127.2Z" fill="white"/>
<g clip-path="url(#clip1_991_106609)">
<path d="M208.241 127.254C235.895 125.834 256.182 102.394 253.553 74.8987C250.925 47.4036 226.376 26.2656 198.722 27.6857C171.068 29.1058 150.782 52.5463 153.41 80.0414C156.039 107.537 180.587 128.675 208.241 127.254Z" fill="#FF9B22"/>
<path d="M225.39 70.1539C225.75 63.5816 220.417 60.3316 213.364 58.3424L214.735 49.3919L209.2 48.3317L207.863 57.0459C206.408 56.7642 204.918 56.5092 203.431 56.2541L204.779 47.4831L199.243 46.4197L197.871 55.3671C196.669 55.1599 195.486 54.958 194.339 54.7355L194.343 54.7072L186.705 53.239L185.815 59.0568C185.815 59.0568 189.917 59.7654 189.838 59.8257C192.081 60.2577 192.613 61.6781 192.657 62.8265L188.903 87.3427C188.697 88.0161 188.112 89.0436 186.543 88.7458C186.607 88.8207 182.519 87.9738 182.519 87.9738L180.422 94.2663L187.631 95.6502C188.97 95.9098 190.286 96.1861 191.578 96.4419L190.194 105.493L195.727 106.553L197.098 97.603C198.613 97.9223 200.081 98.2158 201.516 98.4923L200.148 107.405L205.684 108.465L207.069 99.4329C216.46 100.695 223.328 99.6391 225.455 91.1939C227.17 84.3957 224.332 80.6673 219.239 78.4056C222.698 77.415 225.137 74.9665 225.39 70.1539ZM214.676 88.0203C213.647 94.7863 201.989 91.7548 198.234 91.0377L200.075 79.0457C203.83 79.769 215.76 80.9668 214.676 88.0203ZM214.694 70.6062C213.751 76.7613 204.042 74.155 200.919 73.5555L202.584 62.6826C205.707 63.282 215.678 64.1864 214.694 70.6062Z" fill="white"/>
</g>
</g>
<g clip-path="url(#clip2_991_106609)">
<path d="M128.723 104.684L128.757 104.708C128.882 104.797 129.008 104.885 129.135 104.972L129.202 105.018C129.311 105.093 129.42 105.166 129.529 105.242L129.625 105.305C129.754 105.39 129.883 105.473 130.013 105.556L130.072 105.593C130.187 105.665 130.302 105.736 130.418 105.807L130.519 105.867C130.651 105.947 130.785 106.026 130.918 106.104L130.961 106.129C131.084 106.199 131.206 106.269 131.329 106.337L131.434 106.393C131.57 106.468 131.707 106.543 131.845 106.617L131.867 106.629C131.999 106.698 132.131 106.766 132.263 106.833L132.372 106.889C132.51 106.958 132.648 107.027 132.787 107.094L132.794 107.097C132.935 107.165 133.077 107.231 133.22 107.297L133.329 107.346C133.461 107.407 133.594 107.466 133.728 107.524L133.762 107.539C133.905 107.601 134.05 107.662 134.194 107.722L134.303 107.766C134.433 107.822 134.563 107.872 134.693 107.922L134.748 107.944C134.894 108 135.04 108.056 135.187 108.112L135.296 108.152C135.424 108.198 135.552 108.244 135.682 108.288L135.754 108.314C135.901 108.364 136.05 108.414 136.199 108.462L136.309 108.497C136.436 108.538 136.564 108.578 136.693 108.617L136.778 108.642C136.928 108.687 137.079 108.731 137.231 108.774L137.34 108.803C137.468 108.839 137.597 108.873 137.726 108.907L137.822 108.932C137.975 108.971 138.128 109.009 138.282 109.044L138.386 109.068C138.515 109.098 138.646 109.128 138.776 109.157L138.882 109.18C139.037 109.213 139.193 109.245 139.349 109.276L139.445 109.294C139.578 109.32 139.712 109.344 139.845 109.368L139.957 109.388C140.114 109.416 140.273 109.442 140.432 109.466L140.518 109.479C140.655 109.5 140.791 109.52 140.928 109.539L141.047 109.555C141.207 109.576 141.368 109.596 141.529 109.615L141.604 109.623C141.746 109.639 141.887 109.653 142.029 109.667L142.152 109.679C142.315 109.694 142.479 109.708 142.642 109.72L142.701 109.725C142.849 109.735 142.997 109.745 143.145 109.753L143.271 109.76C143.435 109.769 143.602 109.777 143.769 109.782H143.801C143.958 109.787 144.116 109.791 144.273 109.794H144.402C144.57 109.794 144.739 109.798 144.907 109.794C153.121 109.758 160.717 106.233 166.362 100.563C172.007 94.8931 175.698 87.0813 176.096 78.4663C176.494 69.8514 173.525 62.0665 168.404 56.4447C168.249 56.2767 168.092 56.1087 167.934 55.9406C167.883 55.8874 167.832 55.8353 167.78 55.7832C167.671 55.6712 167.561 55.5592 167.45 55.4472C167.39 55.3874 167.329 55.3279 167.269 55.2685C167.162 55.1647 167.056 55.0618 166.948 54.9599L166.764 54.7863C166.648 54.6787 166.531 54.5729 166.414 54.467C166.36 54.4188 166.305 54.3701 166.253 54.3225C166.082 54.1705 165.909 54.0211 165.735 53.8744L165.721 53.8632C165.551 53.7198 165.379 53.5787 165.205 53.4398C165.148 53.3938 165.089 53.3485 165.032 53.3031C164.909 53.2064 164.785 53.1106 164.662 53.0158C164.594 52.9642 164.527 52.9138 164.459 52.8634C164.34 52.7742 164.221 52.6862 164.101 52.5996C164.06 52.5705 164.021 52.5402 163.98 52.5111L166.146 54.0587C167.751 55.2062 169.233 56.5243 170.569 57.9912C172.472 60.0814 174.064 62.4491 175.293 65.0177L175.256 64.9387L175.268 64.9639L175.28 64.9885L175.304 65.039C175.312 65.0535 175.321 65.0737 175.328 65.0888L175.34 65.114L175.364 65.1639L175.388 65.2137L175.401 65.2389L175.425 65.2888L175.437 65.314L175.461 65.3638L175.473 65.389C175.481 65.4041 175.49 65.4237 175.497 65.4389C177.629 69.8592 178.725 74.9478 178.474 80.3701C178.08 88.9027 174.426 96.6423 168.836 102.258C163.247 107.873 155.721 111.363 147.587 111.4C146.529 111.406 145.472 111.351 144.42 111.237L143.879 111.181C144.006 111.196 144.133 111.208 144.261 111.22C139.286 110.749 134.731 108.98 130.889 106.235L128.723 104.684Z" fill="#DFE3EB"/>
<path d="M119.394 93.3455C119.461 93.485 119.529 93.6255 119.599 93.7617L119.634 93.8289C119.694 93.948 119.756 94.0667 119.818 94.1851C119.836 94.2215 119.855 94.2573 119.872 94.2932C119.945 94.4306 120.018 94.5671 120.09 94.7026L120.107 94.7318C120.177 94.8589 120.248 94.9849 120.32 95.1109L120.382 95.2179C120.454 95.3434 120.528 95.4689 120.6 95.5932L120.616 95.6206C120.696 95.7534 120.776 95.8844 120.858 96.0127L120.921 96.1152C120.992 96.2272 121.063 96.3393 121.135 96.4513L121.175 96.5129C121.258 96.6413 121.343 96.7689 121.428 96.8954L121.492 96.9901C121.564 97.0954 121.636 97.2007 121.71 97.3049L121.765 97.3838C121.852 97.5082 121.941 97.632 122.03 97.7546C122.05 97.7826 122.071 97.8106 122.091 97.8381C122.166 97.94 122.241 98.0409 122.316 98.1417L122.382 98.229C122.475 98.35 122.567 98.4703 122.66 98.5898L122.715 98.6564C122.795 98.7572 122.875 98.8575 122.955 98.9572L123.03 99.049C123.126 99.1667 123.223 99.2833 123.321 99.3991L123.357 99.4411C123.445 99.5447 123.534 99.6478 123.624 99.7503L123.703 99.841C123.804 99.953 123.906 100.07 124.009 100.183C129.082 105.751 136.287 109.176 144.423 109.14C152.558 109.105 160.082 105.612 165.672 99.9973C171.262 94.3828 174.921 86.6455 175.315 78.1124C175.709 69.5792 172.769 61.8693 167.696 56.3013C167.571 56.1636 167.443 56.0275 167.315 55.8925L167.256 55.8303C167.133 55.7022 167.009 55.5751 166.885 55.4489L166.814 55.3772C166.688 55.2513 166.56 55.1264 166.432 55.0025L166.378 54.9504C166.248 54.826 166.117 54.7023 165.985 54.5807L165.964 54.5611C165.829 54.4371 165.694 54.3148 165.557 54.1942L165.488 54.1332C165.355 54.0167 165.222 53.9015 165.087 53.7876L165.011 53.7232C164.874 53.6086 164.736 53.4947 164.596 53.3815L164.547 53.3423C164.409 53.2303 164.27 53.1209 164.131 53.0141L164.092 52.9839C163.949 52.8718 163.805 52.7634 163.659 52.6584L163.581 52.6024C163.439 52.4982 163.296 52.3954 163.152 52.2938L163.073 52.2378C162.925 52.1344 162.776 52.0321 162.625 51.9309L162.588 51.9062C162.44 51.8076 162.291 51.7106 162.142 51.615L162.087 51.5797C161.936 51.4833 161.784 51.3889 161.631 51.2963L161.545 51.2442C161.394 51.1531 161.242 51.0633 161.089 50.9748L161.009 50.9277C160.849 50.8364 160.69 50.7462 160.528 50.6583L160.507 50.6471C160.349 50.5605 160.189 50.4755 160.027 50.3923L159.958 50.3564C159.799 50.2746 159.64 50.1944 159.479 50.1156L159.388 50.0713C159.228 49.9936 159.067 49.9171 158.905 49.8417L158.829 49.8075C158.66 49.7302 158.491 49.6555 158.32 49.5835L158.314 49.5807C158.143 49.5067 157.97 49.4345 157.797 49.3639L157.716 49.3309C157.55 49.2636 157.383 49.1981 157.216 49.1343L157.12 49.0984C156.951 49.0346 156.782 48.9724 156.611 48.9119L156.541 48.8873C156.37 48.8271 156.198 48.7685 156.025 48.7114L155.992 48.7007C155.816 48.6432 155.638 48.5872 155.46 48.5327L155.369 48.5047C155.198 48.4517 155.024 48.4005 154.849 48.3512L154.751 48.3244C154.574 48.2758 154.395 48.2286 154.216 48.1826L154.158 48.1681C153.981 48.124 153.804 48.0815 153.626 48.0404L153.571 48.0281C153.39 47.9866 153.208 47.9474 153.026 47.9099L152.928 47.8897C152.748 47.8533 152.568 47.8191 152.387 47.7861L152.291 47.7693C152.106 47.7351 151.92 47.7054 151.732 47.6791L151.689 47.6724C151.506 47.6444 151.321 47.6179 151.137 47.5929L151.066 47.5833C150.88 47.5592 150.693 47.5368 150.506 47.5161L150.451 47.5094L150.991 47.5671C155.707 48.0675 160.221 49.8004 164.1 52.6007C164.221 52.6874 164.341 52.7753 164.459 52.8646C164.527 52.915 164.594 52.9654 164.661 53.0169C164.786 53.1114 164.909 53.2071 165.032 53.3042C165.089 53.3496 165.148 53.395 165.205 53.4409C165.378 53.5798 165.55 53.721 165.721 53.8643L165.735 53.8755C165.909 54.023 166.082 54.1724 166.253 54.3236C166.308 54.3712 166.362 54.42 166.414 54.4681C166.531 54.574 166.648 54.6798 166.764 54.7874L166.948 54.961C167.057 55.063 167.164 55.1658 167.268 55.2696C167.329 55.329 167.389 55.3886 167.449 55.4483C167.561 55.5603 167.671 55.6724 167.78 55.7844C167.832 55.8365 167.883 55.8886 167.934 55.9418C168.092 56.1098 168.249 56.2745 168.403 56.4459C173.525 62.0665 176.492 69.8514 176.096 78.4663C175.7 87.0813 172.007 94.8953 166.365 100.565C160.723 106.234 153.124 109.759 144.91 109.795C144.742 109.795 144.573 109.795 144.405 109.795H144.276C144.118 109.792 143.961 109.788 143.805 109.783H143.772C143.606 109.777 143.44 109.769 143.274 109.76L143.148 109.754C142.999 109.745 142.851 109.736 142.704 109.725L142.645 109.721C142.482 109.708 142.318 109.694 142.155 109.68L142.032 109.668C141.89 109.654 141.749 109.639 141.607 109.623L141.532 109.615C141.369 109.597 141.211 109.577 141.05 109.555L140.931 109.539C140.795 109.52 140.658 109.5 140.521 109.48L140.435 109.467C140.276 109.442 140.117 109.416 139.96 109.389L139.848 109.369C139.715 109.345 139.581 109.32 139.449 109.295L139.352 109.277C139.196 109.246 139.04 109.214 138.885 109.18L138.779 109.157C138.649 109.129 138.518 109.099 138.389 109.069L138.285 109.045C138.131 109.008 137.978 108.97 137.826 108.933L137.729 108.907C137.6 108.874 137.471 108.839 137.343 108.804L137.234 108.774C137.083 108.732 136.931 108.688 136.781 108.643L136.696 108.617C136.567 108.58 136.439 108.54 136.312 108.497L136.203 108.463C136.053 108.415 135.905 108.365 135.757 108.314L135.685 108.289C135.555 108.245 135.427 108.199 135.299 108.152L135.19 108.113C135.044 108.057 134.897 108.003 134.751 107.945L134.696 107.923C134.566 107.872 134.436 107.82 134.306 107.767L134.197 107.722C134.053 107.662 133.908 107.602 133.765 107.54L133.731 107.525C133.597 107.466 133.464 107.407 133.332 107.347L133.223 107.297C133.08 107.232 132.938 107.166 132.797 107.098L132.79 107.094C132.651 107.027 132.513 106.959 132.375 106.89L132.266 106.834C132.133 106.767 132.001 106.699 131.87 106.629L131.848 106.618C131.71 106.545 131.575 106.47 131.437 106.394L131.333 106.338C131.209 106.269 131.087 106.2 130.965 106.129L130.921 106.105C130.787 106.027 130.654 105.948 130.522 105.868L130.421 105.807C130.305 105.737 130.19 105.666 130.075 105.593L130.016 105.556C129.886 105.474 129.757 105.39 129.628 105.306L129.532 105.243C129.423 105.169 129.314 105.095 129.205 105.019L129.138 104.973C129.011 104.886 128.885 104.797 128.76 104.708C127.143 103.555 125.649 102.23 124.303 100.753C122.421 98.6846 120.843 96.3448 119.619 93.8076C119.537 93.6407 119.457 93.4739 119.377 93.3074C119.38 93.3192 119.387 93.3321 119.394 93.3455Z" fill="#F0F2F7"/>
<path d="M116.395 78.3728C116.789 69.8396 120.444 62.1007 126.033 56.4851C131.623 50.8694 139.148 47.3794 147.283 47.343C148.36 47.3374 149.436 47.3935 150.506 47.5111C150.694 47.5318 150.88 47.5542 151.067 47.5783L151.137 47.5878C151.322 47.6147 151.505 47.6419 151.687 47.6696L151.73 47.6763C151.918 47.7054 152.104 47.7373 152.29 47.7704L152.387 47.7872C152.568 47.8202 152.747 47.8544 152.927 47.8908L153.025 47.911C153.208 47.9485 153.391 47.9877 153.571 48.0292L153.625 48.0415C153.803 48.0822 153.98 48.1248 154.157 48.1692L154.216 48.1838C154.395 48.2293 154.573 48.2765 154.75 48.3255L154.849 48.3512C155.024 48.4001 155.197 48.4504 155.37 48.5019L155.46 48.5299C155.638 48.5837 155.816 48.6397 155.992 48.6979L156.025 48.7086C156.198 48.7657 156.37 48.8243 156.542 48.8844L156.612 48.9091C156.782 48.9696 156.952 49.0317 157.121 49.0956L157.216 49.1314C157.383 49.1953 157.55 49.2608 157.717 49.328L157.797 49.3611C157.97 49.4317 158.143 49.5039 158.314 49.5778L158.32 49.5807C158.491 49.6553 158.66 49.73 158.829 49.8047L158.905 49.8394C159.067 49.9141 159.228 49.9906 159.389 50.0691L159.48 50.1133C159.64 50.1921 159.8 50.2724 159.958 50.3542L160.027 50.39C160.189 50.4736 160.349 50.5586 160.507 50.6448L160.529 50.656C160.692 50.744 160.85 50.8342 161.01 50.9255L161.089 50.9708C161.242 51.0593 161.394 51.1491 161.545 51.2402L161.631 51.2923C161.784 51.3853 161.936 51.4798 162.087 51.5757L162.141 51.611C162.291 51.7066 162.439 51.8037 162.587 51.9023L162.625 51.9269C162.775 52.0277 162.925 52.1301 163.073 52.2339L163.152 52.2899C163.297 52.3914 163.44 52.4943 163.581 52.5985L163.659 52.6545C163.805 52.7613 163.949 52.8698 164.091 52.9799L164.131 53.0102C164.27 53.1185 164.409 53.2279 164.547 53.3384L164.596 53.3776C164.736 53.4896 164.874 53.6035 165.011 53.7193L165.087 53.7837C165.222 53.8957 165.355 54.0109 165.488 54.1293L165.556 54.1903C165.693 54.3113 165.829 54.4336 165.964 54.5572L165.985 54.5768C166.117 54.6983 166.248 54.8221 166.377 54.9464L166.432 54.9985C166.56 55.1221 166.687 55.247 166.814 55.3732L166.885 55.4449C167.009 55.5711 167.133 55.6983 167.256 55.8264L167.315 55.8885C167.442 56.0235 167.57 56.1596 167.696 56.2974C172.766 61.8654 175.71 69.5752 175.315 78.1084C174.92 86.6416 171.267 94.3806 165.677 99.9962C160.087 105.612 152.563 109.103 144.427 109.139C136.292 109.176 129.087 105.75 124.013 100.182C123.911 100.07 123.809 99.9547 123.708 99.8399L123.628 99.7492C123.539 99.6467 123.45 99.5436 123.361 99.44L123.326 99.398C123.228 99.2818 123.131 99.1652 123.035 99.0479L122.96 98.9561C122.879 98.8563 122.799 98.7561 122.72 98.6553L122.665 98.5886C122.572 98.4695 122.479 98.3493 122.387 98.2279L122.321 98.1405C122.245 98.0397 122.171 97.9389 122.096 97.837C122.076 97.809 122.055 97.781 122.034 97.7535C121.945 97.6308 121.857 97.5071 121.769 97.3827L121.715 97.3037C121.642 97.1996 121.57 97.0943 121.497 96.989L121.432 96.8943C121.347 96.7677 121.263 96.6402 121.18 96.5118L121.14 96.4501C121.068 96.3381 120.997 96.2261 120.926 96.1141L120.862 96.0116C120.78 95.8805 120.699 95.7495 120.621 95.6195L120.604 95.5921C120.53 95.4677 120.457 95.3423 120.386 95.2168L120.325 95.1098C120.253 94.9838 120.181 94.8578 120.112 94.7306L120.095 94.7015C120.021 94.566 119.948 94.4295 119.877 94.2921C119.858 94.2562 119.839 94.2204 119.823 94.184C119.76 94.066 119.699 93.9472 119.638 93.8277L119.604 93.7605C119.534 93.6227 119.466 93.4838 119.398 93.3444C117.247 88.9173 116.142 83.8131 116.395 78.3728ZM144.57 106.569C159.599 106.569 172.349 93.807 173.049 78.0636C173.748 62.3202 162.131 49.5588 147.103 49.5588C132.074 49.5588 119.323 62.3208 118.623 78.0636C117.924 93.8065 129.54 106.569 144.57 106.569Z" fill="white"/>
<g filter="url(#filter0_b_991_106609)">
<path d="M144.57 106.569C159.598 106.569 172.349 93.8071 173.048 78.0637C173.747 62.3208 162.132 49.5588 147.102 49.5588C132.072 49.5588 119.322 62.3202 118.623 78.0637C117.923 93.8071 129.541 106.569 144.57 106.569Z" fill="url(#paint0_linear_991_106609)"/>
<path d="M173.109 78.0663C172.408 93.8397 159.633 106.63 144.57 106.63C129.504 106.63 117.861 93.836 118.562 78.061C119.263 62.2876 132.037 49.4981 147.102 49.4981C162.169 49.4981 173.809 62.2919 173.109 78.0663Z" stroke="#00B083" stroke-width="0.121552"/>
</g>
<g filter="url(#filter1_d_991_106609)">
<path d="M128.959 78.6581C129.021 76.1228 131.071 73.9612 133.538 73.83L138.005 73.5925C140.472 73.4613 142.421 75.4103 142.359 77.9456L142.098 88.657C142.036 91.1923 139.986 93.354 137.519 93.4851L133.052 93.7227C130.585 93.8538 128.635 91.9049 128.697 89.3696L128.959 78.6581Z" fill="white"/>
</g>
<g filter="url(#filter2_d_991_106609)">
<path fill-rule="evenodd" clip-rule="evenodd" d="M145.599 67.0757C145.661 64.5404 147.711 62.3788 150.178 62.2476L154.645 62.0101C157.112 61.8789 159.062 63.8279 159 66.3632L158.476 87.7861C158.414 90.3214 156.364 92.483 153.897 92.6142L149.43 92.8517C146.963 92.9829 145.014 91.0339 145.076 88.4986L145.599 67.0757Z" fill="white"/>
</g>
</g>
<g filter="url(#filter3_b_991_106609)">
<rect x="216.418" y="23.4783" width="24.0744" height="24.0217" rx="12.0109" fill="#05183D" fill-opacity="0.25"/>
</g>
<g style="mix-blend-mode:hard-light" filter="url(#filter4_b_991_106609)">
<rect x="216.418" y="23.4783" width="24.0744" height="24.0217" rx="12.0109" fill="white" fill-opacity="0.25"/>
<g style="mix-blend-mode:multiply" opacity="0.75">
<path fill-rule="evenodd" clip-rule="evenodd" d="M226.951 32.2361C226.951 33.2035 226.165 33.9877 225.196 33.9877C224.226 33.9877 223.44 33.2035 223.44 32.2361C223.44 31.2687 224.226 30.4845 225.196 30.4845C226.165 30.4845 226.951 31.2687 226.951 32.2361Z" fill="#121D33"/>
<path fill-rule="evenodd" clip-rule="evenodd" d="M233.471 38.742C233.471 39.7093 232.685 40.4936 231.716 40.4936C230.746 40.4936 229.961 39.7093 229.961 38.742C229.961 37.7746 230.746 36.9904 231.716 36.9904C232.685 36.9904 233.471 37.7746 233.471 38.742Z" fill="#121D33"/>
<path fill-rule="evenodd" clip-rule="evenodd" d="M232.978 31.5079L232.446 30.9771C232.005 30.5374 231.29 30.5374 230.85 30.9771L223.934 37.8776C223.493 38.3174 223.493 39.0303 223.934 39.4701L224.466 40.0009C224.907 40.4406 225.621 40.4406 226.062 40.0009L232.978 33.1003C233.418 32.6606 233.418 31.9476 232.978 31.5079Z" fill="#121D33"/>
</g>
<rect x="216.358" y="23.4175" width="24.196" height="24.1433" rx="12.0716" stroke="#B8B9BD" stroke-width="0.121552"/>
</g>
<g filter="url(#filter5_b_991_106609)">
<rect x="158.357" y="88.4783" width="24.0744" height="24.0217" rx="12.0109" fill="#05183D" fill-opacity="0.25"/>
</g>
<g style="mix-blend-mode:hard-light" filter="url(#filter6_b_991_106609)">
<rect x="158.357" y="88.4783" width="24.0744" height="24.0217" rx="12.0109" fill="white" fill-opacity="0.25"/>
<g style="mix-blend-mode:multiply" opacity="0.75">
<path fill-rule="evenodd" clip-rule="evenodd" d="M168.89 97.2361C168.89 98.2035 168.104 98.9877 167.135 98.9877C166.165 98.9877 165.379 98.2035 165.379 97.2361C165.379 96.2687 166.165 95.4845 167.135 95.4845C168.104 95.4845 168.89 96.2687 168.89 97.2361Z" fill="#121D33"/>
<path fill-rule="evenodd" clip-rule="evenodd" d="M175.41 103.742C175.41 104.709 174.624 105.494 173.655 105.494C172.685 105.494 171.899 104.709 171.899 103.742C171.899 102.775 172.685 101.99 173.655 101.99C174.624 101.99 175.41 102.775 175.41 103.742Z" fill="#121D33"/>
<path fill-rule="evenodd" clip-rule="evenodd" d="M174.916 96.5079L174.385 95.9771C173.944 95.5374 173.229 95.5374 172.789 95.9771L165.873 102.878C165.432 103.317 165.432 104.03 165.873 104.47L166.405 105.001C166.846 105.441 167.56 105.441 168.001 105.001L174.916 98.1003C175.357 97.6606 175.357 96.9476 174.916 96.5079Z" fill="#121D33"/>
</g>
<rect x="158.296" y="88.4175" width="24.196" height="24.1433" rx="12.0716" stroke="#B8B9BD" stroke-width="0.121552"/>
</g>
<g filter="url(#filter7_b_991_106609)">
<rect x="225.069" y="112.211" width="19.4483" height="19.4483" rx="9.72417" fill="#05183D" fill-opacity="0.25"/>
</g>
<g style="mix-blend-mode:hard-light" filter="url(#filter8_b_991_106609)">
<rect x="225.069" y="112.211" width="19.4483" height="19.4483" rx="9.72417" fill="white" fill-opacity="0.25"/>
<g style="mix-blend-mode:multiply" opacity="0.75" clip-path="url(#clip3_991_106609)">
<path fill-rule="evenodd" clip-rule="evenodd" d="M233.578 119.302C233.578 120.085 232.943 120.72 232.16 120.72C231.376 120.72 230.741 120.085 230.741 119.302C230.741 118.519 231.376 117.884 232.16 117.884C232.943 117.884 233.578 118.519 233.578 119.302Z" fill="#121D33"/>
<path fill-rule="evenodd" clip-rule="evenodd" d="M238.845 124.569C238.845 125.352 238.21 125.987 237.427 125.987C236.644 125.987 236.009 125.352 236.009 124.569C236.009 123.786 236.644 123.151 237.427 123.151C238.21 123.151 238.845 123.786 238.845 124.569Z" fill="#121D33"/>
<path fill-rule="evenodd" clip-rule="evenodd" d="M238.446 118.712L238.016 118.283C237.66 117.927 237.083 117.927 236.727 118.283L231.14 123.869C230.784 124.225 230.784 124.803 231.14 125.159L231.57 125.588C231.926 125.944 232.503 125.944 232.859 125.588L238.446 120.002C238.802 119.646 238.802 119.068 238.446 118.712Z" fill="#121D33"/>
</g>
<rect x="225.008" y="112.151" width="19.5699" height="19.5699" rx="9.78495" stroke="#B8B9BD" stroke-width="0.121552"/>
</g>
<defs>
<filter id="filter0_b_991_106609" x="99.0226" y="29.9889" width="93.6253" height="96.15" filterUnits="userSpaceOnUse" color-interpolation-filters="sRGB">
<feFlood flood-opacity="0" result="BackgroundImageFix"/>
<feGaussianBlur in="BackgroundImageFix" stdDeviation="9.72417"/>
<feComposite in2="SourceAlpha" operator="in" result="effect1_backgroundBlur_991_106609"/>
<feBlend mode="normal" in="SourceGraphic" in2="effect1_backgroundBlur_991_106609" result="shape"/>
</filter>
<filter id="filter1_d_991_106609" x="128.088" y="73.5862" width="16.0961" height="22.5737" filterUnits="userSpaceOnUse" color-interpolation-filters="sRGB">
<feFlood flood-opacity="0" result="BackgroundImageFix"/>
<feColorMatrix in="SourceAlpha" type="matrix" values="0 0 0 0 0 0 0 0 0 0 0 0 0 0 0 0 0 0 127 0" result="hardAlpha"/>
<feOffset dx="0.607761" dy="1.21552"/>
<feGaussianBlur stdDeviation="0.607761"/>
<feComposite in2="hardAlpha" operator="out"/>
<feColorMatrix type="matrix" values="0 0 0 0 0 0 0 0 0 0 0 0 0 0 0 0 0 0 0.25 0"/>
<feBlend mode="normal" in2="BackgroundImageFix" result="effect1_dropShadow_991_106609"/>
<feBlend mode="normal" in="SourceGraphic" in2="effect1_dropShadow_991_106609" result="shape"/>
</filter>
<filter id="filter2_d_991_106609" x="144.467" y="62.0038" width="16.3578" height="33.2852" filterUnits="userSpaceOnUse" color-interpolation-filters="sRGB">
<feFlood flood-opacity="0" result="BackgroundImageFix"/>
<feColorMatrix in="SourceAlpha" type="matrix" values="0 0 0 0 0 0 0 0 0 0 0 0 0 0 0 0 0 0 127 0" result="hardAlpha"/>
<feOffset dx="0.607761" dy="1.21552"/>
<feGaussianBlur stdDeviation="0.607761"/>
<feComposite in2="hardAlpha" operator="out"/>
<feColorMatrix type="matrix" values="0 0 0 0 0 0 0 0 0 0 0 0 0 0 0 0 0 0 0.25 0"/>
<feBlend mode="normal" in2="BackgroundImageFix" result="effect1_dropShadow_991_106609"/>
<feBlend mode="normal" in="SourceGraphic" in2="effect1_dropShadow_991_106609" result="shape"/>
</filter>
<filter id="filter3_b_991_106609" x="210.341" y="17.4007" width="36.2296" height="36.1769" filterUnits="userSpaceOnUse" color-interpolation-filters="sRGB">
<feFlood flood-opacity="0" result="BackgroundImageFix"/>
<feGaussianBlur in="BackgroundImageFix" stdDeviation="3.0388"/>
<feComposite in2="SourceAlpha" operator="in" result="effect1_backgroundBlur_991_106609"/>
<feBlend mode="normal" in="SourceGraphic" in2="effect1_backgroundBlur_991_106609" result="shape"/>
</filter>
<filter id="filter4_b_991_106609" x="196.848" y="3.90835" width="63.2142" height="63.1616" filterUnits="userSpaceOnUse" color-interpolation-filters="sRGB">
<feFlood flood-opacity="0" result="BackgroundImageFix"/>
<feGaussianBlur in="BackgroundImageFix" stdDeviation="9.72417"/>
<feComposite in2="SourceAlpha" operator="in" result="effect1_backgroundBlur_991_106609"/>
<feBlend mode="normal" in="SourceGraphic" in2="effect1_backgroundBlur_991_106609" result="shape"/>
</filter>
<filter id="filter5_b_991_106609" x="152.28" y="82.4007" width="36.2296" height="36.1769" filterUnits="userSpaceOnUse" color-interpolation-filters="sRGB">
<feFlood flood-opacity="0" result="BackgroundImageFix"/>
<feGaussianBlur in="BackgroundImageFix" stdDeviation="3.0388"/>
<feComposite in2="SourceAlpha" operator="in" result="effect1_backgroundBlur_991_106609"/>
<feBlend mode="normal" in="SourceGraphic" in2="effect1_backgroundBlur_991_106609" result="shape"/>
</filter>
<filter id="filter6_b_991_106609" x="138.787" y="68.9083" width="63.2142" height="63.1616" filterUnits="userSpaceOnUse" color-interpolation-filters="sRGB">
<feFlood flood-opacity="0" result="BackgroundImageFix"/>
<feGaussianBlur in="BackgroundImageFix" stdDeviation="9.72417"/>
<feComposite in2="SourceAlpha" operator="in" result="effect1_backgroundBlur_991_106609"/>
<feBlend mode="normal" in="SourceGraphic" in2="effect1_backgroundBlur_991_106609" result="shape"/>
</filter>
<filter id="filter7_b_991_106609" x="218.991" y="106.134" width="31.6036" height="31.6036" filterUnits="userSpaceOnUse" color-interpolation-filters="sRGB">
<feFlood flood-opacity="0" result="BackgroundImageFix"/>
<feGaussianBlur in="BackgroundImageFix" stdDeviation="3.0388"/>
<feComposite in2="SourceAlpha" operator="in" result="effect1_backgroundBlur_991_106609"/>
<feBlend mode="normal" in="SourceGraphic" in2="effect1_backgroundBlur_991_106609" result="shape"/>
</filter>
<filter id="filter8_b_991_106609" x="205.499" y="92.6414" width="58.5881" height="58.5882" filterUnits="userSpaceOnUse" color-interpolation-filters="sRGB">
<feFlood flood-opacity="0" result="BackgroundImageFix"/>
<feGaussianBlur in="BackgroundImageFix" stdDeviation="9.72417"/>
<feComposite in2="SourceAlpha" operator="in" result="effect1_backgroundBlur_991_106609"/>
<feBlend mode="normal" in="SourceGraphic" in2="effect1_backgroundBlur_991_106609" result="shape"/>
</filter>
<linearGradient id="paint0_linear_991_106609" x1="145.835" y1="49.5588" x2="162.527" y2="99.6953" gradientUnits="userSpaceOnUse">
<stop stop-color="#69ECCA"/>
<stop offset="1" stop-color="#00B083"/>
</linearGradient>
<clipPath id="clip0_991_106609">
<rect width="112.885" height="113.043" fill="white" transform="translate(138.724 29.6144) rotate(-5.9322)"/>
</clipPath>
<clipPath id="clip1_991_106609">
<rect width="100.275" height="100.023" fill="white" transform="matrix(0.998684 -0.051286 0.0951684 0.995461 148.651 30.2571)"/>
</clipPath>
<clipPath id="clip2_991_106609">
<rect width="62.1501" height="64.058" fill="white" transform="matrix(-1 0 0 1 178.51 47.343)"/>
</clipPath>
<clipPath id="clip3_991_106609">
<rect width="9.72417" height="9.72417" fill="white" transform="translate(229.931 117.073)"/>
</clipPath>
</defs>
</svg>
