<svg width="281" height="160" viewBox="0 0 281 160" fill="none" xmlns="http://www.w3.org/2000/svg">
<g clip-path="url(#clip0_991_105958)">
<path d="M186.455 93.6146L186.504 93.6485C186.681 93.7739 186.86 93.8985 187.04 94.0208L187.136 94.0854C187.291 94.1903 187.446 94.2944 187.601 94.4009L187.737 94.49C187.92 94.6088 188.104 94.7263 188.289 94.8425L188.372 94.8945C188.535 94.9963 188.699 95.0964 188.863 95.1958L189.007 95.281C189.195 95.394 189.385 95.5052 189.575 95.6145L189.636 95.6493C189.809 95.7486 189.984 95.8464 190.159 95.9426L190.308 96.0215C190.501 96.1272 190.695 96.232 190.891 96.3369L190.923 96.3535C191.11 96.4507 191.297 96.5467 191.486 96.6413L191.641 96.7202C191.837 96.8172 192.033 96.9134 192.231 97.008L192.241 97.0128C192.441 97.1082 192.643 97.2012 192.845 97.2935L193 97.3637C193.188 97.4483 193.377 97.5317 193.567 97.6137L193.616 97.635C193.82 97.7225 194.025 97.8077 194.23 97.8921L194.385 97.9552C194.569 98.034 194.754 98.1034 194.939 98.1744L195.017 98.2051C195.224 98.284 195.433 98.3629 195.641 98.4417L195.796 98.4977C195.978 98.5632 196.16 98.6278 196.344 98.6901L196.446 98.7256C196.656 98.7971 196.867 98.8668 197.08 98.9346L197.235 98.9835C197.416 99.0413 197.598 99.0976 197.781 99.1523L197.902 99.1886C198.116 99.2516 198.33 99.3132 198.546 99.3731L198.701 99.4149C198.883 99.4646 199.066 99.5135 199.249 99.5608L199.386 99.5963C199.603 99.6515 199.821 99.7043 200.039 99.754L200.187 99.7879C200.371 99.8305 200.556 99.872 200.741 99.9125L200.892 99.9448C201.112 99.9921 201.333 100.037 201.556 100.08L201.693 100.106C201.881 100.142 202.071 100.177 202.26 100.211L202.419 100.238C202.643 100.277 202.868 100.314 203.094 100.349L203.217 100.367C203.411 100.396 203.605 100.424 203.8 100.45L203.969 100.473C204.197 100.503 204.425 100.532 204.654 100.558L204.761 100.569C204.961 100.591 205.162 100.612 205.364 100.632L205.539 100.648C205.771 100.669 206.004 100.688 206.236 100.706L206.319 100.712C206.529 100.727 206.739 100.74 206.95 100.752L207.129 100.762C207.362 100.774 207.6 100.785 207.837 100.793H207.883C208.106 100.8 208.33 100.806 208.553 100.81H208.737C208.976 100.81 209.215 100.815 209.454 100.81C221.128 100.759 231.922 95.7959 239.944 87.8128C247.966 79.8296 253.212 68.8308 253.778 56.7011C254.343 44.5715 250.124 33.6105 242.846 25.6952C242.627 25.4586 242.403 25.222 242.178 24.9854C242.106 24.9105 242.033 24.8372 241.96 24.7638C241.805 24.6061 241.649 24.4484 241.49 24.2907C241.405 24.2065 241.319 24.1227 241.233 24.0391C241.082 23.8929 240.93 23.7481 240.777 23.6046L240.515 23.3601C240.351 23.2087 240.185 23.0596 240.019 22.9106C239.941 22.8428 239.864 22.7742 239.79 22.7071C239.547 22.4931 239.301 22.2828 239.053 22.0762L239.034 22.0605C238.792 21.8586 238.547 21.6598 238.3 21.4643C238.219 21.3996 238.136 21.3357 238.054 21.2718C237.879 21.1357 237.704 21.0008 237.528 20.8673C237.433 20.7947 237.336 20.7238 237.24 20.6528C237.072 20.5271 236.902 20.4033 236.731 20.2813C236.673 20.2403 236.618 20.1977 236.559 20.1567L239.638 22.3357C241.918 23.9514 244.025 25.8072 245.923 27.8725C248.628 30.8155 250.89 34.1493 252.637 37.7657L252.584 37.6545L252.601 37.69L252.618 37.7247L252.652 37.7957C252.663 37.8162 252.676 37.8446 252.687 37.8659L252.704 37.9014L252.738 37.9715L252.772 38.0417L252.79 38.0772L252.824 38.1474L252.841 38.1829L252.875 38.2531L252.892 38.2886C252.903 38.3099 252.917 38.3375 252.927 38.3588C255.956 44.5825 257.514 51.7471 257.157 59.3816C256.597 71.3954 251.405 82.2925 243.461 90.1991C235.517 98.1058 224.823 103.019 213.262 103.072C211.759 103.079 210.257 103.003 208.762 102.842L207.994 102.763C208.174 102.783 208.354 102.801 208.536 102.818C201.467 102.155 194.993 99.6633 189.534 95.7991L186.455 93.6146Z" fill="#DFE3EB"/>
<path d="M173.197 77.6506C173.293 77.8469 173.39 78.0449 173.489 78.2365L173.538 78.3311C173.624 78.4989 173.711 78.666 173.8 78.8327C173.826 78.884 173.853 78.9344 173.877 78.9849C173.98 79.1784 174.084 79.3705 174.187 79.5614L174.21 79.6024C174.309 79.7814 174.411 79.9588 174.513 80.1363L174.601 80.2869C174.704 80.4636 174.808 80.6402 174.911 80.8153L174.934 80.8539C175.047 81.0408 175.161 81.2254 175.277 81.406L175.368 81.5503C175.468 81.708 175.569 81.8657 175.671 82.0234L175.728 82.1102C175.847 82.291 175.967 82.4706 176.087 82.6488L176.179 82.7821C176.28 82.9303 176.383 83.0786 176.489 83.2253L176.566 83.3365C176.69 83.5116 176.817 83.6858 176.943 83.8585C176.972 83.898 177.002 83.9374 177.03 83.9761C177.137 84.1196 177.243 84.2615 177.35 84.4035L177.444 84.5265C177.575 84.6968 177.707 84.8661 177.839 85.0344L177.917 85.1282C178.03 85.2702 178.144 85.4113 178.258 85.5517L178.365 85.681C178.501 85.8466 178.639 86.0109 178.778 86.1739L178.829 86.2331C178.954 86.379 179.081 86.5241 179.208 86.6684L179.321 86.7961C179.465 86.9539 179.61 87.1187 179.755 87.2772C186.965 95.1168 197.204 99.94 208.766 99.8895C220.328 99.839 231.021 94.9212 238.964 87.0162C246.908 79.1111 252.108 68.2172 252.668 56.2026C253.228 44.1881 249.05 33.3328 241.841 25.4931C241.663 25.2991 241.481 25.1075 241.299 24.9175L241.215 24.8299C241.04 24.6496 240.865 24.4706 240.688 24.2929L240.587 24.1919C240.407 24.0148 240.227 23.8389 240.044 23.6643L239.967 23.591C239.782 23.4159 239.596 23.2417 239.409 23.0705L239.379 23.0429C239.188 22.8684 238.995 22.6962 238.8 22.5264L238.702 22.4404C238.514 22.2764 238.324 22.1142 238.133 21.9538L238.025 21.8632C237.83 21.7017 237.633 21.5414 237.436 21.3821L237.366 21.3269C237.17 21.1692 236.972 21.0151 236.774 20.8648L236.718 20.8222C236.515 20.6645 236.31 20.5117 236.104 20.364L235.993 20.2851C235.791 20.1385 235.587 19.9936 235.382 19.8506L235.271 19.7717C235.06 19.6261 234.848 19.4821 234.634 19.3396L234.581 19.3049C234.37 19.1661 234.159 19.0294 233.947 18.8948L233.869 18.8451C233.654 18.7095 233.438 18.5765 233.221 18.4461L233.099 18.3727C232.884 18.2445 232.668 18.118 232.451 17.9934L232.338 17.9272C232.111 17.7986 231.884 17.6717 231.654 17.5479L231.624 17.5321C231.399 17.4101 231.171 17.2905 230.941 17.1733L230.844 17.1228C230.618 17.0076 230.391 16.8946 230.164 16.7837L230.034 16.7214C229.806 16.612 229.577 16.5043 229.347 16.3981L229.239 16.3499C228.999 16.2411 228.758 16.136 228.516 16.0345L228.507 16.0306C228.264 15.9265 228.018 15.8247 227.773 15.7254L227.658 15.6788C227.421 15.5842 227.184 15.4919 226.947 15.402L226.811 15.3516C226.571 15.2617 226.33 15.1741 226.088 15.0889L225.988 15.0543C225.745 14.9696 225.5 14.8871 225.254 14.8066L225.207 14.7916C224.957 14.7107 224.705 14.6318 224.451 14.5551L224.323 14.5156C224.079 14.441 223.832 14.3689 223.583 14.2995L223.444 14.2617C223.192 14.1933 222.939 14.1268 222.684 14.0622L222.601 14.0417C222.35 13.9796 222.098 13.9197 221.845 13.8619L221.768 13.8445C221.51 13.7862 221.251 13.731 220.993 13.6781L220.853 13.6497C220.598 13.5985 220.342 13.5504 220.085 13.5038L219.948 13.4802C219.686 13.4321 219.421 13.3903 219.154 13.3532L219.093 13.3437C218.832 13.3043 218.57 13.267 218.307 13.2318L218.207 13.2184C217.943 13.1844 217.678 13.1529 217.411 13.1237L217.334 13.1143L218.101 13.1955C224.803 13.9001 231.217 16.34 236.731 20.2828C236.902 20.4047 237.072 20.5286 237.24 20.6542C237.336 20.7252 237.432 20.7962 237.528 20.8687C237.704 21.0017 237.88 21.1366 238.054 21.2733C238.136 21.3371 238.219 21.401 238.3 21.4657C238.547 21.6613 238.791 21.86 239.034 22.0619L239.053 22.0777C239.301 22.2853 239.547 22.4956 239.79 22.7085C239.868 22.7756 239.945 22.8442 240.019 22.912C240.185 23.0611 240.351 23.2101 240.515 23.3615L240.777 23.606C240.932 23.7495 241.084 23.8944 241.233 24.0405C241.318 24.1241 241.404 24.208 241.49 24.2921C241.648 24.4498 241.805 24.6075 241.96 24.7653C242.033 24.8386 242.106 24.9119 242.178 24.9869C242.403 25.2234 242.626 25.4553 242.846 25.6966C250.124 33.6104 254.341 44.5713 253.778 56.701C253.214 68.8307 247.967 79.8327 239.949 87.815C231.931 95.7974 221.132 100.761 209.459 100.811C209.219 100.811 208.98 100.811 208.741 100.811H208.558C208.334 100.807 208.11 100.801 207.888 100.794H207.841C207.605 100.786 207.369 100.775 207.134 100.763L206.954 100.753C206.743 100.741 206.533 100.728 206.323 100.713L206.24 100.707C206.008 100.689 205.776 100.669 205.543 100.649L205.368 100.632C205.167 100.613 204.966 100.592 204.765 100.569L204.658 100.558C204.426 100.532 204.201 100.504 203.974 100.474L203.805 100.451C203.61 100.424 203.416 100.396 203.222 100.367L203.099 100.349C202.873 100.315 202.648 100.278 202.424 100.239L202.264 100.211C202.075 100.177 201.886 100.143 201.697 100.107L201.56 100.081C201.338 100.038 201.117 99.9928 200.896 99.9455L200.746 99.9132C200.56 99.8732 200.376 99.8317 200.191 99.7886L200.044 99.7547C199.825 99.7026 199.608 99.6498 199.391 99.5969L199.254 99.5614C199.071 99.5141 198.887 99.4652 198.705 99.4156L198.55 99.3738C198.335 99.3138 198.12 99.2523 197.906 99.1892L197.785 99.1529C197.603 99.1004 197.421 99.0441 197.239 98.9842L197.084 98.9353C196.872 98.8675 196.661 98.7978 196.451 98.7263L196.348 98.6908C196.165 98.6285 195.983 98.5639 195.801 98.4984L195.646 98.4424C195.437 98.3635 195.229 98.2886 195.021 98.2058L194.944 98.1751C194.758 98.1041 194.573 98.0307 194.39 97.9558L194.235 97.8927C194.029 97.8084 193.824 97.7232 193.62 97.6356L193.572 97.6143C193.381 97.5323 193.192 97.449 193.004 97.3644L192.849 97.2942C192.647 97.2019 192.445 97.1088 192.245 97.0134L192.235 97.0087C192.038 96.9141 191.842 96.8179 191.646 96.7209L191.491 96.642C191.302 96.5474 191.114 96.4514 190.927 96.3541L190.896 96.3376C190.7 96.2351 190.508 96.1302 190.312 96.0221L190.163 95.9433C189.988 95.8471 189.814 95.7493 189.64 95.6499L189.579 95.6152C189.389 95.5059 189.199 95.3947 189.011 95.2816L188.868 95.1965C188.704 95.0971 188.539 94.9969 188.377 94.8952L188.293 94.8432C188.108 94.727 187.924 94.6095 187.741 94.4906L187.605 94.4015C187.45 94.2982 187.295 94.1941 187.14 94.0861L187.045 94.0214C186.864 93.8992 186.685 93.7746 186.508 93.6492C184.209 92.0259 182.086 90.1591 180.174 88.08C177.499 85.1679 175.256 81.8735 173.517 78.3012C173.401 78.0662 173.287 77.8314 173.174 77.5969C173.177 77.6135 173.188 77.6316 173.197 77.6506Z" fill="#F0F2F7"/>
<path d="M168.935 56.5696C169.495 44.555 174.688 33.6587 182.632 25.7521C190.575 17.8454 201.27 12.9316 212.831 12.8803C214.36 12.8724 215.89 12.9514 217.411 13.1169C217.677 13.1461 217.942 13.1776 218.207 13.2115L218.307 13.2249C218.57 13.2628 218.831 13.3012 219.089 13.3401L219.15 13.3495C219.417 13.3905 219.682 13.4355 219.946 13.482L220.083 13.5057C220.34 13.5522 220.596 13.6003 220.851 13.6516L220.991 13.68C221.251 13.7328 221.51 13.788 221.766 13.8464L221.843 13.8637C222.096 13.921 222.348 13.9809 222.6 14.0435L222.682 14.064C222.938 14.1282 223.191 14.1947 223.442 14.2635L223.583 14.2998C223.831 14.3687 224.077 14.4394 224.323 14.5119L224.451 14.5514C224.704 14.6271 224.956 14.7059 225.207 14.788L225.254 14.8029C225.499 14.8834 225.744 14.9659 225.988 15.0506L226.088 15.0853C226.33 15.1704 226.571 15.258 226.811 15.3479L226.947 15.3983C227.184 15.4883 227.421 15.5805 227.658 15.6752L227.773 15.7217C228.018 15.821 228.264 15.9228 228.507 16.0269L228.516 16.0308C228.758 16.136 228.999 16.2411 229.238 16.3463L229.347 16.3952C229.577 16.5003 229.806 16.6081 230.034 16.7185L230.164 16.7808C230.391 16.8917 230.618 17.0048 230.844 17.1199L230.941 17.1704C231.171 17.2881 231.398 17.4077 231.624 17.5292L231.654 17.545C231.887 17.6688 232.111 17.7957 232.338 17.9243L232.45 17.9882C232.668 18.1128 232.884 18.2392 233.098 18.3675L233.22 18.4408C233.437 18.5717 233.654 18.7047 233.868 18.8399L233.946 18.8895C234.158 19.0241 234.369 19.1608 234.58 19.2996L234.633 19.3343C234.847 19.4763 235.059 19.6203 235.27 19.7665L235.382 19.8453C235.588 19.9883 235.792 20.1332 235.992 20.2799L236.103 20.3587C236.309 20.5091 236.514 20.6618 236.717 20.8169L236.773 20.8595C236.971 21.012 237.169 21.166 237.365 21.3216L237.435 21.3768C237.633 21.5346 237.83 21.6949 238.024 21.8579L238.132 21.9486C238.324 22.1063 238.513 22.2685 238.701 22.4352L238.799 22.5211C238.993 22.6915 239.186 22.8636 239.379 23.0377L239.408 23.0653C239.595 23.2364 239.781 23.4107 239.966 23.5857L240.043 23.6591C240.225 23.8331 240.406 24.009 240.586 24.1867L240.687 24.2876C240.864 24.4653 241.039 24.6443 241.214 24.8247L241.298 24.9122C241.479 25.1023 241.66 25.2939 241.84 25.4879C249.045 33.3275 253.229 44.1828 252.667 56.1973C252.106 68.2119 246.914 79.1082 238.97 87.0148C231.027 94.9215 220.333 99.8369 208.772 99.8882C197.211 99.9394 186.971 95.1155 179.761 87.2759C179.616 87.1181 179.471 86.9565 179.327 86.7948L179.214 86.6671C179.087 86.5227 178.96 86.3776 178.835 86.2317L178.784 86.1726C178.645 86.0091 178.507 85.8448 178.371 85.6797L178.264 85.5504C178.15 85.41 178.036 85.2688 177.923 85.1269L177.845 85.033C177.713 84.8653 177.581 84.696 177.45 84.5252L177.356 84.4022C177.249 84.2602 177.143 84.1182 177.036 83.9747C177.008 83.9353 176.978 83.8959 176.949 83.8572C176.823 83.6845 176.696 83.5102 176.572 83.3352L176.495 83.224C176.392 83.0773 176.289 82.929 176.185 82.7808L176.094 82.6475C175.973 82.4693 175.853 82.2897 175.734 82.1089L175.678 82.0221C175.575 81.8644 175.475 81.7067 175.374 81.5489L175.283 81.4046C175.167 81.2201 175.051 81.0356 174.94 80.8526L174.917 80.8139C174.811 80.6389 174.707 80.4622 174.607 80.2856L174.519 80.135C174.417 79.9575 174.316 79.7801 174.216 79.6011L174.193 79.5601C174.087 79.3692 173.984 79.177 173.883 78.9836C173.856 78.9331 173.829 78.8826 173.806 78.8314C173.717 78.6652 173.63 78.4981 173.544 78.3298L173.495 78.2352C173.396 78.0412 173.299 77.8456 173.203 77.6492C170.146 71.416 168.575 64.2294 168.935 56.5696ZM208.975 96.2692C230.332 96.2692 248.453 78.3006 249.447 56.1342C250.441 33.9679 233.931 16.0001 212.574 16.0001C191.217 16.0001 173.095 33.9686 172.101 56.1342C171.107 78.2999 187.616 96.2692 208.975 96.2692Z" fill="white"/>
<path d="M208.976 96.2691C230.333 96.2691 248.453 78.3005 249.447 56.1341C250.44 33.9685 233.934 15.9999 212.574 15.9999C191.215 15.9999 173.095 33.9677 172.101 56.1341C171.107 78.3005 187.618 96.2691 208.976 96.2691Z" fill="white"/>
<g clip-path="url(#clip1_991_105958)">
<path d="M209.527 96.267C231.201 95.1252 249.213 76.3095 249.757 54.2409C250.301 32.1723 233.172 15.2078 211.498 16.3496C189.824 17.4914 171.813 36.3071 171.269 58.3757C170.724 80.4443 187.853 97.4088 209.527 96.267Z" fill="#C2A633"/>
<path fill-rule="evenodd" clip-rule="evenodd" d="M193.464 82.1151L209.469 81.272C209.469 81.272 231.924 82.0574 232.577 55.547C233.206 30.0643 212.654 31.2373 208.682 31.464C208.589 31.4693 208.505 31.4741 208.431 31.478L194.695 32.2016L194.146 54.436L188.505 54.7331L188.371 60.1794L194.013 59.8822L193.464 82.1151ZM209.796 40.62L203.482 40.9527L203.161 53.9606L213.095 53.4372L212.961 58.8835L203.027 59.4068L202.706 72.4138L209.33 72.0649C209.35 72.0638 209.372 72.0627 209.395 72.0615C211.322 71.9625 223.301 71.3471 223.656 56.1963C224.015 40.863 212.158 40.4956 209.796 40.62Z" fill="white"/>
</g>
<g filter="url(#filter0_b_991_105958)">
<rect x="194.038" y="61" width="16" height="16" rx="8" fill="#05183D" fill-opacity="0.25"/>
</g>
<g style="mix-blend-mode:hard-light" filter="url(#filter1_b_991_105958)">
<rect x="194.038" y="61" width="16" height="16" rx="8" fill="white" fill-opacity="0.25"/>
<g style="mix-blend-mode:multiply" opacity="0.75" clip-path="url(#clip2_991_105958)">
<path fill-rule="evenodd" clip-rule="evenodd" d="M201.038 66.8334C201.038 67.4777 200.516 68.0001 199.872 68.0001C199.227 68.0001 198.705 67.4777 198.705 66.8334C198.705 66.1891 199.227 65.6667 199.872 65.6667C200.516 65.6667 201.038 66.1891 201.038 66.8334Z" fill="#121D33"/>
<path fill-rule="evenodd" clip-rule="evenodd" d="M205.372 71.1667C205.372 71.8111 204.849 72.3334 204.205 72.3334C203.561 72.3334 203.038 71.8111 203.038 71.1667C203.038 70.5224 203.561 70.0001 204.205 70.0001C204.849 70.0001 205.372 70.5224 205.372 71.1667Z" fill="#121D33"/>
<path fill-rule="evenodd" clip-rule="evenodd" d="M205.043 66.3484L204.69 65.9948C204.397 65.702 203.922 65.702 203.629 65.9948L199.033 70.591C198.74 70.8839 198.74 71.3588 199.033 71.6517L199.387 72.0053C199.68 72.2981 200.154 72.2981 200.447 72.0053L205.043 67.4091C205.336 67.1162 205.336 66.6413 205.043 66.3484Z" fill="#121D33"/>
</g>
<rect x="193.996" y="60.9576" width="16.0848" height="16.0848" rx="8.04241" stroke="#B8B9BD" stroke-width="0.0848101"/>
</g>
</g>
<g clip-path="url(#clip3_991_105958)">
<path d="M133.677 126.126L133.726 126.16C133.904 126.285 134.083 126.41 134.263 126.532L134.358 126.597C134.513 126.701 134.668 126.806 134.823 126.912L134.96 127.001C135.142 127.12 135.326 127.237 135.511 127.354L135.595 127.406C135.758 127.507 135.922 127.608 136.086 127.707L136.229 127.792C136.418 127.905 136.607 128.016 136.797 128.126L136.859 128.16C137.032 128.26 137.206 128.358 137.382 128.454L137.53 128.533C137.724 128.638 137.918 128.743 138.114 128.848L138.145 128.865C138.332 128.962 138.52 129.058 138.709 129.152L138.864 129.231C139.06 129.328 139.256 129.425 139.453 129.519L139.463 129.524C139.663 129.619 139.865 129.712 140.068 129.805L140.223 129.875C140.411 129.959 140.6 130.043 140.79 130.125L140.839 130.146C141.042 130.234 141.248 130.319 141.453 130.403L141.608 130.466C141.791 130.545 141.977 130.615 142.162 130.686L142.239 130.716C142.447 130.795 142.655 130.874 142.864 130.953L143.019 131.009C143.201 131.074 143.383 131.139 143.566 131.201L143.669 131.237C143.878 131.308 144.09 131.378 144.302 131.446L144.457 131.495C144.639 131.552 144.821 131.609 145.004 131.663L145.124 131.7C145.338 131.763 145.553 131.824 145.768 131.884L145.923 131.926C146.105 131.976 146.289 132.025 146.472 132.072L146.609 132.107C146.826 132.163 147.044 132.215 147.262 132.265L147.409 132.299C147.594 132.342 147.779 132.383 147.964 132.424L148.114 132.456C148.335 132.503 148.556 132.548 148.778 132.592L148.915 132.618C149.104 132.653 149.293 132.688 149.483 132.722L149.642 132.749C149.866 132.788 150.091 132.825 150.317 132.86L150.44 132.878C150.634 132.907 150.828 132.935 151.023 132.961L151.192 132.984C151.419 133.014 151.647 133.043 151.877 133.069L151.983 133.08C152.184 133.103 152.385 133.123 152.586 133.143L152.761 133.159C152.994 133.18 153.226 133.2 153.459 133.217L153.542 133.223C153.752 133.238 153.962 133.251 154.172 133.263L154.352 133.273C154.584 133.286 154.823 133.297 155.059 133.304H155.106C155.329 133.311 155.552 133.317 155.776 133.321H155.96C156.198 133.321 156.438 133.327 156.677 133.321C168.35 133.27 179.145 128.307 187.167 120.324C195.189 112.341 200.435 101.342 201 89.2123C201.566 77.0826 197.347 66.1216 190.068 58.2063C189.849 57.9697 189.626 57.7331 189.401 57.4965C189.329 57.4216 189.256 57.3483 189.183 57.2749C189.028 57.1172 188.871 56.9595 188.713 56.8018C188.627 56.7176 188.542 56.6338 188.455 56.5502C188.305 56.404 188.153 56.2592 188 56.1157L187.738 55.8712C187.574 55.7198 187.408 55.5707 187.241 55.4217C187.164 55.3539 187.086 55.2853 187.013 55.2182C186.77 55.0042 186.524 54.794 186.276 54.5873L186.257 54.5716C186.014 54.3697 185.77 54.1709 185.523 53.9754C185.442 53.9107 185.359 53.8468 185.277 53.7829C185.102 53.6468 184.927 53.5119 184.751 53.3784C184.655 53.3058 184.559 53.2349 184.463 53.1639C184.294 53.0382 184.124 52.9144 183.953 52.7924C183.896 52.7514 183.84 52.7089 183.782 52.6678L186.86 54.8468C189.141 56.4625 191.248 58.3184 193.146 60.3837C195.85 63.3266 198.113 66.6604 199.859 70.2768L199.806 70.1656L199.824 70.2011L199.841 70.2358L199.875 70.3068C199.886 70.3273 199.899 70.3557 199.91 70.377L199.927 70.4125L199.961 70.4827L199.995 70.5528L200.013 70.5883L200.047 70.6585L200.064 70.694L200.098 70.7642L200.115 70.7997C200.126 70.821 200.14 70.8486 200.15 70.8699C203.179 77.0936 204.736 84.2582 204.38 91.8928C203.82 103.907 198.627 114.804 190.684 122.71C182.74 130.617 172.045 135.53 160.485 135.583C158.982 135.59 157.48 135.514 155.985 135.353L155.217 135.274C155.396 135.294 155.577 135.313 155.759 135.329C148.689 134.666 142.216 132.174 136.756 128.31L133.677 126.126Z" fill="#DFE3EB"/>
<path d="M120.42 110.162C120.516 110.358 120.613 110.556 120.712 110.748L120.761 110.842C120.847 111.01 120.934 111.177 121.022 111.344C121.049 111.395 121.076 111.446 121.1 111.496C121.203 111.69 121.306 111.882 121.41 112.073L121.433 112.114C121.532 112.293 121.634 112.47 121.736 112.648L121.823 112.798C121.927 112.975 122.031 113.151 122.133 113.327L122.157 113.365C122.27 113.552 122.384 113.737 122.5 113.917L122.591 114.062C122.691 114.219 122.792 114.377 122.894 114.535L122.951 114.621C123.07 114.802 123.189 114.982 123.31 115.16L123.402 115.293C123.503 115.442 123.606 115.59 123.712 115.737L123.789 115.848C123.913 116.023 124.039 116.197 124.166 116.37C124.195 116.409 124.224 116.449 124.253 116.487C124.359 116.631 124.465 116.773 124.573 116.915L124.667 117.038C124.798 117.208 124.93 117.377 125.062 117.546L125.139 117.639C125.253 117.781 125.366 117.923 125.481 118.063L125.587 118.192C125.724 118.358 125.862 118.522 126.001 118.685L126.051 118.744C126.177 118.89 126.304 119.035 126.431 119.18L126.544 119.307C126.687 119.465 126.832 119.63 126.978 119.788C134.188 127.628 144.427 132.451 155.989 132.401C167.551 132.35 178.243 127.432 186.187 119.527C194.131 111.622 199.331 100.728 199.891 88.7138C200.451 76.6993 196.273 65.844 189.064 58.0044C188.885 57.8104 188.704 57.6187 188.521 57.4287L188.438 57.3412C188.263 57.1608 188.087 56.9818 187.911 56.8041L187.809 56.7032C187.63 56.526 187.449 56.3501 187.267 56.1756L187.189 56.1022C187.005 55.9272 186.819 55.7529 186.632 55.5818L186.602 55.5542C186.411 55.3796 186.217 55.2074 186.023 55.0376L185.925 54.9516C185.737 54.7876 185.547 54.6254 185.356 54.4651L185.248 54.3744C185.053 54.213 184.856 54.0526 184.658 53.8933L184.589 53.8381C184.392 53.6804 184.195 53.5264 183.997 53.376L183.941 53.3334C183.738 53.1757 183.533 53.023 183.327 52.8752L183.216 52.7964C183.014 52.6497 182.81 52.5048 182.605 52.3618L182.494 52.283C182.283 52.1373 182.071 51.9933 181.857 51.8508L181.803 51.8161C181.593 51.6773 181.382 51.5406 181.17 51.406L181.092 51.3564C180.877 51.2207 180.661 51.0877 180.444 50.9573L180.322 50.884C180.107 50.7557 179.891 50.6293 179.674 50.5046L179.56 50.4384C179.333 50.3099 179.106 50.1829 178.877 50.0591L178.847 50.0433C178.622 49.9213 178.394 49.8017 178.164 49.6845L178.067 49.634C177.841 49.5189 177.614 49.4058 177.386 49.2949L177.257 49.2326C177.029 49.1233 176.8 49.0155 176.57 48.9093L176.461 48.8612C176.222 48.7523 175.981 48.6472 175.738 48.5457L175.73 48.5418C175.487 48.4377 175.241 48.336 174.995 48.2366L174.881 48.1901C174.644 48.0954 174.407 48.0032 174.17 47.9133L174.034 47.8628C173.794 47.7729 173.553 47.6854 173.31 47.6002L173.211 47.5655C172.967 47.4808 172.723 47.3983 172.477 47.3179L172.43 47.3029C172.18 47.2219 171.928 47.143 171.674 47.0663L171.545 47.0269C171.302 46.9522 171.055 46.8802 170.806 46.8108L170.667 46.7729C170.415 46.7046 170.161 46.6381 169.907 46.5734L169.824 46.5529C169.573 46.4909 169.321 46.4309 169.068 46.3731L168.99 46.3557C168.733 46.2974 168.474 46.2422 168.216 46.1893L168.075 46.161C167.82 46.1097 167.565 46.0616 167.308 46.0151L167.17 45.9914C166.909 45.9433 166.644 45.9015 166.377 45.8644L166.316 45.855C166.054 45.8155 165.793 45.7782 165.53 45.743L165.43 45.7296C165.165 45.6957 164.9 45.6641 164.634 45.635L164.556 45.6255L165.323 45.7067C172.026 46.4113 178.44 48.8512 183.953 52.794C184.125 52.916 184.295 53.0398 184.463 53.1654C184.559 53.2364 184.655 53.3074 184.751 53.3799C184.927 53.513 185.103 53.6478 185.277 53.7845C185.359 53.8484 185.442 53.9123 185.523 53.9769C185.769 54.1725 186.014 54.3712 186.257 54.5731L186.276 54.5889C186.524 54.7966 186.77 55.0069 187.013 55.2198C187.09 55.2868 187.168 55.3554 187.241 55.4232C187.408 55.5723 187.574 55.7213 187.738 55.8728L188 56.1172C188.155 56.2607 188.307 56.4056 188.455 56.5517C188.541 56.6353 188.627 56.7192 188.713 56.8033C188.871 56.961 189.027 57.1188 189.183 57.2765C189.256 57.3498 189.329 57.4232 189.401 57.4981C189.626 57.7347 189.849 57.9665 190.068 58.2078C197.347 66.1216 201.564 77.0826 201 89.2122C200.437 101.342 195.19 112.344 187.172 120.326C179.154 128.309 168.355 133.272 156.682 133.322C156.442 133.322 156.203 133.322 155.964 133.322H155.781C155.556 133.318 155.333 133.313 155.11 133.305H155.064C154.828 133.297 154.592 133.286 154.357 133.274L154.177 133.264C153.966 133.252 153.756 133.239 153.546 133.224L153.463 133.218C153.231 133.2 152.998 133.181 152.766 133.16L152.591 133.144C152.389 133.124 152.189 133.103 151.988 133.081L151.881 133.069C151.649 133.043 151.424 133.015 151.196 132.985L151.027 132.962C150.833 132.935 150.639 132.908 150.445 132.879L150.322 132.861C150.095 132.826 149.87 132.789 149.647 132.75L149.487 132.722C149.298 132.689 149.108 132.654 148.92 132.618L148.783 132.592C148.561 132.549 148.34 132.504 148.119 132.457L147.969 132.424C147.783 132.384 147.598 132.343 147.414 132.3L147.267 132.266C147.048 132.214 146.831 132.161 146.614 132.108L146.476 132.073C146.294 132.025 146.11 131.976 145.928 131.927L145.773 131.885C145.558 131.825 145.343 131.764 145.129 131.7L145.008 131.664C144.825 131.612 144.643 131.555 144.462 131.495L144.307 131.447C144.095 131.379 143.884 131.309 143.673 131.238L143.571 131.202C143.387 131.14 143.205 131.075 143.023 131.01L142.868 130.954C142.66 130.875 142.452 130.8 142.244 130.717L142.166 130.686C141.981 130.615 141.796 130.542 141.612 130.467L141.458 130.404C141.252 130.32 141.047 130.234 140.843 130.147L140.794 130.126C140.604 130.044 140.415 129.96 140.227 129.876L140.072 129.805C139.87 129.713 139.668 129.62 139.468 129.525L139.458 129.52C139.26 129.425 139.064 129.329 138.868 129.232L138.713 129.153C138.524 129.059 138.337 128.963 138.15 128.865L138.118 128.849C137.923 128.746 137.731 128.641 137.535 128.533L137.386 128.455C137.211 128.358 137.037 128.261 136.863 128.161L136.802 128.126C136.611 128.017 136.422 127.906 136.234 127.793L136.091 127.708C135.927 127.608 135.762 127.508 135.6 127.406L135.516 127.354C135.33 127.238 135.147 127.121 134.964 127.002L134.828 126.913C134.673 126.809 134.518 126.705 134.363 126.597L134.268 126.533C134.087 126.41 133.908 126.286 133.731 126.16C131.432 124.537 129.308 122.67 127.396 120.591C124.721 117.679 122.479 114.385 120.74 110.812C120.624 110.577 120.509 110.343 120.396 110.108C120.4 110.125 120.41 110.143 120.42 110.162Z" fill="#F0F2F7"/>
<path d="M116.157 89.0807C116.718 77.0661 121.911 66.1698 129.854 58.2632C137.798 50.3565 148.492 45.4427 160.053 45.3914C161.583 45.3835 163.112 45.4625 164.634 45.628C164.9 45.6572 165.165 45.6887 165.43 45.7226L165.53 45.736C165.793 45.7739 166.053 45.8123 166.312 45.8512L166.373 45.8606C166.639 45.9016 166.904 45.9466 167.169 45.9931L167.306 46.0168C167.563 46.0633 167.819 46.1114 168.074 46.1627L168.214 46.1911C168.473 46.2439 168.733 46.2991 168.989 46.3575L169.066 46.3748C169.319 46.4321 169.571 46.4921 169.822 46.5546L169.905 46.5751C170.16 46.6393 170.414 46.7058 170.665 46.7746L170.805 46.8109C171.053 46.8798 171.3 46.9505 171.545 47.0231L171.674 47.0625C171.927 47.1382 172.179 47.2171 172.43 47.2991L172.477 47.3141C172.722 47.3945 172.967 47.477 173.211 47.5617L173.31 47.5964C173.552 47.6815 173.794 47.7691 174.034 47.859L174.169 47.9095C174.407 47.9994 174.644 48.0916 174.881 48.1863L174.995 48.2328C175.241 48.3322 175.486 48.4339 175.73 48.538L175.738 48.5419C175.981 48.6471 176.221 48.7522 176.461 48.8574L176.57 48.9063C176.799 49.0114 177.029 49.1192 177.257 49.2296L177.386 49.2919C177.614 49.4028 177.841 49.5159 178.066 49.631L178.164 49.6815C178.393 49.7992 178.621 49.9188 178.847 50.0403L178.877 50.0561C179.109 50.1799 179.333 50.3068 179.56 50.4354L179.673 50.4993C179.89 50.6239 180.107 50.7503 180.321 50.8786L180.443 50.9519C180.66 51.0828 180.876 51.2159 181.091 51.351L181.169 51.4007C181.381 51.5352 181.592 51.6719 181.802 51.8107L181.856 51.8454C182.07 51.9874 182.282 52.1314 182.493 52.2776L182.604 52.3565C182.811 52.4995 183.014 52.6443 183.215 52.791L183.326 52.8698C183.532 53.0202 183.737 53.1729 183.94 53.328L183.996 53.3706C184.194 53.5231 184.391 53.6771 184.588 53.8327L184.657 53.8879C184.856 54.0457 185.052 54.206 185.247 54.369L185.355 54.4597C185.546 54.6174 185.736 54.7796 185.924 54.9463L186.022 55.0322C186.216 55.2026 186.409 55.3747 186.601 55.5488L186.631 55.5764C186.818 55.7475 187.004 55.9218 187.188 56.0969L187.266 56.1702C187.448 56.3442 187.629 56.5201 187.808 56.6978L187.91 56.7987C188.086 56.9764 188.262 57.1554 188.437 57.3358L188.52 57.4233C188.702 57.6134 188.883 57.805 189.063 57.999C196.268 65.8386 200.452 76.6939 199.89 88.7085C199.328 100.723 194.137 111.619 186.193 119.526C178.249 127.433 167.556 132.348 155.995 132.399C144.434 132.451 134.194 127.627 126.984 119.787C126.838 119.629 126.693 119.468 126.55 119.306L126.437 119.178C126.31 119.034 126.183 118.889 126.057 118.743L126.007 118.684C125.868 118.52 125.73 118.356 125.593 118.191L125.487 118.061C125.372 117.921 125.259 117.78 125.145 117.638L125.068 117.544C124.935 117.376 124.804 117.207 124.673 117.036L124.579 116.913C124.471 116.771 124.365 116.629 124.259 116.486C124.23 116.446 124.201 116.407 124.172 116.368C124.045 116.196 123.919 116.021 123.795 115.846L123.718 115.735C123.615 115.588 123.511 115.44 123.408 115.292L123.316 115.159C123.195 114.98 123.076 114.801 122.957 114.62L122.9 114.533C122.798 114.375 122.697 114.218 122.596 114.06L122.506 113.916C122.39 113.731 122.273 113.547 122.163 113.364L122.139 113.325C122.034 113.15 121.929 112.973 121.829 112.797L121.742 112.646C121.64 112.469 121.538 112.291 121.439 112.112L121.416 112.071C121.31 111.88 121.207 111.688 121.106 111.495C121.079 111.444 121.052 111.394 121.028 111.342C120.94 111.176 120.853 111.009 120.767 110.841L120.718 110.746C120.619 110.552 120.522 110.357 120.426 110.16C117.368 103.927 115.797 96.7405 116.157 89.0807ZM156.198 128.78C177.555 128.78 195.675 110.812 196.669 88.6454C197.663 66.479 181.154 48.5112 159.797 48.5112C138.44 48.5112 120.318 66.4798 119.324 88.6454C118.33 110.811 134.839 128.78 156.198 128.78Z" fill="white"/>
<path d="M156.198 128.78C177.555 128.78 195.675 110.812 196.669 88.6452C197.663 66.4796 181.156 48.511 159.797 48.511C138.437 48.511 120.318 66.4788 119.324 88.6452C118.33 110.812 134.841 128.78 156.198 128.78Z" fill="white"/>
<g clip-path="url(#clip4_991_105958)">
<path d="M156.75 128.778C178.424 127.636 196.435 108.821 196.98 86.7521C197.524 64.6835 180.395 47.719 158.721 48.8608C137.047 50.0026 119.036 68.8184 118.491 90.887C117.947 112.956 135.076 129.92 156.75 128.778Z" fill="url(#paint0_radial_991_105958)"/>
<path d="M152.146 78.92C152.051 79.2715 151.89 79.6053 151.675 79.9023C151.273 80.4446 150.75 80.8785 150.155 81.161C149.62 81.4248 149.056 81.6068 148.482 81.7011C148.367 81.7222 148.247 81.7379 148.131 81.7531L148.104 81.7567C147.741 81.79 147.389 81.9425 147.099 82.1918C146.81 82.4411 146.598 82.774 146.495 83.142C146.447 83.3248 146.411 83.5097 146.386 83.6956C146.346 83.9758 146.322 84.2619 146.296 84.5714C146.277 84.7935 146.257 85.0277 146.23 85.2804C146.082 86.3119 145.771 87.3236 145.31 88.2746C145.216 88.4743 145.12 88.6682 145.026 88.8586C144.521 89.8792 144.065 90.8014 144.16 91.9993C144.235 92.922 144.678 93.5195 145.273 94.1288C145.555 94.4203 145.932 94.6622 146.324 94.9133C147.422 95.616 148.632 96.3908 148.174 98.5276C147.8 100.259 145.011 102.202 141.137 103.034C141.513 102.955 140.724 101.541 140.637 101.385L140.631 101.376C140.529 101.209 140.424 101.045 140.32 100.881C140.018 100.408 139.717 99.9369 139.487 99.4095C138.877 98.0323 138.618 96.4153 138.921 94.855C139.194 93.4429 140.116 92.2779 141.003 91.1561C141.147 90.9733 141.291 90.7914 141.431 90.6101C142.618 89.0699 143.873 87.0678 144.188 85.1329C144.215 84.9648 144.239 84.7817 144.265 84.5891C144.312 84.2445 144.362 83.8693 144.436 83.4942C144.547 82.8472 144.757 82.2149 145.057 81.6214C145.261 81.2316 145.525 80.8762 145.839 80.5707C146.003 80.4086 146.114 80.1982 146.153 79.9733C146.193 79.7484 146.16 79.5219 146.058 79.3301L140.19 68.2015L148.746 79.0227C148.843 79.1482 148.968 79.2478 149.111 79.3143C149.254 79.3808 149.411 79.4129 149.573 79.4079C149.734 79.403 149.895 79.3614 150.044 79.2859C150.194 79.2103 150.328 79.1028 150.437 78.9711C150.552 78.83 150.62 78.6557 150.628 78.4776C150.637 78.2996 150.586 78.1284 150.485 77.9933C150.086 77.4706 149.672 76.9413 149.259 76.4145C149.093 76.2026 148.927 75.9909 148.763 75.7804L146.61 73.049L142.289 67.5968L136.4 60.0134L142.874 67.0572L147.489 72.2436L149.791 74.8435C150.003 75.0864 150.215 75.3269 150.427 75.5675C150.979 76.1938 151.53 76.8202 152.081 77.4864L152.206 77.6424L152.228 77.8931C152.258 78.2333 152.23 78.5807 152.146 78.92Z" fill="#FF007A"/>
<path d="M174.757 81.5535L174.766 81.5677C174.795 80.3534 174.118 78.3879 172.695 76.5382L172.662 76.4928C172.223 75.9372 171.743 75.4192 171.226 74.9428C171.129 74.8488 171.025 74.7567 170.919 74.6648C170.255 74.0874 169.525 73.5926 168.744 73.1895L168.688 73.1632C166.234 71.8912 163.013 71.3391 159 72.3634C158.48 71.7175 157.918 71.1102 157.318 70.5452C156.398 69.665 155.307 68.9941 154.105 68.5702C152.914 68.1778 151.63 68.083 150.353 68.2932C151.578 68.343 152.764 68.6334 153.851 69.1493C154.899 69.6829 155.837 70.4066 156.624 71.2888C157.422 72.1897 158.169 73.138 158.862 74.1295L159.037 74.3643C159.717 75.2753 160.409 76.2027 161.28 77.0144C161.759 77.467 162.297 77.85 162.88 78.1542C163.035 78.2288 163.192 78.2986 163.346 78.3588C163.5 78.4191 163.644 78.4748 163.8 78.5251C164.101 78.6312 164.413 78.7155 164.725 78.7918C165.973 79.0966 167.258 79.1622 168.514 79.1677C168.685 79.168 168.857 79.1677 169.028 79.1674C169.479 79.1666 169.927 79.1658 170.368 79.1756C170.968 79.181 171.561 79.2465 172.14 79.3716C173.01 79.5617 173.767 80.0612 174.286 80.7865C174.463 81.028 174.62 81.2843 174.757 81.5535Z" fill="#FF007A"/>
<path d="M171.23 74.9387C171.168 74.8812 171.104 74.8245 171.041 74.768L170.922 74.6606L171.014 74.7448C171.086 74.8117 171.158 74.8784 171.23 74.9387Z" fill="#FF007A"/>
<path d="M169.399 87.0149C165.396 85.5288 161.209 83.9743 161.962 78.9525C163.275 80.3741 165.387 80.5755 167.685 80.7945C169.768 80.9931 172.004 81.2063 173.935 82.358C178.491 85.0734 177.673 90.8582 176.048 93.0569C176.276 89.5682 172.908 88.3179 169.399 87.0149Z" fill="#FF007A"/>
<path d="M153.139 85.3739C154.209 85.2119 156.498 84.5174 155.527 82.7171C155.317 82.3515 155.008 82.0624 154.634 81.8834C154.259 81.7045 153.836 81.6427 153.412 81.7051C152.981 81.7754 152.572 81.9802 152.239 82.2915C151.906 82.6026 151.666 83.0054 151.552 83.445C151.206 84.6743 151.517 85.6218 153.139 85.3739Z" fill="#FF007A"/>
<path d="M153.219 70.718C152.569 69.9525 151.54 69.5873 150.525 69.4879C150.481 69.7526 150.45 70.0185 150.434 70.2844C150.334 72.4729 151.025 74.8342 152.435 76.4262C152.886 76.941 153.435 77.3536 154.052 77.6415C154.409 77.8048 155.357 78.2068 155.722 77.781C155.75 77.7424 155.768 77.6975 155.775 77.6509C155.781 77.6043 155.775 77.5576 155.759 77.5159C155.704 77.3446 155.594 77.1924 155.485 77.0414C155.408 76.9344 155.331 76.8279 155.274 76.7156C155.217 76.6025 155.156 76.4926 155.095 76.3827C154.979 76.1757 154.864 75.9689 154.777 75.742C154.548 75.1484 154.437 74.5102 154.327 73.8741C154.305 73.7472 154.282 73.6197 154.259 73.4934C154.09 72.5123 153.869 71.4836 153.219 70.718Z" fill="#FF007A"/>
<path d="M167.101 87.4068C165.988 90.4633 167.601 92.9104 169.205 95.3431C170.999 98.0642 172.781 100.767 170.722 104.285C174.6 102.442 176.544 97.3897 175.049 93.5409C174.106 91.1066 171.721 89.8856 169.507 88.7522C168.648 88.3125 167.814 87.8859 167.101 87.4068Z" fill="#FF007A"/>
<path d="M155.672 95.1655C154.97 95.4959 154.304 95.9161 153.693 96.4157C155.07 95.8319 156.508 95.4639 157.959 95.3246C158.222 95.2947 158.486 95.2682 158.753 95.2415C159.215 95.1952 159.684 95.1481 160.163 95.0816C160.948 94.9854 161.725 94.7805 162.472 94.4724C163.256 94.1502 163.974 93.6572 164.574 93.0287C165.181 92.3807 165.616 91.5839 165.829 90.7274C166.018 89.9188 166.015 89.0895 165.819 88.313C165.624 87.5364 165.243 86.8365 164.709 86.2753C164.957 86.9556 165.101 87.6785 165.139 88.4197C165.169 89.1099 165.061 89.8102 164.821 90.4765C164.587 91.1084 164.215 91.685 163.737 92.1592C163.243 92.6385 162.675 93.0266 162.062 93.3042C161.209 93.7006 160.251 93.8949 159.253 94.0973C158.797 94.1897 158.333 94.2838 157.868 94.3996C157.119 94.5802 156.383 94.8368 155.672 95.1655Z" fill="#FF007A"/>
<path fill-rule="evenodd" clip-rule="evenodd" d="M167.498 106.854L167.356 106.976C167.176 107.133 166.994 107.291 166.797 107.435C166.548 107.616 166.287 107.777 166.018 107.919C165.456 108.228 164.842 108.404 164.225 108.431C162.553 108.487 161.402 107.26 160.746 105.839C160.574 105.467 160.424 105.082 160.274 104.697C160.034 104.08 159.794 103.463 159.464 102.9C158.697 101.589 157.354 100.572 155.746 100.858C155.09 100.978 154.469 101.314 154.091 101.921C153.098 103.506 154.417 105.584 156.174 105.188C156.324 105.156 156.47 105.107 156.611 105.041C156.752 104.973 156.884 104.884 157.002 104.778C157.252 104.555 157.443 104.269 157.555 103.953C157.678 103.622 157.712 103.27 157.654 102.935C157.591 102.585 157.397 102.284 157.113 102.097C157.445 102.242 157.7 102.52 157.824 102.872C157.952 103.234 157.978 103.634 157.897 104.027C157.818 104.436 157.636 104.824 157.37 105.151C157.229 105.319 157.066 105.467 156.888 105.591C156.712 105.713 156.523 105.814 156.327 105.892C155.928 106.052 155.507 106.119 155.094 106.088C154.514 106.033 153.972 105.816 153.524 105.459C153.46 105.41 153.399 105.358 153.339 105.305C153.004 105.025 152.704 104.704 152.444 104.348C152.342 104.234 152.237 104.122 152.129 104.014C151.583 103.435 150.934 102.97 150.213 102.641C149.714 102.438 149.191 102.297 148.653 102.219C148.382 102.175 148.108 102.147 147.834 102.126C147.804 102.124 147.747 102.117 147.676 102.108C147.448 102.078 147.075 102.031 147.007 102.097C147.878 101.242 148.822 100.474 149.827 99.8031C150.859 99.1253 151.962 98.5846 153.108 98.195C154.296 97.7891 155.532 97.6261 156.745 97.7157C157.369 97.7605 157.978 97.8925 158.557 98.1079C159.162 98.3287 159.718 98.6603 160.2 99.0877C160.676 99.5375 161.056 100.086 161.319 100.702C161.556 101.279 161.728 101.886 161.833 102.513C161.889 102.85 161.929 103.222 161.969 103.607C162.155 105.36 162.369 107.384 164.324 107.636C164.448 107.654 164.574 107.666 164.7 107.671L165.091 107.66C165.361 107.626 165.629 107.572 165.895 107.499C166.444 107.338 166.981 107.121 167.498 106.854ZM152.479 104.388C152.586 104.515 152.696 104.64 152.809 104.762C152.754 104.7 152.7 104.638 152.645 104.576C152.59 104.513 152.535 104.45 152.479 104.388Z" fill="#FF007A"/>
</g>
<g filter="url(#filter2_b_991_105958)">
<rect x="150.038" y="62" width="15.4336" height="15.4615" rx="7.71679" fill="#05183D" fill-opacity="0.25"/>
</g>
<g style="mix-blend-mode:hard-light" filter="url(#filter3_b_991_105958)">
<rect x="150.038" y="62" width="15.4336" height="15.4615" rx="7.71679" fill="white" fill-opacity="0.25"/>
<g style="mix-blend-mode:multiply" opacity="0.75">
<path fill-rule="evenodd" clip-rule="evenodd" d="M156.791 67.6372C156.791 68.2598 156.287 68.7646 155.665 68.7646C155.044 68.7646 154.54 68.2598 154.54 67.6372C154.54 67.0145 155.044 66.5098 155.665 66.5098C156.287 66.5098 156.791 67.0145 156.791 67.6372Z" fill="#121D33"/>
<path fill-rule="evenodd" clip-rule="evenodd" d="M160.971 71.8247C160.971 72.4473 160.467 72.9521 159.845 72.9521C159.224 72.9521 158.72 72.4473 158.72 71.8247C158.72 71.202 159.224 70.6973 159.845 70.6973C160.467 70.6973 160.971 71.202 160.971 71.8247Z" fill="#121D33"/>
<path fill-rule="evenodd" clip-rule="evenodd" d="M160.654 67.1685L160.313 66.8268C160.03 66.5438 159.572 66.5438 159.29 66.8268L154.856 71.2683C154.574 71.5514 154.574 72.0103 154.856 72.2933L155.197 72.635C155.48 72.918 155.938 72.918 156.221 72.635L160.654 68.1934C160.937 67.9104 160.937 67.4515 160.654 67.1685Z" fill="#121D33"/>
</g>
<rect x="149.996" y="61.9576" width="15.5184" height="15.5463" rx="7.7592" stroke="#B8B9BD" stroke-width="0.0848101"/>
</g>
</g>
<g clip-path="url(#clip5_991_105958)">
<path d="M84.808 115.638L84.8568 115.672C85.0342 115.798 85.2132 115.922 85.3937 116.044L85.489 116.109C85.644 116.214 85.7989 116.318 85.9539 116.425L86.0902 116.514C86.2731 116.632 86.4569 116.75 86.6418 116.866L86.7255 116.918C86.8882 117.02 87.0525 117.12 87.2167 117.219L87.36 117.305C87.5486 117.418 87.7379 117.529 87.9279 117.638L87.9892 117.673C88.1627 117.772 88.337 117.87 88.5121 117.966L88.6609 118.045C88.8546 118.151 89.0483 118.256 89.2443 118.361L89.276 118.377C89.463 118.474 89.6508 118.57 89.8393 118.665L89.9942 118.744C90.1903 118.841 90.3863 118.937 90.5838 119.032L90.5939 119.036C90.7938 119.132 90.996 119.225 91.1982 119.317L91.3532 119.387C91.5417 119.472 91.7307 119.555 91.9203 119.637L91.9691 119.659C92.1729 119.746 92.3782 119.831 92.5835 119.916L92.7385 119.979C92.9221 120.058 93.1072 120.127 93.2924 120.198L93.3699 120.229C93.5775 120.308 93.7859 120.387 93.9943 120.465L94.1493 120.521C94.3314 120.587 94.5134 120.652 94.6971 120.714L94.7993 120.749C95.009 120.821 95.2203 120.89 95.4331 120.958L95.588 121.007C95.7693 121.065 95.9514 121.121 96.1342 121.176L96.2551 121.212C96.4689 121.275 96.6835 121.337 96.8989 121.397L97.0539 121.439C97.236 121.488 97.4196 121.537 97.6024 121.584L97.7395 121.62C97.9565 121.675 98.1742 121.728 98.3927 121.778L98.5399 121.812C98.7243 121.854 98.9092 121.896 99.0946 121.936L99.2449 121.969C99.4657 122.016 99.6865 122.061 99.9089 122.104L100.046 122.13C100.234 122.166 100.424 122.2 100.613 122.234L100.773 122.262C100.996 122.301 101.221 122.338 101.448 122.372L101.571 122.39C101.764 122.42 101.959 122.448 102.153 122.474L102.322 122.497C102.55 122.527 102.778 122.555 103.007 122.581L103.114 122.592C103.315 122.615 103.515 122.636 103.717 122.655L103.892 122.672C104.124 122.692 104.357 122.712 104.589 122.73L104.672 122.736C104.882 122.751 105.093 122.764 105.303 122.776L105.483 122.786C105.715 122.798 105.954 122.809 106.19 122.817H106.236C106.46 122.824 106.683 122.829 106.907 122.834H107.09C107.329 122.834 107.568 122.839 107.808 122.834C119.481 122.782 130.276 117.82 138.298 109.836C146.32 101.853 151.565 90.8545 152.131 78.7248C152.697 66.5951 148.477 55.6342 141.199 47.7189C140.98 47.4823 140.757 47.2457 140.531 47.0091C140.459 46.9342 140.386 46.8608 140.314 46.7875C140.159 46.6298 140.002 46.4721 139.843 46.3143C139.758 46.2302 139.672 46.1464 139.586 46.0628C139.435 45.9166 139.283 45.7718 139.13 45.6282L138.869 45.3838C138.704 45.2324 138.539 45.0833 138.372 44.9343C138.295 44.8664 138.217 44.7978 138.143 44.7308C137.9 44.5168 137.655 44.3065 137.407 44.0999L137.387 44.0841C137.145 43.8823 136.9 43.6835 136.654 43.4879C136.572 43.4233 136.489 43.3594 136.407 43.2955C136.233 43.1594 136.057 43.0245 135.881 42.891C135.786 42.8184 135.69 42.7474 135.594 42.6765C135.425 42.5508 135.255 42.427 135.084 42.305C135.027 42.264 134.971 42.2214 134.913 42.1804L137.991 44.3594C140.271 45.9751 142.378 47.8309 144.276 49.8962C146.981 52.8392 149.243 56.1729 150.99 59.7894L150.937 59.6782L150.954 59.7137L150.971 59.7484L151.005 59.8194C151.016 59.8399 151.029 59.8683 151.04 59.8896L151.057 59.925L151.091 59.9952L151.125 60.0654L151.143 60.1009L151.177 60.1711L151.194 60.2066L151.228 60.2768L151.245 60.3123C151.256 60.3335 151.27 60.3611 151.28 60.3824C154.31 66.6062 155.867 73.7707 155.511 81.4053C154.95 93.4191 149.758 104.316 141.814 112.223C133.871 120.129 123.176 125.043 111.616 125.095C110.113 125.103 108.61 125.026 107.116 124.866L106.347 124.787C106.527 124.807 106.708 124.825 106.889 124.841C99.8198 124.178 93.3466 121.687 87.8869 117.823L84.808 115.638Z" fill="#DFE3EB"/>
<path d="M71.5502 99.6744C71.6463 99.8707 71.7432 100.069 71.8423 100.26L71.8911 100.355C71.9774 100.523 72.0647 100.69 72.153 100.857C72.1793 100.908 72.2065 100.958 72.2305 101.009C72.3338 101.202 72.4371 101.394 72.5404 101.585L72.5636 101.626C72.6628 101.805 72.7643 101.983 72.8666 102.16L72.9541 102.311C73.0572 102.487 73.1617 102.664 73.264 102.839L73.2873 102.878C73.4004 103.065 73.5143 103.249 73.6305 103.43L73.7211 103.574C73.8218 103.732 73.9226 103.89 74.0248 104.047L74.0814 104.134C74.2002 104.315 74.32 104.494 74.4409 104.673L74.5323 104.806C74.6338 104.954 74.7368 105.102 74.8422 105.249L74.9197 105.36C75.0436 105.535 75.1699 105.71 75.2962 105.882C75.3257 105.922 75.3551 105.961 75.3838 106C75.4899 106.143 75.596 106.285 75.7037 106.427L75.7975 106.55C75.9287 106.721 76.0604 106.89 76.1926 107.058L76.2701 107.152C76.3832 107.294 76.4971 107.435 76.6118 107.576L76.7179 107.705C76.8543 107.87 76.9922 108.035 77.1316 108.198L77.182 108.257C77.3075 108.403 77.4346 108.548 77.5616 108.692L77.6747 108.82C77.8181 108.978 77.963 109.142 78.1086 109.301C85.3186 117.141 95.5578 121.964 107.12 121.913C118.681 121.863 129.374 116.945 137.318 109.04C145.261 101.135 150.461 90.241 151.022 78.2264C151.582 66.2119 147.403 55.3566 140.194 47.517C140.016 47.323 139.835 47.1313 139.652 46.9413L139.568 46.8537C139.394 46.6734 139.218 46.4944 139.041 46.3167L138.94 46.2157C138.761 46.0386 138.58 45.8627 138.398 45.6882L138.32 45.6148C138.136 45.4397 137.95 45.2655 137.762 45.0943L137.733 45.0667C137.541 44.8922 137.348 44.72 137.153 44.5502L137.056 44.4642C136.867 44.3002 136.677 44.138 136.486 43.9776L136.379 43.887C136.183 43.7256 135.987 43.5652 135.789 43.4059L135.719 43.3507C135.523 43.193 135.326 43.0389 135.127 42.8886L135.072 42.846C134.869 42.6883 134.664 42.5355 134.457 42.3878L134.346 42.3089C134.144 42.1623 133.941 42.0174 133.736 41.8744L133.624 41.7955C133.414 41.6499 133.201 41.5059 132.987 41.3634L132.934 41.3287C132.724 41.1899 132.512 41.0532 132.3 40.9186L132.223 40.8689C132.008 40.7333 131.792 40.6003 131.574 40.4699L131.453 40.3965C131.238 40.2683 131.022 40.1418 130.804 40.0172L130.691 39.951C130.464 39.8224 130.237 39.6955 130.008 39.5717L129.977 39.5559C129.752 39.4339 129.525 39.3143 129.295 39.1971L129.197 39.1466C128.972 39.0315 128.745 38.9184 128.517 38.8075L128.388 38.7452C128.16 38.6358 127.931 38.5281 127.7 38.4219L127.592 38.3737C127.353 38.2649 127.112 38.1598 126.869 38.0583L126.861 38.0544C126.617 37.9503 126.372 37.8485 126.126 37.7492L126.011 37.7026C125.775 37.608 125.538 37.5157 125.3 37.4258L125.165 37.3754C124.924 37.2855 124.683 37.1979 124.441 37.1128L124.342 37.0781C124.098 36.9934 123.853 36.9109 123.607 36.8304L123.561 36.8154C123.31 36.7345 123.058 36.6556 122.805 36.5789L122.676 36.5394C122.432 36.4648 122.186 36.3927 121.936 36.3233L121.797 36.2855C121.545 36.2171 121.292 36.1506 121.037 36.086L120.955 36.0655C120.704 36.0034 120.451 35.9435 120.198 35.8857L120.121 35.8683C119.864 35.81 119.604 35.7548 119.346 35.7019L119.206 35.6735C118.951 35.6223 118.695 35.5742 118.438 35.5276L118.301 35.504C118.039 35.4559 117.774 35.4141 117.508 35.377L117.446 35.3675C117.185 35.3281 116.923 35.2908 116.661 35.2556L116.561 35.2422C116.296 35.2082 116.031 35.1767 115.764 35.1475L115.687 35.1381L116.454 35.2193C123.157 35.9239 129.57 38.3638 135.084 42.3066C135.255 42.4285 135.425 42.5524 135.594 42.678C135.69 42.749 135.786 42.82 135.881 42.8925C136.058 43.0255 136.233 43.1604 136.407 43.2971C136.489 43.3609 136.572 43.4248 136.654 43.4895C136.9 43.6851 137.145 43.8838 137.387 44.0857L137.407 44.1015C137.655 44.3091 137.9 44.5194 138.143 44.7324C138.221 44.7994 138.298 44.868 138.372 44.9358C138.539 45.0849 138.704 45.2339 138.869 45.3853L139.13 45.6298C139.285 45.7733 139.437 45.9182 139.586 46.0643C139.672 46.1479 139.758 46.2318 139.843 46.3159C140.001 46.4736 140.158 46.6313 140.314 46.7891C140.386 46.8624 140.459 46.9357 140.531 47.0107C140.757 47.2472 140.98 47.4791 141.199 47.7204C148.477 55.6342 152.694 66.5951 152.131 78.7248C151.568 90.8545 146.32 101.856 138.302 109.839C130.284 117.821 119.486 122.785 107.812 122.834C107.573 122.834 107.333 122.834 107.095 122.834H106.911C106.687 122.831 106.464 122.825 106.241 122.818H106.195C105.958 122.81 105.723 122.799 105.487 122.786L105.307 122.777C105.097 122.765 104.886 122.751 104.677 122.737L104.594 122.73C104.361 122.713 104.129 122.693 103.897 122.673L103.722 122.656C103.52 122.636 103.319 122.616 103.119 122.593L103.012 122.582C102.779 122.556 102.555 122.528 102.327 122.498L102.158 122.475C101.964 122.448 101.77 122.42 101.575 122.391L101.452 122.373C101.226 122.338 101.001 122.302 100.777 122.263L100.618 122.235C100.429 122.201 100.239 122.166 100.051 122.131L99.9135 122.105C99.6912 122.062 99.4704 122.017 99.2496 121.969L99.0993 121.937C98.9138 121.897 98.7289 121.855 98.5445 121.812L98.3973 121.778C98.1788 121.726 97.9611 121.674 97.7442 121.621L97.6071 121.585C97.4242 121.538 97.2406 121.489 97.0585 121.439L96.9036 121.398C96.6882 121.338 96.4736 121.276 96.2598 121.213L96.1389 121.177C95.9561 121.124 95.774 121.068 95.5927 121.008L95.4377 120.959C95.2254 120.891 95.0142 120.822 94.804 120.75L94.7017 120.715C94.5181 120.652 94.336 120.588 94.1539 120.522L93.999 120.466C93.7906 120.387 93.5822 120.312 93.3745 120.23L93.2971 120.199C93.1119 120.128 92.9267 120.055 92.7431 119.98L92.5882 119.917C92.3828 119.832 92.1775 119.747 91.9738 119.659L91.925 119.638C91.7349 119.556 91.5458 119.473 91.3578 119.388L91.2029 119.318C91.0007 119.226 90.7985 119.133 90.5986 119.037L90.5885 119.033C90.3909 118.938 90.1949 118.842 89.9989 118.745L89.8439 118.666C89.6549 118.571 89.4671 118.475 89.2807 118.378L89.2489 118.361C89.0537 118.259 88.8615 118.154 88.6655 118.046L88.5168 117.967C88.3417 117.871 88.1674 117.773 87.9938 117.674L87.9326 117.639C87.742 117.53 87.5527 117.418 87.3647 117.305L87.2214 117.22C87.0571 117.121 86.8929 117.021 86.7302 116.919L86.6465 116.867C86.4611 116.751 86.2772 116.633 86.0949 116.514L85.9585 116.425C85.8036 116.322 85.6486 116.218 85.4936 116.11L85.3984 116.045C85.2178 115.923 85.0389 115.798 84.8614 115.673C82.5625 114.05 80.4391 112.183 78.527 110.104C75.8519 107.192 73.6093 103.897 71.8702 100.325C71.7545 100.09 71.6401 99.8552 71.527 99.6207C71.5309 99.6373 71.5409 99.6554 71.5502 99.6744Z" fill="#F0F2F7"/>
<path d="M67.2882 78.5932C67.8483 66.5787 73.0416 55.6824 80.9852 47.7758C88.9289 39.8691 99.6229 34.9552 111.184 34.904C112.714 34.8961 114.243 34.9751 115.764 35.1406C116.031 35.1697 116.296 35.2013 116.561 35.2352L116.661 35.2486C116.924 35.2865 117.184 35.3248 117.442 35.3637L117.504 35.3732C117.77 35.4142 118.035 35.4592 118.299 35.5057L118.436 35.5294C118.694 35.5759 118.949 35.624 119.204 35.6752L119.345 35.7036C119.604 35.7565 119.864 35.8117 120.119 35.87L120.197 35.8874C120.449 35.9447 120.701 36.0046 120.953 36.0672L121.036 36.0877C121.291 36.1518 121.544 36.2183 121.796 36.2872L121.936 36.3235C122.184 36.3924 122.431 36.4631 122.676 36.5356L122.805 36.5751C123.058 36.6508 123.31 36.7296 123.561 36.8116L123.607 36.8266C123.853 36.9071 124.097 36.9896 124.342 37.0743L124.441 37.1089C124.683 37.1941 124.924 37.2817 125.165 37.3716L125.3 37.422C125.538 37.5119 125.775 37.6042 126.011 37.6988L126.126 37.7454C126.372 37.8447 126.617 37.9465 126.86 38.0506L126.869 38.0545C127.111 38.1596 127.352 38.2648 127.592 38.3699L127.7 38.4188C127.93 38.524 128.159 38.6318 128.388 38.7422L128.517 38.8045C128.745 38.9154 128.971 39.0284 129.197 39.1436L129.295 39.194C129.524 39.3118 129.752 39.4314 129.977 39.5529L130.008 39.5686C130.24 39.6925 130.464 39.8194 130.691 39.948L130.803 40.0118C131.021 40.1364 131.237 40.2629 131.452 40.3912L131.573 40.4645C131.791 40.5954 132.007 40.7284 132.222 40.8635L132.299 40.9132C132.512 41.0478 132.723 41.1845 132.933 41.3233L132.987 41.358C133.2 41.5 133.413 41.644 133.623 41.7902L133.735 41.869C133.942 42.012 134.145 42.1569 134.345 42.3036L134.456 42.3824C134.663 42.5328 134.868 42.6855 135.071 42.8406L135.126 42.8832C135.325 43.0357 135.522 43.1897 135.718 43.3453L135.788 43.4005C135.986 43.5582 136.183 43.7186 136.378 43.8816L136.485 43.9723C136.677 44.13 136.867 44.2922 137.055 44.4588L137.152 44.5448C137.347 44.7151 137.54 44.8873 137.732 45.0613L137.761 45.0889C137.949 45.2601 138.135 45.4344 138.319 45.6094L138.397 45.6828C138.579 45.8568 138.759 46.0327 138.939 46.2104L139.041 46.3113C139.217 46.489 139.393 46.668 139.567 46.8483L139.651 46.9359C139.832 47.1259 140.014 47.3176 140.193 47.5116C147.399 55.3512 151.582 66.2065 151.021 78.221C150.459 90.2356 145.267 101.132 137.324 109.039C129.38 116.945 118.687 121.861 107.126 121.912C95.5647 121.963 85.3247 117.139 78.1147 109.3C77.9691 109.142 77.8242 108.98 77.6808 108.818L77.5677 108.691C77.4407 108.546 77.3136 108.401 77.1881 108.255L77.1377 108.196C76.9983 108.033 76.8604 107.868 76.724 107.703L76.6179 107.574C76.5032 107.434 76.3893 107.293 76.2762 107.151L76.1987 107.057C76.066 106.889 75.9343 106.72 75.8036 106.549L75.7098 106.426C75.6021 106.284 75.496 106.142 75.3899 105.998C75.3612 105.959 75.3318 105.92 75.3023 105.881C75.176 105.708 75.0497 105.534 74.9258 105.359L74.8483 105.248C74.7453 105.101 74.6422 104.953 74.5384 104.804L74.447 104.671C74.3261 104.493 74.2063 104.313 74.0875 104.133L74.0309 104.046C73.9287 103.888 73.8279 103.73 73.7272 103.573L73.6366 103.428C73.5204 103.244 73.4042 103.059 73.2934 102.876L73.2701 102.838C73.1647 102.663 73.0602 102.486 72.9602 102.309L72.8727 102.159C72.7704 101.981 72.6689 101.804 72.5697 101.625L72.5465 101.584C72.4406 101.393 72.3373 101.201 72.2366 101.007C72.2095 100.957 72.1824 100.906 72.1591 100.855C72.0708 100.689 71.9835 100.522 71.8972 100.354L71.8484 100.259C71.7493 100.065 71.6524 99.8693 71.5563 99.6729C68.4991 93.4397 66.9279 86.2531 67.2882 78.5932ZM107.329 118.293C128.686 118.293 146.806 100.324 147.8 78.1579C148.794 55.9915 132.285 38.0237 110.927 38.0237C89.5704 38.0237 71.4487 55.9923 70.4546 78.1579C69.4606 100.324 85.9693 118.293 107.329 118.293Z" fill="white"/>
<path d="M107.329 118.293C128.686 118.293 146.806 100.324 147.8 78.1577C148.793 55.9921 132.287 38.0236 110.928 38.0236C89.5681 38.0236 71.4487 55.9914 70.4547 78.1577C69.4607 100.324 85.9717 118.293 107.329 118.293Z" fill="white"/>
<g clip-path="url(#clip6_991_105958)">
<path d="M107.881 118.291C129.555 117.149 147.566 98.3332 148.11 76.2646C148.654 54.196 131.525 37.2315 109.851 38.3733C88.1775 39.5151 70.1661 58.3308 69.6219 80.3994C69.0777 102.468 86.2067 119.433 107.881 118.291Z" fill="#473BCB"/>
<path d="M124.18 77.9878L109.481 53.3579L93.5249 79.6028L108.63 87.8565L124.18 77.9878Z" fill="white"/>
<path d="M108.249 103.306L124.119 80.8932L108.559 90.7604L93.4533 82.5087L108.249 103.306Z" fill="white"/>
</g>
<g filter="url(#filter4_b_991_105958)">
<rect x="69.0383" y="45" width="23.1504" height="23.1923" rx="11.5752" fill="#05183D" fill-opacity="0.25"/>
</g>
<g style="mix-blend-mode:hard-light" filter="url(#filter5_b_991_105958)">
<rect x="69.0383" y="45" width="23.1504" height="23.1923" rx="11.5752" fill="white" fill-opacity="0.25"/>
<g style="mix-blend-mode:multiply" opacity="0.75">
<path fill-rule="evenodd" clip-rule="evenodd" d="M79.1669 53.4555C79.1669 54.3895 78.4111 55.1466 77.4788 55.1466C76.5465 55.1466 75.7908 54.3895 75.7908 53.4555C75.7908 52.5215 76.5465 51.7644 77.4788 51.7644C78.4111 51.7644 79.1669 52.5215 79.1669 53.4555Z" fill="#121D33"/>
<path fill-rule="evenodd" clip-rule="evenodd" d="M85.4368 59.7368C85.4368 60.6707 84.681 61.4279 83.7487 61.4279C82.8164 61.4279 82.0607 60.6707 82.0607 59.7368C82.0607 58.8028 82.8164 58.0457 83.7487 58.0457C84.681 58.0457 85.4368 58.8028 85.4368 59.7368Z" fill="#121D33"/>
<path fill-rule="evenodd" clip-rule="evenodd" d="M84.962 52.7525L84.4504 52.24C84.0266 51.8154 83.3395 51.8154 82.9158 52.24L76.2655 58.9023C75.8418 59.3268 75.8418 60.0152 76.2655 60.4397L76.7771 60.9522C77.2009 61.3767 77.888 61.3767 78.3118 60.9522L84.962 54.2899C85.3858 53.8654 85.3858 53.177 84.962 52.7525Z" fill="#121D33"/>
</g>
<rect x="68.9959" y="44.9576" width="23.2352" height="23.2771" rx="11.6176" stroke="#B8B9BD" stroke-width="0.0848101"/>
</g>
</g>
<g clip-path="url(#clip7_991_105958)">
<path d="M40.0314 141.857L40.0802 141.891C40.2576 142.016 40.4366 142.141 40.6171 142.263L40.7124 142.328C40.8673 142.433 41.0223 142.537 41.1772 142.643L41.3136 142.732C41.4964 142.851 41.6803 142.969 41.8652 143.085L41.9489 143.137C42.1116 143.239 42.2759 143.339 42.4401 143.438L42.5834 143.523C42.772 143.636 42.9613 143.748 43.1513 143.857L43.2125 143.892C43.3861 143.991 43.5604 144.089 43.7355 144.185L43.8843 144.264C44.078 144.37 44.2716 144.474 44.4677 144.579L44.4994 144.596C44.6864 144.693 44.8742 144.789 45.0627 144.884L45.2176 144.963C45.4136 145.06 45.6097 145.156 45.8072 145.25L45.8173 145.255C46.0172 145.351 46.2194 145.444 46.4216 145.536L46.5766 145.606C46.7651 145.691 46.9541 145.774 47.1437 145.856L47.1925 145.877C47.3963 145.965 47.6016 146.05 47.8069 146.134L47.9618 146.198C48.1455 146.276 48.3306 146.346 48.5158 146.417L48.5933 146.448C48.8009 146.526 49.0093 146.605 49.2177 146.684L49.3727 146.74C49.5548 146.806 49.7368 146.87 49.9204 146.933L50.0227 146.968C50.2324 147.04 50.4437 147.109 50.6565 147.177L50.8114 147.226C50.9927 147.284 51.1748 147.34 51.3576 147.395L51.4785 147.431C51.6923 147.494 51.9069 147.556 52.1223 147.616L52.2773 147.657C52.4593 147.707 52.643 147.756 52.8258 147.803L52.9629 147.839C53.1799 147.894 53.3976 147.947 53.6161 147.996L53.7633 148.03C53.9477 148.073 54.1326 148.114 54.318 148.155L54.4683 148.187C54.6891 148.235 54.9099 148.28 55.1323 148.323L55.2694 148.349C55.4577 148.384 55.6475 148.419 55.8365 148.453L55.9961 148.481C56.2198 148.52 56.4447 148.556 56.671 148.591L56.7941 148.609C56.9878 148.639 57.182 148.666 57.3768 148.693L57.5457 148.716C57.7734 148.746 58.0012 148.774 58.2305 148.8L58.3375 148.811C58.5381 148.834 58.7388 148.854 58.9402 148.874L59.1153 148.891C59.3478 148.911 59.5802 148.931 59.8126 148.948L59.8955 148.955C60.1057 148.969 60.316 148.983 60.5262 148.995L60.7059 149.004C60.9383 149.017 61.177 149.028 61.4133 149.036H61.4598C61.6829 149.043 61.9063 149.048 62.1299 149.052H62.3136C62.5522 149.052 62.7916 149.058 63.031 149.052C74.7043 149.001 85.4991 144.038 93.521 136.055C101.543 128.072 106.789 117.073 107.354 104.944C107.92 92.8139 103.701 81.8529 96.4225 73.9376C96.2032 73.701 95.9801 73.4644 95.7546 73.2279C95.6826 73.1529 95.6098 73.0796 95.5369 73.0063C95.382 72.8485 95.2252 72.6908 95.0667 72.5331C94.9814 72.449 94.8957 72.3651 94.8094 72.2815C94.6586 72.1354 94.5068 71.9905 94.3539 71.847L94.092 71.6025C93.9278 71.4511 93.762 71.3021 93.5954 71.153C93.5179 71.0852 93.4404 71.0166 93.3668 70.9496C93.1236 70.7356 92.878 70.5253 92.63 70.3187L92.6107 70.3029C92.3684 70.101 92.1238 69.9023 91.877 69.7067C91.7956 69.642 91.7127 69.5781 91.6306 69.5143C91.456 69.3781 91.2806 69.2433 91.1045 69.1097C91.0092 69.0372 90.9132 68.9662 90.8171 68.8952C90.6482 68.7696 90.4783 68.6457 90.3073 68.5238C90.25 68.4828 90.1942 68.4402 90.1361 68.3992L93.2142 70.5781C95.4947 72.1938 97.6016 74.0497 99.4999 76.115C102.204 79.0579 104.467 82.3917 106.213 86.0082L106.16 85.897L106.178 85.9324L106.195 85.9671L106.229 86.0381C106.24 86.0586 106.253 86.087 106.264 86.1083L106.281 86.1438L106.315 86.214L106.349 86.2842L106.367 86.3197L106.401 86.3898L106.418 86.4253L106.452 86.4955L106.469 86.531C106.48 86.5523 106.494 86.5799 106.504 86.6012C109.533 92.8249 111.09 99.9895 110.734 107.624C110.174 119.638 104.981 130.535 97.0377 138.442C89.094 146.348 78.3992 151.261 66.8389 151.314C65.336 151.322 63.8338 151.245 62.3391 151.085L61.5706 151.006C61.7503 151.026 61.9311 151.044 62.1129 151.06C55.0432 150.397 48.57 147.906 43.1103 144.042L40.0314 141.857Z" fill="#DFE3EB"/>
<path d="M26.7736 125.893C26.8697 126.089 26.9665 126.287 27.0657 126.479L27.1145 126.574C27.2008 126.741 27.2881 126.909 27.3764 127.075C27.4027 127.127 27.4298 127.177 27.4539 127.227C27.5572 127.421 27.6605 127.613 27.7638 127.804L27.787 127.845C27.8862 128.024 27.9877 128.201 28.09 128.379L28.1775 128.529C28.2805 128.706 28.3851 128.883 28.4874 129.058L28.5106 129.096C28.6238 129.283 28.7376 129.468 28.8539 129.649L28.9445 129.793C29.0452 129.951 29.146 130.108 29.2482 130.266L29.3048 130.353C29.4236 130.534 29.5434 130.713 29.6643 130.891L29.7557 131.025C29.8572 131.173 29.9602 131.321 30.0656 131.468L30.1431 131.579C30.267 131.754 30.3933 131.928 30.5196 132.101C30.549 132.141 30.5785 132.18 30.6072 132.219C30.7133 132.362 30.8194 132.504 30.9271 132.646L31.0209 132.769C31.1521 132.939 31.2838 133.109 31.416 133.277L31.4935 133.371C31.6066 133.513 31.7205 133.654 31.8352 133.794L31.9413 133.924C32.0777 134.089 32.2156 134.253 32.355 134.416L32.4054 134.476C32.5309 134.622 32.658 134.767 32.785 134.911L32.8981 135.039C33.0415 135.196 33.1863 135.361 33.332 135.52C40.5419 143.359 50.7812 148.183 62.343 148.132C73.9048 148.082 84.5973 143.164 92.5409 135.259C100.485 127.354 105.685 116.46 106.245 104.445C106.805 92.4306 102.627 81.5753 95.4176 73.7357C95.2394 73.5417 95.0581 73.3501 94.8753 73.16L94.7916 73.0725C94.617 72.8921 94.4414 72.7131 94.2648 72.5354L94.1633 72.4345C93.9841 72.2573 93.8033 72.0814 93.621 71.9069L93.5435 71.8336C93.3591 71.6585 93.1731 71.4842 92.9857 71.3131L92.9562 71.2855C92.7646 71.1109 92.5714 70.9387 92.3767 70.7689L92.2791 70.683C92.0905 70.5189 91.9007 70.3567 91.7096 70.1964L91.6019 70.1057C91.4067 69.9443 91.2102 69.784 91.0123 69.6247L90.9426 69.5694C90.7463 69.4117 90.549 69.2577 90.3507 69.1073L90.2949 69.0647C90.0919 68.907 89.8871 68.7543 89.6805 68.6065L89.5697 68.5277C89.3678 68.381 89.1643 68.2362 88.9592 68.0932L88.8476 68.0143C88.6369 67.8687 88.4246 67.7246 88.2108 67.5821L88.1573 67.5474C87.9471 67.4086 87.7359 67.2719 87.5236 67.1374L87.4461 67.0877C87.2312 66.952 87.0151 66.819 86.7976 66.6886L86.676 66.6153C86.4611 66.487 86.245 66.3606 86.0275 66.236L85.9144 66.1697C85.6874 66.0412 85.4604 65.9142 85.231 65.7904L85.2008 65.7746C84.9756 65.6527 84.7481 65.5331 84.5183 65.4158L84.4206 65.3653C84.1949 65.2502 83.9682 65.1372 83.7404 65.0262L83.611 64.9639C83.3832 64.8546 83.1542 64.7468 82.9238 64.6406L82.8153 64.5925C82.5762 64.4837 82.3352 64.3785 82.0925 64.2771L82.084 64.2731C81.8407 64.169 81.5951 64.0673 81.3495 63.9679L81.2348 63.9214C80.9983 63.8268 80.7612 63.7345 80.5236 63.6446L80.388 63.5941C80.1478 63.5042 79.9066 63.4167 79.6644 63.3315L79.5652 63.2968C79.3214 63.2122 79.0766 63.1296 78.8307 63.0492L78.7842 63.0342C78.5337 62.9532 78.2817 62.8744 78.0281 62.7976L77.8995 62.7582C77.6557 62.6835 77.409 62.6115 77.1596 62.5421L77.0209 62.5042C76.7688 62.4359 76.5155 62.3694 76.2608 62.3047L76.1779 62.2842C75.9269 62.2222 75.6749 62.1623 75.4218 62.1044L75.3443 62.0871C75.0871 62.0287 74.8275 61.9735 74.5695 61.9207L74.4293 61.8923C74.1744 61.841 73.9187 61.7929 73.6615 61.7464L73.5244 61.7227C73.2625 61.6746 72.9975 61.6328 72.731 61.5958L72.6698 61.5863C72.4085 61.5469 72.1466 61.5095 71.8842 61.4743L71.7843 61.4609C71.5193 61.427 71.2543 61.3955 70.9878 61.3663L70.9103 61.3568L71.6773 61.438C78.38 62.1426 84.7937 64.5825 90.3073 68.5253C90.4788 68.6473 90.6487 68.7711 90.8171 68.8968C90.9132 68.9677 91.0092 69.0387 91.1045 69.1113C91.2812 69.2443 91.4565 69.3791 91.6306 69.5158C91.7127 69.5797 91.7956 69.6436 91.877 69.7082C92.1233 69.9038 92.3679 70.1026 92.6107 70.3044L92.63 70.3202C92.878 70.5279 93.1236 70.7382 93.3668 70.9511C93.4443 71.0181 93.5218 71.0867 93.5954 71.1546C93.762 71.3036 93.9278 71.4527 94.092 71.6041L94.3539 71.8485C94.5088 71.9921 94.6607 72.1369 94.8094 72.2831C94.8952 72.3667 94.9809 72.4505 95.0667 72.5346C95.2247 72.6924 95.3815 72.8501 95.5369 73.0078C95.6098 73.0812 95.6826 73.1545 95.7547 73.2294C95.9801 73.466 96.2032 73.6978 96.4225 73.9392C103.701 81.8529 107.918 92.8139 107.354 104.944C106.791 117.073 101.544 128.075 93.5257 136.058C85.5076 144.04 74.709 149.003 63.0356 149.053C62.7962 149.053 62.5568 149.053 62.3182 149.053H62.1346C61.9104 149.049 61.687 149.044 61.4644 149.037H61.4179C61.1816 149.029 60.9461 149.018 60.7106 149.005L60.5308 148.996C60.3201 148.984 60.1099 148.97 59.9002 148.955L59.8173 148.949C59.5848 148.932 59.3524 148.912 59.12 148.891L58.9449 148.875C58.7435 148.855 58.5428 148.835 58.3421 148.812L58.2352 148.801C58.0028 148.775 57.7781 148.746 57.5503 148.716L57.3814 148.694C57.1872 148.667 56.993 148.639 56.7988 148.61L56.6756 148.592C56.4494 148.557 56.2244 148.52 56.0008 148.481L55.8412 148.454C55.6521 148.42 55.4623 148.385 55.2741 148.35L55.1369 148.324C54.9146 148.28 54.6938 148.235 54.473 148.188L54.3227 148.156C54.1372 148.116 53.9523 148.074 53.7679 148.031L53.6207 147.997C53.4022 147.945 53.1845 147.892 52.9676 147.839L52.8305 147.804C52.6476 147.757 52.464 147.708 52.2819 147.658L52.127 147.616C51.9116 147.556 51.697 147.495 51.4831 147.432L51.3623 147.395C51.1794 147.343 50.9974 147.287 50.8161 147.227L50.6611 147.178C50.4488 147.11 50.2376 147.04 50.0274 146.969L49.9251 146.933C49.7415 146.871 49.5594 146.806 49.3773 146.741L49.2224 146.685C49.014 146.606 48.8056 146.531 48.5979 146.448L48.5204 146.418C48.3353 146.347 48.1501 146.273 47.9665 146.198L47.8115 146.135C47.6062 146.051 47.4009 145.966 47.1972 145.878L47.1483 145.857C46.9583 145.775 46.7692 145.692 46.5812 145.607L46.4263 145.537C46.2241 145.444 46.0218 145.351 45.822 145.256L45.8119 145.251C45.6143 145.157 45.4183 145.06 45.2223 144.963L45.0673 144.885C44.8783 144.79 44.6905 144.694 44.5041 144.597L44.4723 144.58C44.2771 144.478 44.0849 144.373 43.8889 144.265L43.7402 144.186C43.5651 144.09 43.3907 143.992 43.2172 143.892L43.156 143.858C42.9654 143.748 42.7761 143.637 42.5881 143.524L42.4448 143.439C42.2805 143.34 42.1163 143.239 41.9536 143.138L41.8699 143.086C41.6845 142.97 41.5006 142.852 41.3183 142.733L41.1819 142.644C41.0269 142.541 40.872 142.437 40.717 142.329L40.6217 142.264C40.4412 142.142 40.2622 142.017 40.0848 141.892C37.7859 140.269 35.6625 138.402 33.7504 136.323C31.0753 133.41 28.8327 130.116 27.0936 126.544C26.9779 126.309 26.8635 126.074 26.7504 125.839C26.7543 125.856 26.7643 125.874 26.7736 125.893Z" fill="#F0F2F7"/>
<path d="M22.5116 104.812C23.0717 92.7974 28.265 81.9012 36.2086 73.9945C44.1522 66.0879 54.8463 61.174 66.4073 61.1227C67.9372 61.1148 69.4664 61.1938 70.9877 61.3593C71.2542 61.3885 71.5192 61.42 71.7842 61.454L71.8841 61.4674C72.147 61.5052 72.4076 61.5436 72.6659 61.5825L72.7271 61.592C72.9936 61.633 73.2585 61.6779 73.5227 61.7244L73.6599 61.7481C73.9171 61.7946 74.1728 61.8427 74.4277 61.894L74.5679 61.9224C74.8274 61.9752 75.087 62.0304 75.3427 62.0888L75.4201 62.1061C75.6727 62.1634 75.9248 62.2234 76.1763 62.2859L76.2592 62.3064C76.5144 62.3706 76.7677 62.4371 77.0192 62.506L77.1595 62.5422C77.4074 62.6111 77.654 62.6818 77.8994 62.7544L78.028 62.7938C78.2811 62.8695 78.5331 62.9484 78.7842 63.0304L78.8306 63.0454C79.076 63.1258 79.3208 63.2084 79.5651 63.293L79.6643 63.3277C79.9065 63.4129 80.1477 63.5004 80.3879 63.5903L80.5235 63.6408C80.7611 63.7307 80.9982 63.8229 81.2347 63.9176L81.3494 63.9641C81.595 64.0635 81.8406 64.1652 82.0839 64.2693L82.0924 64.2732C82.3346 64.3784 82.5756 64.4835 82.8152 64.5887L82.9237 64.6376C83.1536 64.7427 83.3826 64.8505 83.6109 64.9609L83.7403 65.0232C83.9681 65.1342 84.1948 65.2472 84.4206 65.3623L84.5182 65.4128C84.7475 65.5306 84.975 65.6502 85.2007 65.7716L85.231 65.7874C85.4634 65.9112 85.6873 66.0382 85.9143 66.1667L86.0266 66.2306C86.2446 66.3552 86.4608 66.4816 86.6751 66.6099L86.7968 66.6833C87.0142 66.8142 87.2304 66.9472 87.4452 67.0823L87.5227 67.132C87.735 67.2666 87.9462 67.4033 88.1565 67.5421L88.2099 67.5768C88.4238 67.7187 88.636 67.8628 88.8468 68.0089L88.9583 68.0878C89.1649 68.2308 89.3685 68.3756 89.5689 68.5223L89.6796 68.6012C89.8863 68.7515 90.091 68.9043 90.294 69.0594L90.3498 69.1019C90.5482 69.2544 90.7455 69.4084 90.9417 69.5641L91.0115 69.6193C91.2098 69.777 91.4063 69.9373 91.6011 70.1003L91.7088 70.191C91.9004 70.3487 92.0902 70.5109 92.2782 70.6776L92.3758 70.7635C92.57 70.9339 92.7632 71.1061 92.9553 71.2801L92.9848 71.3077C93.1723 71.4788 93.3582 71.6531 93.5426 71.8282L93.6201 71.9015C93.8019 72.0755 93.9827 72.2514 94.1624 72.4291L94.2639 72.53C94.4406 72.7077 94.6162 72.8868 94.7908 73.0671L94.8744 73.1546C95.0557 73.3447 95.237 73.5363 95.4168 73.7303C102.622 81.5699 106.806 92.4252 106.244 104.44C105.682 116.454 100.491 127.351 92.547 135.257C84.6034 143.164 73.9101 148.079 62.3491 148.131C50.7881 148.182 40.548 143.358 33.3381 135.518C33.1924 135.361 33.0476 135.199 32.9042 135.037L32.7911 134.909C32.6641 134.765 32.537 134.62 32.4115 134.474L32.3611 134.415C32.2217 134.252 32.0838 134.087 31.9474 133.922L31.8413 133.793C31.7266 133.652 31.6127 133.511 31.4996 133.369L31.4221 133.275C31.2894 133.108 31.1577 132.938 31.027 132.768L30.9332 132.645C30.8255 132.503 30.7194 132.361 30.6133 132.217C30.5846 132.178 30.5551 132.138 30.5257 132.1C30.3994 131.927 30.2731 131.753 30.1492 131.578L30.0717 131.466C29.9687 131.32 29.8656 131.171 29.7618 131.023L29.6704 130.89C29.5495 130.712 29.4297 130.532 29.3109 130.351L29.2543 130.265C29.1521 130.107 29.0513 129.949 28.9506 129.791L28.86 129.647C28.7438 129.463 28.6275 129.278 28.5168 129.095L28.4935 129.056C28.3881 128.881 28.2835 128.705 28.1836 128.528L28.0961 128.377C27.9938 128.2 27.8923 128.023 27.7931 127.843L27.7699 127.802C27.664 127.612 27.5607 127.419 27.46 127.226C27.4329 127.176 27.4057 127.125 27.3825 127.074C27.2942 126.908 27.2069 126.74 27.1206 126.572L27.0718 126.478C26.9726 126.284 26.8758 126.088 26.7797 125.892C23.7225 119.658 22.1513 112.472 22.5116 104.812ZM62.5521 144.512C83.9092 144.512 102.029 126.543 103.023 104.377C104.017 82.2103 87.508 64.2425 66.1509 64.2425C44.7937 64.2425 26.672 82.2111 25.678 104.377C24.684 126.542 41.1926 144.512 62.5521 144.512Z" fill="white"/>
<path d="M62.5522 144.511C83.9093 144.511 102.029 126.543 103.023 104.376C104.017 82.2109 87.5104 64.2423 66.1509 64.2423C44.7915 64.2423 26.6721 82.2101 25.6781 104.376C24.6841 126.543 41.195 144.511 62.5522 144.511Z" fill="white"/>
<g clip-path="url(#clip8_991_105958)">
<path d="M63.104 144.51C84.778 143.368 102.789 124.552 103.334 102.483C103.878 80.4149 86.7488 63.4503 65.0748 64.5921C43.4009 65.7339 25.3895 84.5497 24.8453 106.618C24.3011 128.687 41.4301 145.651 63.104 144.51Z" fill="#FF9B22"/>
<path d="M81.8442 98.6771C82.7434 93.4019 78.8958 90.7937 73.5902 89.1975L75.5017 82.0134L71.2898 81.1628L69.4271 88.1573C68.3205 87.9313 67.1841 87.7267 66.0501 87.5221L67.9262 80.482L63.7143 79.6289L61.8029 86.8105C60.886 86.6443 59.9836 86.4824 59.1111 86.3039L59.1166 86.2811L53.3058 85.1032L52.0639 89.7729C52.0639 89.7729 55.1927 90.3413 55.1253 90.3898C56.8315 90.7364 57.112 91.8764 57.0378 92.7982L51.8028 112.476C51.5789 113.017 51.027 113.841 49.8326 113.603C49.8752 113.663 46.7712 112.983 46.7712 112.983L44.5449 118.034L50.029 119.144C51.0478 119.352 52.0467 119.574 53.0288 119.779L51.0982 127.044L55.3076 127.895L57.2191 120.711C58.369 120.967 59.4851 121.203 60.577 121.424L58.6712 128.578L62.8831 129.429L64.8133 122.179C72.0097 123.192 77.4588 122.343 79.9115 115.565C81.8881 110.108 80.0292 107.116 76.2747 105.301C79.0623 104.505 81.1929 102.54 81.8442 98.6771ZM71.8147 113.018C70.3752 118.449 61.58 116.017 58.7233 115.441L61.2877 105.816C64.1443 106.396 73.3237 107.357 71.8147 113.018ZM73.4699 99.0409C72.1552 103.981 64.8384 101.89 62.4619 101.409L64.7838 92.6819C67.1603 93.1628 74.8414 93.888 73.4699 99.0409Z" fill="white"/>
</g>
<g filter="url(#filter6_b_991_105958)">
<rect x="23.0002" y="123.808" width="12.8613" height="12.8846" rx="6.43066" fill="#05183D" fill-opacity="0.25"/>
</g>
<g style="mix-blend-mode:hard-light" filter="url(#filter7_b_991_105958)">
<rect x="23.0002" y="123.808" width="12.8613" height="12.8846" rx="6.43066" fill="white" fill-opacity="0.25"/>
<g style="mix-blend-mode:multiply" opacity="0.75" clip-path="url(#clip9_991_105958)">
<path fill-rule="evenodd" clip-rule="evenodd" d="M28.6272 128.505C28.6272 129.024 28.2073 129.445 27.6894 129.445C27.1715 129.445 26.7516 129.024 26.7516 128.505C26.7516 127.986 27.1715 127.566 27.6894 127.566C28.2073 127.566 28.6272 127.986 28.6272 128.505Z" fill="#121D33"/>
<path fill-rule="evenodd" clip-rule="evenodd" d="M32.1105 131.995C32.1105 132.514 31.6906 132.934 31.1727 132.934C30.6547 132.934 30.2349 132.514 30.2349 131.995C30.2349 131.476 30.6547 131.055 31.1727 131.055C31.6906 131.055 32.1105 131.476 32.1105 131.995Z" fill="#121D33"/>
<path fill-rule="evenodd" clip-rule="evenodd" d="M31.8467 128.115L31.5625 127.83C31.3271 127.594 30.9454 127.594 30.7099 127.83L27.0153 131.531C26.7799 131.767 26.7799 132.149 27.0153 132.385L27.2995 132.67C27.535 132.906 27.9167 132.906 28.1521 132.67L31.8467 128.969C32.0821 128.733 32.0821 128.35 31.8467 128.115Z" fill="#121D33"/>
</g>
<rect x="22.9578" y="123.765" width="12.9461" height="12.9694" rx="6.47306" stroke="#B8B9BD" stroke-width="0.0848101"/>
</g>
</g>
<g filter="url(#filter8_b_991_105958)">
<rect x="92.4513" y="108.346" width="23.1504" height="23.1923" rx="11.5752" fill="#05183D" fill-opacity="0.25"/>
</g>
<g style="mix-blend-mode:hard-light" filter="url(#filter9_b_991_105958)">
<rect x="92.4513" y="108.346" width="23.1504" height="23.1923" rx="11.5752" fill="white" fill-opacity="0.25"/>
<g style="mix-blend-mode:multiply" opacity="0.75">
<path fill-rule="evenodd" clip-rule="evenodd" d="M102.58 116.802C102.58 117.736 101.824 118.493 100.892 118.493C99.9595 118.493 99.2037 117.736 99.2037 116.802C99.2037 115.868 99.9595 115.111 100.892 115.111C101.824 115.111 102.58 115.868 102.58 116.802Z" fill="#121D33"/>
<path fill-rule="evenodd" clip-rule="evenodd" d="M108.85 123.083C108.85 124.017 108.094 124.774 107.162 124.774C106.229 124.774 105.474 124.017 105.474 123.083C105.474 122.149 106.229 121.392 107.162 121.392C108.094 121.392 108.85 122.149 108.85 123.083Z" fill="#121D33"/>
<path fill-rule="evenodd" clip-rule="evenodd" d="M108.375 116.099L107.863 115.586C107.44 115.162 106.753 115.162 106.329 115.586L99.6785 122.248C99.2547 122.673 99.2547 123.361 99.6785 123.786L100.19 124.298C100.614 124.723 101.301 124.723 101.725 124.298L108.375 117.636C108.799 117.212 108.799 116.523 108.375 116.099Z" fill="#121D33"/>
</g>
<rect x="92.4089" y="108.304" width="23.2352" height="23.2771" rx="11.6176" stroke="#B8B9BD" stroke-width="0.0848101"/>
</g>
<g filter="url(#filter10_b_991_105958)">
<rect x="218.063" y="7.06323" width="15.2658" height="15.2658" rx="7.63291" fill="#05183D" fill-opacity="0.25"/>
</g>
<g style="mix-blend-mode:hard-light" filter="url(#filter11_b_991_105958)">
<rect x="218.063" y="7.06323" width="15.2658" height="15.2658" rx="7.63291" fill="white" fill-opacity="0.25"/>
<g style="mix-blend-mode:multiply" opacity="0.75">
<path fill-rule="evenodd" clip-rule="evenodd" d="M224.742 12.629C224.742 13.2438 224.244 13.7421 223.629 13.7421C223.014 13.7421 222.516 13.2438 222.516 12.629C222.516 12.0142 223.014 11.5159 223.629 11.5159C224.244 11.5159 224.742 12.0142 224.742 12.629Z" fill="#121D33"/>
<path fill-rule="evenodd" clip-rule="evenodd" d="M228.877 16.7635C228.877 17.3783 228.378 17.8766 227.764 17.8766C227.149 17.8766 226.65 17.3783 226.65 16.7635C226.65 16.1487 227.149 15.6504 227.764 15.6504C228.378 15.6504 228.877 16.1487 228.877 16.7635Z" fill="#121D33"/>
<path fill-rule="evenodd" clip-rule="evenodd" d="M228.564 12.1662L228.226 11.8289C227.947 11.5495 227.494 11.5495 227.214 11.8289L222.829 16.2142C222.55 16.4937 222.55 16.9467 222.829 17.2262L223.166 17.5635C223.446 17.843 223.899 17.843 224.178 17.5635L228.564 13.1782C228.843 12.8988 228.843 12.4457 228.564 12.1662Z" fill="#121D33"/>
</g>
<rect x="218.021" y="7.02083" width="15.3506" height="15.3506" rx="7.67532" stroke="#B8B9BD" stroke-width="0.0848101"/>
</g>
<defs>
<filter id="filter0_b_991_105958" x="189.798" y="56.7595" width="24.481" height="24.481" filterUnits="userSpaceOnUse" color-interpolation-filters="sRGB">
<feFlood flood-opacity="0" result="BackgroundImageFix"/>
<feGaussianBlur in="BackgroundImageFix" stdDeviation="2.12025"/>
<feComposite in2="SourceAlpha" operator="in" result="effect1_backgroundBlur_991_105958"/>
<feBlend mode="normal" in="SourceGraphic" in2="effect1_backgroundBlur_991_105958" result="shape"/>
</filter>
<filter id="filter1_b_991_105958" x="180.384" y="47.3455" width="43.3089" height="43.3089" filterUnits="userSpaceOnUse" color-interpolation-filters="sRGB">
<feFlood flood-opacity="0" result="BackgroundImageFix"/>
<feGaussianBlur in="BackgroundImageFix" stdDeviation="6.78481"/>
<feComposite in2="SourceAlpha" operator="in" result="effect1_backgroundBlur_991_105958"/>
<feBlend mode="normal" in="SourceGraphic" in2="effect1_backgroundBlur_991_105958" result="shape"/>
</filter>
<filter id="filter2_b_991_105958" x="145.798" y="57.7595" width="23.9146" height="23.9426" filterUnits="userSpaceOnUse" color-interpolation-filters="sRGB">
<feFlood flood-opacity="0" result="BackgroundImageFix"/>
<feGaussianBlur in="BackgroundImageFix" stdDeviation="2.12025"/>
<feComposite in2="SourceAlpha" operator="in" result="effect1_backgroundBlur_991_105958"/>
<feBlend mode="normal" in="SourceGraphic" in2="effect1_backgroundBlur_991_105958" result="shape"/>
</filter>
<filter id="filter3_b_991_105958" x="136.384" y="48.3455" width="42.7425" height="42.7705" filterUnits="userSpaceOnUse" color-interpolation-filters="sRGB">
<feFlood flood-opacity="0" result="BackgroundImageFix"/>
<feGaussianBlur in="BackgroundImageFix" stdDeviation="6.78481"/>
<feComposite in2="SourceAlpha" operator="in" result="effect1_backgroundBlur_991_105958"/>
<feBlend mode="normal" in="SourceGraphic" in2="effect1_backgroundBlur_991_105958" result="shape"/>
</filter>
<filter id="filter4_b_991_105958" x="64.7978" y="40.7595" width="31.6314" height="31.6733" filterUnits="userSpaceOnUse" color-interpolation-filters="sRGB">
<feFlood flood-opacity="0" result="BackgroundImageFix"/>
<feGaussianBlur in="BackgroundImageFix" stdDeviation="2.12025"/>
<feComposite in2="SourceAlpha" operator="in" result="effect1_backgroundBlur_991_105958"/>
<feBlend mode="normal" in="SourceGraphic" in2="effect1_backgroundBlur_991_105958" result="shape"/>
</filter>
<filter id="filter5_b_991_105958" x="55.3839" y="31.3455" width="50.4593" height="50.5012" filterUnits="userSpaceOnUse" color-interpolation-filters="sRGB">
<feFlood flood-opacity="0" result="BackgroundImageFix"/>
<feGaussianBlur in="BackgroundImageFix" stdDeviation="6.78481"/>
<feComposite in2="SourceAlpha" operator="in" result="effect1_backgroundBlur_991_105958"/>
<feBlend mode="normal" in="SourceGraphic" in2="effect1_backgroundBlur_991_105958" result="shape"/>
</filter>
<filter id="filter6_b_991_105958" x="18.7597" y="119.567" width="21.3423" height="21.3657" filterUnits="userSpaceOnUse" color-interpolation-filters="sRGB">
<feFlood flood-opacity="0" result="BackgroundImageFix"/>
<feGaussianBlur in="BackgroundImageFix" stdDeviation="2.12025"/>
<feComposite in2="SourceAlpha" operator="in" result="effect1_backgroundBlur_991_105958"/>
<feBlend mode="normal" in="SourceGraphic" in2="effect1_backgroundBlur_991_105958" result="shape"/>
</filter>
<filter id="filter7_b_991_105958" x="9.34579" y="110.153" width="40.1702" height="40.1936" filterUnits="userSpaceOnUse" color-interpolation-filters="sRGB">
<feFlood flood-opacity="0" result="BackgroundImageFix"/>
<feGaussianBlur in="BackgroundImageFix" stdDeviation="6.78481"/>
<feComposite in2="SourceAlpha" operator="in" result="effect1_backgroundBlur_991_105958"/>
<feBlend mode="normal" in="SourceGraphic" in2="effect1_backgroundBlur_991_105958" result="shape"/>
</filter>
<filter id="filter8_b_991_105958" x="88.2108" y="104.106" width="31.6314" height="31.6733" filterUnits="userSpaceOnUse" color-interpolation-filters="sRGB">
<feFlood flood-opacity="0" result="BackgroundImageFix"/>
<feGaussianBlur in="BackgroundImageFix" stdDeviation="2.12025"/>
<feComposite in2="SourceAlpha" operator="in" result="effect1_backgroundBlur_991_105958"/>
<feBlend mode="normal" in="SourceGraphic" in2="effect1_backgroundBlur_991_105958" result="shape"/>
</filter>
<filter id="filter9_b_991_105958" x="78.7968" y="94.6917" width="50.4593" height="50.5012" filterUnits="userSpaceOnUse" color-interpolation-filters="sRGB">
<feFlood flood-opacity="0" result="BackgroundImageFix"/>
<feGaussianBlur in="BackgroundImageFix" stdDeviation="6.78481"/>
<feComposite in2="SourceAlpha" operator="in" result="effect1_backgroundBlur_991_105958"/>
<feBlend mode="normal" in="SourceGraphic" in2="effect1_backgroundBlur_991_105958" result="shape"/>
</filter>
<filter id="filter10_b_991_105958" x="213.823" y="2.82273" width="23.7469" height="23.7469" filterUnits="userSpaceOnUse" color-interpolation-filters="sRGB">
<feFlood flood-opacity="0" result="BackgroundImageFix"/>
<feGaussianBlur in="BackgroundImageFix" stdDeviation="2.12025"/>
<feComposite in2="SourceAlpha" operator="in" result="effect1_backgroundBlur_991_105958"/>
<feBlend mode="normal" in="SourceGraphic" in2="effect1_backgroundBlur_991_105958" result="shape"/>
</filter>
<filter id="filter11_b_991_105958" x="204.409" y="-6.59123" width="42.5747" height="42.5747" filterUnits="userSpaceOnUse" color-interpolation-filters="sRGB">
<feFlood flood-opacity="0" result="BackgroundImageFix"/>
<feGaussianBlur in="BackgroundImageFix" stdDeviation="6.78481"/>
<feComposite in2="SourceAlpha" operator="in" result="effect1_backgroundBlur_991_105958"/>
<feBlend mode="normal" in="SourceGraphic" in2="effect1_backgroundBlur_991_105958" result="shape"/>
</filter>
<radialGradient id="paint0_radial_991_105958" cx="0" cy="0" r="1" gradientUnits="userSpaceOnUse" gradientTransform="translate(190.607 47.181) rotate(176.984) scale(100.703 51.121)">
<stop stop-color="#FFCAE3"/>
<stop offset="1" stop-color="#F3F5F7"/>
</radialGradient>
<clipPath id="clip0_991_105958">
<rect width="88.323" height="90.1923" fill="white" transform="matrix(-1 0 0 1 257.208 12.8801)"/>
</clipPath>
<clipPath id="clip1_991_105958">
<rect width="78.5971" height="79.9417" fill="white" transform="matrix(0.998615 -0.0526078 -0.0246528 0.999696 172.254 18.417)"/>
</clipPath>
<clipPath id="clip2_991_105958">
<rect width="8" height="8" fill="white" transform="translate(198.038 65.0001)"/>
</clipPath>
<clipPath id="clip3_991_105958">
<rect width="88.323" height="90.1923" fill="white" transform="matrix(-1 0 0 1 204.43 45.3914)"/>
</clipPath>
<clipPath id="clip4_991_105958">
<rect width="78.5971" height="79.9417" fill="white" transform="matrix(0.998615 -0.0526078 -0.0246528 0.999696 119.477 50.9282)"/>
</clipPath>
<clipPath id="clip5_991_105958">
<rect width="88.323" height="90.1923" fill="white" transform="matrix(-1 0 0 1 155.561 34.9038)"/>
</clipPath>
<clipPath id="clip6_991_105958">
<rect width="78.5971" height="79.9417" fill="white" transform="matrix(0.998615 -0.0526078 -0.0246528 0.999696 70.6073 40.4407)"/>
</clipPath>
<clipPath id="clip7_991_105958">
<rect width="88.323" height="90.1923" fill="white" transform="matrix(-1 0 0 1 110.784 61.1226)"/>
</clipPath>
<clipPath id="clip8_991_105958">
<rect width="78.5971" height="79.9417" fill="white" transform="matrix(0.998615 -0.0526078 -0.0246528 0.999696 25.8307 66.6595)"/>
</clipPath>
<clipPath id="clip9_991_105958">
<rect width="6.43066" height="6.44231" fill="white" transform="translate(26.2157 127.029)"/>
</clipPath>
</defs>
</svg>
