<svg width="149" height="32" viewBox="0 0 149 32" fill="none" xmlns="http://www.w3.org/2000/svg">
<path d="M5.3733 18.8221C5.3733 19.8138 4.72607 20.1374 4.37703 20.219V20.2884C4.77384 20.3785 5.5066 20.6937 5.5066 21.7678C5.5066 22.915 4.60125 23.4798 3.46244 23.4798H0.582275V17.2695H3.42006C4.53267 17.2695 5.3733 17.7696 5.3733 18.8221ZM3.26904 19.8916C3.89469 19.8916 4.36008 19.6627 4.36008 19.0201C4.36008 18.3775 3.89469 18.1448 3.26904 18.1448H1.63017V19.8916H3.26904ZM3.32066 22.6045C3.98484 22.6045 4.46333 22.3587 4.46333 21.6861C4.46333 21.0134 3.98484 20.7676 3.32066 20.7676H1.63017V22.6045H3.32066Z" fill="#939598"/>
<path d="M10.1598 17.2695L12.3549 23.3504V23.4798H11.2855L10.7207 21.8587H8.21962L7.65484 23.4798H6.61157V23.3504L8.80675 17.2695H10.1605H10.1598ZM10.4356 20.961L9.50406 18.292H9.43472L8.50317 20.961H10.4348H10.4356Z" fill="#939598"/>
<path d="M16.434 17.1482C18.3619 17.1482 19.1855 18.334 19.2372 19.2872V19.4166H18.2494C18.2016 18.8341 17.7532 18.0413 16.451 18.0413C15.1488 18.0413 14.3806 18.8911 14.3806 20.3744C14.3806 21.8576 15.135 22.7028 16.451 22.7028C17.767 22.7028 18.2062 21.8923 18.2709 21.2882H19.2587V21.4176C19.1809 22.4054 18.3703 23.5997 16.434 23.5997C14.4978 23.5997 13.3035 22.427 13.3035 20.3736C13.3035 18.3202 14.4808 17.1475 16.434 17.1475V17.1482Z" fill="#939598"/>
<path d="M21.9023 17.2693V19.8652H21.9717L24.7617 17.2693H25.9991V17.3988L22.8508 20.3051L26.0854 23.3494V23.4789H24.7832L21.9717 20.8183H21.9023V23.4789H20.8459V17.2686H21.9023V17.2693Z" fill="#939598"/>
<path d="M31.9366 17.2693V18.1446H28.5857V19.9083H31.5051V20.7836H28.5857V22.6036H31.9967V23.4789H27.5293V17.2686H31.9366V17.2693Z" fill="#939598"/>
<path d="M39.0993 20.3737C39.0993 22.3015 37.8619 23.4789 35.9688 23.4789H33.5879V17.2686H35.9688C37.8619 17.2686 39.0993 18.4459 39.0993 20.3737ZM35.9295 22.5774C37.1762 22.5774 38.0253 21.8184 38.0253 20.3737C38.0253 18.929 37.1754 18.1701 35.9295 18.1701H34.6489V22.5774H35.9295Z" fill="#939598"/>
<path d="M48.2283 18.8221C48.2283 19.8138 47.5811 20.1374 47.2321 20.219V20.2884C47.6289 20.3785 48.3616 20.6937 48.3616 21.7678C48.3616 22.915 47.4563 23.4798 46.3175 23.4798H43.4365V17.2695H46.2743C47.3869 17.2695 48.2275 17.7696 48.2275 18.8221H48.2283ZM46.1241 19.8916C46.7497 19.8916 47.2151 19.6627 47.2151 19.0201C47.2151 18.3775 46.7497 18.1448 46.1241 18.1448H44.4852V19.8916H46.1241ZM46.1757 22.6045C46.8399 22.6045 47.3183 22.3587 47.3183 21.6861C47.3183 21.0134 46.8399 20.7676 46.1757 20.7676H44.4852V22.6045H46.1757Z" fill="#939598"/>
<path d="M50.462 17.2695L52.1787 20.0595H52.2481L53.9686 17.2695H55.1074V17.399L52.7358 21.1336V23.4798H51.6709V21.1336L49.2993 17.399V17.2695H50.4636H50.462Z" fill="#939598"/>
<path d="M62.0589 32V16.9104L69.022 13.1272L67.021 11.7949V0L77.0175 6.83904C77.9653 7.48703 78.4954 8.55881 78.4368 9.70456C78.3783 10.8511 77.741 11.8628 76.7324 12.4106L74.9256 13.3922L80.0526 16.8071C81.0157 17.4489 81.5597 18.5223 81.5065 19.678C81.4534 20.8346 80.8138 21.8532 79.796 22.4041L62.0581 31.9992L62.0589 32ZM65.1109 18.7257V26.88L78.3444 19.7212C78.3713 19.7065 78.453 19.6626 78.4584 19.5393C78.4638 19.416 78.3867 19.3652 78.3613 19.3482L71.8937 15.0411L65.1101 18.7264L65.1109 18.7257ZM70.0729 10.1607L72.0539 11.4798L75.2754 9.72921C75.3016 9.71457 75.3825 9.67066 75.3887 9.54892C75.3948 9.42718 75.3193 9.37478 75.2939 9.35783L70.0722 5.78575V10.1607H70.0729Z" fill="#939598"/>
<path d="M97.1009 15.6534V15.4846C97.9323 15.2951 99.1158 14.5053 99.0618 12.0959C99.0033 9.46925 96.9568 8.32812 94.2107 8.32812H87.4934V23.4825H94.8071C97.5956 23.4825 99.8585 22.0725 99.8585 19.2516C99.8585 16.6519 98.0694 15.8837 97.1017 15.6526L97.1009 15.6534ZM90.671 10.9494H93.7368C95.0737 10.9494 95.9991 11.4017 95.9991 12.7277C95.9991 14.0538 95.0729 14.5061 93.7368 14.5061H90.671V10.9494ZM94.3224 20.8628H90.671V17.1266H94.3224C95.7117 17.1266 96.711 17.6104 96.711 18.9997C96.711 20.3889 95.7109 20.862 94.3224 20.862V20.8628Z" fill="#939598"/>
<path d="M106.303 12.2129C103.632 12.2129 101.896 13.2531 101.356 14.8958C101.245 15.2348 101.199 15.5923 101.199 15.9491H104.072C104.167 14.949 104.924 14.4235 106.261 14.4235C107.598 14.4235 108.25 14.9497 108.25 16.1494V16.3498L104.525 16.8128C102.346 17.0756 100.61 18.0757 100.61 20.2963C100.61 22.5169 102.304 23.6742 104.809 23.6742C106.882 23.6742 107.808 22.98 108.187 22.3482H108.356C108.356 22.9761 108.864 23.4847 109.492 23.4847H111.218V16.5809C111.218 13.5713 109.345 12.2137 106.304 12.2137L106.303 12.2129ZM108.25 18.8747C108.25 20.5798 107.093 21.4112 105.493 21.4112C104.357 21.4112 103.693 20.9058 103.693 20.1168C103.693 19.3278 104.324 18.9487 105.23 18.8223L108.25 18.4224V18.8747Z" fill="#939598"/>
<path d="M123.683 12.4642H120.127L115.843 16.5156H115.675V11.1343C115.675 10.7028 115.461 10.2983 115.105 10.0548L112.581 8.32812V23.4825H115.675V19.0729H115.843L120.053 23.4825H123.715L118.372 17.7052L123.683 12.4642Z" fill="#939598"/>
<path d="M142.903 14.8006V12.4644H139.946V11.1353C139.946 10.7038 139.732 10.2993 139.376 10.0558L136.852 8.3291V12.4652H131.956L127.673 16.5165H127.504V11.1353C127.504 10.7038 127.291 10.2993 126.935 10.0558L124.411 8.3291V23.4835H127.504V19.0738H127.673L131.882 23.4835H135.544L130.202 17.7062L133.298 14.8014H136.851V20.4739C136.851 22.431 138.083 23.4835 140.071 23.4835H142.902V20.9785H140.114L139.945 20.8098V14.8006H142.902H142.903Z" fill="#939598"/>
<path d="M144.361 21.6807H146.004V22.0628H145.415V23.4829H144.95V22.0628H144.361V21.6807ZM146.205 21.6807H146.85L147.295 22.8341H147.327L147.771 21.6807H148.418V23.4829H147.962V22.3656H147.931L147.497 23.4829H147.123L146.692 22.3656H146.66V23.4829H146.205V21.6807Z" fill="#939598"/>
</svg>
