<svg width="24" height="24" viewBox="0 0 24 24" fill="none" xmlns="http://www.w3.org/2000/svg">
<path d="M7.21064 18.6838C7.39981 18.8856 7.66413 19.0001 7.94074 18.9999C8.21735 18.9998 8.48154 18.8851 8.67051 18.6831L11.6035 15.5477C11.9808 15.1444 11.9597 14.5116 11.5563 14.1343C11.153 13.757 10.5202 13.7781 10.1429 14.1814L8.94023 15.4671V7.99951C8.94023 7.44723 9.38794 6.99951 9.94023 6.99951H11.0139C11.5662 6.99951 12.0139 6.5518 12.0139 5.99951C12.0139 5.44723 11.5662 4.99951 11.0139 4.99951L9.94023 4.99951C8.28337 4.99951 6.94023 6.34266 6.94023 7.99951V15.4709L5.73084 14.1807C5.35314 13.7778 4.7203 13.7573 4.31736 14.135C3.91443 14.5127 3.89397 15.1455 4.27167 15.5485L7.21064 18.6838Z" fill="#121D33"/>
<path d="M16.7872 5.31602C16.5981 5.11421 16.3338 4.99977 16.0571 4.99992C15.7805 5.00006 15.5163 5.11477 15.3274 5.31677L12.3944 8.4521C12.0171 8.85543 12.0382 9.48824 12.4415 9.86553C12.8449 10.2428 13.4777 10.2217 13.855 9.8184L15.0577 8.53273V16.0003C15.0577 16.5526 14.6099 17.0003 14.0577 17.0003H12.984C12.4317 17.0003 11.984 17.448 11.984 18.0003C11.984 18.5526 12.4317 19.0003 12.984 19.0003H14.0577C15.7145 19.0003 17.0577 17.6572 17.0577 16.0003L17.0577 8.52895L18.267 9.81914C18.6447 10.2221 19.2776 10.2425 19.6805 9.86484C20.0835 9.48713 20.1039 8.8543 19.7262 8.45136L16.7872 5.31602Z" fill="#121D33"/>
</svg>
