<svg width="49" height="50" viewBox="0 0 49 50" fill="none" xmlns="http://www.w3.org/2000/svg">
<path fill-rule="evenodd" clip-rule="evenodd" d="M34.3628 31.6501C38.7473 28.5518 41.6102 23.4434 41.6102 17.6663C41.6102 8.21608 33.9493 0.555176 24.4991 0.555176C15.0489 0.555176 7.38802 8.21608 7.38802 17.6663C7.38802 23.3809 10.1894 28.4411 14.4937 31.5488C5.59455 34.8021 1.5688 42.0607 0.180146 46.2266C-0.06833 46.972 0.0566769 47.7915 0.516114 48.4289C0.97555 49.0663 1.7134 49.4441 2.49915 49.4441H46.4991C47.2849 49.4441 48.0228 49.0663 48.4822 48.4289C48.9416 47.7915 49.0666 46.972 48.8182 46.2266C47.4268 42.0526 42.9001 34.9379 34.3628 31.6501Z" fill="#121D33"/>
</svg>
