<svg width="45" height="45" viewBox="0 0 45 45" fill="none" xmlns="http://www.w3.org/2000/svg">
<g clip-path="url(#clip0_702_9006)">
<path fill-rule="evenodd" clip-rule="evenodd" d="M22.834 44.3335C34.9843 44.3335 44.834 34.4838 44.834 22.3335C44.834 10.1832 34.9843 0.333496 22.834 0.333496C10.6837 0.333496 0.833984 10.1832 0.833984 22.3335C0.833984 34.4838 10.6837 44.3335 22.834 44.3335ZM33.4236 16.1563C34.062 15.3705 33.9426 14.2158 33.1568 13.5773C32.3709 12.9389 31.2163 13.0583 30.5778 13.8441L20.0321 26.8235L15.0471 21.1263C14.3803 20.3643 13.2221 20.2871 12.4601 20.9538C11.6981 21.6206 11.6209 22.7788 12.2876 23.5408L17.2726 29.238C18.7691 30.9482 21.4448 30.8993 22.8778 29.1356L33.4236 16.1563Z" fill="#00B083"/>
</g>
<defs>
<clipPath id="clip0_702_9006">
<rect width="44" height="44" fill="white" transform="translate(0.833984 0.333496)"/>
</clipPath>
</defs>
</svg>
