<svg width="24" height="24" viewBox="0 0 24 24" fill="none" xmlns="http://www.w3.org/2000/svg">
<path fill-rule="evenodd" clip-rule="evenodd" d="M17 9C17 11.7614 14.7614 14 12 14C9.23858 14 7 11.7614 7 9C7 6.23858 9.23858 4 12 4C14.7614 4 17 6.23858 17 9ZM16.0351 14.7206C17.8288 13.4531 19 11.3633 19 9C19 5.13401 15.866 2 12 2C8.13401 2 5 5.13401 5 9C5 11.3378 6.146 13.4079 7.90687 14.6792C4.2663 16.0101 2.6194 18.9795 2.05131 20.6838C1.87667 21.2077 2.15983 21.774 2.68377 21.9487C3.20771 22.1233 3.77403 21.8402 3.94868 21.3162C4.53381 19.5608 6.58094 16 12 16C17.0436 16 19.4762 19.5908 20.0513 21.3162C20.226 21.8402 20.7923 22.1233 21.3162 21.9487C21.8402 21.774 22.1233 21.2077 21.9487 20.6838C21.3795 18.9762 19.5277 16.0657 16.0351 14.7206Z" fill="#121D33"/>
</svg>
