<svg width="59" height="60" viewBox="0 0 59 60" fill="none" xmlns="http://www.w3.org/2000/svg">
<path fill-rule="evenodd" clip-rule="evenodd" d="M12.388 12.8887C8.33793 12.8887 5.05469 16.1719 5.05469 20.222V39.7776C5.05469 43.8277 8.33793 47.1109 12.388 47.1109H46.6102C50.6603 47.1109 53.9436 43.8277 53.9436 39.7776V20.222C53.9436 16.1719 50.6603 12.8887 46.6102 12.8887H12.388ZM13.351 22.8641C12.1101 22.3323 10.6731 22.9071 10.1413 24.148C9.60945 25.3889 10.1843 26.8259 11.4251 27.3577L26.6104 33.8657C28.4551 34.6563 30.5432 34.6563 32.3879 33.8657L47.5732 27.3577C48.8141 26.8259 49.3889 25.3889 48.8571 24.148C48.3253 22.9071 46.8882 22.3323 45.6474 22.8641L30.4621 29.3721C29.8472 29.6356 29.1511 29.6356 28.5362 29.3721L13.351 22.8641Z" fill="#121D33"/>
</svg>
