<svg width="24" height="24" viewBox="0 0 24 24" fill="none" xmlns="http://www.w3.org/2000/svg">
<g clip-path="url(#clip0_4153_4435)">
<path fill-rule="evenodd" clip-rule="evenodd" d="M12 22C17.5228 22 22 17.5228 22 12C22 6.47715 17.5228 2 12 2C6.47715 2 2 6.47715 2 12C2 17.5228 6.47715 22 12 22ZM12 24C18.6274 24 24 18.6274 24 12C24 5.37258 18.6274 0 12 0C5.37258 0 0 5.37258 0 12C0 18.6274 5.37258 24 12 24Z" fill="#121D33"/>
<path d="M12.7724 7.05794C13.166 6.6875 13.7827 6.69684 14.1649 7.07903L14.7929 7.70702C15.1834 8.09754 15.8166 8.09754 16.2071 7.70702C16.5976 7.3165 16.5976 6.68333 16.2071 6.29281L15.5791 5.66481C14.4326 4.51826 12.5825 4.49024 11.4017 5.60154L6 10.6855V8.99991C6 8.44763 5.55228 7.99991 5 7.99991C4.44772 7.99991 4 8.44763 4 8.99991V12.9999C4 13.5522 4.44772 13.9999 5 13.9999H9C9.55228 13.9999 10 13.5522 10 12.9999C10 12.4476 9.55228 11.9999 9 11.9999H7.52158L12.7724 7.05794Z" fill="#121D33"/>
<path d="M11.2276 16.942C10.834 17.3124 10.2173 17.3031 9.8351 16.9209L9.20711 16.2929C8.81658 15.9024 8.18342 15.9024 7.79289 16.2929C7.40237 16.6834 7.40237 17.3166 7.79289 17.7071L8.42089 18.3351C9.56744 19.4817 11.4175 19.5097 12.5983 18.3984L18 13.3144V15C18 15.5523 18.4477 16 19 16C19.5523 16 20 15.5523 20 15V11C20 10.4477 19.5523 10 19 10H15C14.4477 10 14 10.4477 14 11C14 11.5523 14.4477 12 15 12H16.4784L11.2276 16.942Z" fill="#121D33"/>
</g>
<defs>
<clipPath id="clip0_4153_4435">
<rect width="24" height="24" fill="white"/>
</clipPath>
</defs>
</svg>
