<svg width="24" height="24" viewBox="0 0 24 24" fill="none" xmlns="http://www.w3.org/2000/svg">
<g clip-path="url(#clip0_11221_6290)">
<path fill-rule="evenodd" clip-rule="evenodd" d="M12 24C18.6274 24 24 18.6274 24 12C24 5.37258 18.6274 0 12 0C5.37258 0 0 5.37258 0 12C0 18.6274 5.37258 24 12 24Z" fill="white"/>
<path fill-rule="evenodd" clip-rule="evenodd" d="M7.75726 7.75739C7.36674 8.14791 7.36674 8.78108 7.75726 9.1716L10.5857 12L7.75726 14.8284C7.36674 15.2189 7.36674 15.8521 7.75726 16.2426C8.14779 16.6331 8.78095 16.6331 9.17147 16.2426L11.9999 13.4142L14.8283 16.2427C15.2189 16.6332 15.852 16.6332 16.2425 16.2427C16.6331 15.8521 16.6331 15.219 16.2425 14.8285L13.4141 12L16.2425 9.17154C16.6331 8.78102 16.6331 8.14785 16.2425 7.75733C15.852 7.3668 15.2189 7.3668 14.8283 7.75733L11.9999 10.5858L9.17147 7.75739C8.78095 7.36686 8.14778 7.36686 7.75726 7.75739Z" fill="#98A1B2"/>
</g>
<defs>
<clipPath id="clip0_11221_6290">
<rect width="24" height="24" fill="white"/>
</clipPath>
</defs>
</svg>
