<svg width="84" height="20" viewBox="0 0 84 20" fill="none" xmlns="http://www.w3.org/2000/svg">
<mask id="mask0_1467_14083" style="mask-type:alpha" maskUnits="userSpaceOnUse" x="67" y="2" width="16" height="16">
<path d="M67.13 14.0947C67.6916 12.845 68.0041 11.459 68.0041 10C68.0041 8.54103 67.6916 7.15503 67.13 5.90526C68.5262 3.5664 71.0822 2 74.0041 2C78.4224 2 82.0041 5.58172 82.0041 10C82.0041 14.4183 78.4224 18 74.0041 18C71.0822 18 68.5262 16.4336 67.13 14.0947Z" fill="white"/>
</mask>
<g mask="url(#mask0_1467_14083)">
<g clip-path="url(#clip0_1467_14083)">
<path d="M74 18C78.4183 18 82 14.4183 82 10C82 5.58172 78.4183 2 74 2C69.5817 2 66 5.58172 66 10C66 14.4183 69.5817 18 74 18Z" fill="black"/>
<path d="M79 6.13592V6.99985L69 12.0955V11.2311L69.3634 11.0458C69.4987 10.9769 69.6106 10.8695 69.6849 10.7371C69.7593 10.6048 69.7929 10.4534 69.7814 10.302C69.7733 10.1951 69.7692 10.0878 69.7692 9.98006C69.7691 9.19993 69.9847 8.43497 70.3922 7.76972C70.7997 7.10447 71.3832 6.56484 72.0781 6.21047C72.7731 5.8561 73.5526 5.70079 74.3303 5.7617C75.1081 5.82261 75.8538 6.09737 76.4852 6.55562L75.6932 6.95924C75.1663 6.66499 74.5717 6.5135 73.9683 6.51975C73.3649 6.526 72.7736 6.68979 72.253 6.99489C71.7323 7.29999 71.3004 7.73581 71.0001 8.25919C70.6997 8.78257 70.5412 9.37534 70.5404 9.97879C70.5405 10.13 70.5504 10.2811 70.5701 10.4311L79 6.13592Z" fill="white"/>
<path d="M71.1061 11.8848L79 7.86553V8.72693L78.6361 8.91224C78.501 8.98127 78.3893 9.08869 78.315 9.22102C78.2407 9.35335 78.2071 9.50469 78.2186 9.65602C78.2266 9.76348 78.2308 9.87221 78.2308 9.98095C78.2306 10.761 78.0147 11.5257 77.607 12.1907C77.1994 12.8558 76.6158 13.3951 75.9208 13.7493C75.2258 14.1034 74.4464 14.2585 73.6688 14.1974C72.8912 14.1364 72.1456 13.8615 71.5144 13.4033L72.2615 13.0225L72.3039 13.0001C72.8308 13.2955 73.4259 13.448 74.03 13.4424C74.6341 13.4368 75.2263 13.2733 75.7477 12.9681C76.2691 12.6629 76.7016 12.2267 77.0022 11.7027C77.3029 11.1786 77.4613 10.5851 77.4617 9.98095C77.4616 9.82872 77.4517 9.67666 77.4321 9.52571L69 13.8221V12.9586L71.1061 11.8848Z" fill="white"/>
</g>
</g>
<mask id="mask1_1467_14083" style="mask-type:alpha" maskUnits="userSpaceOnUse" x="51" y="2" width="16" height="16">
<path d="M51.13 14.0947C51.6916 12.845 52.0041 11.459 52.0041 10C52.0041 8.54103 51.6916 7.15503 51.13 5.90526C52.5262 3.5664 55.0822 2 58.0041 2C62.4224 2 66.0041 5.58172 66.0041 10C66.0041 14.4183 62.4224 18 58.0041 18C55.0822 18 52.5262 16.4336 51.13 14.0947Z" fill="white"/>
</mask>
<g mask="url(#mask1_1467_14083)">
<g clip-path="url(#clip1_1467_14083)">
<path d="M58 18C62.4183 18 66 14.4183 66 10C66 5.58172 62.4183 2 58 2C53.5817 2 50 5.58172 50 10C50 14.4183 53.5817 18 58 18Z" fill="black"/>
<path fill-rule="evenodd" clip-rule="evenodd" d="M54.6244 6.09753C54.6872 6.03593 54.7702 6 54.8557 6H62.8366C62.9824 6 63.0553 6.17966 62.9522 6.28489L61.3757 7.89413C61.3153 7.95573 61.2324 7.99166 61.1444 7.99166H53.1635C53.0176 7.99166 52.9447 7.812 53.0478 7.70677L54.6244 6.09753ZM54.6244 12.1059C54.6847 12.0443 54.7677 12.0084 54.8557 12.0084H62.8366C62.9824 12.0084 63.0553 12.188 62.9522 12.2933L61.3757 13.9025C61.3153 13.9641 61.2324 14 61.1444 14H53.1635C53.0176 14 52.9447 13.8204 53.0478 13.7151L54.6244 12.1059ZM61.1444 8.98492C61.2324 8.98492 61.3153 9.02086 61.3757 9.08245L62.9522 10.6917C63.0553 10.7969 62.9824 10.9766 62.8366 10.9766H54.8557C54.7677 10.9766 54.6847 10.9407 54.6244 10.8791L53.0478 9.26981C52.9447 9.16458 53.0176 8.98492 53.1635 8.98492H61.1444Z" fill="url(#paint0_linear_1467_14083)"/>
</g>
</g>
<mask id="mask2_1467_14083" style="mask-type:alpha" maskUnits="userSpaceOnUse" x="35" y="2" width="16" height="16">
<path d="M35.13 14.0947C35.6916 12.845 36.0041 11.459 36.0041 10C36.0041 8.54103 35.6916 7.15503 35.13 5.90526C36.5262 3.5664 39.0822 2 42.0041 2C46.4224 2 50.0041 5.58172 50.0041 10C50.0041 14.4183 46.4224 18 42.0041 18C39.0822 18 36.5262 16.4336 35.13 14.0947Z" fill="white"/>
</mask>
<g mask="url(#mask2_1467_14083)">
<g clip-path="url(#clip2_1467_14083)">
<path d="M42 18C46.4183 18 50 14.4183 50 10C50 5.58172 46.4183 2 42 2C37.5817 2 34 5.58172 34 10C34 14.4183 37.5817 18 42 18Z" fill="#473BCB"/>
<path d="M45.1242 10.0927L41.9998 5L38.875 10.0927L41.9998 11.9069L45.1242 10.0927Z" fill="white"/>
<path d="M41.9998 15L45.1263 10.6745L41.9998 12.4882L38.875 10.6745L41.9998 15Z" fill="white"/>
</g>
</g>
<mask id="mask3_1467_14083" style="mask-type:alpha" maskUnits="userSpaceOnUse" x="19" y="2" width="16" height="16">
<path d="M19.13 14.0947C19.6916 12.845 20.0041 11.459 20.0041 10C20.0041 8.54103 19.6916 7.15503 19.13 5.90526C20.5262 3.5664 23.0822 2 26.0041 2C30.4224 2 34.0041 5.58172 34.0041 10C34.0041 14.4183 30.4224 18 26.0041 18C23.0822 18 20.5262 16.4336 19.13 14.0947Z" fill="white"/>
</mask>
<g mask="url(#mask3_1467_14083)">
<g clip-path="url(#clip3_1467_14083)">
<path d="M26 18C30.4183 18 34 14.4183 34 10C34 5.58172 30.4183 2 26 2C21.5817 2 18 5.58172 18 10C18 14.4183 21.5817 18 26 18Z" fill="#8DC351"/>
<path d="M28.6035 7.26712C28.2155 6.28112 27.2425 6.19212 26.1095 6.41212L25.706 5.00562L24.85 5.25112L25.243 6.62111C25.018 6.68511 24.789 6.75612 24.5615 6.82612L24.1665 5.44712L23.311 5.69212L23.7135 7.09861C23.5295 7.15561 23.3485 7.21162 23.171 7.26261L23.1695 7.25762L21.9885 7.59612L22.251 8.51112C22.251 8.51112 22.88 8.31711 22.8725 8.33211C23.2195 8.23261 23.39 8.40162 23.4725 8.56612L24.5775 12.4191C24.5935 12.5326 24.5795 12.7251 24.3375 12.7951C24.351 12.8016 23.7145 12.9731 23.7145 12.9731L23.838 14.0446L24.952 13.7246C25.1595 13.6661 25.3645 13.6111 25.565 13.5546L25.9735 14.9771L26.8285 14.7321L26.425 13.3246C26.6543 13.2638 26.883 13.2004 27.111 13.1346L27.512 14.5361L28.3685 14.2906L27.9615 12.8706C29.377 12.3751 30.2805 11.7236 30.018 10.3356C29.807 9.21862 29.156 8.87962 28.2825 8.91762C28.7065 8.52262 28.889 7.98812 28.6035 7.26712ZM28.2785 10.6521C28.5835 11.7156 26.7285 12.1166 26.1485 12.2836L25.608 10.3986C26.188 10.2321 27.96 9.54362 28.278 10.6526L28.2785 10.6521ZM27.1175 8.10712C27.3945 9.07462 25.844 9.39711 25.3605 9.53561L24.8705 7.82612C25.3535 7.68762 26.828 7.09862 27.1175 8.10762V8.10712Z" fill="white"/>
</g>
</g>
<mask id="mask4_1467_14083" style="mask-type:alpha" maskUnits="userSpaceOnUse" x="2" y="2" width="16" height="16">
<path d="M10 18C14.4183 18 18 14.4183 18 10C18 5.58172 14.4183 2 10 2C5.58172 2 2 5.58172 2 10C2 14.4183 5.58172 18 10 18Z" fill="white"/>
</mask>
<g mask="url(#mask4_1467_14083)">
<g clip-path="url(#clip4_1467_14083)">
<path d="M10 18C14.4183 18 18 14.4183 18 10C18 5.58172 14.4183 2 10 2C5.58172 2 2 5.58172 2 10C2 14.4183 5.58172 18 10 18Z" fill="#FF9B22"/>
<path d="M13.5945 9.01C13.7515 7.962 12.953 7.3985 11.862 7.0225L12.216 5.6025L11.352 5.3875L11.007 6.77C10.78 6.713 10.547 6.66 10.3145 6.607L10.662 5.2155L9.79799 5L9.44399 6.4195C9.25599 6.3765 9.07099 6.3345 8.89199 6.2895L8.89299 6.285L7.70099 5.9875L7.47099 6.9105C7.47099 6.9105 8.11249 7.0575 8.09899 7.0665C8.44899 7.154 8.51199 7.3855 8.50149 7.5695L7.53199 11.459C7.48899 11.565 7.38049 11.7245 7.13549 11.664C7.14449 11.6765 6.50749 11.5075 6.50749 11.5075L6.07849 12.4965L7.20349 12.777C7.41249 12.8295 7.61749 12.8845 7.81899 12.936L7.46149 14.372L8.32499 14.587L8.67899 13.167C8.91499 13.2305 9.14399 13.2895 9.36799 13.3455L9.01499 14.7595L9.87899 14.9745L10.2365 13.5415C11.7105 13.8205 12.8185 13.708 13.285 12.375C13.661 11.302 13.2665 10.6825 12.491 10.279C13.056 10.149 13.481 9.7775 13.5945 9.01ZM11.6195 11.779C11.353 12.8525 9.54549 12.272 8.95949 12.1265L9.43449 10.224C10.0205 10.3705 11.899 10.66 11.6195 11.779ZM11.887 8.9945C11.6435 9.971 10.1395 9.4745 9.65199 9.353L10.082 7.628C10.5695 7.7495 12.141 7.976 11.887 8.9945Z" fill="white"/>
</g>
</g>
<defs>
<linearGradient id="paint0_linear_1467_14083" x1="60.8589" y1="4.39107" x2="55.1554" y2="15.0939" gradientUnits="userSpaceOnUse">
<stop stop-color="#00FFA3"/>
<stop offset="1" stop-color="#DC1FFF"/>
</linearGradient>
<clipPath id="clip0_1467_14083">
<rect width="16" height="16" fill="white" transform="translate(66 2)"/>
</clipPath>
<clipPath id="clip1_1467_14083">
<rect width="16" height="16" fill="white" transform="translate(50 2)"/>
</clipPath>
<clipPath id="clip2_1467_14083">
<rect width="16" height="16" fill="white" transform="translate(34 2)"/>
</clipPath>
<clipPath id="clip3_1467_14083">
<rect width="16" height="16" fill="white" transform="translate(18 2)"/>
</clipPath>
<clipPath id="clip4_1467_14083">
<rect width="16" height="16" fill="white" transform="translate(2 2)"/>
</clipPath>
</defs>
</svg>
