<svg width="116" height="20" viewBox="0 0 116 20" fill="none" xmlns="http://www.w3.org/2000/svg">
<g clip-path="url(#clip0_188_4387)">
<g clip-path="url(#clip1_188_4387)">
<path d="M106 18C110.418 18 114 14.4183 114 10C114 5.58172 110.418 2 106 2C101.582 2 98 5.58172 98 10C98 14.4183 101.582 18 106 18Z" fill="url(#paint0_linear_188_4387)"/>
<path fill-rule="evenodd" clip-rule="evenodd" d="M106.75 4.375C106.75 4.30596 106.694 4.25 106.625 4.25H105.375C105.306 4.25 105.25 4.30596 105.25 4.375V6H104.125C102.813 6 101.75 7.0633 101.75 8.375C101.75 9.6867 102.813 10.75 104.125 10.75H105.25V12.5H102.375C102.306 12.5 102.25 12.556 102.25 12.625V13.875C102.25 13.944 102.306 14 102.375 14H105.25V15.625C105.25 15.694 105.306 15.75 105.375 15.75H106.625C106.694 15.75 106.75 15.694 106.75 15.625V14H107.875C109.187 14 110.25 12.9367 110.25 11.625C110.25 10.3133 109.187 9.25 107.875 9.25H106.75V7.5H109.625C109.694 7.5 109.75 7.44405 109.75 7.375V6.125C109.75 6.05596 109.694 6 109.625 6H106.75V4.375ZM106.75 10.75H105.25V9.25H106.75V10.75ZM105.25 9.25H104.125C103.642 9.25 103.25 8.85825 103.25 8.375C103.25 7.89175 103.642 7.5 104.125 7.5H105.25V9.25ZM106.75 12.5H107.875C108.358 12.5 108.75 12.1083 108.75 11.625C108.75 11.1417 108.358 10.75 107.875 10.75H106.75V12.5Z" fill="white"/>
</g>
</g>
<rect x="97" y="1" width="18" height="18" rx="9" stroke="white" stroke-width="2"/>
<g clip-path="url(#clip2_188_4387)">
<g clip-path="url(#clip3_188_4387)">
<path d="M90 18C94.4183 18 98 14.4183 98 10C98 5.58172 94.4183 2 90 2C85.5817 2 82 5.58172 82 10C82 14.4183 85.5817 18 90 18Z" fill="#26A17B"/>
<path fill-rule="evenodd" clip-rule="evenodd" d="M90.961 10.6914V10.6904C90.906 10.6944 90.6225 10.7114 89.99 10.7114C89.485 10.7114 89.1295 10.6964 89.0045 10.6904V10.6919C87.0605 10.6064 85.6095 10.2679 85.6095 9.86292C85.6095 9.45842 87.0605 9.11992 89.0045 9.03292V10.3549C89.1315 10.3639 89.4955 10.3854 89.9985 10.3854C90.602 10.3854 90.9045 10.3604 90.961 10.3554V9.03392C92.901 9.12042 94.3485 9.45892 94.3485 9.86292C94.3485 10.2679 92.901 10.6054 90.961 10.6914ZM90.961 8.89642V7.71342H93.668V5.90942H86.2975V7.71342H89.0045V8.89592C86.8045 8.99692 85.15 9.43292 85.15 9.95492C85.15 10.4769 86.8045 10.9124 89.0045 11.0139V14.8049H90.961V11.0129C93.1575 10.9119 94.808 10.4764 94.808 9.95492C94.808 9.43342 93.1575 8.99792 90.961 8.89642Z" fill="white"/>
</g>
</g>
<rect x="81" y="1" width="18" height="18" rx="9" stroke="white" stroke-width="2"/>
<g clip-path="url(#clip4_188_4387)">
<g clip-path="url(#clip5_188_4387)">
<path d="M74 18C78.4183 18 82 14.4183 82 10C82 5.58172 78.4183 2 74 2C69.5817 2 66 5.58172 66 10C66 14.4183 69.5817 18 74 18Z" fill="#2775CA"/>
<path d="M72.5333 15.5333C72.5333 15.7333 72.4 15.7999 72.2 15.7999C69.7333 14.9999 68 12.7333 68 10.0666C68 7.39993 69.7333 5.13326 72.2 4.33326C72.4 4.26659 72.5333 4.39993 72.5333 4.59993V5.06659C72.5333 5.19993 72.4667 5.33326 72.3333 5.39993C70.4 6.13326 69.0667 7.93326 69.0667 10.0666C69.0667 12.1999 70.4667 14.0666 72.3333 14.7333C72.4667 14.7999 72.5333 14.9333 72.5333 15.0666V15.5333Z" fill="white"/>
<path d="M74.5333 13.8666C74.5333 13.9999 74.4 14.1333 74.2667 14.1333H73.7333C73.6 14.1333 73.4667 13.9999 73.4667 13.8666V13.0666C72.4 12.9333 71.8667 12.3333 71.6667 11.4666C71.6667 11.3333 71.7333 11.1999 71.8667 11.1999H72.4667C72.6 11.1999 72.6667 11.2666 72.7333 11.3999C72.8667 11.8666 73.1333 12.2666 74 12.2666C74.6667 12.2666 75.1333 11.9333 75.1333 11.3999C75.1333 10.8666 74.8667 10.6666 73.9333 10.5333C72.5333 10.3333 71.8667 9.93325 71.8667 8.79992C71.8667 7.93325 72.5333 7.26659 73.4667 7.13325V6.33325C73.4667 6.19992 73.6 6.06659 73.7333 6.06659H74.2667C74.4 6.06659 74.5333 6.19992 74.5333 6.33325V7.13325C75.3333 7.26659 75.8667 7.73325 76 8.46659C76 8.59992 75.9333 8.73325 75.8 8.73325H75.2667C75.1333 8.73325 75.0667 8.66659 75 8.53325C74.8667 8.06659 74.5333 7.86659 73.9333 7.86659C73.2667 7.86659 72.9333 8.19992 72.9333 8.66659C72.9333 9.13325 73.1333 9.39992 74.1333 9.53325C75.5333 9.73325 76.2 10.1333 76.2 11.2666C76.2 12.1333 75.5333 12.8666 74.5333 13.0666V13.8666Z" fill="white"/>
<path d="M75.8 15.7999C75.6 15.8666 75.4667 15.7333 75.4667 15.5333V15.0666C75.4667 14.9333 75.5333 14.7999 75.6667 14.7333C77.6 13.9999 78.9333 12.1999 78.9333 10.0666C78.9333 7.93326 77.5333 6.06659 75.6667 5.39992C75.5333 5.33326 75.4667 5.19992 75.4667 5.06659V4.59992C75.4667 4.39992 75.6 4.33326 75.8 4.33326C78.2 5.13326 80 7.39992 80 10.0666C80 12.7333 78.2667 14.9999 75.8 15.7999Z" fill="white"/>
</g>
</g>
<rect x="65" y="1" width="18" height="18" rx="9" stroke="white" stroke-width="2"/>
<g clip-path="url(#clip6_188_4387)">
<g clip-path="url(#clip7_188_4387)">
<path d="M58 18C62.4183 18 66 14.4183 66 10C66 5.58172 62.4183 2 58 2C53.5817 2 50 5.58172 50 10C50 14.4183 53.5817 18 58 18Z" fill="#FF0420"/>
<path d="M55.6777 12C55.1848 12 54.7809 11.8963 54.466 11.6889C54.1553 11.4778 54 11.1778 54 10.7889C54 10.7074 54.0104 10.6074 54.0311 10.4889C54.0849 10.2222 54.1616 9.90183 54.261 9.52777C54.5427 8.50926 55.2697 8 56.442 8C56.761 8 57.0468 8.04814 57.2996 8.14443C57.5523 8.23701 57.7511 8.37777 57.8961 8.56667C58.0411 8.75183 58.1136 8.97407 58.1136 9.23332C58.1136 9.3111 58.1032 9.40925 58.0825 9.52777C58.0204 9.85739 57.9458 10.1778 57.8588 10.4889C57.7138 10.9963 57.4632 11.3759 57.1069 11.6278C56.7507 11.8759 56.2743 12 55.6777 12ZM55.7647 11.2C55.9967 11.2 56.1935 11.1389 56.355 11.0167C56.5208 10.8944 56.6388 10.7074 56.7092 10.4556C56.8045 10.1074 56.877 9.80368 56.9267 9.54444C56.9433 9.46666 56.9516 9.38704 56.9516 9.30553C56.9516 8.9685 56.7548 8.79998 56.3613 8.79998C56.1293 8.79998 55.9304 8.86109 55.7647 8.98331C55.6032 9.10556 55.4872 9.29259 55.4168 9.54444C55.3422 9.79258 55.2676 10.0963 55.1931 10.4556C55.1765 10.5296 55.1682 10.6074 55.1682 10.6889C55.1682 11.0296 55.3671 11.2 55.7647 11.2Z" fill="white"/>
<path d="M58.3989 11.9445C58.3533 11.9445 58.3181 11.9315 58.2932 11.9056C58.2725 11.8759 58.2663 11.8426 58.2746 11.8056L59.1321 8.19444C59.1404 8.15369 59.1632 8.12036 59.2004 8.09442C59.2377 8.06851 59.2771 8.05554 59.3185 8.05554H60.9714C61.4312 8.05554 61.7999 8.14073 62.0774 8.31109C62.3592 8.48148 62.5 8.72776 62.5 9.04999C62.5 9.14257 62.4876 9.23888 62.4627 9.33887C62.3592 9.76481 62.15 10.0796 61.8351 10.2833C61.5244 10.487 61.0977 10.5889 60.5551 10.5889H59.7162L59.4304 11.8056C59.4221 11.8463 59.3993 11.8796 59.362 11.9056C59.3247 11.9315 59.2854 11.9445 59.244 11.9445H58.3989ZM60.5986 9.82222C60.7725 9.82222 60.9237 9.77961 61.0522 9.69443C61.1847 9.60925 61.2717 9.48703 61.3132 9.32777C61.3256 9.26479 61.3318 9.20925 61.3318 9.1611C61.3318 9.05369 61.2966 8.97221 61.2262 8.91666C61.1557 8.85739 61.0356 8.82778 60.8658 8.82778H60.1201L59.884 9.82222H60.5986Z" fill="white"/>
</g>
</g>
<rect x="49" y="1" width="18" height="18" rx="9" stroke="white" stroke-width="2"/>
<g clip-path="url(#clip8_188_4387)">
<g clip-path="url(#clip9_188_4387)">
<path d="M42 18C46.4183 18 50 14.4183 50 10C50 5.58172 46.4183 2 42 2C37.5817 2 34 5.58172 34 10C34 14.4183 37.5817 18 42 18Z" fill="url(#paint1_radial_188_4387)"/>
<path d="M40.8094 7.95644C40.7916 8.02589 40.7606 8.09112 40.718 8.14839C40.6389 8.25286 40.5341 8.33431 40.4142 8.38466C40.3064 8.4319 40.1922 8.46242 40.0755 8.47526C40.052 8.47827 40.0277 8.48015 40.0041 8.48198L39.9985 8.48242C39.9246 8.48526 39.8535 8.51211 39.7956 8.55903C39.7378 8.60595 39.6962 8.67045 39.6771 8.74312C39.6683 8.77928 39.6618 8.81596 39.6575 8.85295C39.6508 8.90871 39.6473 8.96581 39.6436 9.02757C39.6409 9.07191 39.6381 9.11865 39.6338 9.16902C39.6087 9.37422 39.5503 9.57375 39.4611 9.75954C39.4428 9.79858 39.4242 9.83643 39.406 9.8736C39.3081 10.0729 39.2197 10.2529 39.245 10.4941C39.2649 10.6798 39.3585 10.8043 39.4829 10.9327C39.5419 10.9941 39.6202 11.0466 39.7015 11.1011C39.929 11.2535 40.1799 11.4216 40.0972 11.8452C40.0296 12.1883 39.47 12.5484 38.6835 12.6742C38.7599 12.6624 38.5916 12.3706 38.5731 12.3385L38.572 12.3366C38.5503 12.302 38.5281 12.268 38.5059 12.234C38.4419 12.136 38.3782 12.0384 38.3284 11.9302C38.197 11.6477 38.1361 11.3208 38.19 11.0112C38.2388 10.731 38.4209 10.5072 38.5963 10.2917C38.6249 10.2566 38.6534 10.2216 38.681 10.1868C38.9156 9.89054 39.1617 9.50243 39.2162 9.11788C39.2208 9.08446 39.2249 9.04802 39.2292 9.00968C39.2369 8.94109 39.2454 8.8664 39.2585 8.79198C39.2781 8.66346 39.3177 8.53893 39.3758 8.42311C39.4155 8.34712 39.4678 8.27867 39.5303 8.22075C39.5629 8.18998 39.5844 8.14898 39.5914 8.1043C39.5983 8.05963 39.5904 8.01388 39.5687 7.97437L38.315 5.68148L40.1158 7.94111C40.1363 7.96731 40.1623 7.98859 40.1918 8.00343C40.2213 8.01828 40.2536 8.02638 40.2865 8.02707C40.3194 8.0278 40.3521 8.02115 40.3822 8.00759C40.4123 7.99402 40.4391 7.97388 40.4607 7.94862C40.4835 7.92156 40.4964 7.88734 40.4973 7.85173C40.4982 7.81612 40.4869 7.78128 40.4655 7.75311C40.3816 7.64412 40.2943 7.53364 40.2074 7.42368C40.1725 7.37945 40.1376 7.33525 40.103 7.29133L39.6498 6.72104L38.7403 5.58241L37.5 4L38.8569 5.48042L39.8251 6.56885L40.3081 7.11437C40.3526 7.16529 40.3971 7.21576 40.4415 7.26622C40.5573 7.3976 40.6731 7.52899 40.7889 7.66837L40.8151 7.70096L40.8209 7.75145C40.8287 7.81997 40.8248 7.88931 40.8094 7.95644Z" fill="#FF007A"/>
<path d="M45.4379 8.72316L45.4398 8.7261C45.4395 8.48297 45.2914 8.08181 44.9918 7.69598L44.9847 7.68653C44.8924 7.57051 44.7919 7.46161 44.6838 7.36065C44.6636 7.34077 44.6418 7.32122 44.6197 7.30167C44.4812 7.17889 44.3299 7.07201 44.1684 6.98296L44.1569 6.97709C43.6496 6.69618 42.9894 6.55149 42.1753 6.71443C42.0659 6.57947 41.9482 6.45179 41.8228 6.33218C41.6306 6.14603 41.4045 5.99999 41.1571 5.90234C40.9119 5.81109 40.6494 5.77853 40.3898 5.80719C40.64 5.83009 40.8837 5.90085 41.1081 6.01575C41.3247 6.13378 41.5199 6.28876 41.685 6.47393C41.8523 6.66296 42.0095 6.86094 42.1561 7.06703L42.193 7.11595C42.3364 7.30575 42.4823 7.49897 42.664 7.67089C42.7642 7.76668 42.8758 7.84914 42.9964 7.91627C43.0284 7.93288 43.0608 7.94852 43.0925 7.96222C43.1243 7.97593 43.1541 7.98862 43.1861 8.00036C43.248 8.02479 43.3121 8.04499 43.3762 8.06358C43.6326 8.13787 43.8951 8.16458 44.1514 8.17894C44.1865 8.18081 44.2215 8.18256 44.2563 8.18431C44.3486 8.18892 44.4399 8.19349 44.5299 8.20012C44.6524 8.20753 44.7739 8.22694 44.8927 8.25812C45.0712 8.30542 45.2283 8.41356 45.3379 8.56443C45.3751 8.61471 45.4086 8.66776 45.4379 8.72316Z" fill="#FF007A"/>
<path d="M44.6845 7.35985C44.6716 7.34768 44.6584 7.33564 44.6453 7.32365L44.6204 7.30086L44.6395 7.31871C44.6546 7.33288 44.6697 7.34701 44.6845 7.35985Z" fill="#FF007A"/>
<path d="M44.3716 9.7614C43.5471 9.42122 42.6846 9.06538 42.8131 8.06662C43.0883 8.36548 43.5204 8.42815 43.9904 8.49631C44.4167 8.55814 44.8742 8.62449 45.2741 8.87576C46.2176 9.4682 46.0798 10.6192 45.7593 11.0428C45.7882 10.3459 45.0945 10.0597 44.3716 9.7614Z" fill="#FF007A"/>
<path d="M41.0445 9.26072C41.2621 9.23954 41.7259 9.12449 41.5185 8.75333C41.4739 8.67782 41.4092 8.61661 41.332 8.57678C41.2547 8.53695 41.1679 8.5201 41.0817 8.52813C40.9941 8.53768 40.9116 8.57439 40.8452 8.63329C40.7789 8.69215 40.732 8.77035 40.7108 8.85728C40.6464 9.10006 40.7147 9.29328 41.0445 9.26072Z" fill="#FF007A"/>
<path d="M40.9871 6.32355C40.8505 6.16322 40.6387 6.07914 40.431 6.04851C40.4233 6.10109 40.4183 6.15407 40.4163 6.20721C40.407 6.64487 40.5599 7.12554 40.8557 7.45956C40.9503 7.56753 41.0644 7.65605 41.1919 7.72027C41.2656 7.75678 41.4611 7.84737 41.5335 7.76588C41.539 7.75844 41.5425 7.74961 41.5436 7.74034C41.5446 7.73107 41.5433 7.72165 41.5396 7.71311C41.5276 7.6782 41.5044 7.64653 41.4814 7.61511C41.4651 7.59283 41.4488 7.57067 41.4367 7.54756C41.4245 7.52429 41.4114 7.50161 41.3984 7.47894C41.3738 7.43622 41.3492 7.39354 41.3303 7.34714C41.2806 7.22573 41.2548 7.09662 41.229 6.96793C41.2239 6.94226 41.2187 6.91647 41.2134 6.8909C41.1739 6.69244 41.1236 6.48388 40.9871 6.32355Z" fill="#FF007A"/>
<path d="M43.9046 9.8157C43.6928 10.4167 44.0344 10.9243 44.374 11.4289C44.7538 11.9933 45.1312 12.554 44.7286 13.2374C45.5109 12.909 45.8824 11.9167 45.5577 11.1293C45.3531 10.6314 44.8601 10.3614 44.4024 10.1108C44.2248 10.0136 44.0526 9.91928 43.9046 9.8157Z" fill="#FF007A"/>
<path d="M41.6108 11.2504C41.4691 11.3092 41.3354 11.3864 41.2131 11.4801C41.4912 11.3776 41.783 11.319 42.0785 11.3064C42.1319 11.3032 42.1857 11.3007 42.24 11.2981C42.334 11.2937 42.4297 11.2893 42.5272 11.281C42.6868 11.27 42.8443 11.2371 42.9954 11.1832C43.1537 11.1269 43.2977 11.0357 43.4171 10.916C43.5378 10.7925 43.6225 10.6374 43.6617 10.4679C43.6962 10.3078 43.6913 10.1416 43.6476 9.98383C43.6038 9.82607 43.5225 9.68174 43.4107 9.5636C43.4647 9.70261 43.4978 9.84905 43.5091 9.99802C43.5189 10.1367 43.5003 10.276 43.4546 10.407C43.41 10.5312 43.3371 10.6429 43.2418 10.7329C43.1434 10.8237 43.0295 10.8955 42.9056 10.9447C42.7336 11.0152 42.539 11.044 42.3363 11.074C42.2438 11.0878 42.1496 11.1017 42.0551 11.12C41.9031 11.1483 41.7543 11.192 41.6108 11.2504Z" fill="#FF007A"/>
<path fill-rule="evenodd" clip-rule="evenodd" d="M44.0835 13.7184L44.0552 13.7414C44.0193 13.7709 43.9828 13.8008 43.9434 13.8276C43.8935 13.8611 43.841 13.8907 43.7867 13.9162C43.6736 13.9724 43.5492 14.001 43.4233 14C43.0823 13.9935 42.8413 13.7354 42.7002 13.4437C42.6633 13.3673 42.6307 13.2885 42.5981 13.2096C42.546 13.0835 42.4939 12.9573 42.4237 12.8408C42.2605 12.57 41.9814 12.352 41.6545 12.3924C41.5212 12.4093 41.3962 12.4703 41.3221 12.5879C41.1273 12.8953 41.4071 13.3257 41.7638 13.2648C41.7941 13.2601 41.8238 13.2518 41.8522 13.24C41.8805 13.2278 41.907 13.2114 41.9307 13.1915C41.9806 13.1493 42.0181 13.094 42.0394 13.0318C42.0628 12.9668 42.068 12.8965 42.0545 12.8287C42.0398 12.7579 41.9987 12.6956 41.9397 12.6551C42.0083 12.6877 42.0617 12.7461 42.0887 12.818C42.1168 12.892 42.124 12.9725 42.1096 13.0503C42.0956 13.1315 42.0604 13.2074 42.0077 13.27C41.9797 13.3022 41.9473 13.3302 41.9115 13.3531C41.8761 13.3758 41.8381 13.394 41.7984 13.4075C41.7179 13.4355 41.6322 13.4445 41.5478 13.4339C41.4292 13.4168 41.3174 13.3675 41.2241 13.2912C41.2109 13.2806 41.1981 13.2696 41.1857 13.2583C41.1159 13.1987 41.0529 13.1312 40.9981 13.057C40.9766 13.0331 40.9548 13.0095 40.9321 12.9868C40.8179 12.8649 40.683 12.7648 40.534 12.6912C40.4313 12.6453 40.3238 12.6115 40.2136 12.5902C40.1581 12.5785 40.102 12.57 40.046 12.5628C40.0399 12.5622 40.0282 12.5602 40.0136 12.5576C39.9668 12.5493 39.8905 12.5358 39.877 12.5485C40.0504 12.3862 40.2394 12.2421 40.4411 12.1183C40.6483 11.9933 40.8706 11.8966 41.1026 11.8306C41.3431 11.7618 41.5946 11.7422 41.8426 11.7729C41.9703 11.7885 42.0953 11.8214 42.2144 11.8707C42.3392 11.9213 42.4543 11.9937 42.5547 12.0845C42.6541 12.1796 42.7345 12.2935 42.7913 12.4198C42.8426 12.538 42.8808 12.6616 42.9054 12.7884C42.9185 12.8566 42.9284 12.9315 42.9387 13.0091C42.9854 13.3626 43.0393 13.7705 43.4396 13.8416C43.4651 13.8466 43.4907 13.8503 43.5166 13.8527L43.5963 13.8546C43.6512 13.8507 43.7057 13.8427 43.7595 13.8308C43.8708 13.8042 43.9793 13.7665 44.0835 13.7184ZM41.0055 13.0654C41.028 13.0921 41.051 13.1183 41.0747 13.1438C41.0632 13.1309 41.0518 13.1179 41.0404 13.1049C41.0288 13.0917 41.0172 13.0785 41.0055 13.0654Z" fill="#FF007A"/>
</g>
</g>
<rect x="33" y="1" width="18" height="18" rx="9" stroke="white" stroke-width="2"/>
<g clip-path="url(#clip10_188_4387)">
<g clip-path="url(#clip11_188_4387)">
<path d="M26 18C30.4183 18 34 14.4183 34 10C34 5.58172 30.4183 2 26 2C21.5817 2 18 5.58172 18 10C18 14.4183 21.5817 18 26 18Z" fill="#8247E5"/>
<path d="M28.648 8.28847C28.4561 8.17685 28.2066 8.17685 27.9956 8.28847L26.4989 9.14429L25.4819 9.70243L23.9852 10.5582C23.7933 10.6699 23.5439 10.6699 23.3328 10.5582L22.1432 9.88847C21.9513 9.77685 21.817 9.57219 21.817 9.34893V8.028C21.817 7.80475 21.9321 7.6001 22.1432 7.48847L23.3136 6.8373C23.5055 6.72568 23.755 6.72568 23.9661 6.8373L25.1365 7.48847C25.3284 7.6001 25.4627 7.80475 25.4627 8.028V8.88382L26.4797 8.30707V7.45125C26.4797 7.228 26.3646 7.02335 26.1535 6.91172L23.9852 5.68382C23.7933 5.57219 23.5439 5.57219 23.3328 5.68382L21.1262 6.91172C20.9151 7.02335 20.8 7.228 20.8 7.45125V9.92568C20.8 10.1489 20.9151 10.3536 21.1262 10.4652L23.3328 11.6931C23.5247 11.8048 23.7742 11.8048 23.9852 11.6931L25.4819 10.8559L26.4989 10.2792L27.9956 9.44196C28.1874 9.33033 28.4369 9.33033 28.648 9.44196L29.8184 10.0931C30.0103 10.2048 30.1446 10.4094 30.1446 10.6327V11.9536C30.1446 12.1768 30.0295 12.3815 29.8184 12.4931L28.648 13.1629C28.4561 13.2745 28.2066 13.2745 27.9956 13.1629L26.8251 12.5117C26.6332 12.4001 26.4989 12.1954 26.4989 11.9722V11.1164L25.4819 11.6931V12.5489C25.4819 12.7722 25.597 12.9768 25.8081 13.0885L28.0148 14.3164C28.2066 14.428 28.4561 14.428 28.6671 14.3164L30.8738 13.0885C31.0657 12.9768 31.2 12.7722 31.2 12.5489V10.0745C31.2 9.85125 31.0849 9.64661 30.8738 9.53497L28.648 8.28847Z" fill="white"/>
</g>
</g>
<rect x="17" y="1" width="18" height="18" rx="9" stroke="white" stroke-width="2"/>
<g clip-path="url(#clip12_188_4387)">
<g clip-path="url(#clip13_188_4387)">
<path d="M10 18C14.4183 18 18 14.4183 18 10C18 5.58172 14.4183 2 10 2C5.58172 2 2 5.58172 2 10C2 14.4183 5.58172 18 10 18Z" fill="#473BCB"/>
<path d="M13.1242 10.0927L9.9998 5L6.875 10.0927L9.9998 11.9069L13.1242 10.0927Z" fill="white"/>
<path d="M9.9998 15L13.1263 10.6745L9.9998 12.4882L6.875 10.6745L9.9998 15Z" fill="white"/>
</g>
</g>
<rect x="1" y="1" width="18" height="18" rx="9" stroke="white" stroke-width="2"/>
<defs>
<linearGradient id="paint0_linear_188_4387" x1="111.965" y1="4.98117" x2="100.061" y2="14.9972" gradientUnits="userSpaceOnUse">
<stop stop-color="#75D020"/>
<stop offset="1" stop-color="#005136"/>
</linearGradient>
<radialGradient id="paint1_radial_188_4387" cx="0" cy="0" r="1" gradientUnits="userSpaceOnUse" gradientTransform="translate(48.5 2) rotate(-180) scale(20.5 10.2623)">
<stop stop-color="#FFCAE3"/>
<stop offset="1" stop-color="#F3F5F7"/>
</radialGradient>
<clipPath id="clip0_188_4387">
<rect x="98" y="2" width="16" height="16" rx="8" fill="white"/>
</clipPath>
<clipPath id="clip1_188_4387">
<rect width="16" height="16" fill="white" transform="translate(98 2)"/>
</clipPath>
<clipPath id="clip2_188_4387">
<rect x="82" y="2" width="16" height="16" rx="8" fill="white"/>
</clipPath>
<clipPath id="clip3_188_4387">
<rect width="16" height="16" fill="white" transform="translate(82 2)"/>
</clipPath>
<clipPath id="clip4_188_4387">
<rect x="66" y="2" width="16" height="16" rx="8" fill="white"/>
</clipPath>
<clipPath id="clip5_188_4387">
<rect width="16" height="16" fill="white" transform="translate(66 2)"/>
</clipPath>
<clipPath id="clip6_188_4387">
<rect x="50" y="2" width="16" height="16" rx="8" fill="white"/>
</clipPath>
<clipPath id="clip7_188_4387">
<rect width="16" height="16" fill="white" transform="translate(50 2)"/>
</clipPath>
<clipPath id="clip8_188_4387">
<rect x="34" y="2" width="16" height="16" rx="8" fill="white"/>
</clipPath>
<clipPath id="clip9_188_4387">
<rect width="16" height="16" fill="white" transform="translate(34 2)"/>
</clipPath>
<clipPath id="clip10_188_4387">
<rect x="18" y="2" width="16" height="16" rx="8" fill="white"/>
</clipPath>
<clipPath id="clip11_188_4387">
<rect width="16" height="16" fill="white" transform="translate(18 2)"/>
</clipPath>
<clipPath id="clip12_188_4387">
<rect x="2" y="2" width="16" height="16" rx="8" fill="white"/>
</clipPath>
<clipPath id="clip13_188_4387">
<rect width="16" height="16" fill="white" transform="translate(2 2)"/>
</clipPath>
</defs>
</svg>
