<svg width="24" height="24" viewBox="0 0 24 24" fill="none" xmlns="http://www.w3.org/2000/svg">
<path fill-rule="evenodd" clip-rule="evenodd" d="M11.4964 4.67626C10.7194 4.07194 9.68345 3.72662 8.64748 3.72662C5.97122 3.72662 3.72662 5.97122 3.72662 8.64748C3.72662 9.76978 4.07194 10.7194 4.67626 11.5827C4.58993 11.9281 4.58993 12.2734 4.58993 12.6187C4.58993 13.0504 4.58993 13.5683 4.67626 14C3.03597 12.7914 2 10.8058 2 8.64748C2 5.02158 5.02158 2 8.64748 2C10.8921 2 12.7914 3.03597 14 4.67626C13.5683 4.58993 13.1367 4.58993 12.6187 4.58993C12.2734 4.58993 11.9281 4.58993 11.4964 4.67626ZM6.6001 14.3C6.6001 10.1 10.0001 6.59998 14.3001 6.59998C18.5001 6.59998 22.0001 9.99998 22.0001 14.3C22.0001 18.5 18.5001 22 14.3001 22C10.1001 22 6.6001 18.6 6.6001 14.3ZM8.6001 14.3C8.6001 17.4 11.2001 20 14.3001 20C17.4001 20 20.0001 17.4 20.0001 14.3C20.0001 11.2 17.4001 8.59998 14.3001 8.59998C11.2001 8.59998 8.6001 11.2 8.6001 14.3Z" fill="#121D33"/>
</svg>
