<svg width="32" height="20" viewBox="0 0 32 20" fill="none" xmlns="http://www.w3.org/2000/svg">
<path d="M6.55106 4.02562C11.7696 -1.08374 20.2305 -1.08374 25.449 4.02562L26.077 4.64054C26.3379 4.89601 26.3379 5.3102 26.077 5.56567L23.9286 7.66919C23.7981 7.79693 23.5866 7.79693 23.4561 7.66919L22.5918 6.82299C18.9513 3.25857 13.0488 3.25857 9.40819 6.82299L8.48262 7.7292C8.35216 7.85694 8.14063 7.85694 8.01017 7.7292L5.86172 5.62568C5.60079 5.37022 5.60079 4.95602 5.86172 4.70055L6.55106 4.02562ZM29.8922 8.37592L31.8043 10.2481C32.0652 10.5035 32.0652 10.9177 31.8043 11.1732L23.1824 19.6149C22.9215 19.8704 22.4984 19.8704 22.2375 19.6149C22.2375 19.6149 22.2375 19.6149 22.2375 19.6149L16.1182 13.6236C16.0529 13.5597 15.9472 13.5597 15.8819 13.6236C15.8819 13.6236 15.8819 13.6236 15.8819 13.6236L9.76276 19.6149C9.50183 19.8704 9.07879 19.8704 8.81786 19.6149C8.81786 19.6149 8.81786 19.6149 8.81786 19.6149L0.195694 11.1731C-0.0652314 10.9176 -0.0652314 10.5034 0.195694 10.2479L2.10783 8.37581C2.36875 8.12034 2.7918 8.12034 3.05272 8.37581L9.17213 14.3672C9.23736 14.4311 9.34312 14.4311 9.40835 14.3672C9.40835 14.3672 9.40835 14.3672 9.40835 14.3672L15.5275 8.37581C15.7884 8.12034 16.2114 8.12033 16.4723 8.37579C16.4724 8.37579 16.4724 8.3758 16.4724 8.3758L22.5918 14.3672C22.657 14.4311 22.7628 14.4311 22.828 14.3672L28.9473 8.37592C29.2082 8.12045 29.6313 8.12045 29.8922 8.37592Z" fill="#3B99FC"/>
</svg>
