<svg width="58" height="58" viewBox="0 0 58 58" fill="none" xmlns="http://www.w3.org/2000/svg">
<g clip-path="url(#clip0_164_41008)">
<path fill-rule="evenodd" clip-rule="evenodd" d="M15.6029 15.1992C17.1549 12.3556 20.1123 10.4419 24.8424 9.43646C29.5726 8.43103 33.0529 8.97635 35.6277 10.9425C38.0831 12.8174 39.3208 15.7177 40.2695 18.3721C40.5238 19.0836 40.7593 19.7815 40.99 20.4652C41.6787 22.5062 42.3246 24.4203 43.2993 26.1896C44.5318 28.4269 46.194 30.2118 48.9469 31.2007C49.7881 31.5029 50.3267 32.3265 50.2662 33.2183C50.2057 34.11 49.5609 34.8534 48.6866 35.0392L13.4733 42.5241C12.5989 42.7099 11.7074 42.293 11.2895 41.5028C10.8716 40.7125 11.0288 39.741 11.6746 39.1229C13.789 37.0992 14.5822 34.7923 14.7984 32.2475C14.9695 30.2338 14.7807 28.2215 14.5794 26.0757C14.5121 25.3584 14.4434 24.6262 14.3863 23.8741C14.1728 21.0636 14.1231 17.9107 15.6029 15.1992Z" fill="#0C6CF2"/>
<path fill-rule="evenodd" clip-rule="evenodd" d="M26.5343 44.8022C26.7694 44.1523 27.3233 43.6698 27.9993 43.5261L35.8244 41.8628C36.5004 41.7191 37.2027 41.9346 37.6818 42.4327C38.1609 42.9308 38.3488 43.641 38.1789 44.3108C37.6108 46.5501 35.4345 48.0797 33.1593 48.5633C30.8842 49.0469 28.2738 48.5347 26.8441 46.7201C26.4164 46.1773 26.2993 45.4521 26.5343 44.8022Z" fill="#0C6CF2"/>
</g>
<defs>
<clipPath id="clip0_164_41008">
<rect width="48" height="48" fill="white" transform="translate(0.535156 10.5146) rotate(-12)"/>
</clipPath>
</defs>
</svg>
