<svg width="24" height="24" viewBox="0 0 24 24" fill="none" xmlns="http://www.w3.org/2000/svg">
<path fill-rule="evenodd" clip-rule="evenodd" d="M12 24C18.6274 24 24 18.6274 24 12C24 5.37258 18.6274 0 12 0C5.37258 0 0 5.37258 0 12C0 18.6274 5.37258 24 12 24ZM7.94071 19C7.6641 19.0002 7.39978 18.8857 7.21061 18.6839L4.27164 15.5486C3.89394 15.1457 3.91439 14.5128 4.31733 14.1351C4.72027 13.7574 5.35311 13.7779 5.73081 14.1808L6.9402 15.471V7.99963C6.9402 6.34278 8.28334 4.99963 9.9402 4.99963H11.0139C11.5662 4.99963 12.0139 5.44735 12.0139 5.99963C12.0139 6.55192 11.5662 6.99963 11.0139 6.99963H9.9402C9.38791 6.99963 8.9402 7.44735 8.9402 7.99963V15.4672L10.1429 14.1816C10.5202 13.7782 11.153 13.7571 11.5563 14.1344C11.9596 14.5117 11.9807 15.1445 11.6034 15.5479L8.67048 18.6832C8.48151 18.8852 8.21732 18.9999 7.94071 19ZM16.0571 5.00004C16.3337 4.9999 16.598 5.11434 16.7872 5.31615L19.7262 8.45148C20.1039 8.85442 20.0834 9.48726 19.6805 9.86496C19.2775 10.2427 18.6447 10.2222 18.267 9.81927L17.0576 8.52907L17.0576 16.0004C17.0576 17.6573 15.7145 19.0004 14.0576 19.0004H12.9839C12.4316 19.0004 11.9839 18.5527 11.9839 18.0004C11.9839 17.4482 12.4316 17.0004 12.9839 17.0004H14.0576C14.6099 17.0004 15.0576 16.5527 15.0576 16.0004V8.53285L13.8549 9.81852C13.4777 10.2218 12.8448 10.2429 12.4415 9.86565C12.0382 9.48836 12.0171 8.85555 12.3944 8.45223L15.3273 5.31689C15.5163 5.11489 15.7805 5.00018 16.0571 5.00004Z" fill="#121D33"/>
</svg>
