<svg width="20" height="20" viewBox="0 0 20 20" fill="none" xmlns="http://www.w3.org/2000/svg">
<path d="M9 1C9 0.447715 9.44771 0 10 0C10.5523 0 11 0.447715 11 1V2C11 2.55228 10.5523 3 10 3C9.44771 3 9 2.55228 9 2V1Z" fill="#121D33"/>
<path fill-rule="evenodd" clip-rule="evenodd" d="M10 16C13.3137 16 16 13.3137 16 10C16 6.68629 13.3137 4 10 4C6.68629 4 4 6.68629 4 10C4 13.3137 6.68629 16 10 16ZM10 14C12.2091 14 14 12.2091 14 10C14 7.79086 12.2091 6 10 6C7.79086 6 6 7.79086 6 10C6 12.2091 7.79086 14 10 14Z" fill="#121D33"/>
<path d="M20 10C20 9.44771 19.5523 9 19 9H18C17.4477 9 17 9.44771 17 10C17 10.5523 17.4477 11 18 11H19C19.5523 11 20 10.5523 20 10Z" fill="#121D33"/>
<path d="M11 19C11 19.5523 10.5523 20 10 20C9.44771 20 9 19.5523 9 19V18C9 17.4477 9.44772 17 10 17C10.5523 17 11 17.4477 11 18V19Z" fill="#121D33"/>
<path d="M0 10C0 10.5523 0.447715 11 1 11H2C2.55228 11 3 10.5523 3 10C3 9.44772 2.55228 9 2 9H1C0.447715 9 0 9.44771 0 10Z" fill="#121D33"/>
<path d="M2.92894 4.34285C2.53841 3.95232 2.53841 3.31916 2.92894 2.92864C3.31946 2.53811 3.95263 2.53811 4.34315 2.92864L5.05026 3.63574C5.44078 4.02627 5.44078 4.65943 5.05026 5.04996C4.65973 5.44048 4.02657 5.44048 3.63605 5.04996L2.92894 4.34285Z" fill="#121D33"/>
<path d="M17.0711 2.92879C16.6805 2.53826 16.0474 2.53826 15.6568 2.92879L14.9497 3.63589C14.5592 4.02642 14.5592 4.65958 14.9497 5.05011C15.3403 5.44063 15.9734 5.44063 16.364 5.05011L17.0711 4.343C17.4616 3.95248 17.4616 3.31931 17.0711 2.92879Z" fill="#121D33"/>
<path d="M15.6568 17.0714L14.9497 16.3643C14.5592 15.9737 14.5592 15.3406 14.9497 14.95C15.3403 14.5595 15.9734 14.5595 16.364 14.95L17.0711 15.6572C17.4616 16.0477 17.4616 16.6808 17.0711 17.0714C16.6805 17.4619 16.0474 17.4619 15.6568 17.0714Z" fill="#121D33"/>
<path d="M2.92893 17.0712C3.31945 17.4617 3.95261 17.4617 4.34314 17.0712L5.05025 16.3641C5.44077 15.9736 5.44077 15.3404 5.05025 14.9499C4.65972 14.5594 4.02656 14.5594 3.63603 14.9499L2.92893 15.657C2.5384 16.0475 2.5384 16.6807 2.92893 17.0712Z" fill="#121D33"/>
</svg>
