<svg width="24" height="24" viewBox="0 0 24 24" fill="none" xmlns="http://www.w3.org/2000/svg">
<path fill-rule="evenodd" clip-rule="evenodd" d="M9.27273 3.81818C9.27273 2.81403 10.0868 2 11.0909 2H12.9091C13.9132 2 14.7273 2.81403 14.7273 3.81818V4.25112C14.7273 4.25114 14.7273 4.25117 14.7273 4.2512C14.7277 4.25235 14.7295 4.25689 14.7348 4.26391C14.7463 4.27927 14.7691 4.29884 14.8024 4.31097C15.0248 4.39204 15.2426 4.48247 15.4555 4.58176C15.4874 4.59667 15.5172 4.59894 15.5362 4.59627C15.5448 4.59505 15.5493 4.59311 15.5504 4.59259C15.5504 4.59257 15.5504 4.59256 15.5504 4.59255L15.857 4.28604C16.567 3.576 17.7182 3.576 18.4282 4.28604L19.7139 5.57169C20.4239 6.28174 20.4239 7.43295 19.7139 8.14299L19.4074 8.44948C19.4074 8.4495 19.4074 8.44952 19.4074 8.44954C19.4069 8.45063 19.4049 8.45508 19.4037 8.46374C19.401 8.48268 19.4033 8.51249 19.4182 8.54444C19.5175 8.75731 19.6079 8.9752 19.689 9.19762C19.7012 9.23088 19.7207 9.25367 19.7361 9.26523C19.7424 9.26999 19.7467 9.27191 19.7484 9.27254C19.7485 9.27261 19.7487 9.27266 19.7488 9.2727C19.7488 9.27271 19.7489 9.27272 19.7489 9.27273H20.1818C21.186 9.27273 22 10.0868 22 11.0909V12.9091C22 13.9132 21.186 14.7273 20.1818 14.7273H19.7489C19.7489 14.7273 19.7488 14.7273 19.7488 14.7273C19.7477 14.7277 19.7431 14.7295 19.7361 14.7348C19.7207 14.7463 19.7012 14.7691 19.689 14.8024C19.608 15.0247 19.5176 15.2425 19.4183 15.4553C19.4034 15.4872 19.4012 15.5171 19.4038 15.536C19.405 15.5447 19.407 15.5491 19.4075 15.5502C19.4075 15.5502 19.4075 15.5502 19.4075 15.5502L19.7139 15.8566C20.4239 16.5667 20.4239 17.7179 19.7139 18.4279L18.4282 19.7136C17.7182 20.4236 16.567 20.4236 15.857 19.7136L15.5507 19.4073C15.5507 19.4073 15.5507 19.4073 15.5506 19.4073C15.5496 19.4068 15.5451 19.4048 15.5365 19.4036C15.5175 19.4009 15.4877 19.4032 15.4557 19.4181C15.2428 19.5175 15.0249 19.6079 14.8024 19.689C14.7691 19.7012 14.7463 19.7207 14.7348 19.7361C14.7295 19.7431 14.7277 19.7477 14.7273 19.7488C14.7273 19.7488 14.7273 19.7489 14.7273 19.7489V20.1818C14.7273 21.186 13.9132 22 12.9091 22H11.0909C10.0868 22 9.27273 21.186 9.27273 20.1818V19.7489C9.27272 19.7489 9.27271 19.7488 9.2727 19.7488C9.2723 19.7477 9.27051 19.7431 9.26523 19.7361C9.25367 19.7207 9.23088 19.7012 9.19762 19.689C8.9752 19.6079 8.75731 19.5175 8.54444 19.4182C8.51249 19.4033 8.48268 19.401 8.46374 19.4037C8.45508 19.4049 8.45063 19.4069 8.44955 19.4074C8.44952 19.4074 8.4495 19.4074 8.44948 19.4074L8.14306 19.7138C7.43302 20.4239 6.28181 20.4239 5.57176 19.7138L4.28611 18.4282C3.57607 17.7181 3.57607 16.5669 4.28611 15.8569L4.59255 15.5504C4.59256 15.5504 4.59257 15.5504 4.59259 15.5504C4.59311 15.5493 4.59505 15.5448 4.59627 15.5362C4.59894 15.5172 4.59667 15.4874 4.58176 15.4555C4.48247 15.2426 4.39204 15.0248 4.31097 14.8024C4.29884 14.7691 4.27927 14.7463 4.26391 14.7348C4.25689 14.7295 4.25235 14.7277 4.2512 14.7273C4.25117 14.7273 4.25114 14.7273 4.25111 14.7273H3.81818C2.81403 14.7273 2 13.9132 2 12.9091V11.0909C2 10.0868 2.81403 9.27273 3.81818 9.27273H4.25112C4.25114 9.27272 4.25117 9.27271 4.2512 9.2727C4.25235 9.2723 4.25689 9.27051 4.26391 9.26523C4.27927 9.25367 4.29884 9.23088 4.31097 9.19762C4.39208 8.97513 4.48254 8.75718 4.58189 8.54425C4.5968 8.5123 4.59907 8.48249 4.5964 8.46354C4.59518 8.45488 4.59324 8.45044 4.59271 8.44935C4.5927 8.44933 4.59269 8.44931 4.59268 8.44928L4.28611 8.14272C3.57607 7.43267 3.57607 6.28146 4.28611 5.57142L5.57176 4.28577C6.28181 3.57573 7.43302 3.57572 8.14306 4.28577L8.44975 4.59246C8.44977 4.59247 8.4498 4.59248 8.44982 4.59249C8.4509 4.59302 8.45535 4.59496 8.46401 4.59618C8.48295 4.59885 8.51276 4.59658 8.54471 4.58167C8.7575 4.48241 8.97529 4.39202 9.19762 4.31097C9.23088 4.29884 9.25367 4.27927 9.26523 4.26391C9.27051 4.25689 9.2723 4.25235 9.2727 4.2512C9.27271 4.25117 9.27272 4.25114 9.27273 4.25111V3.81818ZM12.9091 3.81818H11.0909V4.25166C11.0909 5.09845 10.5196 5.76427 9.82034 6.01919C9.64776 6.0821 9.47864 6.15229 9.31335 6.2294C8.63838 6.54426 7.76332 6.47733 7.16449 5.87849L6.85741 5.57142L5.57176 6.85707L5.87872 7.16402C6.47759 7.76289 6.54448 8.63801 6.22956 9.31299C6.15239 9.47839 6.08215 9.64763 6.01919 9.82034C5.76427 10.5196 5.09846 11.0909 4.25166 11.0909H3.81818V12.9091H4.25166C5.09845 12.9091 5.76427 13.4804 6.01919 14.1797C6.08212 14.3523 6.15233 14.5215 6.22947 14.6868C6.54435 15.3618 6.47744 16.2369 5.87859 16.8357L5.57176 17.1425L6.85741 18.4282L7.16421 18.1214C7.76307 17.5225 8.63817 17.4556 9.31314 17.7705C9.4785 17.8477 9.64768 17.9179 9.82034 17.9808C10.5196 18.2357 11.0909 18.9015 11.0909 19.7483V20.1818H12.9091V19.7483C12.9091 18.9015 13.4804 18.2357 14.1797 17.9808C14.3524 17.9179 14.5216 17.8476 14.687 17.7704C15.362 17.4555 16.2371 17.5224 16.836 18.1213L17.1426 18.4279L18.4282 17.1423L18.1215 16.8355C17.5227 16.2367 17.4557 15.3616 17.7706 14.6867C17.8477 14.5214 17.9179 14.3522 17.9808 14.1797C18.2357 13.4804 18.9015 12.9091 19.7483 12.9091H20.1818V11.0909H19.7483C18.9015 11.0909 18.2357 10.5196 17.9808 9.82034C17.9179 9.64768 17.8477 9.47849 17.7705 9.31314C17.4556 8.63817 17.5225 7.76307 18.1214 7.16421L18.4282 6.85734L17.1426 5.57169L16.8357 5.87859C16.2369 6.47744 15.3618 6.54435 14.6868 6.22947C14.5215 6.15233 14.3523 6.08212 14.1797 6.01919C13.4804 5.76427 12.9091 5.09845 12.9091 4.25166V3.81818Z" fill="#121D33"/>
<path fill-rule="evenodd" clip-rule="evenodd" d="M12 14C13.1046 14 14 13.1046 14 12C14 10.8954 13.1046 10 12 10C10.8954 10 10 10.8954 10 12C10 13.1046 10.8954 14 12 14ZM12 16C14.2091 16 16 14.2091 16 12C16 9.79086 14.2091 8 12 8C9.79086 8 8 9.79086 8 12C8 14.2091 9.79086 16 12 16Z" fill="#121D33"/>
</svg>
