<svg width="89" height="88" viewBox="0 0 89 88" fill="none" xmlns="http://www.w3.org/2000/svg">
<path d="M44.5 88C68.8005 88 88.5 68.3005 88.5 44C88.5 19.6995 68.8005 0 44.5 0C20.1995 0 0.5 19.6995 0.5 44C0.5 68.3005 20.1995 88 44.5 88Z" fill="white"/>
<path fill-rule="evenodd" clip-rule="evenodd" d="M60.4472 32.7688L44.5583 40.6522L28.7611 32.7688L40.0361 21.4939C40.6313 20.8803 41.3437 20.3925 42.131 20.0594C42.9183 19.7263 43.7645 19.5547 44.6194 19.5547C45.4743 19.5547 46.3204 19.7263 47.1077 20.0594C47.895 20.3925 48.6074 20.8803 49.2027 21.4939L60.4472 32.7688ZM41.4446 45.9383L24.2388 37.3216L22.0082 39.5521C21.3909 40.1452 20.8997 40.8569 20.5641 41.6445C20.2286 42.4321 20.0557 43.2794 20.0557 44.1355C20.0557 44.9916 20.2286 45.8388 20.5641 46.6264C20.8997 47.414 21.3909 48.1257 22.0082 48.7188L39.9779 66.8658C40.4038 67.3015 40.8995 67.663 41.4446 67.9353V45.9383ZM66.992 48.7188C67.6094 48.1257 68.1005 47.414 68.4361 46.6264C68.7716 45.8388 68.9446 44.9916 68.9446 44.1355C68.9446 43.2794 68.7716 42.4321 68.4361 41.6445C68.1005 40.8569 67.6094 40.1452 66.992 39.5521L64.7614 37.3216L47.5557 45.9383V67.9353C48.1007 67.663 48.5964 67.3015 49.0223 66.8658L66.992 48.7188Z" fill="#121D33"/>
</svg>
