<svg width="24" height="24" viewBox="0 0 24 24" fill="none" xmlns="http://www.w3.org/2000/svg">
<path d="M12 17.5C13.1046 17.5 14 16.6046 14 15.5C14 14.3954 13.1046 13.5 12 13.5C10.8954 13.5 10 14.3954 10 15.5C10 16.6046 10.8954 17.5 12 17.5Z" fill="#121D33"/>
<path fill-rule="evenodd" clip-rule="evenodd" d="M7 9V7C7 4.23858 9.23858 2 12 2C14.7614 2 17 4.23858 17 7V9C18.1046 9 19 9.89543 19 11V20C19 21.1046 18.1046 22 17 22H7C5.89543 22 5 21.1046 5 20V11C5 9.89543 5.89543 9 7 9ZM15 7V9H9V7C9 5.34315 10.3431 4 12 4C13.6569 4 15 5.34315 15 7ZM17 11.5C17 11.2239 16.7761 11 16.5 11H7.5C7.22386 11 7 11.2239 7 11.5L7 19.5C7 19.7761 7.22386 20 7.5 20H16.5C16.7761 20 17 19.7761 17 19.5V11.5Z" fill="#121D33"/>
</svg>
