<svg width="45" height="45" viewBox="0 0 45 45" fill="none" xmlns="http://www.w3.org/2000/svg">
<g clip-path="url(#clip0_1661_75677)">
<path fill-rule="evenodd" clip-rule="evenodd" d="M22.834 44.3335C34.9843 44.3335 44.834 34.4838 44.834 22.3335C44.834 10.1832 34.9843 0.333496 22.834 0.333496C10.6837 0.333496 0.833984 10.1832 0.833984 22.3335C0.833984 34.4838 10.6837 44.3335 22.834 44.3335ZM22.834 11.3335C22.834 10.321 22.0132 9.50016 21.0007 9.50016C19.9881 9.50016 19.1673 10.321 19.1673 11.3335V21.4524C19.1673 22.5662 19.6736 23.6197 20.5434 24.3155L29.022 31.0984C29.8127 31.7309 30.9664 31.6028 31.5989 30.8121C32.2314 30.0215 32.1032 28.8678 31.3126 28.2352L22.834 21.4524V11.3335Z" fill="#98A1B2"/>
</g>
<defs>
<clipPath id="clip0_1661_75677">
<rect width="44" height="44" fill="white" transform="translate(0.833984 0.333496)"/>
</clipPath>
</defs>
</svg>
