<svg width="216" height="24" viewBox="0 0 216 24" fill="none" xmlns="http://www.w3.org/2000/svg">
<g clip-path="url(#clip0_1210_79)">
<path fill-rule="evenodd" clip-rule="evenodd" d="M139.92 3.87902C139.896 3.47427 139.994 3.07162 140.201 2.72321C140.409 2.3748 140.716 2.09667 141.083 1.92485C141.451 1.75302 141.861 1.6954 142.261 1.75945C142.662 1.8235 143.034 2.00627 143.329 2.2841C143.624 2.56193 143.829 2.92201 143.918 3.31774C144.006 3.71346 143.974 4.1266 143.825 4.50366C143.675 4.88072 143.417 5.20434 143.081 5.43262C142.746 5.66089 142.35 5.78331 141.945 5.78402C141.687 5.79202 141.43 5.74908 141.188 5.65766C140.947 5.56623 140.726 5.42811 140.538 5.25119C140.35 5.07427 140.198 4.86202 140.092 4.62658C139.986 4.39113 139.928 4.13711 139.92 3.87902ZM140.07 7.52402H143.805V21.024H140.07V7.52402ZM40.2 3.02399H33V21.024H40.71C44.745 21.024 46.905 18.909 46.905 16.044C46.958 14.9402 46.5707 13.8605 45.8282 13.0421C45.0857 12.2236 44.0487 11.7334 42.945 11.679V11.499C43.8642 11.3575 44.7008 10.8872 45.2995 10.1754C45.8981 9.46367 46.2181 8.55885 46.2 7.62899C46.2 4.94399 44.175 3.02399 40.2 3.02399ZM42.345 8.24399C42.345 9.66899 41.13 10.524 39.63 10.524L36.75 10.569V6.06899H39.69C41.385 6.06899 42.345 6.81899 42.345 8.24399ZM42.9 15.639C42.9 16.989 42.03 17.874 39.9 17.874H36.75V13.104H39.9C40.2674 13.0509 40.6418 13.0762 40.9986 13.1784C41.3554 13.2806 41.6865 13.4574 41.97 13.6969C42.2535 13.9365 42.483 14.2334 42.6433 14.5682C42.8036 14.903 42.8911 15.2679 42.9 15.639ZM48.75 21.024H52.545L52.485 3.02399H48.75V21.024ZM54.51 14.319C54.51 10.1341 57.06 7.34405 61.155 7.34405C65.25 7.34405 67.8 10.1341 67.8 14.319C67.8 18.504 65.25 21.279 61.155 21.279C57.06 21.279 54.51 18.489 54.51 14.319ZM63.99 14.3116C63.9879 11.9604 63.013 10.224 61.17 10.224C59.325 10.224 58.305 11.964 58.305 14.319C58.305 16.6741 59.28 18.399 61.17 18.399C63.058 18.399 63.988 16.6628 63.99 14.3116ZM75.84 7.34405C71.745 7.34405 69.21 10.179 69.21 14.319C69.21 18.4291 71.7 21.279 75.84 21.279C79.395 21.279 81.66 19.1791 81.84 16.074H78.3C78.2614 16.6921 77.9855 17.2713 77.5298 17.6906C77.0742 18.1099 76.4741 18.3369 75.855 18.3241C74.1 18.3241 72.975 16.779 72.975 14.274C72.975 11.769 74.115 10.269 75.855 10.269C76.4741 10.2562 77.0742 10.4832 77.5298 10.9025C77.9855 11.3218 78.2614 11.901 78.3 12.519H81.84C81.72 9.39905 79.365 7.34405 75.84 7.34405ZM83.805 3.02399H87.555V12.639H87.75L92.085 7.52399H96.375L91.365 13.374L96.63 21.024H92.25L88.56 15.579L87.555 16.734V21.024H83.805V3.02399ZM103.245 7.34405C99.15 7.34405 96.615 10.179 96.615 14.319C96.615 18.4291 99.105 21.279 103.275 21.279C106.845 21.279 109.095 19.1791 109.275 16.074H105.75C105.708 16.6934 105.429 17.2726 104.971 17.6916C104.512 18.1106 103.911 18.3371 103.29 18.3241C101.535 18.3241 100.41 16.779 100.41 14.274C100.41 11.769 101.55 10.269 103.29 10.269C103.911 10.256 104.512 10.4825 104.971 10.9015C105.429 11.3205 105.708 11.8997 105.75 12.519H109.245C109.14 9.39905 106.77 7.34405 103.245 7.34405ZM114.96 21.024H111.225V3.02399H114.855V9.90899H115.02C115.325 9.103 115.883 8.41754 116.611 7.95517C117.338 7.4928 118.196 7.27838 119.055 7.34399C121.86 7.34399 123.72 9.26399 123.72 12.429V21.024H119.97V13.089C120.02 12.7521 119.993 12.4084 119.894 12.0829C119.794 11.7573 119.623 11.458 119.393 11.2067C119.163 10.9554 118.881 10.7584 118.565 10.63C118.25 10.5015 117.91 10.4448 117.57 10.464C117.21 10.4495 116.852 10.5122 116.518 10.6478C116.185 10.7835 115.885 10.989 115.637 11.2505C115.39 11.512 115.202 11.8234 115.085 12.1638C114.968 12.5042 114.925 12.8657 114.96 13.224V21.024ZM130.62 13.089C127.95 13.344 125.55 14.259 125.55 17.259C125.55 19.929 127.455 21.279 130.035 21.279C130.828 21.3403 131.621 21.172 132.321 20.7943C133.02 20.4166 133.596 19.8454 133.98 19.149H134.085V21.024H137.64V11.904C137.64 8.67905 134.91 7.32905 131.91 7.32905C128.67 7.32905 126.555 8.87405 126.03 11.334L129.495 11.619C129.663 11.1321 129.993 10.7174 130.43 10.4444C130.866 10.1714 131.384 10.0566 131.895 10.119C133.17 10.119 133.89 10.764 133.89 11.874C133.89 12.759 132.975 12.864 130.62 13.089ZM133.92 14.694V16.194C133.899 16.5391 133.81 16.8766 133.657 17.1866C133.504 17.4966 133.29 17.7729 133.029 17.9993C132.768 18.2257 132.464 18.3976 132.135 18.5048C131.806 18.6121 131.46 18.6527 131.115 18.624C129.96 18.624 129.135 18.099 129.135 17.049C129.135 15.999 130.005 15.474 131.325 15.294C132.215 15.2211 133.089 15.0189 133.92 14.694ZM146.25 21.024H150.06L150 13.224C149.959 12.8695 149.994 12.5102 150.105 12.1708C150.216 11.8314 150.398 11.5199 150.64 11.2578C150.883 10.9956 151.179 10.7889 151.508 10.6519C151.838 10.5149 152.193 10.4508 152.55 10.464C152.889 10.4476 153.228 10.5061 153.542 10.6355C153.856 10.7649 154.138 10.9619 154.367 11.2126C154.596 11.4633 154.767 11.7614 154.868 12.0857C154.969 12.41 154.997 12.7526 154.95 13.089V21.024H158.7V12.429C158.7 9.27903 156.855 7.34403 154.035 7.34403C153.174 7.29086 152.318 7.50998 151.588 7.97034C150.859 8.4307 150.293 9.10896 149.97 9.90903H149.82V7.52403H146.25V21.024Z" fill="white"/>
<path opacity="0.8" fill-rule="evenodd" clip-rule="evenodd" d="M199.95 7.52403H196.38L196.365 21.024H200.115V12.924C200.084 12.6145 200.117 12.3018 200.212 12.0056C200.307 11.7094 200.463 11.4359 200.668 11.2023C200.873 10.9687 201.125 10.7799 201.407 10.6477C201.688 10.5155 201.994 10.4428 202.305 10.434C202.589 10.4219 202.871 10.4708 203.134 10.5775C203.397 10.6842 203.634 10.8461 203.829 11.0524C204.024 11.2587 204.172 11.5044 204.264 11.773C204.355 12.0415 204.388 12.3267 204.36 12.609V21.024H207.99V12.774C207.958 12.4729 207.99 12.1682 208.086 11.8808C208.181 11.5933 208.338 11.3298 208.544 11.1079C208.75 10.886 209.001 10.711 209.281 10.5948C209.561 10.4785 209.862 10.4237 210.165 10.434C210.457 10.421 210.748 10.4717 211.018 10.5825C211.288 10.6934 211.531 10.8617 211.729 11.0758C211.927 11.29 212.077 11.5448 212.167 11.8225C212.257 12.1002 212.285 12.3942 212.25 12.684V21.024H216V12.024C216.029 11.0334 215.721 10.0623 215.125 9.27047C214.529 8.47862 213.681 7.91314 212.721 7.66703C211.761 7.42092 210.746 7.50882 209.842 7.91629C208.939 8.32376 208.201 9.02653 207.75 9.90903H207.54C207.312 9.12611 206.824 8.44467 206.155 7.97802C205.487 7.51138 204.678 7.28765 203.865 7.34403C203.046 7.30733 202.238 7.53764 201.562 8.00027C200.885 8.4629 200.378 9.13279 200.115 9.90903H199.95V7.52403ZM173.7 7.34406C169.605 7.34406 167.085 10.1791 167.085 14.3191C167.085 18.4291 169.56 21.2791 173.775 21.2791C177.345 21.2791 179.61 19.1791 179.775 16.0741H176.25C176.208 16.6934 175.929 17.2727 175.471 17.6916C175.012 18.1106 174.411 18.3371 173.79 18.3241C172.05 18.3241 170.91 16.7791 170.91 14.2741C170.91 11.7691 172.05 10.2691 173.79 10.2691C174.411 10.256 175.012 10.4825 175.471 10.9015C175.929 11.3205 176.208 11.8997 176.25 12.5191H179.7C179.595 9.39906 177.225 7.34406 173.7 7.34406ZM161.87 17.6589C161.477 18.0495 161.254 18.5798 161.25 19.1341C161.248 19.4111 161.301 19.6858 161.406 19.9423C161.51 20.1989 161.665 20.4321 161.86 20.6287C162.055 20.8253 162.287 20.9814 162.543 21.0878C162.799 21.1943 163.073 21.2491 163.35 21.2491C163.907 21.2491 164.441 21.0279 164.835 20.634C165.229 20.2402 165.45 19.7061 165.45 19.1491C165.45 18.5921 165.229 18.058 164.835 17.6642C164.441 17.2704 163.907 17.0491 163.35 17.0491C162.796 17.0491 162.264 17.2683 161.87 17.6589ZM181.14 14.3191C181.14 10.1341 183.69 7.34406 187.785 7.34406C191.88 7.34406 194.415 10.1341 194.415 14.3191C194.415 18.5041 191.88 21.2791 187.785 21.2791C183.69 21.2791 181.14 18.4891 181.14 14.3191ZM190.62 14.3116C190.618 11.9604 189.643 10.2241 187.8 10.2241C185.955 10.2241 184.935 11.9641 184.935 14.3191C184.935 16.6741 185.91 18.3991 187.8 18.3991C189.688 18.3991 190.618 16.6628 190.62 14.3116Z" fill="white"/>
<path d="M2.05353 8.72217L0.958534 9.81717C0.65546 10.1083 0.414334 10.4577 0.249619 10.8443C0.0849028 11.231 0 11.6469 0 12.0672C0 12.4874 0.0849028 12.9034 0.249619 13.29C0.414334 13.6766 0.65546 14.026 0.958534 14.3172L9.78001 23.2257C9.98909 23.4396 10.2324 23.617 10.5 23.7507V12.9522L2.05353 8.72217Z" fill="#3D89F5"/>
<path d="M21.9465 8.72217L23.0415 9.81717C23.3445 10.1083 23.5857 10.4577 23.7504 10.8443C23.9151 11.231 24 11.6469 24 12.0672C24 12.4874 23.9151 12.9034 23.7504 13.29C23.5857 13.6766 23.3445 14.026 23.0415 14.3172L14.22 23.2257C14.0109 23.4396 13.7676 23.617 13.5 23.7507V12.9522L21.9465 8.72217Z" fill="#1656B9"/>
<path d="M19.8284 6.48695L14.3084 0.951954C14.0162 0.650761 13.6665 0.411296 13.28 0.247776C12.8935 0.0842556 12.4781 0 12.0584 0C11.6388 0 11.2234 0.0842556 10.8369 0.247776C10.4504 0.411296 10.1007 0.650761 9.80844 0.951954L4.27344 6.48695L12.0284 10.3569L19.8284 6.48695Z" fill="#85B5F8"/>
</g>
<defs>
<clipPath id="clip0_1210_79">
<rect width="216" height="24" fill="white"/>
</clipPath>
</defs>
</svg>
