<svg width="24" height="25" viewBox="0 0 24 25" fill="none" xmlns="http://www.w3.org/2000/svg">
<path d="M17.7071 6.79289C18.0976 7.18342 18.0976 7.81658 17.7071 8.20711L7.70711 18.2071C7.31658 18.5976 6.68342 18.5976 6.29289 18.2071C5.90237 17.8166 5.90237 17.1834 6.29289 16.7929L16.2929 6.79289C16.6834 6.40237 17.3166 6.40237 17.7071 6.79289Z" fill="#121D33"/>
<path d="M18 16.5C18 17.6046 17.1046 18.5 16 18.5C14.8954 18.5 14 17.6046 14 16.5C14 15.3954 14.8954 14.5 16 14.5C17.1046 14.5 18 15.3954 18 16.5Z" fill="#121D33"/>
<path d="M8 10.5C9.10457 10.5 10 9.60457 10 8.5C10 7.39543 9.10457 6.5 8 6.5C6.89543 6.5 6 7.39543 6 8.5C6 9.60457 6.89543 10.5 8 10.5Z" fill="#121D33"/>
</svg>
