<svg width="24" height="24" viewBox="0 0 24 24" fill="none" xmlns="http://www.w3.org/2000/svg">
<path fill-rule="evenodd" clip-rule="evenodd" d="M2 5C2 3.34315 3.34315 2 5 2H13C14.6569 2 16 3.34315 16 5V11C17.6569 11 19 12.3431 19 14V17.5C19 17.7761 19.2239 18 19.5 18C19.7761 18 20 17.7761 20 17.5V10.95C19.8384 10.9828 19.6712 11 19.5 11C18.1193 11 17 9.88071 17 8.5C17 7.39448 17.7176 6.45655 18.7124 6.1266L17.2929 4.70711C16.9024 4.31658 16.9024 3.68342 17.2929 3.29289C17.6834 2.90237 18.3166 2.90237 18.7071 3.29289L21.1213 5.70711C21.6839 6.26972 22 7.03278 22 7.82843V17.5C22 18.8807 20.8807 20 19.5 20C18.1193 20 17 18.8807 17 17.5V14C17 13.4477 16.5523 13 16 13V19C16 20.6569 14.6569 22 13 22H5C3.34315 22 2 20.6569 2 19V5ZM6 5C5.44772 5 5 5.44772 5 6V10C5 10.5523 5.44772 11 6 11H12C12.5523 11 13 10.5523 13 10V6C13 5.44772 12.5523 5 12 5H6Z" fill="#121D33"/>
</svg>
