<svg width="25" height="24" viewBox="0 0 25 24" fill="none" xmlns="http://www.w3.org/2000/svg">
<path fill-rule="evenodd" clip-rule="evenodd" d="M9.5 5.5C9.5 7.433 7.933 9 6 9C4.067 9 2.5 7.433 2.5 5.5C2.5 3.567 4.067 2 6 2C7.933 2 9.5 3.567 9.5 5.5ZM6 7C6.82843 7 7.5 6.32843 7.5 5.5C7.5 4.67157 6.82843 4 6 4C5.17157 4 4.5 4.67157 4.5 5.5C4.5 6.32843 5.17157 7 6 7Z" fill="#121D33"/>
<path fill-rule="evenodd" clip-rule="evenodd" d="M22.5 18.5C22.5 20.433 20.933 22 19 22C17.067 22 15.5 20.433 15.5 18.5C15.5 16.567 17.067 15 19 15C20.933 15 22.5 16.567 22.5 18.5ZM19 20C19.8284 20 20.5 19.3284 20.5 18.5C20.5 17.6716 19.8284 17 19 17C18.1716 17 17.5 17.6716 17.5 18.5C17.5 19.3284 18.1716 20 19 20Z" fill="#121D33"/>
<path fill-rule="evenodd" clip-rule="evenodd" d="M21.5156 4.04496L20.4549 2.9843C19.5763 2.10562 18.1516 2.10562 17.273 2.9843L3.48438 16.7729C2.6057 17.6516 2.6057 19.0762 3.48438 19.9549L4.54504 21.0155C5.42372 21.8942 6.84834 21.8942 7.72702 21.0155L21.5156 7.22694C22.3943 6.34826 22.3943 4.92364 21.5156 4.04496ZM20.1014 5.45917C20.199 5.55681 20.199 5.7151 20.1014 5.81273L6.31281 19.6013C6.21518 19.6989 6.05689 19.6989 5.95925 19.6013L4.89859 18.5406C4.80096 18.443 4.80096 18.2847 4.89859 18.1871L18.6872 4.39851C18.7848 4.30088 18.9431 4.30088 19.0407 4.39851L20.1014 5.45917Z" fill="#121D33"/>
</svg>
