<svg width="375" height="184" viewBox="0 0 375 184" fill="none" xmlns="http://www.w3.org/2000/svg">
<g clip-path="url(#clip0_58_6098)">
<path d="M154.94 144.158L154.868 144.208C154.605 144.391 154.339 144.573 154.071 144.752L153.93 144.847C153.7 145 153.47 145.153 153.241 145.309L153.038 145.439C152.767 145.613 152.494 145.785 152.22 145.955L152.096 146.031C151.855 146.18 151.611 146.327 151.368 146.472L151.155 146.597C150.875 146.762 150.595 146.925 150.313 147.085L150.222 147.136C149.964 147.281 149.706 147.424 149.446 147.565L149.226 147.68C148.938 147.835 148.651 147.989 148.36 148.142L148.313 148.166C148.036 148.309 147.757 148.449 147.478 148.588L147.248 148.703C146.957 148.845 146.666 148.986 146.373 149.124L146.359 149.131C146.062 149.271 145.762 149.407 145.462 149.542L145.232 149.645C144.953 149.769 144.672 149.891 144.391 150.011L144.319 150.042C144.017 150.17 143.712 150.295 143.408 150.418L143.178 150.51C142.905 150.626 142.631 150.727 142.356 150.831L142.241 150.876C141.933 150.992 141.624 151.107 141.315 151.223L141.085 151.305C140.815 151.4 140.545 151.495 140.273 151.586L140.121 151.638C139.81 151.743 139.497 151.845 139.181 151.944L138.951 152.016C138.682 152.1 138.412 152.182 138.141 152.263L137.962 152.316C137.645 152.408 137.326 152.498 137.007 152.586L136.777 152.647C136.507 152.72 136.235 152.791 135.964 152.86L135.76 152.912C135.438 152.993 135.116 153.07 134.791 153.143L134.573 153.193C134.3 153.255 134.025 153.316 133.75 153.375L133.527 153.422C133.2 153.492 132.872 153.557 132.543 153.621L132.339 153.659C132.06 153.711 131.778 153.762 131.498 153.811L131.261 153.852C130.93 153.909 130.596 153.963 130.26 154.013L130.078 154.04C129.79 154.083 129.502 154.124 129.214 154.162L128.963 154.196C128.625 154.24 128.287 154.281 127.947 154.319L127.789 154.335C127.491 154.369 127.193 154.399 126.895 154.428L126.635 154.452C126.29 154.482 125.946 154.511 125.601 154.536L125.478 154.545C125.166 154.567 124.854 154.587 124.542 154.604L124.276 154.618C123.931 154.637 123.577 154.653 123.227 154.664H123.158C122.827 154.674 122.495 154.682 122.164 154.689H121.891C121.537 154.689 121.182 154.697 120.827 154.689C103.513 154.614 87.5028 147.35 75.6047 135.667C63.7067 123.983 55.926 107.886 55.0871 90.1336C54.2483 72.3813 60.5064 56.3395 71.3013 44.7551C71.6265 44.4089 71.9574 44.0626 72.2918 43.7164C72.3987 43.6067 72.5067 43.4994 72.6147 43.3921C72.8445 43.1612 73.077 42.9304 73.3122 42.6996C73.4386 42.5765 73.5658 42.4537 73.6937 42.3314C73.9174 42.1175 74.1427 41.9055 74.3694 41.6954L74.7578 41.3376C75.0014 41.116 75.2474 40.8979 75.4944 40.6798C75.6093 40.5805 75.7242 40.4801 75.8334 40.382C76.1942 40.0688 76.5585 39.7611 76.9262 39.4587L76.955 39.4356C77.3142 39.1401 77.677 38.8493 78.0432 38.563C78.1638 38.4684 78.2868 38.3749 78.4086 38.2814C78.6675 38.0821 78.9276 37.8848 79.1888 37.6893C79.3302 37.5831 79.4727 37.4793 79.6152 37.3754C79.8657 37.1915 80.1177 37.0103 80.3713 36.8318C80.4563 36.7718 80.5391 36.7094 80.6253 36.6494L76.0598 39.8384C72.6773 42.203 69.5525 44.9192 66.737 47.9418C62.7256 52.2489 59.3703 57.128 56.7798 62.4209L56.8579 62.2581L56.8327 62.3101L56.8074 62.3608L56.7568 62.4647C56.7407 62.4947 56.7212 62.5363 56.7051 62.5674L56.6798 62.6194L56.6293 62.7221L56.5787 62.8248L56.5523 62.8768L56.5017 62.9795L56.4764 63.0314L56.4259 63.1341L56.4006 63.1861C56.3845 63.2172 56.3638 63.2576 56.3489 63.2888C51.8558 72.3975 49.5461 82.8831 50.0747 94.0566C50.9055 111.639 58.6069 127.588 70.3889 139.159C82.1708 150.731 98.0333 157.921 115.179 157.999C117.409 158.01 119.637 157.897 121.853 157.663L122.993 157.547C122.727 157.577 122.459 157.603 122.189 157.627C132.675 156.656 142.276 153.01 150.374 147.355L154.94 144.158Z" fill="#DFE3EB"/>
<path d="M174.604 120.794C174.461 121.082 174.318 121.371 174.171 121.652L174.098 121.79C173.97 122.036 173.841 122.28 173.71 122.524C173.671 122.599 173.631 122.673 173.595 122.747C173.442 123.03 173.289 123.311 173.135 123.591L173.101 123.651C172.954 123.913 172.803 124.172 172.652 124.432L172.522 124.653C172.369 124.911 172.214 125.17 172.062 125.426L172.028 125.482C171.86 125.756 171.691 126.026 171.519 126.29L171.384 126.502C171.235 126.732 171.085 126.963 170.934 127.194L170.85 127.321C170.674 127.586 170.496 127.848 170.317 128.109L170.181 128.304C170.03 128.521 169.878 128.738 169.721 128.953L169.606 129.116C169.423 129.372 169.235 129.627 169.048 129.88C169.004 129.938 168.961 129.995 168.918 130.052C168.761 130.262 168.603 130.47 168.444 130.677L168.304 130.857C168.11 131.107 167.915 131.354 167.718 131.601L167.604 131.738C167.436 131.946 167.267 132.152 167.097 132.358L166.939 132.547C166.737 132.789 166.533 133.03 166.326 133.268L166.251 133.355C166.065 133.569 165.876 133.781 165.688 133.992L165.52 134.179C165.308 134.41 165.093 134.651 164.877 134.883C154.183 146.357 138.996 153.416 121.848 153.342C104.699 153.268 88.8404 146.07 77.0584 134.501C65.2764 122.932 57.5635 106.988 56.7327 89.4043C55.9019 71.8205 62.0991 55.9334 72.7917 44.4598C73.056 44.1758 73.3249 43.8954 73.5961 43.6172L73.7202 43.4891C73.9791 43.2252 74.2396 42.9632 74.5016 42.7031L74.6521 42.5554C74.918 42.2961 75.1861 42.0387 75.4565 41.7832L75.5714 41.6759C75.8449 41.4197 76.1207 41.1646 76.3988 40.9142L76.4425 40.8738C76.7267 40.6183 77.0132 40.3663 77.302 40.1178L77.4468 39.992C77.7264 39.7519 78.008 39.5145 78.2914 39.2799L78.4511 39.1471C78.7407 38.9109 79.0322 38.6762 79.3256 38.4431L79.429 38.3623C79.7202 38.1315 80.0128 37.906 80.307 37.6859L80.3897 37.6236C80.6908 37.3928 80.9945 37.1693 81.301 36.953L81.4653 36.8376C81.7648 36.623 82.0667 36.411 82.3708 36.2017L82.5363 36.0863C82.8488 35.8731 83.1637 35.6623 83.4808 35.4538L83.5601 35.403C83.8719 35.1999 84.1853 34.9998 84.5001 34.8028L84.615 34.7301C84.9337 34.5316 85.2543 34.3369 85.5769 34.1461L85.7573 34.0388C86.076 33.851 86.3966 33.666 86.7191 33.4836L86.8868 33.3867C87.2235 33.1985 87.5602 33.0127 87.9004 32.8315L87.9452 32.8084C88.2792 32.6299 88.6167 32.4549 88.9576 32.2833L89.1024 32.2094C89.4371 32.0409 89.7734 31.8755 90.1113 31.7131L90.3032 31.6219C90.641 31.4619 90.9808 31.3042 91.3225 31.1487L91.4833 31.0783C91.838 30.9191 92.1954 30.7652 92.5555 30.6167L92.5681 30.6109C92.9289 30.4585 93.2932 30.3097 93.6575 30.1642L93.8275 30.0961C94.1784 29.9576 94.53 29.8226 94.8824 29.691L95.0835 29.6172C95.4398 29.4856 95.7975 29.3575 96.1568 29.2328L96.3039 29.182C96.6655 29.0581 97.0286 28.9373 97.3933 28.8196L97.4622 28.7977C97.8338 28.6792 98.2076 28.5638 98.5838 28.4514L98.7745 28.3937C99.1361 28.2845 99.5019 28.1791 99.8719 28.0775L100.078 28.0221C100.451 27.9221 100.827 27.8247 101.205 27.7301L101.328 27.7001C101.7 27.6093 102.074 27.5216 102.449 27.4369L102.564 27.4115C102.946 27.3261 103.331 27.2453 103.713 27.168L103.921 27.1265C104.3 27.0514 104.679 26.981 105.06 26.9129L105.264 26.8783C105.652 26.8079 106.045 26.7467 106.44 26.6925L106.531 26.6786C106.919 26.6209 107.307 26.5663 107.696 26.5147L107.845 26.4951C108.238 26.4455 108.631 26.3993 109.026 26.3566L109.141 26.3428L108.003 26.4617C98.0619 27.4928 88.5491 31.0638 80.3713 36.8342C80.117 37.0127 79.8649 37.1939 79.6152 37.3778C79.4727 37.4817 79.3302 37.5855 79.1889 37.6917C78.9269 37.8864 78.6668 38.0837 78.4086 38.2838C78.2868 38.3773 78.1639 38.4708 78.0432 38.5654C77.6778 38.8517 77.315 39.1425 76.955 39.438L76.9263 39.4611C76.5585 39.765 76.1943 40.0728 75.8334 40.3844C75.7185 40.4825 75.6036 40.5829 75.4944 40.6822C75.2474 40.9003 75.0015 41.1184 74.7579 41.34L74.3695 41.6978C74.1396 41.9079 73.9144 42.1199 73.6938 42.3338C73.5666 42.4561 73.4394 42.5789 73.3123 42.702C73.0778 42.9328 72.8453 43.1636 72.6147 43.3945C72.5067 43.5018 72.3987 43.6091 72.2918 43.7188C71.9574 44.065 71.6265 44.4044 71.3013 44.7575C60.5064 56.3396 54.2518 72.3814 55.0872 90.1337C55.9226 107.886 63.7056 123.988 75.5979 135.67C87.4901 147.353 103.507 154.617 120.82 154.69C121.176 154.69 121.531 154.69 121.885 154.69H122.157C122.489 154.684 122.821 154.676 123.151 154.666H123.22C123.57 154.654 123.92 154.638 124.269 154.619L124.536 154.606C124.848 154.588 125.16 154.568 125.471 154.547L125.594 154.537C125.939 154.512 126.283 154.483 126.628 154.453L126.888 154.429C127.187 154.4 127.484 154.37 127.782 154.337L127.94 154.321C128.285 154.282 128.618 154.241 128.956 154.197L129.207 154.164C129.495 154.124 129.783 154.084 130.071 154.041L130.254 154.015C130.589 153.964 130.923 153.91 131.254 153.853L131.491 153.813C131.772 153.763 132.053 153.712 132.332 153.66L132.536 153.622C132.866 153.559 133.193 153.493 133.521 153.424L133.743 153.376C134.019 153.318 134.293 153.257 134.566 153.194L134.785 153.144C135.109 153.068 135.432 152.991 135.753 152.914L135.957 152.862C136.228 152.792 136.5 152.721 136.77 152.648L137 152.587C137.32 152.499 137.638 152.409 137.955 152.317L138.134 152.264C138.405 152.187 138.676 152.104 138.944 152.017L139.174 151.945C139.489 151.846 139.802 151.744 140.114 151.639L140.266 151.587C140.538 151.496 140.808 151.402 141.078 151.306L141.308 151.224C141.617 151.108 141.926 150.999 142.234 150.878L142.349 150.833C142.624 150.729 142.899 150.621 143.171 150.512L143.401 150.419C143.705 150.296 144.01 150.171 144.312 150.043L144.384 150.012C144.666 149.892 144.947 149.77 145.226 149.646L145.455 149.543C145.755 149.408 146.055 149.272 146.352 149.133L146.367 149.126C146.66 148.987 146.95 148.846 147.241 148.704L147.471 148.589C147.751 148.45 148.03 148.31 148.306 148.168L148.353 148.143C148.643 147.993 148.928 147.84 149.219 147.682L149.439 147.566C149.699 147.425 149.958 147.282 150.215 147.137L150.306 147.086C150.588 146.926 150.869 146.763 151.148 146.598L151.361 146.473C151.604 146.328 151.848 146.181 152.089 146.032L152.213 145.956C152.488 145.786 152.761 145.614 153.032 145.44L153.234 145.31C153.464 145.159 153.693 145.006 153.923 144.848L154.065 144.754C154.332 144.575 154.598 144.392 154.861 144.209C158.271 141.833 161.42 139.101 164.256 136.058C168.224 131.796 171.55 126.975 174.129 121.746C174.301 121.402 174.471 121.059 174.638 120.716C174.633 120.74 174.618 120.766 174.604 120.794Z" fill="#F0F2F7"/>
<path d="M180.925 89.941C180.095 72.3573 172.392 56.4101 160.61 44.8384C148.828 33.2667 132.967 26.0751 115.82 26.0001C113.55 25.9885 111.282 26.1041 109.026 26.3463C108.631 26.389 108.238 26.4352 107.845 26.4848L107.696 26.5044C107.306 26.5598 106.92 26.616 106.537 26.6729L106.446 26.6868C106.051 26.7468 105.658 26.8126 105.266 26.8807L105.063 26.9153C104.681 26.9834 104.302 27.0538 103.924 27.1288L103.716 27.1704C103.331 27.2477 102.946 27.3285 102.567 27.4139L102.452 27.4393C102.077 27.5232 101.703 27.6109 101.33 27.7025L101.207 27.7325C100.829 27.8263 100.453 27.9237 100.08 28.0245L99.872 28.0776C99.5043 28.1784 99.1385 28.2819 98.7746 28.388L98.5838 28.4457C98.2084 28.5565 97.8346 28.672 97.4623 28.792L97.3933 28.8139C97.0294 28.9316 96.6663 29.0525 96.304 29.1763L96.1569 29.2271C95.7976 29.3518 95.4398 29.4799 95.0836 29.6115L94.8825 29.6853C94.5301 29.8169 94.1785 29.9519 93.8276 30.0904L93.6575 30.1585C93.2933 30.304 92.929 30.4528 92.5682 30.6052L92.5555 30.611C92.1962 30.7649 91.8389 30.9187 91.4834 31.0726L91.3225 31.1442C90.9816 31.2981 90.6419 31.4558 90.3032 31.6174L90.1113 31.7086C89.7735 31.8709 89.4372 32.0364 89.1024 32.2049L88.9576 32.2787C88.6175 32.4511 88.28 32.6261 87.9452 32.8039L87.9004 32.827C87.5557 33.0082 87.2236 33.194 86.8869 33.3821L86.7203 33.4756C86.397 33.658 86.0764 33.843 85.7585 34.0308L85.5781 34.1381C85.2555 34.3297 84.9349 34.5244 84.6162 34.7221L84.5013 34.7948C84.1865 34.9918 83.8731 35.1919 83.5613 35.395L83.4821 35.4458C83.1649 35.6535 82.85 35.8644 82.5375 36.0783L82.372 36.1937C82.0656 36.403 81.7637 36.615 81.4665 36.8296L81.3022 36.945C80.9957 37.1651 80.692 37.3886 80.3909 37.6156L80.3082 37.6779C80.014 37.9011 79.7214 38.1265 79.4302 38.3543L79.3268 38.4351C79.0327 38.6659 78.7412 38.9006 78.4523 39.1391L78.2926 39.2718C78.0084 39.5027 77.7269 39.7401 77.448 39.984L77.3032 40.1098C77.0152 40.3591 76.7287 40.6111 76.4437 40.8658L76.4 40.9061C76.1219 41.1566 75.8461 41.4117 75.5726 41.6679L75.4577 41.7752C75.1881 42.0299 74.9199 42.2873 74.6533 42.5474L74.5028 42.6951C74.2408 42.9552 73.9803 43.2172 73.7214 43.4811L73.5973 43.6092C73.3284 43.8874 73.0595 44.1678 72.7929 44.4518C62.1061 55.9254 55.9008 71.8125 56.7339 89.3963C57.567 106.98 65.2673 122.927 77.0493 134.499C88.8312 146.071 104.691 153.264 121.839 153.34C138.986 153.415 154.174 146.354 164.868 134.881C165.084 134.65 165.298 134.413 165.511 134.177L165.679 133.99C165.867 133.779 166.056 133.566 166.242 133.353L166.317 133.266C166.523 133.027 166.728 132.786 166.93 132.545L167.088 132.356C167.258 132.15 167.427 131.944 167.594 131.736L167.709 131.598C167.906 131.353 168.102 131.105 168.295 130.855L168.434 130.675C168.594 130.467 168.752 130.26 168.909 130.05C168.952 129.992 168.995 129.934 169.039 129.878C169.226 129.625 169.413 129.37 169.597 129.114L169.712 128.951C169.865 128.736 170.018 128.519 170.172 128.302L170.307 128.107C170.487 127.846 170.664 127.583 170.841 127.319L170.925 127.192C171.076 126.961 171.226 126.73 171.375 126.499L171.509 126.288C171.682 126.018 171.854 125.748 172.019 125.48L172.053 125.424C172.209 125.167 172.364 124.909 172.513 124.65L172.642 124.43C172.794 124.17 172.945 123.911 173.092 123.649L173.126 123.589C173.283 123.309 173.437 123.028 173.586 122.745C173.626 122.671 173.666 122.597 173.701 122.522C173.832 122.279 173.961 122.034 174.089 121.788L174.162 121.649C174.309 121.366 174.452 121.079 174.595 120.792C179.129 111.669 181.46 101.151 180.925 89.941ZM121.538 148.043C89.8608 148.043 62.9852 121.745 61.5108 89.3039C60.0365 56.8625 84.5232 30.566 116.2 30.566C147.877 30.566 174.755 56.8637 176.229 89.3039C177.703 121.744 153.218 148.043 121.538 148.043Z" fill="white"/>
<path d="M121.537 148.043C89.8607 148.043 62.985 121.745 61.5107 89.3039C60.0375 56.8637 84.5196 30.5659 116.2 30.5659C147.88 30.5659 174.754 56.8625 176.229 89.3039C177.703 121.745 153.214 148.043 121.537 148.043Z" fill="white"/>
<g clip-path="url(#clip1_58_6098)">
<path d="M118.531 147.793C150.621 149.481 176.848 124.704 177.112 92.453C177.375 60.2019 151.575 32.6888 119.485 31.0009C87.3953 29.3129 61.1677 54.0893 60.9041 86.3404C60.6405 118.592 86.4408 146.105 118.531 147.793Z" fill="#473BCB"/>
<path d="M141.693 91.2673L119.305 52.8994L96.3056 88.8798L118.893 103.316L141.693 91.2673Z" fill="white"/>
<path d="M118.708 125.894L141.674 95.5148L118.858 107.559L96.2709 93.1266L118.708 125.894Z" fill="white"/>
</g>
</g>
<g clip-path="url(#clip2_58_6098)">
<path d="M219.06 144.158L219.132 144.208C219.395 144.391 219.661 144.573 219.929 144.752L220.07 144.847C220.3 145 220.53 145.153 220.759 145.309L220.962 145.439C221.233 145.613 221.506 145.785 221.78 145.955L221.904 146.031C222.145 146.18 222.389 146.327 222.632 146.472L222.845 146.597C223.125 146.762 223.405 146.925 223.687 147.085L223.778 147.136C224.036 147.281 224.294 147.424 224.554 147.565L224.774 147.68C225.062 147.835 225.349 147.989 225.64 148.142L225.687 148.166C225.964 148.309 226.243 148.449 226.522 148.588L226.752 148.703C227.043 148.845 227.334 148.986 227.627 149.124L227.641 149.131C227.938 149.271 228.238 149.407 228.538 149.542L228.768 149.645C229.047 149.769 229.328 149.891 229.609 150.011L229.681 150.042C229.983 150.17 230.288 150.295 230.592 150.418L230.822 150.51C231.095 150.626 231.369 150.727 231.644 150.831L231.759 150.876C232.067 150.992 232.376 151.107 232.685 151.223L232.915 151.305C233.185 151.4 233.455 151.495 233.727 151.586L233.879 151.638C234.19 151.743 234.503 151.845 234.819 151.944L235.049 152.016C235.318 152.1 235.588 152.182 235.859 152.263L236.038 152.316C236.355 152.408 236.674 152.498 236.993 152.586L237.223 152.647C237.493 152.72 237.765 152.791 238.036 152.86L238.24 152.912C238.562 152.993 238.885 153.07 239.209 153.143L239.427 153.193C239.7 153.255 239.975 153.316 240.25 153.375L240.473 153.422C240.8 153.492 241.128 153.557 241.457 153.621L241.661 153.659C241.94 153.711 242.222 153.762 242.502 153.811L242.739 153.852C243.07 153.909 243.404 153.963 243.74 154.013L243.922 154.04C244.21 154.083 244.498 154.124 244.786 154.162L245.037 154.196C245.375 154.24 245.713 154.281 246.053 154.319L246.211 154.335C246.509 154.369 246.807 154.399 247.105 154.428L247.365 154.452C247.71 154.482 248.054 154.511 248.399 154.536L248.522 154.545C248.834 154.567 249.146 154.587 249.458 154.604L249.724 154.618C250.069 154.637 250.423 154.653 250.773 154.664H250.842C251.173 154.674 251.505 154.682 251.836 154.689H252.109C252.463 154.689 252.818 154.697 253.173 154.689C270.487 154.614 286.497 147.35 298.395 135.667C310.293 123.983 318.074 107.886 318.913 90.1336C319.752 72.3813 313.494 56.3395 302.699 44.7551C302.374 44.4089 302.043 44.0626 301.708 43.7164C301.601 43.6067 301.493 43.4994 301.385 43.3921C301.155 43.1612 300.923 42.9304 300.688 42.6996C300.561 42.5765 300.434 42.4537 300.306 42.3314C300.083 42.1175 299.857 41.9055 299.631 41.6954L299.242 41.3376C298.999 41.116 298.753 40.8979 298.506 40.6798C298.391 40.5805 298.276 40.4801 298.167 40.382C297.806 40.0688 297.441 39.7611 297.074 39.4587L297.045 39.4356C296.686 39.1401 296.323 38.8493 295.957 38.563C295.836 38.4684 295.713 38.3749 295.591 38.2814C295.332 38.0821 295.072 37.8848 294.811 37.6893C294.67 37.5831 294.527 37.4793 294.385 37.3754C294.134 37.1915 293.882 37.0103 293.629 36.8318C293.544 36.7718 293.461 36.7094 293.375 36.6494L297.94 39.8384C301.323 42.203 304.448 44.9192 307.263 47.9418C311.274 52.2489 314.63 57.128 317.22 62.4209L317.142 62.2581L317.167 62.3101L317.193 62.3608L317.243 62.4647C317.259 62.4947 317.279 62.5363 317.295 62.5674L317.32 62.6194L317.371 62.7221L317.421 62.8248L317.448 62.8768L317.498 62.9795L317.524 63.0314L317.574 63.1341L317.599 63.1861C317.615 63.2172 317.636 63.2576 317.651 63.2888C322.144 72.3975 324.454 82.8831 323.925 94.0566C323.095 111.639 315.393 127.588 303.611 139.159C291.829 150.731 275.967 157.921 258.821 157.999C256.591 158.01 254.363 157.897 252.147 157.663L251.007 157.547C251.273 157.577 251.541 157.603 251.811 157.627C241.325 156.656 231.724 153.01 223.626 147.355L219.06 144.158Z" fill="#DFE3EB"/>
<path d="M199.396 120.794C199.539 121.082 199.682 121.371 199.829 121.652L199.902 121.79C200.03 122.036 200.159 122.28 200.29 122.524C200.329 122.599 200.369 122.673 200.405 122.747C200.558 123.03 200.711 123.311 200.865 123.591L200.899 123.651C201.046 123.913 201.197 124.172 201.348 124.432L201.478 124.653C201.631 124.911 201.786 125.17 201.938 125.426L201.972 125.482C202.14 125.756 202.309 126.026 202.481 126.29L202.616 126.502C202.765 126.732 202.915 126.963 203.066 127.194L203.15 127.321C203.326 127.586 203.504 127.848 203.683 128.109L203.819 128.304C203.97 128.521 204.122 128.738 204.279 128.953L204.394 129.116C204.577 129.372 204.765 129.627 204.952 129.88C204.996 129.938 205.039 129.995 205.082 130.052C205.239 130.262 205.397 130.47 205.556 130.677L205.696 130.857C205.89 131.107 206.085 131.354 206.282 131.601L206.396 131.738C206.564 131.946 206.733 132.152 206.903 132.358L207.061 132.547C207.263 132.789 207.467 133.03 207.674 133.268L207.749 133.355C207.935 133.569 208.124 133.781 208.312 133.992L208.48 134.179C208.692 134.41 208.907 134.651 209.123 134.883C219.817 146.357 235.004 153.416 252.152 153.342C269.301 153.268 285.16 146.07 296.942 134.501C308.724 122.932 316.436 106.988 317.267 89.4043C318.098 71.8205 311.901 55.9334 301.208 44.4598C300.944 44.1758 300.675 43.8954 300.404 43.6172L300.28 43.4891C300.021 43.2252 299.76 42.9632 299.498 42.7031L299.348 42.5554C299.082 42.2961 298.814 42.0387 298.543 41.7832L298.429 41.6759C298.155 41.4197 297.879 41.1646 297.601 40.9142L297.558 40.8738C297.273 40.6183 296.987 40.3663 296.698 40.1178L296.553 39.992C296.274 39.7519 295.992 39.5145 295.709 39.2799L295.549 39.1471C295.259 38.9109 294.968 38.6762 294.674 38.4431L294.571 38.3623C294.28 38.1315 293.987 37.906 293.693 37.6859L293.61 37.6236C293.309 37.3928 293.005 37.1693 292.699 36.953L292.535 36.8376C292.235 36.623 291.933 36.411 291.629 36.2017L291.464 36.0863C291.151 35.8731 290.836 35.6623 290.519 35.4538L290.44 35.403C290.128 35.1999 289.815 34.9998 289.5 34.8028L289.385 34.7301C289.066 34.5316 288.746 34.3369 288.423 34.1461L288.243 34.0388C287.924 33.851 287.603 33.666 287.281 33.4836L287.113 33.3867C286.776 33.1985 286.44 33.0127 286.1 32.8315L286.055 32.8084C285.721 32.6299 285.383 32.4549 285.042 32.2833L284.898 32.2094C284.563 32.0409 284.227 31.8755 283.889 31.7131L283.697 31.6219C283.359 31.4619 283.019 31.3042 282.678 31.1487L282.517 31.0783C282.162 30.9191 281.805 30.7652 281.445 30.6167L281.432 30.6109C281.071 30.4585 280.707 30.3097 280.343 30.1642L280.172 30.0961C279.822 29.9576 279.47 29.8226 279.118 29.691L278.916 29.6172C278.56 29.4856 278.202 29.3575 277.843 29.2328L277.696 29.182C277.334 29.0581 276.971 28.9373 276.607 28.8196L276.538 28.7977C276.166 28.6792 275.792 28.5638 275.416 28.4514L275.225 28.3937C274.864 28.2845 274.498 28.1791 274.128 28.0775L273.922 28.0221C273.549 27.9221 273.173 27.8247 272.795 27.7301L272.672 27.7001C272.3 27.6093 271.926 27.5216 271.551 27.4369L271.436 27.4115C271.054 27.3261 270.669 27.2453 270.287 27.168L270.079 27.1265C269.7 27.0514 269.321 26.981 268.94 26.9129L268.736 26.8783C268.348 26.8079 267.955 26.7467 267.56 26.6925L267.469 26.6786C267.081 26.6209 266.693 26.5663 266.304 26.5147L266.155 26.4951C265.762 26.4455 265.369 26.3993 264.974 26.3566L264.859 26.3428L265.997 26.4617C275.938 27.4928 285.451 31.0638 293.629 36.8342C293.883 37.0127 294.135 37.1939 294.385 37.3778C294.527 37.4817 294.67 37.5855 294.811 37.6917C295.073 37.8864 295.333 38.0837 295.591 38.2838C295.713 38.3773 295.836 38.4708 295.957 38.5654C296.322 38.8517 296.685 39.1425 297.045 39.438L297.074 39.4611C297.441 39.765 297.806 40.0728 298.167 40.3844C298.281 40.4825 298.396 40.5829 298.506 40.6822C298.753 40.9003 298.999 41.1184 299.242 41.34L299.631 41.6978C299.86 41.9079 300.086 42.1199 300.306 42.3338C300.433 42.4561 300.561 42.5789 300.688 42.702C300.922 42.9328 301.155 43.1636 301.385 43.3945C301.493 43.5018 301.601 43.6091 301.708 43.7188C302.043 44.065 302.374 44.4044 302.699 44.7575C313.494 56.3396 319.748 72.3814 318.913 90.1337C318.077 107.886 310.294 123.988 298.402 135.67C286.51 147.353 270.493 154.617 253.18 154.69C252.824 154.69 252.469 154.69 252.115 154.69H251.843C251.511 154.684 251.179 154.676 250.849 154.666H250.78C250.43 154.654 250.08 154.638 249.731 154.619L249.464 154.606C249.152 154.588 248.84 154.568 248.529 154.547L248.406 154.537C248.061 154.512 247.717 154.483 247.372 154.453L247.112 154.429C246.813 154.4 246.516 154.37 246.218 154.337L246.06 154.321C245.715 154.282 245.382 154.241 245.044 154.197L244.793 154.164C244.505 154.124 244.217 154.084 243.929 154.041L243.746 154.015C243.411 153.964 243.077 153.91 242.746 153.853L242.509 153.813C242.228 153.763 241.947 153.712 241.668 153.66L241.464 153.622C241.134 153.559 240.807 153.493 240.479 153.424L240.257 153.376C239.981 153.318 239.707 153.257 239.434 153.194L239.215 153.144C238.891 153.068 238.568 152.991 238.247 152.914L238.043 152.862C237.772 152.792 237.5 152.721 237.23 152.648L237 152.587C236.68 152.499 236.362 152.409 236.045 152.317L235.866 152.264C235.595 152.187 235.324 152.104 235.056 152.017L234.826 151.945C234.511 151.846 234.198 151.744 233.886 151.639L233.734 151.587C233.462 151.496 233.192 151.402 232.922 151.306L232.692 151.224C232.383 151.108 232.074 150.999 231.766 150.878L231.651 150.833C231.376 150.729 231.101 150.621 230.829 150.512L230.599 150.419C230.295 150.296 229.99 150.171 229.688 150.043L229.616 150.012C229.334 149.892 229.053 149.77 228.774 149.646L228.545 149.543C228.245 149.408 227.945 149.272 227.648 149.133L227.633 149.126C227.34 148.987 227.05 148.846 226.759 148.704L226.529 148.589C226.249 148.45 225.97 148.31 225.694 148.168L225.647 148.143C225.357 147.993 225.072 147.84 224.781 147.682L224.561 147.566C224.301 147.425 224.042 147.282 223.785 147.137L223.694 147.086C223.412 146.926 223.131 146.763 222.852 146.598L222.639 146.473C222.396 146.328 222.152 146.181 221.911 146.032L221.787 145.956C221.512 145.786 221.239 145.614 220.968 145.44L220.766 145.31C220.536 145.159 220.307 145.006 220.077 144.848L219.935 144.754C219.668 144.575 219.402 144.392 219.139 144.209C215.729 141.833 212.58 139.101 209.744 136.058C205.776 131.796 202.45 126.975 199.871 121.746C199.699 121.402 199.529 121.059 199.362 120.716C199.367 120.74 199.382 120.766 199.396 120.794Z" fill="#F0F2F7"/>
<path d="M193.075 89.941C193.905 72.3573 201.608 56.4101 213.39 44.8384C225.172 33.2667 241.033 26.0751 258.181 26.0001C260.45 25.9885 262.718 26.1041 264.974 26.3463C265.369 26.389 265.762 26.4352 266.155 26.4848L266.304 26.5044C266.694 26.5598 267.08 26.616 267.463 26.6729L267.554 26.6868C267.949 26.7468 268.342 26.8126 268.734 26.8807L268.937 26.9153C269.319 26.9834 269.698 27.0538 270.076 27.1288L270.284 27.1704C270.669 27.2477 271.054 27.3285 271.433 27.4139L271.548 27.4393C271.923 27.5232 272.297 27.6109 272.67 27.7025L272.793 27.7325C273.171 27.8263 273.547 27.9237 273.92 28.0245L274.128 28.0776C274.496 28.1784 274.862 28.2819 275.225 28.388L275.416 28.4457C275.792 28.5565 276.165 28.672 276.538 28.792L276.607 28.8139C276.971 28.9316 277.334 29.0525 277.696 29.1763L277.843 29.2271C278.202 29.3518 278.56 29.4799 278.916 29.6115L279.118 29.6853C279.47 29.8169 279.822 29.9519 280.172 30.0904L280.342 30.1585C280.707 30.304 281.071 30.4528 281.432 30.6052L281.445 30.611C281.804 30.7649 282.161 30.9187 282.517 31.0726L282.678 31.1442C283.018 31.2981 283.358 31.4558 283.697 31.6174L283.889 31.7086C284.227 31.8709 284.563 32.0364 284.898 32.2049L285.042 32.2787C285.383 32.4511 285.72 32.6261 286.055 32.8039L286.1 32.827C286.444 33.0082 286.776 33.194 287.113 33.3821L287.28 33.4756C287.603 33.658 287.924 33.843 288.242 34.0308L288.422 34.1381C288.744 34.3297 289.065 34.5244 289.384 34.7221L289.499 34.7948C289.814 34.9918 290.127 35.1919 290.439 35.395L290.518 35.4458C290.835 35.6535 291.15 35.8644 291.463 36.0783L291.628 36.1937C291.934 36.403 292.236 36.615 292.534 36.8296L292.698 36.945C293.004 37.1651 293.308 37.3886 293.609 37.6156L293.692 37.6779C293.986 37.9011 294.279 38.1265 294.57 38.3543L294.673 38.4351C294.967 38.6659 295.259 38.9006 295.548 39.1391L295.707 39.2718C295.992 39.5027 296.273 39.7401 296.552 39.984L296.697 40.1098C296.985 40.3591 297.271 40.6111 297.556 40.8658L297.6 40.9061C297.878 41.1566 298.154 41.4117 298.427 41.6679L298.542 41.7752C298.812 42.0299 299.08 42.2873 299.347 42.5474L299.497 42.6951C299.759 42.9552 300.02 43.2172 300.279 43.4811L300.403 43.6092C300.672 43.8874 300.941 44.1678 301.207 44.4518C311.894 55.9254 318.099 71.8125 317.266 89.3963C316.433 106.98 308.733 122.927 296.951 134.499C285.169 146.071 269.309 153.264 252.161 153.34C235.014 153.415 219.826 146.354 209.132 134.881C208.916 134.65 208.702 134.413 208.489 134.177L208.321 133.99C208.133 133.779 207.944 133.566 207.758 133.353L207.683 133.266C207.477 133.027 207.272 132.786 207.07 132.545L206.912 132.356C206.742 132.15 206.573 131.944 206.406 131.736L206.291 131.598C206.094 131.353 205.898 131.105 205.705 130.855L205.566 130.675C205.406 130.467 205.248 130.26 205.091 130.05C205.049 129.992 205.005 129.934 204.961 129.878C204.774 129.625 204.587 129.37 204.403 129.114L204.288 128.951C204.135 128.736 203.982 128.519 203.828 128.302L203.693 128.107C203.513 127.846 203.336 127.583 203.159 127.319L203.075 127.192C202.924 126.961 202.774 126.73 202.625 126.499L202.491 126.288C202.318 126.018 202.146 125.748 201.982 125.48L201.947 125.424C201.791 125.167 201.636 124.909 201.487 124.65L201.358 124.43C201.206 124.17 201.055 123.911 200.908 123.649L200.874 123.589C200.717 123.309 200.563 123.028 200.414 122.745C200.374 122.671 200.334 122.597 200.299 122.522C200.168 122.279 200.039 122.034 199.911 121.788L199.838 121.649C199.691 121.366 199.548 121.079 199.405 120.792C194.871 111.669 192.54 101.151 193.075 89.941ZM252.462 148.043C284.139 148.043 311.015 121.745 312.489 89.3039C313.964 56.8625 289.477 30.566 257.8 30.566C226.123 30.566 199.245 56.8637 197.771 89.3039C196.297 121.744 220.782 148.043 252.462 148.043Z" fill="white"/>
<path d="M252.463 148.043C284.139 148.043 311.015 121.745 312.489 89.3039C313.962 56.8637 289.48 30.5659 257.8 30.5659C226.12 30.5659 199.246 56.8625 197.771 89.3039C196.297 121.745 220.786 148.043 252.463 148.043Z" fill="white"/>
<path d="M312.949 86.5332C312.142 118.831 285.428 146.369 253.281 148.04C221.134 149.711 195.729 124.883 196.536 92.5847C197.343 60.2864 224.057 32.7488 256.204 31.0778C288.351 29.4067 313.756 54.235 312.949 86.5332Z" fill="#F00500"/>
<path d="M235.192 62.1063C237.406 64.3394 239.424 66.7796 241.206 69.4008L241.796 69.1733C245.199 67.8574 248.713 66.9717 252.243 66.5491C253.307 66.4095 257.266 66.2037 258.557 66.221C262.455 66.2855 265.433 66.7353 268.804 67.7834C268.939 67.8327 269.06 67.8685 269.181 67.9044C271.167 65.1014 273.367 62.456 275.779 60.0105C264.635 54.6137 251.442 54.5824 239.5 59.9137C238.223 60.4723 236.97 61.1139 235.744 61.7964L235.192 62.1063Z" fill="#F00500"/>
<path d="M212.796 116.605C214.384 121.571 216.838 126.126 220.069 130.035C221.824 132.138 223.774 134.047 225.878 135.766C230.807 139.7 236.61 142.393 242.843 143.644C249.739 145.015 256.977 144.639 263.96 142.546C270.285 140.643 276.224 137.339 281.363 132.881C283.559 130.939 285.609 128.822 287.474 126.531C297.359 114.305 300.673 98.046 296.151 83.7838C295.293 81.1427 294.202 78.6122 292.875 76.2204C292.264 75.1273 291.507 73.9011 291.139 73.4C289.687 79.2828 287.954 84.4771 287.309 86.3527C287.348 86.4491 287.399 86.5589 287.451 86.6547C290.455 93.1355 292.009 99.4526 292.247 106.246C292.245 106.33 292.256 106.428 292.254 106.513C292.312 108.549 292.233 109.523 291.875 110.821C290.754 114.887 287.501 119.471 282.467 124.064C274.221 131.579 263.154 137.273 254.853 138.295C246.198 139.35 233.58 134.789 225.28 127.599C223.977 126.443 222.758 125.213 221.622 123.894C220.804 122.924 219.596 121.243 219.691 121.239C219.719 121.237 219.692 121.21 219.638 121.185C219.598 121.159 219.558 121.119 219.586 121.089C219.6 121.075 219.574 121.034 219.534 121.022C219.493 121.01 219.467 120.983 219.481 120.954C219.495 120.925 219.482 120.898 219.428 120.887C219.388 120.875 219.375 120.833 219.39 120.804C219.404 120.775 219.391 120.748 219.364 120.749C219.337 120.751 219.31 120.71 219.311 120.682C219.312 120.654 219.286 120.613 219.258 120.614C219.231 120.616 219.205 120.589 219.205 120.561C219.167 120.45 219.102 120.341 219.037 120.246C218.841 119.933 218.062 118.469 217.959 118.221C217.229 116.445 216.78 114.851 216.589 113.244C216.5 112.475 216.467 111.057 216.53 110.716C216.545 110.659 216.547 110.561 216.565 110.405C216.599 110.122 216.623 109.699 216.661 109.275C216.704 108.64 216.781 107.75 216.833 107.312C217.577 100.889 219.286 95.5836 222.418 89.8947C222.546 89.6771 222.66 89.4602 222.732 89.2877C222.76 89.2441 222.775 89.2012 222.789 89.1723C222.4 87.8848 220.809 82.4976 219.591 76.3036L219.563 76.3332L219.352 76.6254C218.986 77.1366 218.011 78.6497 217.571 79.3756C215.572 82.7136 213.988 86.2691 212.836 89.9568C210.155 98.8283 210.126 108.138 212.796 116.605Z" fill="#F00500"/>
<path d="M230.877 98.862C230.912 99.0851 231.534 99.7277 232.162 100.187C234.004 101.512 237.331 102.66 240.731 103.117C242.667 103.381 244.611 103.337 245.204 103.011C245.59 102.794 245.648 102.636 245.525 102.136C245.265 101.095 244.369 99.9886 242.954 98.9794C242.233 98.4685 239.3 96.7508 237.932 96.0345C235.678 94.858 233.847 94.1798 232.6 94.0618C232.207 94.026 231.731 94.0367 231.58 94.1149C231.332 94.2262 231.041 94.9865 230.91 95.8933C230.844 96.3748 230.818 98.4854 230.877 98.862Z" fill="black"/>
<path d="M262.816 101.856C262.893 102.021 263.297 102.183 263.758 102.229C264.219 102.275 265.635 102.159 266.44 102.019C269.334 101.475 272.419 100.401 274.678 99.1583C275.946 98.4596 276.859 97.7794 277.543 97.0548L277.935 96.6267L277.989 96.0895C278.08 95.1568 278.103 93.6932 278.007 93.1779C277.95 92.745 277.811 92.3303 277.616 91.9608C277.511 91.8257 277.511 91.8257 277.021 91.8511C276.423 91.8822 275.917 92.007 275.094 92.3169C273.407 92.939 270.884 94.3637 267.803 96.4081C265.261 98.087 264.303 98.8961 263.556 99.9755C263.05 100.649 262.701 101.581 262.816 101.856Z" fill="black"/>
<path d="M243.06 122.456C243.059 122.499 243.205 123.166 243.389 123.958C243.573 124.75 243.72 125.389 243.72 125.417C243.869 125.423 244.005 125.43 244.155 125.409L244.59 125.386L245.152 126.819C245.459 127.605 245.739 128.335 245.777 128.446L245.854 128.639L246.449 127.652L246.547 123.752L246.655 123.774C246.885 123.818 248.526 123.958 249.245 123.991C252.217 124.146 255.212 123.92 258.189 123.329C258.667 123.234 259.077 123.156 259.09 123.17C259.103 123.183 259.067 124.085 259.012 125.199L258.921 127.2L259.144 127.554C259.261 127.745 259.379 127.908 259.379 127.922C259.419 127.962 259.56 127.729 259.889 127.065C260.247 126.372 260.509 125.641 260.705 124.886L260.81 124.472L261.231 124.479L261.652 124.499L261.774 123.972C261.836 123.688 261.914 123.248 261.948 123.007L262 122.555L262.362 122.212C262.57 122.019 262.779 121.825 262.82 121.795C262.89 121.735 262.92 121.635 262.922 121.55L262.926 121.381L259.524 121.586L259.406 121.958L258.82 122.017C258.493 122.048 257.458 122.13 256.532 122.206L254.83 122.337L254.413 121.655L253.981 120.975L253.41 121.004L253.51 118.074L254.267 117.698C256.703 116.474 258.149 115.148 258.718 113.599C258.834 113.284 258.837 113.171 258.9 111.762C258.948 110.367 258.951 110.241 258.864 109.936C258.691 109.242 258.174 108.72 257.498 108.573C257.269 108.514 256.656 108.546 253.445 108.713L249.662 108.924L249.235 109.157C248.726 109.436 248.49 109.631 248.194 110.04C247.856 110.508 247.752 110.865 247.731 111.724C247.7 112.949 247.755 114 247.867 114.416C248.03 114.985 248.288 115.519 248.616 115.995C249.274 116.86 250.489 117.697 251.609 118.047L251.932 118.156L251.831 121.115L251.231 121.202L250.807 121.857L250.396 122.511L248.573 122.606C247.566 122.658 246.681 122.718 246.6 122.736C246.463 122.772 246.436 122.759 246.306 122.527L246.149 122.282L244.584 122.363C243.415 122.368 243.061 122.414 243.06 122.456Z" fill="black"/>
<path d="M250.143 126.124C250.398 126.265 250.573 126.326 250.614 126.296C250.655 126.28 250.85 126.101 251.058 125.936L251.433 125.607L251.804 126.009C252.61 126.895 252.637 126.936 252.881 126.938C253.261 126.96 253.344 126.885 253.825 126.143C254.079 125.764 254.277 125.445 254.277 125.445C254.277 125.445 254.455 125.407 254.659 125.383L255.041 125.321L255.376 126.063L255.691 125.948C255.938 125.851 256.186 125.739 256.42 125.615L256.833 125.382L256.853 124.58L249.614 124.984L249.591 125.365C249.566 125.816 249.553 125.803 250.143 126.124Z" fill="black"/>
<path d="M216.557 110.715C216.572 110.658 216.575 110.559 216.592 110.404C219.867 109.868 229.193 109.158 237.661 116.1C237.661 116.1 240.781 102.72 253.843 102.041C266.905 101.362 271.418 114.345 271.418 114.345C278.942 105.813 288.723 105.895 292.247 106.246C292.245 106.33 292.256 106.428 292.254 106.513C292.312 108.549 292.233 109.523 291.875 110.821C290.754 114.887 287.501 119.471 282.467 124.064C274.221 131.579 263.154 137.273 254.853 138.295C246.198 139.35 233.58 134.789 225.28 127.599C223.977 126.443 222.758 125.213 221.622 123.894C220.804 122.924 219.596 121.243 219.691 121.239C219.719 121.237 219.692 121.21 219.638 121.185C219.598 121.159 219.558 121.119 219.586 121.089C219.6 121.075 219.574 121.034 219.534 121.022C219.493 121.01 219.467 120.983 219.481 120.954C219.495 120.925 219.482 120.898 219.428 120.887C219.388 120.875 219.375 120.833 219.39 120.804C219.404 120.775 219.391 120.748 219.364 120.749C219.337 120.751 219.31 120.71 219.311 120.682C219.312 120.654 219.286 120.613 219.258 120.614C219.231 120.616 219.205 120.589 219.205 120.561C219.167 120.45 219.102 120.341 219.037 120.246C218.841 119.933 218.062 118.469 217.959 118.221C217.229 116.445 216.78 114.851 216.589 113.244C216.527 112.474 216.494 111.056 216.557 110.715ZM250.143 126.124C250.398 126.265 250.573 126.326 250.614 126.296C250.655 126.28 250.85 126.101 251.058 125.936L251.433 125.607L251.804 126.009C252.61 126.895 252.637 126.936 252.881 126.938C253.261 126.96 253.344 126.885 253.825 126.143C254.079 125.764 254.277 125.445 254.277 125.445C254.277 125.445 254.455 125.407 254.659 125.383L255.041 125.321L255.376 126.063L255.691 125.948C255.938 125.851 256.186 125.739 256.42 125.615L256.833 125.382L256.853 124.58L249.614 124.984L249.591 125.365C249.566 125.816 249.553 125.803 250.143 126.124ZM243.403 123.943C243.587 124.735 243.734 125.374 243.734 125.402C243.883 125.409 244.019 125.416 244.169 125.394L244.604 125.371L245.152 126.819C245.459 127.605 245.739 128.335 245.777 128.446L245.854 128.639L246.449 127.652L246.547 123.752L246.655 123.774C246.885 123.818 248.526 123.958 249.245 123.991C252.217 124.146 255.212 123.92 258.189 123.329C258.667 123.234 259.077 123.156 259.09 123.17C259.103 123.183 259.067 124.085 259.012 125.199L258.921 127.2L259.144 127.554C259.261 127.745 259.379 127.908 259.379 127.922C259.419 127.962 259.56 127.729 259.889 127.065C260.247 126.372 260.509 125.641 260.705 124.886L260.81 124.472L261.231 124.479L261.652 124.499L261.774 123.972C261.836 123.688 261.914 123.248 261.948 123.007L262 122.555L262.362 122.212C262.57 122.019 262.779 121.825 262.82 121.795C262.89 121.735 262.92 121.635 262.922 121.55L262.926 121.381L259.524 121.586L259.406 121.958L258.82 122.017C258.493 122.048 257.458 122.13 256.532 122.206L254.83 122.337L254.413 121.655L253.981 120.975L253.41 121.004L253.51 118.074L254.267 117.698C256.703 116.474 258.149 115.148 258.718 113.599C258.834 113.284 258.837 113.171 258.9 111.762C258.948 110.367 258.951 110.241 258.864 109.936C258.691 109.242 258.174 108.72 257.498 108.573C257.269 108.514 256.656 108.546 253.445 108.713L249.662 108.924L249.235 109.157C248.726 109.436 248.49 109.631 248.194 110.04C247.856 110.508 247.752 110.865 247.731 111.724C247.7 112.949 247.755 114 247.867 114.416C248.03 114.985 248.288 115.519 248.616 115.995C249.274 116.86 250.489 117.697 251.609 118.047L251.932 118.156L251.831 121.115L251.231 121.202L250.807 121.857L250.396 122.511L248.573 122.606C247.566 122.658 246.681 122.718 246.6 122.736C246.463 122.772 246.436 122.759 246.306 122.527L246.149 122.282L244.584 122.363C243.373 122.426 243.019 122.458 243.018 122.501C243.059 122.484 243.219 123.165 243.403 123.943Z" fill="white"/>
<path d="M216.702 109.273C216.745 108.638 216.822 107.748 216.873 107.31C217.618 100.887 219.327 95.5814 222.459 89.8925C222.586 89.6749 222.7 89.4581 222.773 89.2856C222.801 89.2419 222.816 89.199 222.83 89.1701C222.441 87.8826 220.85 82.4955 219.632 76.3015C217.981 67.8943 217.045 58.0156 220.739 54.8426C220.739 54.8426 227.01 54.0386 235.179 62.107C237.392 64.3401 239.41 66.7803 241.193 69.4015L241.783 69.174C245.185 67.8581 248.7 66.9724 252.23 66.5498C253.293 66.4102 257.252 66.2044 258.543 66.2217C262.441 66.2862 265.419 66.736 268.79 67.7841C268.925 67.8334 269.046 67.8692 269.168 67.9051C271.154 65.1021 273.353 62.4567 275.765 60.0112C284.7 51.0115 291.178 51.1669 291.178 51.1669C294.938 54.0509 293.372 64.5096 291.166 73.3985C289.714 79.2813 287.981 84.4757 287.336 86.3512C287.375 86.4477 287.426 86.5575 287.478 86.6532C290.482 93.134 292.037 99.4511 292.275 106.244C288.737 105.894 278.969 105.797 271.431 114.345C271.431 114.345 266.918 101.361 253.857 102.04C240.795 102.719 237.675 116.099 237.675 116.099C229.206 109.157 219.88 109.881 216.606 110.403C216.626 110.121 216.664 109.697 216.702 109.273ZM284.897 81.1769C284.897 81.1769 290.315 67.7479 289.197 60.2973C289.011 59.0415 288.63 57.9504 288.012 57.1388C288.012 57.1388 282.228 58.0301 272.654 69.2144C272.654 69.2144 274.401 70.0094 276.721 71.773C276.721 71.773 276.735 71.7864 276.748 71.7857C279.269 73.6936 282.48 76.7607 284.897 81.1769ZM262.816 101.856C262.893 102.021 263.297 102.183 263.758 102.229C264.219 102.275 265.635 102.159 266.44 102.019C269.334 101.475 272.419 100.401 274.678 99.1583C275.946 98.4596 276.859 97.7794 277.543 97.0548L277.935 96.6267L277.989 96.0895C278.08 95.1568 278.103 93.6932 278.007 93.1779C277.95 92.745 277.811 92.3303 277.616 91.9608C277.511 91.8257 277.511 91.8257 277.021 91.8511C276.423 91.8822 275.917 92.007 275.094 92.3169C273.407 92.939 270.884 94.3637 267.803 96.4081C265.261 98.087 264.303 98.8961 263.556 99.9755C263.05 100.649 262.701 101.581 262.816 101.856ZM230.877 98.862C230.912 99.0851 231.534 99.7277 232.162 100.187C234.004 101.512 237.331 102.66 240.731 103.117C242.667 103.381 244.611 103.337 245.204 103.011C245.59 102.794 245.648 102.636 245.525 102.136C245.265 101.095 244.369 99.9886 242.954 98.9794C242.233 98.4685 239.3 96.7508 237.932 96.0345C235.678 94.858 233.847 94.1798 232.6 94.0618C232.207 94.026 231.731 94.0367 231.58 94.1149C231.332 94.2262 231.041 94.9865 230.91 95.8933C230.844 96.3748 230.818 98.4854 230.877 98.862ZM233.753 74.0066L233.781 73.9911C236.114 71.9856 237.851 71.0095 237.851 71.0095C229.124 60.7765 223.574 60.4744 223.574 60.4744C222.941 61.3651 222.519 62.4838 222.269 63.7623C220.816 71.3466 225.398 84.2698 225.398 84.2698C227.547 80.3756 230.393 76.8811 233.753 74.0066Z" fill="#FFA409"/>
<path d="M222.256 63.763C223.32 63.5671 228.342 63.2779 233.753 74.0066L233.781 73.9911C236.114 71.9856 237.851 71.0095 237.851 71.0095C229.124 60.7765 223.574 60.4744 223.574 60.4744C222.927 61.3658 222.505 62.4846 222.256 63.763Z" fill="#FF9300"/>
<path d="M225.385 84.2706C227.548 80.3615 230.38 76.8818 233.753 74.0066C228.342 63.2779 223.334 63.5664 222.256 63.763C220.802 71.3614 225.385 84.2706 225.385 84.2706Z" fill="#FF8300"/>
<path d="M222.05 63.8159C222.119 63.7983 222.187 63.7807 222.256 63.763L222.05 63.8159Z" fill="#FF8300"/>
<path d="M272.655 69.2003C272.655 69.2003 274.401 69.9954 276.722 71.759C276.722 71.759 276.735 71.7724 276.749 71.7716C282.916 60.427 288.099 60.1997 289.211 60.2825C289.025 59.0267 288.644 57.9356 288.026 57.1241C288.012 57.1248 282.229 58.016 272.655 69.2003Z" fill="#FF9300"/>
<path d="M276.735 71.7724C279.269 73.6936 282.481 76.7467 284.897 81.1769C284.897 81.1769 290.315 67.7479 289.197 60.2832C288.099 60.1997 282.902 60.4417 276.735 71.7724Z" fill="#FF8300"/>
<path d="M289.197 60.2832C289.265 60.2938 289.346 60.3036 289.414 60.3142L289.197 60.2832Z" fill="#FF8300"/>
<path d="M238.971 90.8621C238.971 90.8621 243.318 90.9174 242.862 87.4258C242.406 83.9342 239.015 83.6886 238.059 83.8789C237.103 84.0692 233.258 85.6752 233.864 88.5966C234.471 91.5179 235.437 90.9052 235.978 91.0177C236.519 91.1302 238.971 90.8621 238.971 90.8621Z" fill="white"/>
<path d="M271.082 89.193C271.082 89.193 275.429 89.2482 274.972 85.7566C274.516 82.265 271.125 82.0194 270.169 82.2097C269.213 82.4 265.368 84.006 265.975 86.9274C266.581 89.8487 267.548 89.236 268.088 89.3486C268.629 89.4611 271.082 89.193 271.082 89.193Z" fill="white"/>
</g>
<g filter="url(#filter0_b_58_6098)">
<circle cx="187.5" cy="92.5" r="30.5" fill="white" fill-opacity="0.25"/>
<g style="mix-blend-mode:color-burn" opacity="0.75">
<path d="M182.736 90.3917V85.4256C182.736 84.6 183.4 83.9358 184.225 83.9358L194.652 83.9358V78.4918C194.652 77.3869 195.986 76.8344 196.768 77.6165L206.213 87.0582C206.679 87.5238 206.679 88.2873 206.213 88.7529L196.768 98.207C195.986 98.9891 194.652 98.4367 194.652 97.3317V91.8815H184.225C183.4 91.8815 182.736 91.2173 182.736 90.3917Z" fill="#353F52"/>
<path d="M192.264 95.3013V100.267C192.264 101.093 191.6 101.757 190.775 101.757H180.348V107.201C180.348 108.306 179.014 108.859 178.232 108.076L168.787 98.6347C168.321 98.1692 168.321 97.4056 168.787 96.9401L178.232 87.486C179.014 86.7038 180.348 87.2563 180.348 88.3612L180.348 93.8115H190.775C191.6 93.8115 192.264 94.4757 192.264 95.3013Z" fill="#353F52"/>
</g>
</g>
<defs>
<filter id="filter0_b_58_6098" x="133" y="38" width="109" height="109" filterUnits="userSpaceOnUse" color-interpolation-filters="sRGB">
<feFlood flood-opacity="0" result="BackgroundImageFix"/>
<feGaussianBlur in="BackgroundImageFix" stdDeviation="12"/>
<feComposite in2="SourceAlpha" operator="in" result="effect1_backgroundBlur_58_6098"/>
<feBlend mode="normal" in="SourceGraphic" in2="effect1_backgroundBlur_58_6098" result="shape"/>
</filter>
<clipPath id="clip0_58_6098">
<rect width="131" height="132" fill="white" transform="translate(50 26)"/>
</clipPath>
<clipPath id="clip1_58_6098">
<rect width="116.368" height="116.796" fill="white" transform="matrix(0.998619 0.0525281 -0.00817287 0.999967 61.3813 27.9446)"/>
</clipPath>
<clipPath id="clip2_58_6098">
<rect width="131" height="132" fill="white" transform="matrix(-1 0 0 1 324 26)"/>
</clipPath>
</defs>
</svg>
