<svg width="89" height="88" viewBox="0 0 89 88" fill="none" xmlns="http://www.w3.org/2000/svg">
<path d="M44.5 88C68.8005 88 88.5 68.3005 88.5 44C88.5 19.6995 68.8005 0 44.5 0C20.1995 0 0.5 19.6995 0.5 44C0.5 68.3005 20.1995 88 44.5 88Z" fill="white"/>
<path fill-rule="evenodd" clip-rule="evenodd" d="M49.389 26.0967C48.3338 25.8856 47.0677 25.8856 46.0125 25.8856C35.2499 25.8856 26.3866 34.7489 26.3866 45.5115C26.3866 46.0391 26.4394 46.6194 26.4921 47.1998C26.5449 47.7801 26.5976 48.3604 26.5976 48.888C22.588 45.9336 20.0557 41.0799 20.0557 35.8041C20.0557 26.7297 27.4418 19.5547 36.3051 19.5547C41.7919 19.5547 46.4346 22.0871 49.389 26.0967ZM68.9448 49.6213C68.9448 60.0165 60.5178 68.4435 50.1226 68.4435C39.7273 68.4435 31.3003 60.0165 31.3003 49.6213C31.3003 39.2261 39.7273 30.7991 50.1226 30.7991C60.5178 30.7991 68.9448 39.2261 68.9448 49.6213Z" fill="#121D33"/>
</svg>
