<svg width="24" height="24" viewBox="0 0 24 24" fill="none" xmlns="http://www.w3.org/2000/svg">
<path fill-rule="evenodd" clip-rule="evenodd" d="M13.41 19.8761V18.09C15.15 17.76 16.52 16.76 16.53 14.93C16.53 12.41 14.37 11.54 12.35 11.02C10.33 10.5 9.67999 9.95 9.67999 9.11C9.67999 8.15 10.58 7.47 12.08 7.47C13.66 7.47 14.25 8.23 14.3 9.34H16.26C16.2 7.81 15.27 6.4 13.41 5.95V4.12386C17.1558 4.78993 20 8.06282 20 12C20 15.9372 17.1558 19.2101 13.41 19.8761ZM10.74 19.9013V18.07C9.02999 17.71 7.57999 16.61 7.46999 14.67H9.42999C9.52999 15.72 10.25 16.54 12.08 16.54C14.04 16.54 14.48 15.56 14.48 14.95C14.48 14.12 14.04 13.34 11.81 12.81C9.32999 12.21 7.62999 11.19 7.62999 9.14C7.62999 7.42 9.01999 6.3 10.74 5.93V4.09866C6.92036 4.70296 4 8.01044 4 12C4 15.9896 6.92036 19.297 10.74 19.9013ZM22 12C22 17.5228 17.5228 22 12 22C6.47715 22 2 17.5228 2 12C2 6.47715 6.47715 2 12 2C17.5228 2 22 6.47715 22 12Z" fill="#121D33"/>
</svg>
