<svg width="24" height="24" viewBox="0 0 24 24" fill="none" xmlns="http://www.w3.org/2000/svg">
<path fill-rule="evenodd" clip-rule="evenodd" d="M16.5 4C14.567 4 13 5.567 13 7.5C13 9.433 14.567 11 16.5 11C18.433 11 20 9.433 20 7.5C20 5.567 18.433 4 16.5 4ZM11 7.5C11 4.46243 13.4624 2 16.5 2C19.5376 2 22 4.46243 22 7.5C22 10.5376 19.5376 13 16.5 13C13.4624 13 11 10.5376 11 7.5Z" fill="#121D33"/>
<path fill-rule="evenodd" clip-rule="evenodd" d="M6.5 12C5.11929 12 4 13.1193 4 14.5C4 15.8807 5.11929 17 6.5 17C7.88071 17 9 15.8807 9 14.5C9 13.1193 7.88071 12 6.5 12ZM2 14.5C2 12.0147 4.01472 10 6.5 10C8.98528 10 11 12.0147 11 14.5C11 16.9853 8.98528 19 6.5 19C4.01472 19 2 16.9853 2 14.5Z" fill="#121D33"/>
<path fill-rule="evenodd" clip-rule="evenodd" d="M15.5 17C14.6716 17 14 17.6716 14 18.5C14 19.3284 14.6716 20 15.5 20C16.3284 20 17 19.3284 17 18.5C17 17.6716 16.3284 17 15.5 17ZM12 18.5C12 16.567 13.567 15 15.5 15C17.433 15 19 16.567 19 18.5C19 20.433 17.433 22 15.5 22C13.567 22 12 20.433 12 18.5Z" fill="#121D33"/>
</svg>
