<?xml version="1.0" encoding="UTF-8" standalone="no"?>
<!DOCTYPE svg PUBLIC "-//W3C//DTD SVG 1.1//EN" "http://www.w3.org/Graphics/SVG/1.1/DTD/svg11.dtd">
<svg width="24px" height="24px" version="1.1" xmlns="http://www.w3.org/2000/svg" xmlns:xlink="http://www.w3.org/1999/xlink" xml:space="preserve" xmlns:serif="http://www.serif.com/" style="fill-rule:evenodd;clip-rule:evenodd;stroke-linejoin:round;stroke-miterlimit:2;">
    <path d="M12,0C18.623,0 24,5.377 24,12C24,18.623 18.623,24 12,24C5.377,24 0,18.623 0,12C0,5.377 5.377,0 12,0ZM5.955,12C5.955,10.998 6.767,10.187 7.769,10.187L9.582,10.187C10.584,10.187 11.396,10.998 11.396,12L11.396,16.231C11.396,17.233 10.584,18.045 9.582,18.045L7.769,18.045C6.767,18.045 5.955,17.233 5.955,16.231L5.955,12ZM12.604,7.769C12.604,6.767 13.416,5.955 14.418,5.955L16.231,5.955C17.233,5.955 18.045,6.767 18.045,7.769L18.045,16.231C18.045,17.233 17.233,18.045 16.231,18.045L14.418,18.045C13.416,18.045 12.604,17.233 12.604,16.231L12.604,7.769ZM9.704,16.823L9.644,16.833L9.582,16.836C9.603,16.836 9.624,16.835 9.644,16.833L9.652,16.832C9.669,16.83 9.687,16.827 9.704,16.823ZM16.293,16.833L16.353,16.823C16.333,16.827 16.313,16.83 16.293,16.833C16.273,16.835 16.252,16.836 16.231,16.836L16.293,16.833ZM14.138,16.767L14.162,16.779L14.183,16.788L14.201,16.795L14.222,16.803L14.243,16.81L14.264,16.816L14.286,16.821C14.289,16.822 14.293,16.823 14.296,16.823L14.284,16.821L14.262,16.815L14.24,16.809L14.219,16.802L14.198,16.795L14.178,16.786L14.158,16.777L14.138,16.767L14.13,16.763L14.08,16.732C14.099,16.745 14.118,16.757 14.138,16.767ZM10.184,16.292L10.181,16.311L10.178,16.334L10.174,16.355L10.172,16.365C10.171,16.369 10.17,16.373 10.169,16.376L10.166,16.387L10.163,16.398C10.149,16.447 10.129,16.493 10.104,16.536L10.092,16.555L10.087,16.564L10.101,16.541L10.104,16.536C10.129,16.493 10.149,16.447 10.163,16.398L10.166,16.387C10.169,16.376 10.172,16.366 10.174,16.355L10.179,16.33L10.182,16.309L10.184,16.292C10.186,16.272 10.187,16.252 10.187,16.231L10.184,16.292ZM13.84,16.41L13.827,16.357C13.83,16.375 13.835,16.393 13.84,16.41L13.841,16.412C13.847,16.43 13.853,16.449 13.861,16.466L13.841,16.412L13.84,16.41ZM7.208,11.774L7.212,11.765L7.207,11.776L7.199,11.797L7.192,11.818L7.186,11.839L7.18,11.861L7.177,11.879C7.173,11.898 7.17,11.918 7.167,11.938L7.177,11.879L7.181,11.859L7.187,11.837L7.193,11.816L7.2,11.795L7.208,11.774ZM7.302,11.616C7.292,11.628 7.283,11.64 7.274,11.653C7.265,11.666 7.257,11.679 7.249,11.693L7.302,11.616ZM9.644,11.399L9.658,11.4L9.672,11.402L9.684,11.404L9.698,11.407L9.71,11.409L9.724,11.412L9.735,11.415L9.749,11.419L9.761,11.422L9.773,11.426L9.786,11.431L9.798,11.435L9.81,11.44L9.821,11.445L9.834,11.45L9.844,11.455L9.857,11.461L9.868,11.467L9.879,11.473L9.891,11.48L9.901,11.486L9.912,11.494L9.922,11.5L9.933,11.508L9.942,11.515L9.953,11.523L9.963,11.531L9.973,11.539L9.983,11.547L9.992,11.555L10.002,11.565L10.01,11.573L10.049,11.616C10.036,11.601 10.023,11.586 10.01,11.573L10,11.563L9.981,11.546L9.968,11.535L9.949,11.519L9.931,11.506L9.91,11.492L9.895,11.483L9.874,11.47L9.852,11.459L9.831,11.449L9.808,11.439L9.791,11.433L9.767,11.424L9.746,11.418L9.721,11.412L9.696,11.406L9.677,11.403L9.652,11.399L9.644,11.399C9.624,11.397 9.603,11.396 9.582,11.396L9.644,11.399ZM13.817,7.703L13.826,7.647C13.822,7.665 13.819,7.684 13.817,7.703L13.816,7.707L13.816,7.711C13.815,7.728 13.814,7.746 13.814,7.764L13.816,7.711L13.817,7.703ZM16.411,7.192L16.424,7.196L16.437,7.2L16.449,7.205L16.46,7.209L16.472,7.214L16.484,7.22L16.496,7.225L16.506,7.231L16.518,7.237L16.53,7.243L16.541,7.25L16.551,7.256L16.562,7.263L16.573,7.27L16.584,7.278L16.593,7.285L16.604,7.293L16.614,7.301L16.624,7.309L16.633,7.317L16.642,7.326L16.652,7.335L16.661,7.344L16.669,7.352L16.678,7.362L16.687,7.371L16.695,7.381L16.702,7.39L16.71,7.4L16.718,7.411L16.726,7.421L16.732,7.431L16.725,7.42L16.717,7.409L16.707,7.396L16.694,7.38L16.685,7.37L16.674,7.357L16.659,7.342L16.65,7.333L16.638,7.321L16.622,7.308L16.612,7.299L16.599,7.289L16.582,7.277L16.571,7.269L16.557,7.26L16.539,7.249L16.528,7.242L16.513,7.234L16.494,7.224L16.482,7.219L16.466,7.212L16.447,7.204L16.435,7.199L16.418,7.194L16.411,7.192C16.392,7.186 16.373,7.181 16.353,7.177L16.411,7.192Z" style="fill:rgb(235,235,235);"/>
</svg>
