<svg width="24" height="24" viewBox="0 0 24 24" fill="none" xmlns="http://www.w3.org/2000/svg">
<path fill-rule="evenodd" clip-rule="evenodd" d="M9 5.5C9 7.433 7.433 9 5.5 9C3.567 9 2 7.433 2 5.5C2 3.567 3.567 2 5.5 2C7.433 2 9 3.567 9 5.5ZM5.5 7C6.32843 7 7 6.32843 7 5.5C7 4.67157 6.32843 4 5.5 4C4.67157 4 4 4.67157 4 5.5C4 6.32843 4.67157 7 5.5 7Z" fill="#121D33"/>
<path fill-rule="evenodd" clip-rule="evenodd" d="M22 18.5C22 20.433 20.433 22 18.5 22C16.567 22 15 20.433 15 18.5C15 16.567 16.567 15 18.5 15C20.433 15 22 16.567 22 18.5ZM18.5 20C19.3284 20 20 19.3284 20 18.5C20 17.6716 19.3284 17 18.5 17C17.6716 17 17 17.6716 17 18.5C17 19.3284 17.6716 20 18.5 20Z" fill="#121D33"/>
<path fill-rule="evenodd" clip-rule="evenodd" d="M21.0156 4.04496L19.9549 2.9843C19.0763 2.10562 17.6516 2.10562 16.773 2.9843L2.98438 16.7729C2.1057 17.6516 2.1057 19.0762 2.98438 19.9549L4.04504 21.0155C4.92372 21.8942 6.34834 21.8942 7.22702 21.0155L21.0156 7.22694C21.8943 6.34826 21.8943 4.92364 21.0156 4.04496ZM19.6014 5.45917C19.699 5.55681 19.699 5.7151 19.6014 5.81273L5.81281 19.6013C5.71518 19.6989 5.55689 19.6989 5.45925 19.6013L4.39859 18.5406C4.30096 18.443 4.30096 18.2847 4.39859 18.1871L18.1872 4.39851C18.2848 4.30088 18.4431 4.30088 18.5407 4.39851L19.6014 5.45917Z" fill="#121D33"/>
</svg>
