<svg width="24" height="24" viewBox="0 0 24 24" fill="none" xmlns="http://www.w3.org/2000/svg">
<path fill-rule="evenodd" clip-rule="evenodd" d="M12.4472 2.10557C12.1657 1.96481 11.8343 1.96481 11.5528 2.10557L3.55278 6.10557C3.26662 6.24865 3.0662 6.52002 3.0136 6.8356C2.68077 8.83261 2.66132 10.5913 2.87763 12.1385C3.45469 16.2657 5.68532 18.744 7.7666 20.1696C8.79951 20.8772 9.79402 21.3258 10.5319 21.5985C10.9018 21.7352 11.21 21.8287 11.4301 21.8889C11.5402 21.9191 11.6286 21.941 11.6919 21.9558C11.7236 21.9633 11.749 21.9689 11.7678 21.973L11.8039 21.9806C11.9333 22.0065 12.0667 22.0065 12.1961 21.9806L12.2322 21.973C12.251 21.9689 12.2764 21.9633 12.3081 21.9558C12.3714 21.941 12.4597 21.9191 12.5699 21.8889C12.79 21.8287 13.0982 21.7352 13.4681 21.5985C14.206 21.3258 15.2005 20.8772 16.2334 20.1696C18.3147 18.744 20.5453 16.2657 21.1224 12.1385C21.3387 10.5913 21.3192 8.83261 20.9864 6.8356C20.9338 6.52002 20.7334 6.24865 20.4472 6.10557L12.4472 2.10557ZM8.89685 18.5196C9.66353 19.0448 10.4084 19.4019 11 19.6363V13H5.07694C5.76306 15.7744 7.37529 17.4774 8.89685 18.5196ZM13 13V19.6363C13.5916 19.4019 14.3365 19.0448 15.1031 18.5196C16.6247 17.4774 18.2369 15.7744 18.9231 13H13ZM13 11H19.2313C19.3006 10.008 19.2649 8.90005 19.0904 7.66324L13 4.61803V11ZM11 11V4.61803L4.90959 7.66324C4.73512 8.90005 4.69944 10.008 4.76868 11H11Z" fill="#121D33"/>
</svg>
