<svg width="24" height="24" viewBox="0 0 24 24" fill="none" xmlns="http://www.w3.org/2000/svg">
<path fill-rule="evenodd" clip-rule="evenodd" d="M9.99725 9.68301C8.95583 10.7244 8.70489 12.2116 9.73885 13.2899C10.0154 13.5783 10.4703 13.5243 10.7528 13.2418C11.0801 12.9145 11.0448 12.3972 10.8538 11.9755C10.6678 11.5648 10.6948 11.1427 11.0758 10.7616L14.3116 7.52583C14.9073 6.93014 15.8731 6.93014 16.4688 7.52583C17.0645 8.12152 17.0645 9.08732 16.4688 9.683L16.0809 10.0709C15.8334 10.3183 15.7861 10.7025 15.9662 11.0026C16.2215 11.428 16.8086 11.5003 17.1595 11.1495L17.5474 10.7616C18.7387 9.57022 18.7387 7.63862 17.5474 6.44724C16.356 5.25587 14.4244 5.25587 13.233 6.44724L9.99725 9.68301ZM13.9964 14.3127C15.0378 13.2712 15.2887 11.7841 14.2548 10.7058C13.9782 10.4174 13.5234 10.4713 13.2408 10.7538C12.9135 11.0812 12.9488 11.5984 13.1398 12.0201C13.3258 12.4308 13.2989 12.853 12.9178 13.2341L9.68203 16.4698C9.08634 17.0655 8.12054 17.0655 7.52485 16.4698C6.92917 15.8741 6.92917 14.9083 7.52485 14.3127L7.91273 13.9248C8.16019 13.6773 8.20748 13.2932 8.02742 12.9931C7.77214 12.5676 7.18499 12.4953 6.83414 12.8462L6.44627 13.2341C5.25489 14.4254 5.25489 16.357 6.44627 17.5484C7.63764 18.7398 9.56924 18.7398 10.7606 17.5484L13.9964 14.3127Z" fill="#121D33"/>
</svg>
