<svg width="24" height="24" viewBox="0 0 24 24" fill="none" xmlns="http://www.w3.org/2000/svg">
<path d="M12 17.5C13.1046 17.5 14 16.6046 14 15.5C14 14.3954 13.1046 13.5 12 13.5C10.8954 13.5 10 14.3954 10 15.5C10 16.6046 10.8954 17.5 12 17.5Z" fill="#121D33"/>
<path fill-rule="evenodd" clip-rule="evenodd" d="M12 2C9.23858 2 7 4.23858 7 7V9C5.89543 9 5 9.89543 5 11V20C5 21.1046 5.89543 22 7 22H17C18.1046 22 19 21.1046 19 20V11C19 9.89543 18.1046 9 17 9H9V7C9 5.34315 10.3431 4 12 4C13.6569 4 15 5.34315 15 7C15 7.55228 15.4477 8 16 8C16.5523 8 17 7.55228 17 7C17 4.23858 14.7614 2 12 2ZM17 11.5C17 11.2239 16.7761 11 16.5 11H8C7.44772 11 7 11.4477 7 12L7 19.5C7 19.7761 7.22386 20 7.5 20H16.5C16.7761 20 17 19.7761 17 19.5V11.5Z" fill="#121D33"/>
</svg>
