<svg width="147" height="40" viewBox="0 0 147 40" fill="none" xmlns="http://www.w3.org/2000/svg">
<g clip-path="url(#clip0_1927_25266)">
<path d="M1.81567 24.2552V15.6917H4.70922C5.38104 15.6917 5.93021 15.8129 6.35671 16.0554C6.78601 16.2951 7.10379 16.6199 7.31007 17.0296C7.51637 17.4395 7.6195 17.8967 7.6195 18.4012C7.6195 18.9057 7.51637 19.3643 7.31007 19.7769C7.10659 20.1895 6.79158 20.5184 6.36508 20.7637C5.93857 21.0062 5.3922 21.1275 4.72596 21.1275H2.65196V20.2076H4.6925C5.15246 20.2076 5.52182 20.1281 5.80058 19.9692C6.07935 19.8104 6.28144 19.5957 6.40689 19.3253C6.53512 19.0521 6.59924 18.7441 6.59924 18.4012C6.59924 18.0584 6.53512 17.7517 6.40689 17.4813C6.28144 17.2109 6.07796 16.9991 5.7964 16.8456C5.51485 16.6896 5.14131 16.6115 4.67578 16.6115H2.85267V24.2552H1.81567ZM11.6964 24.389C11.1166 24.389 10.6078 24.251 10.1702 23.9751C9.73531 23.699 9.39523 23.3131 9.14992 22.8168C8.90739 22.3207 8.78613 21.7407 8.78613 21.0774C8.78613 20.4083 8.90739 19.8243 9.14992 19.3253C9.39523 18.8264 9.73531 18.4388 10.1702 18.1629C10.6078 17.8868 11.1166 17.7489 11.6964 17.7489C12.2762 17.7489 12.7836 17.8868 13.2185 18.1629C13.6561 18.4388 13.9963 18.8264 14.2387 19.3253C14.484 19.8243 14.6067 20.4083 14.6067 21.0774C14.6067 21.7407 14.484 22.3207 14.2387 22.8168C13.9963 23.3131 13.6561 23.699 13.2185 23.9751C12.7836 24.251 12.2762 24.389 11.6964 24.389ZM11.6964 23.5026C12.1369 23.5026 12.4992 23.3896 12.7836 23.1638C13.0679 22.9381 13.2784 22.6412 13.415 22.2732C13.5516 21.9052 13.6199 21.5066 13.6199 21.0774C13.6199 20.648 13.5516 20.248 13.415 19.8773C13.2784 19.5065 13.0679 19.2068 12.7836 18.9782C12.4992 18.7496 12.1369 18.6354 11.6964 18.6354C11.256 18.6354 10.8936 18.7496 10.6092 18.9782C10.3249 19.2068 10.1144 19.5065 9.97784 19.8773C9.84125 20.248 9.77295 20.648 9.77295 21.0774C9.77295 21.5066 9.84125 21.9052 9.97784 22.2732C10.1144 22.6412 10.3249 22.9381 10.6092 23.1638C10.8936 23.3896 11.256 23.5026 11.6964 23.5026ZM17.3497 24.2552L15.3928 17.8325H16.4298L17.818 22.7499H17.8849L19.2564 17.8325H20.3102L21.665 22.7331H21.7319L23.1201 17.8325H24.157L22.2002 24.2552H21.2301L19.8251 19.3211H19.7248L18.3198 24.2552H17.3497ZM27.9361 24.389C27.3172 24.389 26.7834 24.2525 26.3346 23.9793C25.8886 23.7032 25.5443 23.3186 25.3017 22.8252C25.062 22.3289 24.9421 21.7519 24.9421 21.094C24.9421 20.4362 25.062 19.8564 25.3017 19.3546C25.5443 18.85 25.8816 18.4569 26.3136 18.1754C26.7485 17.891 27.2559 17.7489 27.8357 17.7489C28.1702 17.7489 28.5005 17.8046 28.8267 17.9162C29.1528 18.0277 29.4498 18.2088 29.7173 18.4597C29.985 18.7078 30.1982 19.0367 30.3572 19.4466C30.516 19.8564 30.5955 20.3609 30.5955 20.9603V21.3784H25.6446V20.5254H29.5919C29.5919 20.163 29.5194 19.8396 29.3745 19.5553C29.2323 19.271 29.0288 19.0466 28.764 18.8821C28.502 18.7176 28.1926 18.6354 27.8357 18.6354C27.4427 18.6354 27.1026 18.733 26.8154 18.928C26.5311 19.1204 26.3123 19.3713 26.159 19.6807C26.0056 19.9902 25.929 20.3218 25.929 20.6759V21.2446C25.929 21.7296 26.0126 22.1409 26.1799 22.478C26.35 22.8126 26.5855 23.0677 26.8865 23.2433C27.1876 23.4161 27.5374 23.5026 27.9361 23.5026C28.1953 23.5026 28.4294 23.4664 28.6385 23.3938C28.8504 23.3186 29.033 23.2071 29.1863 23.0593C29.3396 22.9087 29.4582 22.722 29.5417 22.499L30.4951 22.7666C30.3947 23.09 30.2262 23.3743 29.9892 23.6197C29.7522 23.8622 29.4595 24.0517 29.111 24.1883C28.7625 24.3221 28.3709 24.389 27.9361 24.389ZM32.0966 24.2552V17.8325H33.0499V18.8026H33.1169C33.2339 18.4849 33.4458 18.227 33.7524 18.029C34.0591 17.8311 34.4048 17.7322 34.7894 17.7322C34.862 17.7322 34.9524 17.7335 35.0612 17.7364C35.1699 17.7392 35.2521 17.7434 35.308 17.7489V18.7524C35.2744 18.7441 35.1978 18.7315 35.078 18.7148C34.9608 18.6954 34.8368 18.6855 34.7058 18.6855C34.3936 18.6855 34.1148 18.7511 33.8696 18.8821C33.6269 19.0102 33.4347 19.1887 33.2925 19.4173C33.1531 19.643 33.0835 19.901 33.0835 20.1908V24.2552H32.0966ZM38.975 24.389C38.3563 24.389 37.8224 24.2525 37.3736 23.9793C36.9275 23.7032 36.5833 23.3186 36.3408 22.8252C36.101 22.3289 35.9812 21.7519 35.9812 21.094C35.9812 20.4362 36.101 19.8564 36.3408 19.3546C36.5833 18.85 36.9206 18.4569 37.3527 18.1754C37.7875 17.891 38.2949 17.7489 38.8747 17.7489C39.2092 17.7489 39.5396 17.8046 39.8656 17.9162C40.1918 18.0277 40.4887 18.2088 40.7564 18.4597C41.0239 18.7078 41.2372 19.0367 41.3961 19.4466C41.5549 19.8564 41.6344 20.3609 41.6344 20.9603V21.3784H36.6836V20.5254H40.6309C40.6309 20.163 40.5585 19.8396 40.4134 19.5553C40.2713 19.271 40.0679 19.0466 39.8029 18.8821C39.5409 18.7176 39.2315 18.6354 38.8747 18.6354C38.4816 18.6354 38.1416 18.733 37.8545 18.928C37.57 19.1204 37.3513 19.3713 37.198 19.6807C37.0446 19.9902 36.9679 20.3218 36.9679 20.6759V21.2446C36.9679 21.7296 37.0516 22.1409 37.2188 22.478C37.3889 22.8126 37.6244 23.0677 37.9256 23.2433C38.2265 23.4161 38.5765 23.5026 38.975 23.5026C39.2343 23.5026 39.4685 23.4664 39.6776 23.3938C39.8894 23.3186 40.0719 23.2071 40.2252 23.0593C40.3787 22.9087 40.4971 22.722 40.5808 22.499L41.5341 22.7666C41.4338 23.09 41.2651 23.3743 41.0281 23.6197C40.7911 23.8622 40.4985 24.0517 40.1501 24.1883C39.8016 24.3221 39.4099 24.389 38.975 24.389ZM45.5608 24.389C45.0256 24.389 44.5531 24.2538 44.1433 23.9834C43.7336 23.7102 43.4129 23.3255 43.1816 22.8294C42.9502 22.3304 42.8345 21.7407 42.8345 21.0606C42.8345 20.386 42.9502 19.8005 43.1816 19.3044C43.4129 18.8081 43.7349 18.4249 44.1475 18.1545C44.5601 17.8841 45.0368 17.7489 45.5775 17.7489C45.9957 17.7489 46.326 17.8186 46.5686 17.9579C46.8138 18.0946 47.0006 18.2506 47.1288 18.4262C47.2599 18.5991 47.3616 18.7413 47.4342 18.8529H47.5177V15.6917H48.5046V24.2552H47.5511V23.2683H47.4342C47.3616 23.3855 47.2584 23.5333 47.1246 23.7116C46.9909 23.8872 46.7999 24.0447 46.5518 24.1841C46.3037 24.3207 45.9734 24.389 45.5608 24.389ZM45.6946 23.5026C46.0904 23.5026 46.425 23.3994 46.6982 23.1932C46.9713 22.984 47.1791 22.6955 47.3212 22.3276C47.4634 21.9569 47.5345 21.5289 47.5345 21.0438C47.5345 20.5643 47.4647 20.1448 47.3254 19.7853C47.186 19.4228 46.9797 19.1413 46.7066 18.9406C46.4334 18.7371 46.0961 18.6354 45.6946 18.6354C45.2765 18.6354 44.9281 18.7427 44.6492 18.9574C44.3733 19.1692 44.1656 19.4577 44.0263 19.8228C43.8896 20.1853 43.8213 20.5923 43.8213 21.0438C43.8213 21.501 43.8911 21.9163 44.0304 22.29C44.1725 22.6607 44.3817 22.9562 44.6576 23.1764C44.9363 23.3938 45.282 23.5026 45.6946 23.5026ZM53.8944 24.2552V15.6917H54.8812V18.8529H54.9649C55.0373 18.7413 55.1376 18.5991 55.2659 18.4262C55.3969 18.2506 55.5837 18.0946 55.8263 17.9579C56.0715 17.8186 56.4033 17.7489 56.8214 17.7489C57.3622 17.7489 57.8389 17.8841 58.2515 18.1545C58.6641 18.4249 58.986 18.8081 59.2174 19.3044C59.4487 19.8005 59.5644 20.386 59.5644 21.0606C59.5644 21.7407 59.4487 22.3304 59.2174 22.8294C58.986 23.3255 58.6654 23.7102 58.2557 23.9834C57.8458 24.2538 57.3733 24.389 56.8381 24.389C56.4256 24.389 56.0953 24.3207 55.8471 24.1841C55.599 24.0447 55.4081 23.8872 55.2743 23.7116C55.1405 23.5333 55.0373 23.3855 54.9649 23.2683H54.8478V24.2552H53.8944ZM54.8644 21.0438C54.8644 21.5289 54.9355 21.9569 55.0777 22.3276C55.2199 22.6955 55.4276 22.984 55.7008 23.1932C55.974 23.3994 56.3085 23.5026 56.7043 23.5026C57.1169 23.5026 57.4612 23.3938 57.7371 23.1764C58.0159 22.9562 58.225 22.6607 58.3644 22.29C58.5065 21.9163 58.5776 21.501 58.5776 21.0438C58.5776 20.5923 58.508 20.1853 58.3686 19.8228C58.2319 19.4577 58.0243 19.1692 57.7455 18.9574C57.4696 18.7427 57.1224 18.6354 56.7043 18.6354C56.3029 18.6354 55.9656 18.7371 55.6924 18.9406C55.4192 19.1413 55.2129 19.4228 55.0736 19.7853C54.9342 20.1448 54.8644 20.5643 54.8644 21.0438ZM61.4795 26.6637C61.3123 26.6637 61.1631 26.6498 61.0321 26.6219C60.901 26.5969 60.8105 26.5717 60.7603 26.5466L61.0112 25.6769C61.2509 25.7382 61.4627 25.7605 61.6467 25.7437C61.8307 25.7271 61.9939 25.6449 62.1361 25.4971C62.281 25.3521 62.4134 25.1166 62.5333 24.7904L62.7173 24.2887L60.3422 17.8325H61.4126L63.1855 22.9506H63.2525L65.0254 17.8325H66.0958L63.3695 25.1919C63.2469 25.5236 63.095 25.7982 62.9138 26.0156C62.7325 26.2358 62.5222 26.399 62.2824 26.5048C62.0454 26.6108 61.7778 26.6637 61.4795 26.6637Z" fill="#677184"/>
<mask id="mask0_1927_25266" style="mask-type:luminance" maskUnits="userSpaceOnUse" x="73" y="13" width="23" height="14">
<path d="M95.5813 13.5702H73.0375V26.4156H95.5813V13.5702Z" fill="white"/>
</mask>
<g mask="url(#mask0_1927_25266)">
<path d="M77.6108 20.0962C77.121 19.225 76.6634 18.4065 76.0094 17.5663C75.639 17.0905 75.2883 16.5697 75.2408 15.9686C75.1905 15.3322 75.9956 15.0239 76.1296 15.7267C76.2589 16.4048 76.2015 17.0923 76.4981 17.739C76.6398 18.0476 76.9069 18.258 77.2373 18.1116C77.8078 17.8585 77.264 17.0924 77.1013 16.7623C76.8351 16.2229 76.7989 15.6573 76.7371 15.075C76.6926 14.6562 76.5275 14.2414 76.2285 13.9394C75.869 13.5762 75.4082 13.4852 74.9254 13.6534C74.168 13.9172 72.7153 15.3836 74.6438 17.7126C75.0269 18.1752 75.511 18.5422 75.9623 18.9385C76.7195 19.6035 77.3448 20.3507 77.6563 21.2758C77.978 22.2309 78.0431 23.3665 77.406 24.1474C76.6049 25.1296 75.7118 24.8063 75.2324 24.3435C74.574 23.7079 74.805 23.1684 74.6566 22.3745C74.576 21.9441 74.3621 21.5435 74.0921 21.1989C73.9004 20.9545 73.5798 20.7319 73.2988 20.8642C73.0277 20.9917 72.9858 21.3785 73.1092 21.6514C73.2327 21.9244 73.468 22.1279 73.6456 22.3689C73.7812 22.5529 74.0601 23.0144 73.9983 23.6557C73.9431 24.2294 74.0471 24.8475 74.3267 25.3582C75.1905 26.9368 77.2821 26.8144 78.0773 24.3356C78.7265 22.3121 77.9995 20.7878 77.6108 20.0965V20.0962Z" fill="#677184"/>
<path d="M87.6983 15.5638C87.5278 15.4106 87.4459 15.1744 87.4483 14.9452C87.4507 14.7161 87.5299 14.4931 87.64 14.2919C87.7768 14.0421 87.9689 13.8139 88.2227 13.6845C88.4764 13.5549 88.7974 13.538 89.0406 13.6866C89.2837 13.835 89.4158 14.1646 89.2996 14.4246C89.1855 14.6801 88.9494 14.7016 88.7626 14.867C88.5965 15.0143 88.639 15.0761 88.5931 15.273C88.4941 15.6969 88.0417 15.8725 87.6983 15.5638Z" fill="#677184"/>
<path d="M89.7919 15.944C89.4575 15.7989 89.0892 16.0712 88.8731 16.365C88.4041 17.0022 88.1571 17.7534 88.1588 18.5458C88.1609 19.5844 88.5865 20.5486 88.9514 21.5007C89.2933 22.3929 89.2849 23.3563 88.8947 24.2385C88.6976 24.6839 88.2964 24.9991 88.1126 25.4486C87.9796 25.7739 88.0453 26.2258 88.3685 26.3636C88.7039 26.5067 89.0753 26.2355 89.2847 25.937C90.1851 24.6539 89.6287 22.2829 89.3869 21.5912C88.2708 18.3977 89.7482 17.5883 90.0423 16.8606C90.1739 16.5347 90.1143 16.0838 89.7919 15.944Z" fill="#677184"/>
<path d="M83.3677 16.0448C82.8242 13.683 81.1929 13.4261 80.4562 13.6565C78.6591 14.2187 78.4864 16.1196 78.8043 17.3671C79.2911 19.2779 80.8801 19.147 81.4262 18.806C81.8637 18.5328 81.998 18.0337 82.2104 18.189C82.5024 18.4023 81.8913 19.0774 81.7869 19.1894C80.6142 20.4471 79.4281 21.2325 79.0784 23.6309C78.9751 24.3389 79.1469 25.2008 79.4916 25.829C79.5977 26.0221 79.9371 26.5875 80.4106 26.3568C80.9614 26.0885 80.7135 25.4354 80.6158 25.2318C80.518 25.0283 79.986 24.2084 79.9237 23.5246C79.6655 20.693 82.0457 20.1875 82.8899 19.0682C83.7563 17.9196 83.5128 16.6763 83.3675 16.0448H83.3677ZM80.8949 15.7783C80.8622 15.8317 80.8372 15.8793 80.8187 15.9248C80.7678 16.0503 80.7675 16.1593 80.7968 16.3257C80.8753 16.7709 80.5724 17.184 80.0854 17.0273C79.8591 16.9543 79.6816 16.7654 79.587 16.5473C79.4921 16.3292 79.4729 16.0846 79.492 15.8475C79.5156 15.553 79.601 15.2556 79.7864 15.0257C79.972 14.7956 80.2688 14.6436 80.5618 14.6814C80.8548 14.7192 81.1194 14.9752 81.1194 15.2705C81.1194 15.4708 80.9936 15.6168 80.8948 15.7782L80.8949 15.7783Z" fill="#677184"/>
<path d="M94.9504 20.9318C94.1064 19.8127 91.7715 19.3073 92.0299 16.4755C92.0922 15.7919 92.5785 14.9717 92.6763 14.7681C92.774 14.5647 93.022 13.9117 92.4712 13.6431C91.9976 13.4124 91.6582 13.9778 91.5523 14.1711C91.2075 14.7992 91.0357 15.6611 91.139 16.369C91.4888 18.7677 92.675 19.5529 93.8476 20.8106C93.9521 20.9227 94.563 21.5978 94.2711 21.8111C94.0586 21.9664 93.9243 21.4671 93.4868 21.1941C92.9406 20.8531 91.3516 20.7222 90.8648 22.6329C90.5469 23.8805 90.7197 25.7814 92.5169 26.3436C93.2532 26.5739 94.8849 26.317 95.4283 23.9553C95.5736 23.3238 95.8169 22.0805 94.9504 20.9318ZM93.1798 24.7293C93.1798 25.0248 92.9153 25.2808 92.6222 25.3185C92.3292 25.3563 92.0324 25.2043 91.847 24.9743C91.6615 24.7444 91.5761 24.4468 91.5524 24.1524C91.5334 23.9154 91.5525 23.6708 91.6473 23.4527C91.7422 23.2346 91.9196 23.0456 92.1458 22.9727C92.6327 22.8159 92.9357 23.229 92.8573 23.6741C92.8278 23.8405 92.8282 23.9495 92.8791 24.0751C92.8976 24.1205 92.9226 24.1682 92.9554 24.2216C93.0543 24.3829 93.1802 24.529 93.1801 24.7292L93.1798 24.7293Z" fill="#677184"/>
<path d="M86.3616 17.6198C86.3201 17.3478 86.2987 17.0038 86.3012 16.7256C86.3057 16.2524 86.1058 15.8928 85.7289 15.8827C85.198 15.8686 85.0981 16.315 85.0854 16.5024C85.0585 16.8982 85.1641 17.2214 85.3348 17.5794C85.6437 18.2274 86.2716 19.107 86.5357 19.7799C86.8624 20.6117 86.9256 21.4176 86.7698 22.2817C86.5579 23.4563 85.8444 24.9444 84.4358 24.9019C84.2208 24.8953 83.9853 24.8105 83.8191 24.6792C83.5423 24.4607 83.3327 24.0737 83.2661 23.7263C83.1222 22.9773 83.4671 22.2344 83.606 21.5126C83.7025 21.0119 83.5555 20.1698 82.8632 20.2183C82.4127 20.25 82.1635 20.7597 82.0936 21.2059C81.9664 22.0176 81.9839 22.8418 82.0872 23.656C82.1875 24.4483 82.5311 25.2391 83.0581 25.8001C83.6745 26.4564 84.7369 26.5739 85.5263 26.1444C86.3164 25.7146 86.9432 24.7936 87.2316 23.7103C87.4894 22.7419 87.47 21.6124 87.1895 20.6444C87.0475 20.1536 86.9004 19.6641 86.7622 19.1722C86.6094 18.6294 86.4464 18.1787 86.3613 17.6198H86.3616Z" fill="#677184"/>
</g>
<path d="M102.205 23.6698V18.1503H103.141V23.6698H102.205ZM99.9132 21.3784V20.4417H105.433V21.3784H99.9132Z" fill="#677184"/>
<path d="M120.909 19.3167L123.538 16.7028L122.541 15.7111L120.411 17.8293L118.281 15.7111L117.284 16.7028L119.912 19.3167C120.05 19.4536 120.23 19.5221 120.411 19.5221C120.591 19.5221 120.772 19.4538 120.909 19.3167ZM124.714 22.1093L122.585 19.9912L124.714 17.8729L123.717 16.8813L121.089 19.4954C120.814 19.7692 120.814 20.2131 121.089 20.487L123.717 23.101L124.714 22.1094V22.1093ZM120.407 22.1566L122.537 24.2748L123.534 23.283L120.906 20.669C120.63 20.3952 120.184 20.3952 119.909 20.669L117.28 23.283L118.277 24.2748L120.407 22.1566ZM119.729 20.4905C119.861 20.359 119.936 20.1807 119.936 19.9948C119.936 19.8088 119.861 19.6304 119.729 19.4989L117.101 16.8849L116.104 17.8765L118.233 19.9946L116.104 22.1129L117.101 23.1045L119.729 20.4905ZM116.068 23.9308H113.858L113.699 22.9312H112.257L112.083 23.9308H109.873L111.775 16.0551H114.391L116.068 23.9308H116.068ZM113.447 21.2428L113.309 20.3246C113.305 20.3213 113.299 20.2753 113.288 20.1866C113.281 20.1121 113.246 19.8161 113.181 19.2994C113.174 19.2416 113.165 19.1626 113.155 19.0622C113.145 18.9618 113.131 18.835 113.114 18.682L113.047 17.9376C113.04 18.0091 113.031 18.0889 113.019 18.1773C113.007 18.2657 112.994 18.3625 112.98 18.4681C112.956 18.6788 112.939 18.8252 112.929 18.9068C112.919 18.9881 112.912 19.0376 112.909 19.0547L112.76 20.0081L112.545 21.2428H113.447ZM129.279 23.9308V22.0386H127.443V20.8346H129.089V19.0547H127.443V17.9072H129.279V16.0552H125.304V23.9308H129.279ZM133.486 22.0386H131.88V16.0552H129.741V23.9308H133.486V22.0386ZM140.052 23.9308H137.842L137.682 22.9312H136.242L136.068 23.9308H133.857L135.76 16.0551H138.376L140.052 23.9308ZM137.432 21.2428L137.293 20.3246C137.29 20.3213 137.282 20.2753 137.273 20.1866C137.267 20.1121 137.23 19.8161 137.164 19.2994C137.158 19.2416 137.15 19.1625 137.139 19.0622C137.129 18.9618 137.116 18.835 137.099 18.6818L137.032 17.9375C137.025 18.0089 137.015 18.0888 137.003 18.1773C136.991 18.2657 136.978 18.3625 136.965 18.4681C136.941 18.6787 136.924 18.8251 136.914 18.9066C136.903 18.9879 136.897 19.0375 136.893 19.0546L136.745 20.008L136.528 21.2426L137.432 21.2428ZM146.145 23.9308H143.832L142.776 21.1255C142.766 21.0778 142.747 21.015 142.722 20.9367C142.696 20.8585 142.665 20.7651 142.626 20.6561L142.642 21.1765V23.9308H140.514V16.0551H142.704C143.668 16.0551 144.389 16.2441 144.869 16.6215C145.476 17.1044 145.781 17.7914 145.781 18.6818C145.781 19.6342 145.373 20.2923 144.556 20.6561L146.145 23.9308ZM143.657 18.7074C143.657 18.1195 143.349 17.8253 142.73 17.8253H142.653V19.702H142.797C143.042 19.702 143.248 19.6088 143.412 19.4215C143.576 19.2348 143.657 18.9967 143.657 18.7074Z" fill="#677184"/>
</g>
<defs>
<clipPath id="clip0_1927_25266">
<rect width="145.443" height="40" fill="white" transform="translate(0.778687)"/>
</clipPath>
</defs>
</svg>
