<svg width="24" height="24" viewBox="0 0 24 24" fill="none" xmlns="http://www.w3.org/2000/svg">
<path fill-rule="evenodd" clip-rule="evenodd" d="M9.99983 8.53523C8.80432 9.22688 8 10.5195 8 12C8 12.5643 8.11686 13.1013 8.32769 13.5882C8.62495 14.2746 9.10903 14.8613 9.7158 15.2841C9.25067 15.4046 8.81872 15.5582 8.42012 15.7349C6.69287 16.5005 5.59196 17.6985 5.13174 18.5039C4.85773 18.9834 5.02433 19.5942 5.50385 19.8682C5.98337 20.1423 6.59422 19.9757 6.86823 19.4961C7.28739 18.7626 8.97936 17 12 17C15.0206 17 16.7126 18.7626 17.1317 19.4961C17.4058 19.9757 18.0166 20.1423 18.4961 19.8682C18.9756 19.5942 19.1422 18.9834 18.8682 18.5039C18.4089 17.7001 17.3115 16.5053 15.5903 15.7395C15.1888 15.5609 14.7534 15.4056 14.2842 15.2841C14.891 14.8613 15.375 14.2746 15.6723 13.5882C15.8831 13.1013 16 12.5643 16 12C16 10.5195 15.1957 9.22688 14.0002 8.53523C13.4118 8.19483 12.7286 8 12 8C11.2714 8 10.5882 8.19483 9.99983 8.53523ZM14.5741 6.57865C15.1843 6.86893 15.7379 7.25923 16.2134 7.72836C16.4757 7.29197 16.9538 7 17.5 7C18.3284 7 19 7.67157 19 8.5C19 9.27583 18.411 9.91409 17.6558 9.99201C17.8787 10.6198 18 11.2957 18 12C18 12.3497 17.9701 12.6925 17.9127 13.0258C19.1804 13.187 19.9125 14.061 20.1056 14.4472C20.3526 14.9412 20.9532 15.1414 21.4472 14.8944C21.9412 14.6474 22.1414 14.0468 21.8944 13.5528C21.5787 12.9213 20.7733 11.9316 19.4769 11.3886C20.3967 10.758 21 9.69944 21 8.5C21 6.567 19.433 5 17.5 5C16.2766 5 15.1998 5.62772 14.5741 6.57865ZM6.08735 13.0258C4.81958 13.187 4.08753 14.061 3.89443 14.4472C3.64744 14.9412 3.04677 15.1414 2.55279 14.8944C2.05881 14.6474 1.85859 14.0468 2.10558 13.5528C2.42134 12.9213 3.2267 11.9316 4.52311 11.3886C3.60335 10.758 3 9.69945 3 8.5C3 6.567 4.567 5 6.5 5C7.72343 5 8.80024 5.62772 9.42595 6.57865C8.81565 6.86893 8.26213 7.25923 7.78656 7.72835C7.52427 7.29197 7.04623 7 6.5 7C5.67157 7 5 7.67157 5 8.5C5 9.27583 5.58901 9.91409 6.34424 9.99201C6.12134 10.6198 6 11.2957 6 12C6 12.3497 6.02992 12.6925 6.08735 13.0258ZM10.9561 13.7063C10.5 13.4266 10.1647 12.9694 10.0465 12.4307C10.0161 12.292 10 12.1479 10 12C10 10.8954 10.8954 10 12 10C13.1046 10 14 10.8954 14 12C14 12.1479 13.9839 12.292 13.9535 12.4307C13.8353 12.9694 13.5 13.4266 13.044 13.7062C12.7401 13.8926 12.3826 14 12 14C11.6174 14 11.2599 13.8926 10.9561 13.7063Z" fill="#121D33"/>
</svg>
