<svg width="100" height="20" viewBox="0 0 100 20" fill="none" xmlns="http://www.w3.org/2000/svg">
<g clip-path="url(#clip0_3386_237)">
<g clip-path="url(#clip1_3386_237)">
<path d="M90 18C94.4183 18 98 14.4183 98 10C98 5.58172 94.4183 2 90 2C85.5817 2 82 5.58172 82 10C82 14.4183 85.5817 18 90 18Z" fill="#5546FF"/>
<path d="M93.2641 14.2152L91.5419 11.5118H94.015V10.4905H85.9049V11.5118H88.378L86.6558 14.2152H87.9374L89.9599 11.0412L91.9825 14.2152H93.2641ZM94.015 9.49931V8.47803H91.592L93.2941 5.80469H92.0025L89.9599 9.02872L87.9174 5.80469H86.6258L88.3279 8.47803H85.9049V9.50932L94.015 9.49931Z" fill="white"/>
</g>
</g>
<rect x="81" y="1" width="18" height="18" rx="9" stroke="white" stroke-width="2"/>
<g clip-path="url(#clip2_3386_237)">
<g clip-path="url(#clip3_3386_237)">
<path d="M74 18C78.4183 18 82 14.4183 82 10C82 5.58172 78.4183 2 74 2C69.5817 2 66 5.58172 66 10C66 14.4183 69.5817 18 74 18Z" fill="black"/>
<path d="M79 6.13579V6.99973L69 12.0954V11.231L69.3634 11.0457C69.4987 10.9768 69.6106 10.8694 69.6849 10.737C69.7593 10.6047 69.7929 10.4533 69.7814 10.3019C69.7733 10.195 69.7692 10.0877 69.7692 9.97993C69.7691 9.19981 69.9847 8.43485 70.3922 7.7696C70.7997 7.10435 71.3832 6.56472 72.0781 6.21035C72.7731 5.85598 73.5526 5.70066 74.3303 5.76157C75.1081 5.82248 75.8538 6.09725 76.4852 6.55549L75.6932 6.95912C75.1663 6.66487 74.5717 6.51337 73.9683 6.51963C73.3649 6.52588 72.7736 6.68967 72.253 6.99477C71.7323 7.29987 71.3004 7.73569 71.0001 8.25907C70.6997 8.78244 70.5412 9.37522 70.5404 9.97866C70.5405 10.1299 70.5504 10.281 70.5701 10.4309L79 6.13579Z" fill="white"/>
<path d="M71.1061 11.8847L79 7.86541V8.7268L78.6361 8.91212C78.501 8.98114 78.3893 9.08857 78.315 9.2209C78.2407 9.35323 78.2071 9.50457 78.2186 9.6559C78.2266 9.76336 78.2308 9.87209 78.2308 9.98083C78.2306 10.7608 78.0147 11.5256 77.607 12.1906C77.1994 12.8556 76.6158 13.395 75.9208 13.7491C75.2258 14.1033 74.4464 14.2584 73.6688 14.1973C72.8912 14.1363 72.1456 13.8614 71.5144 13.4032L72.2615 13.0224L72.3039 13C72.8308 13.2954 73.4259 13.4479 74.03 13.4423C74.6341 13.4367 75.2263 13.2732 75.7477 12.968C76.2691 12.6628 76.7016 12.2265 77.0022 11.7025C77.3029 11.1785 77.4613 10.585 77.4617 9.98083C77.4616 9.8286 77.4517 9.67654 77.4321 9.52559L69 13.822V12.9585L71.1061 11.8847Z" fill="white"/>
</g>
</g>
<rect x="65" y="1" width="18" height="18" rx="9" stroke="white" stroke-width="2"/>
<g clip-path="url(#clip4_3386_237)">
<g clip-path="url(#clip5_3386_237)">
<path d="M58 18C62.4183 18 66 14.4183 66 10C66 5.58172 62.4183 2 58 2C53.5817 2 50 5.58172 50 10C50 14.4183 53.5817 18 58 18Z" fill="#8DC351"/>
<path d="M60.6035 7.26699C60.2155 6.28099 59.2425 6.19199 58.1095 6.41199L57.706 5.00549L56.85 5.25099L57.243 6.62099C57.018 6.68499 56.789 6.75599 56.5615 6.82599L56.1665 5.44699L55.311 5.69199L55.7135 7.09849C55.5295 7.15549 55.3485 7.21149 55.171 7.26249L55.1695 7.25749L53.9885 7.59599L54.251 8.51099C54.251 8.51099 54.88 8.31699 54.8725 8.33199C55.2195 8.23249 55.39 8.40149 55.4725 8.56599L56.5775 12.419C56.5935 12.5325 56.5795 12.725 56.3375 12.795C56.351 12.8015 55.7145 12.973 55.7145 12.973L55.838 14.0445L56.952 13.7245C57.1595 13.666 57.3645 13.611 57.565 13.5545L57.9735 14.977L58.8285 14.732L58.425 13.3245C58.6543 13.2636 58.883 13.2003 59.111 13.1345L59.512 14.536L60.3685 14.2905L59.9615 12.8705C61.377 12.375 62.2805 11.7235 62.018 10.3355C61.807 9.21849 61.156 8.87949 60.2825 8.91749C60.7065 8.52249 60.889 7.98799 60.6035 7.26699ZM60.2785 10.652C60.5835 11.7155 58.7285 12.1165 58.1485 12.2835L57.608 10.3985C58.188 10.232 59.96 9.54349 60.278 10.6525L60.2785 10.652ZM59.1175 8.10699C59.3945 9.07449 57.844 9.39699 57.3605 9.53549L56.8705 7.82599C57.3535 7.68749 58.828 7.09849 59.1175 8.10749V8.10699Z" fill="white"/>
</g>
</g>
<rect x="49" y="1" width="18" height="18" rx="9" stroke="white" stroke-width="2"/>
<g clip-path="url(#clip6_3386_237)">
<g clip-path="url(#clip7_3386_237)">
<path d="M42 18C46.4183 18 50 14.4183 50 10C50 5.58172 46.4183 2 42 2C37.5817 2 34 5.58172 34 10C34 14.4183 37.5817 18 42 18Z" fill="#8247E5"/>
<path d="M44.648 8.28835C44.4561 8.17673 44.2066 8.17673 43.9956 8.28835L42.4989 9.14416L41.4819 9.7023L39.9852 10.5581C39.7933 10.6697 39.5439 10.6697 39.3328 10.5581L38.1432 9.88835C37.9513 9.77673 37.817 9.57207 37.817 9.3488V8.02788C37.817 7.80463 37.9321 7.59998 38.1432 7.48835L39.3136 6.83718C39.5055 6.72555 39.755 6.72555 39.9661 6.83718L41.1365 7.48835C41.3284 7.59998 41.4627 7.80463 41.4627 8.02788V8.88369L42.4797 8.30694V7.45113C42.4797 7.22788 42.3646 7.02323 42.1535 6.9116L39.9852 5.68369C39.7933 5.57207 39.5439 5.57207 39.3328 5.68369L37.1262 6.9116C36.9151 7.02323 36.8 7.22788 36.8 7.45113V9.92555C36.8 10.1488 36.9151 10.3535 37.1262 10.4651L39.3328 11.693C39.5247 11.8046 39.7742 11.8046 39.9852 11.693L41.4819 10.8558L42.4989 10.279L43.9956 9.44183C44.1874 9.33021 44.4369 9.33021 44.648 9.44183L45.8184 10.093C46.0103 10.2046 46.1446 10.4093 46.1446 10.6325V11.9535C46.1446 12.1767 46.0295 12.3814 45.8184 12.493L44.648 13.1628C44.4561 13.2744 44.2066 13.2744 43.9956 13.1628L42.8251 12.5116C42.6332 12.4 42.4989 12.1953 42.4989 11.9721V11.1163L41.4819 11.693V12.5488C41.4819 12.7721 41.597 12.9767 41.8081 13.0884L44.0148 14.3163C44.2066 14.4279 44.4561 14.4279 44.6671 14.3163L46.8738 13.0884C47.0657 12.9767 47.2 12.7721 47.2 12.5488V10.0744C47.2 9.85113 47.0849 9.64649 46.8738 9.53485L44.648 8.28835Z" fill="white"/>
</g>
</g>
<rect x="33" y="1" width="18" height="18" rx="9" stroke="white" stroke-width="2"/>
<g clip-path="url(#clip8_3386_237)">
<g clip-path="url(#clip9_3386_237)">
<path d="M26 18C30.4183 18 34 14.4183 34 10C34 5.58172 30.4183 2 26 2C21.5817 2 18 5.58172 18 10C18 14.4183 21.5817 18 26 18Z" fill="#473BCB"/>
<path d="M29.1242 10.0927L25.9998 5L22.875 10.0927L25.9998 11.9069L29.1242 10.0927Z" fill="white"/>
<path d="M25.9998 15L29.1263 10.6745L25.9998 12.4882L22.875 10.6745L25.9998 15Z" fill="white"/>
</g>
</g>
<rect x="17" y="1" width="18" height="18" rx="9" stroke="white" stroke-width="2"/>
<g clip-path="url(#clip10_3386_237)">
<g clip-path="url(#clip11_3386_237)">
<path d="M10 18C14.4183 18 18 14.4183 18 10C18 5.58172 14.4183 2 10 2C5.58172 2 2 5.58172 2 10C2 14.4183 5.58172 18 10 18Z" fill="#FF9B22"/>
<path d="M13.5945 9.01C13.7515 7.962 12.953 7.3985 11.862 7.0225L12.216 5.6025L11.352 5.3875L11.007 6.77C10.78 6.713 10.547 6.66 10.3145 6.607L10.662 5.2155L9.79799 5L9.44399 6.4195C9.25599 6.3765 9.07099 6.3345 8.89199 6.2895L8.89299 6.285L7.70099 5.9875L7.47099 6.9105C7.47099 6.9105 8.11249 7.0575 8.09899 7.0665C8.44899 7.154 8.51199 7.3855 8.50149 7.5695L7.53199 11.459C7.48899 11.565 7.38049 11.7245 7.13549 11.664C7.14449 11.6765 6.50749 11.5075 6.50749 11.5075L6.07849 12.4965L7.20349 12.777C7.41249 12.8295 7.61749 12.8845 7.81899 12.936L7.46149 14.372L8.32499 14.587L8.67899 13.167C8.91499 13.2305 9.14399 13.2895 9.36799 13.3455L9.01499 14.7595L9.87899 14.9745L10.2365 13.5415C11.7105 13.8205 12.8185 13.708 13.285 12.375C13.661 11.302 13.2665 10.6825 12.491 10.279C13.056 10.149 13.481 9.7775 13.5945 9.01ZM11.6195 11.779C11.353 12.8525 9.54549 12.272 8.95949 12.1265L9.43449 10.224C10.0205 10.3705 11.899 10.66 11.6195 11.779ZM11.887 8.9945C11.6435 9.971 10.1395 9.4745 9.65199 9.353L10.082 7.628C10.5695 7.7495 12.141 7.976 11.887 8.9945Z" fill="white"/>
</g>
</g>
<rect x="1" y="1" width="18" height="18" rx="9" stroke="white" stroke-width="2"/>
<defs>
<clipPath id="clip0_3386_237">
<rect x="82" y="2" width="16" height="16" rx="8" fill="white"/>
</clipPath>
<clipPath id="clip1_3386_237">
<rect width="16" height="16" fill="white" transform="translate(82 2)"/>
</clipPath>
<clipPath id="clip2_3386_237">
<rect x="66" y="2" width="16" height="16" rx="8" fill="white"/>
</clipPath>
<clipPath id="clip3_3386_237">
<rect width="16" height="16" fill="white" transform="translate(66 2)"/>
</clipPath>
<clipPath id="clip4_3386_237">
<rect x="50" y="2" width="16" height="16" rx="8" fill="white"/>
</clipPath>
<clipPath id="clip5_3386_237">
<rect width="16" height="16" fill="white" transform="translate(50 2)"/>
</clipPath>
<clipPath id="clip6_3386_237">
<rect x="34" y="2" width="16" height="16" rx="8" fill="white"/>
</clipPath>
<clipPath id="clip7_3386_237">
<rect width="16" height="16" fill="white" transform="translate(34 2)"/>
</clipPath>
<clipPath id="clip8_3386_237">
<rect x="18" y="2" width="16" height="16" rx="8" fill="white"/>
</clipPath>
<clipPath id="clip9_3386_237">
<rect width="16" height="16" fill="white" transform="translate(18 2)"/>
</clipPath>
<clipPath id="clip10_3386_237">
<rect x="2" y="2" width="16" height="16" rx="8" fill="white"/>
</clipPath>
<clipPath id="clip11_3386_237">
<rect width="16" height="16" fill="white" transform="translate(2 2)"/>
</clipPath>
</defs>
</svg>
