<svg width="24" height="24" viewBox="0 0 24 24" fill="none" xmlns="http://www.w3.org/2000/svg">
<path d="M12.6636 5.25289C12.2834 4.91219 11.7077 4.91248 11.3279 5.25357L7.33279 8.84164C6.92189 9.21067 6.88795 9.84293 7.25698 10.2538C7.62601 10.6647 8.25827 10.6987 8.66916 10.3296L10.9961 8.23977L10.9961 15.4397C10.9961 15.9919 11.4438 16.4397 11.9961 16.4397C12.5484 16.4397 12.9961 15.9919 12.9961 15.4397L12.9961 8.2367L15.332 10.3303C15.7433 10.6989 16.3755 10.6643 16.7441 10.2531C17.1127 9.8418 17.0782 9.20958 16.6669 8.84097L12.6636 5.25289Z" fill="#121D33"/>
<path d="M8 17.0025C7.44772 17.0025 7 17.4503 7 18.0025C7 18.5548 7.44772 19.0025 8 19.0025H16C16.5523 19.0025 17 18.5548 17 18.0025C17 17.4503 16.5523 17.0025 16 17.0025H8Z" fill="#121D33"/>
</svg>
