<svg width="281" height="160" viewBox="0 0 281 160" fill="none" xmlns="http://www.w3.org/2000/svg">
<g clip-path="url(#clip0_991_106081)">
<path d="M126.932 106.612L126.876 106.651C126.67 106.794 126.463 106.936 126.254 107.075L126.144 107.149C125.964 107.268 125.785 107.387 125.605 107.508L125.447 107.61C125.236 107.745 125.023 107.879 124.809 108.012L124.712 108.071C124.523 108.187 124.333 108.301 124.143 108.414L123.977 108.511C123.759 108.64 123.539 108.767 123.319 108.891L123.248 108.931C123.047 109.044 122.846 109.156 122.643 109.265L122.47 109.355C122.246 109.476 122.022 109.595 121.795 109.715L121.758 109.733C121.542 109.844 121.324 109.954 121.106 110.061L120.926 110.151C120.699 110.262 120.472 110.371 120.244 110.479L120.232 110.485C120.001 110.593 119.766 110.7 119.532 110.805L119.353 110.885C119.134 110.981 118.916 111.076 118.696 111.17L118.64 111.194C118.404 111.294 118.166 111.391 117.928 111.487L117.749 111.559C117.536 111.649 117.322 111.728 117.107 111.808L117.017 111.844C116.777 111.933 116.536 112.023 116.294 112.113L116.115 112.177C115.904 112.252 115.693 112.325 115.481 112.396L115.362 112.437C115.119 112.518 114.875 112.598 114.628 112.675L114.449 112.731C114.239 112.796 114.028 112.861 113.816 112.923L113.676 112.964C113.429 113.036 113.18 113.106 112.931 113.174L112.751 113.222C112.54 113.279 112.328 113.334 112.116 113.388L111.957 113.429C111.706 113.492 111.454 113.552 111.201 113.609L111.031 113.647C110.817 113.696 110.603 113.743 110.388 113.789L110.214 113.826C109.958 113.88 109.703 113.931 109.445 113.981L109.286 114.01C109.068 114.051 108.849 114.09 108.63 114.129L108.445 114.16C108.186 114.205 107.925 114.247 107.663 114.286L107.521 114.307C107.296 114.34 107.072 114.372 106.846 114.402L106.65 114.428C106.387 114.462 106.123 114.495 105.857 114.524L105.734 114.537C105.501 114.563 105.269 114.586 105.036 114.609L104.833 114.628C104.564 114.651 104.294 114.673 104.025 114.693L103.929 114.7C103.686 114.717 103.442 114.733 103.199 114.746L102.991 114.757C102.722 114.771 102.445 114.784 102.172 114.793H102.118C101.86 114.801 101.601 114.807 101.342 114.812H101.129C100.853 114.812 100.576 114.818 100.298 114.812C86.7805 114.753 74.2801 109.098 64.9907 100.001C55.7012 90.9033 49.6264 78.3694 48.9715 64.5468C48.3165 50.7242 53.2026 38.2334 61.6307 29.2133C61.8846 28.9437 62.143 28.6741 62.4041 28.4045C62.4875 28.3191 62.5719 28.2355 62.6562 28.152C62.8356 27.9722 63.0172 27.7925 63.2008 27.6127C63.2995 27.5169 63.3988 27.4213 63.4986 27.3261C63.6733 27.1595 63.8491 26.9945 64.0262 26.8309L64.3294 26.5523C64.5196 26.3798 64.7116 26.2099 64.9045 26.0401C64.9942 25.9628 65.084 25.8846 65.1692 25.8082C65.4509 25.5644 65.7353 25.3247 66.0224 25.0892L66.0448 25.0713C66.3254 24.8412 66.6086 24.6147 66.8945 24.3919C66.9887 24.3182 67.0847 24.2454 67.1798 24.1726C67.382 24.0174 67.585 23.8637 67.789 23.7116C67.8993 23.6289 68.0106 23.548 68.1218 23.4671C68.3174 23.3239 68.5142 23.1828 68.7122 23.0438C68.7786 22.9971 68.8432 22.9486 68.9105 22.9019L65.3459 25.3849C62.7051 27.2261 60.2653 29.341 58.0671 31.6946C54.9352 35.0483 52.3156 38.8473 50.293 42.9685L50.354 42.8418L50.3343 42.8823L50.3145 42.9218L50.2751 43.0027C50.2625 43.026 50.2472 43.0584 50.2347 43.0827L50.215 43.1231L50.1755 43.2031L50.136 43.2831L50.1154 43.3235L50.0759 43.4035L50.0561 43.4439L50.0167 43.5239L49.9969 43.5644C49.9844 43.5886 49.9682 43.6201 49.9566 43.6443C46.4486 50.7367 44.6452 58.9013 45.0579 67.6014C45.7066 81.2919 51.7195 93.7099 60.9183 102.72C70.1172 111.73 82.5019 117.329 95.8887 117.389C97.6292 117.398 99.3687 117.31 101.1 117.128L101.99 117.038C101.781 117.061 101.572 117.081 101.362 117.1C109.548 116.344 117.044 113.505 123.367 109.102L126.932 106.612Z" fill="#DFE3EB"/>
<path d="M142.285 88.4204C142.173 88.6441 142.061 88.8697 141.946 89.0881L141.89 89.1959C141.79 89.3871 141.689 89.5776 141.587 89.7675C141.556 89.8259 141.525 89.8834 141.497 89.9409C141.377 90.1614 141.258 90.3804 141.138 90.5979L141.111 90.6446C140.996 90.8486 140.879 91.0508 140.76 91.253L140.659 91.4247C140.54 91.626 140.419 91.8273 140.3 92.0268L140.273 92.0708C140.142 92.2838 140.01 92.4941 139.876 92.6999L139.771 92.8643C139.654 93.0441 139.538 93.2238 139.419 93.4036L139.354 93.5024C139.216 93.7085 139.077 93.9131 138.937 94.1162L138.831 94.2681C138.714 94.437 138.595 94.606 138.473 94.7732L138.383 94.8999C138.239 95.0994 138.093 95.298 137.947 95.4948C137.913 95.5397 137.879 95.5847 137.845 95.6287C137.723 95.7923 137.6 95.954 137.475 96.1158L137.366 96.256C137.214 96.4501 137.062 96.643 136.909 96.8347L136.819 96.9417C136.688 97.1034 136.556 97.2643 136.423 97.4243L136.301 97.5716C136.143 97.7604 135.983 97.9476 135.821 98.1333L135.763 98.2007C135.618 98.367 135.471 98.5323 135.323 98.6968L135.192 98.8424C135.027 99.0221 134.859 99.2099 134.69 99.3906C126.341 108.324 114.484 113.821 101.095 113.763C87.7064 113.706 75.3243 108.102 66.1255 99.0931C56.9267 90.0847 50.9048 77.6703 50.2562 63.9789C49.6075 50.2875 54.446 37.9171 62.7943 28.9833C63.0006 28.7622 63.2106 28.5439 63.4223 28.3273L63.5192 28.2275C63.7214 28.022 63.9247 27.818 64.1293 27.6155L64.2468 27.5005C64.4544 27.2986 64.6637 27.0982 64.8749 26.8993L64.9646 26.8157C65.1781 26.6162 65.3934 26.4176 65.6105 26.2226L65.6446 26.1911C65.8665 25.9922 66.0902 25.796 66.3157 25.6025L66.4288 25.5045C66.6471 25.3176 66.8669 25.1328 67.0882 24.95L67.2129 24.8467C67.439 24.6628 67.6666 24.48 67.8957 24.2985L67.9764 24.2356C68.2037 24.0558 68.4322 23.8803 68.6619 23.709L68.7265 23.6604C68.9615 23.4807 69.1987 23.3066 69.4379 23.1383L69.5662 23.0484C69.8001 22.8813 70.0358 22.7162 70.2732 22.5533L70.4024 22.4634C70.6464 22.2974 70.8923 22.1333 71.1399 21.9709L71.2018 21.9314C71.4452 21.7732 71.6899 21.6174 71.9357 21.464L72.0254 21.4074C72.2742 21.2529 72.5245 21.1013 72.7763 20.9527L72.9172 20.8691C73.166 20.7229 73.4163 20.5788 73.6681 20.4369L73.7991 20.3614C74.062 20.2149 74.3249 20.0702 74.5905 19.9291L74.6254 19.9111C74.8862 19.7721 75.1497 19.6358 75.4159 19.5022L75.5289 19.4447C75.7903 19.3135 76.0529 19.1847 76.3166 19.0583L76.4665 18.9873C76.7302 18.8627 76.9955 18.7398 77.2623 18.6188L77.3879 18.564C77.6648 18.44 77.9438 18.3202 78.2249 18.2045L78.2348 18.2C78.5165 18.0814 78.8009 17.9655 79.0853 17.8522L79.2181 17.7992C79.4921 17.6914 79.7666 17.5862 80.0417 17.4838L80.1987 17.4263C80.4769 17.3238 80.7562 17.2241 81.0367 17.127L81.1516 17.0875C81.4339 16.991 81.7174 16.8969 82.0021 16.8053L82.0559 16.7882C82.346 16.6959 82.6379 16.6061 82.9316 16.5186L83.0805 16.4737C83.3628 16.3886 83.6484 16.3065 83.9373 16.2274L84.0979 16.1843C84.3898 16.1064 84.6832 16.0306 84.978 15.9569L85.074 15.9336C85.3647 15.8629 85.6566 15.7946 85.9497 15.7287L86.0394 15.7089C86.3373 15.6424 86.6378 15.5795 86.9366 15.5193L87.099 15.4869C87.3941 15.4285 87.6902 15.3737 87.9881 15.3207L88.1469 15.2937C88.4501 15.2389 88.757 15.1912 89.0656 15.149L89.1365 15.1382C89.4391 15.0933 89.7424 15.0508 90.0462 15.0106L90.162 14.9953C90.4688 14.9567 90.7756 14.9207 91.0843 14.8875L91.174 14.8767L90.2858 14.9693C82.5241 15.7722 75.0969 18.5527 68.7121 23.0457C68.5135 23.1847 68.3167 23.3258 68.1218 23.469C68.0105 23.5499 67.8993 23.6308 67.7889 23.7135C67.5843 23.865 67.3813 24.0187 67.1797 24.1745C67.0846 24.2473 66.9886 24.3201 66.8944 24.3938C66.6091 24.6166 66.3259 24.8431 66.0448 25.0732L66.0224 25.0911C65.7353 25.3278 65.4508 25.5674 65.1691 25.8101C65.0794 25.8865 64.9897 25.9646 64.9045 26.0419C64.7116 26.2118 64.5196 26.3816 64.3294 26.5542L64.0261 26.8328C63.8467 26.9963 63.6708 27.1614 63.4986 27.328C63.3993 27.4232 63.3 27.5188 63.2007 27.6146C63.0177 27.7944 62.8362 27.9741 62.6561 28.1538C62.5718 28.2374 62.4874 28.321 62.404 28.4064C62.1429 28.676 61.8845 28.9402 61.6306 29.2152C53.2025 38.2335 48.3191 50.7242 48.9714 64.5469C49.6236 78.3695 55.7003 90.907 64.9852 100.003C74.2702 109.1 86.7751 114.756 100.293 114.813C100.57 114.813 100.847 114.813 101.124 114.813H101.336C101.596 114.809 101.855 114.802 102.112 114.794H102.166C102.44 114.785 102.713 114.772 102.985 114.758L103.194 114.747C103.438 114.733 103.681 114.718 103.924 114.701L104.02 114.694C104.289 114.674 104.558 114.652 104.827 114.629L105.03 114.61C105.263 114.587 105.496 114.564 105.728 114.538L105.852 114.525C106.121 114.496 106.381 114.463 106.645 114.429L106.841 114.403C107.065 114.373 107.29 114.341 107.515 114.308L107.658 114.287C107.92 114.248 108.18 114.206 108.439 114.161L108.624 114.13C108.843 114.091 109.063 114.052 109.281 114.011L109.44 113.982C109.697 113.932 109.953 113.881 110.209 113.827L110.383 113.79C110.597 113.745 110.812 113.697 111.025 113.648L111.196 113.61C111.449 113.55 111.701 113.49 111.952 113.43L112.111 113.389C112.322 113.335 112.535 113.28 112.746 113.223L112.925 113.175C113.175 113.107 113.423 113.037 113.671 112.965L113.811 112.924C114.023 112.864 114.233 112.8 114.443 112.732L114.623 112.676C114.869 112.599 115.113 112.519 115.357 112.438L115.475 112.397C115.688 112.326 115.899 112.253 116.109 112.178L116.289 112.114C116.53 112.024 116.772 111.939 117.012 111.845L117.102 111.809C117.316 111.729 117.531 111.645 117.743 111.56L117.923 111.488C118.16 111.392 118.398 111.295 118.634 111.195L118.691 111.171C118.911 111.077 119.13 110.982 119.347 110.886L119.527 110.806C119.761 110.701 119.995 110.594 120.227 110.486L120.238 110.48C120.467 110.372 120.694 110.263 120.921 110.152L121.1 110.062C121.319 109.955 121.537 109.845 121.753 109.734L121.789 109.716C122.016 109.599 122.238 109.479 122.465 109.356L122.637 109.266C122.84 109.157 123.042 109.045 123.243 108.932L123.314 108.892C123.534 108.768 123.754 108.641 123.971 108.512L124.137 108.415C124.328 108.302 124.518 108.188 124.706 108.072L124.803 108.013C125.018 107.88 125.231 107.746 125.442 107.611L125.6 107.509C125.779 107.392 125.959 107.273 126.138 107.15L126.248 107.076C126.458 106.937 126.665 106.795 126.87 106.652C129.532 104.802 131.991 102.675 134.206 100.305C137.303 96.9869 139.9 93.2327 141.914 89.1618C142.048 88.894 142.181 88.6265 142.312 88.3593C142.307 88.3781 142.295 88.3988 142.285 88.4204Z" fill="#F0F2F7"/>
<path d="M147.22 64.3967C146.571 50.7053 140.557 38.2882 131.359 29.278C122.16 20.2678 109.776 14.6682 96.3883 14.6097C94.6166 14.6007 92.8458 14.6907 91.0841 14.8794C90.7755 14.9126 90.4687 14.9485 90.1618 14.9872L90.0461 15.0025C89.7416 15.0456 89.4399 15.0893 89.1408 15.1337L89.0699 15.1445C88.7613 15.1912 88.4545 15.2424 88.1485 15.2954L87.9897 15.3224C87.6919 15.3754 87.3958 15.4302 87.1006 15.4887L86.9382 15.521C86.6377 15.5812 86.3371 15.6441 86.041 15.7106L85.9513 15.7304C85.6589 15.7957 85.367 15.864 85.0757 15.9353L84.9797 15.9587C84.6842 16.0318 84.3908 16.1076 84.0995 16.186L83.9372 16.2274C83.6501 16.3059 83.3645 16.3864 83.0803 16.4691L82.9314 16.5141C82.6383 16.6003 82.3465 16.6902 82.0558 16.7837L82.0019 16.8007C81.7178 16.8924 81.4343 16.9865 81.1514 17.0829L81.0366 17.1225C80.756 17.2195 80.4767 17.3193 80.1986 17.4217L80.0416 17.4792C79.7664 17.5817 79.4919 17.6868 79.218 17.7947L79.0852 17.8477C78.8008 17.9609 78.5164 18.0769 78.2347 18.1955L78.2248 18.2C77.9443 18.3198 77.6652 18.4396 77.3877 18.5595L77.2621 18.6152C76.9959 18.735 76.7307 18.8578 76.4663 18.9836L76.3165 19.0546C76.0527 19.181 75.7901 19.3099 75.5288 19.4411L75.4157 19.4986C75.1501 19.6328 74.8867 19.7691 74.6253 19.9075L74.5903 19.9255C74.3211 20.0665 74.0619 20.2112 73.799 20.3577L73.6689 20.4305C73.4165 20.5725 73.1662 20.7166 72.9179 20.8628L72.7771 20.9464C72.5253 21.0955 72.275 21.2471 72.0261 21.4011L71.9364 21.4577C71.6906 21.6111 71.446 21.7669 71.2025 21.925L71.1406 21.9646C70.893 22.1263 70.6472 22.2905 70.4031 22.457L70.274 22.5469C70.0347 22.7099 69.799 22.8749 69.567 23.0421L69.4387 23.1319C69.1994 23.3033 68.9623 23.4773 68.7272 23.6541L68.6626 23.7026C68.4329 23.8764 68.2044 24.0519 67.9772 24.2292L67.8964 24.2921C67.6667 24.4719 67.4392 24.6546 67.2137 24.8403L67.089 24.9437C66.867 25.1234 66.6472 25.3083 66.4295 25.4982L66.3165 25.5961C66.0916 25.7903 65.8679 25.9865 65.6454 26.1848L65.6113 26.2162C65.3942 26.4112 65.1788 26.6098 64.9653 26.8094L64.8756 26.8929C64.6651 27.0912 64.4557 27.2916 64.2476 27.4942L64.13 27.6092C63.9255 27.8117 63.7221 28.0157 63.52 28.2212L63.4231 28.3209C63.2131 28.5375 63.0032 28.7559 62.795 28.977C54.4512 37.9108 49.6064 50.2811 50.2569 63.9726C50.9074 77.664 56.9194 90.0811 66.1182 99.0913C75.317 108.101 87.6999 113.703 101.088 113.761C114.475 113.82 126.334 108.323 134.683 99.3887C134.851 99.209 135.019 99.0248 135.185 98.8405L135.316 98.6949C135.463 98.5305 135.61 98.3651 135.756 98.1989L135.814 98.1315C135.976 97.9451 136.135 97.7579 136.293 97.5698L136.416 97.4224C136.549 97.2624 136.681 97.1016 136.812 96.9398L136.901 96.8329C137.055 96.6417 137.208 96.4488 137.359 96.2541L137.468 96.1139C137.592 95.9522 137.715 95.7904 137.838 95.6268C137.871 95.5819 137.905 95.537 137.94 95.4929C138.086 95.2961 138.232 95.0975 138.376 94.898L138.465 94.7713C138.585 94.6041 138.704 94.4352 138.824 94.2662L138.93 94.1143C139.07 93.9112 139.209 93.7066 139.346 93.5005L139.412 93.4017C139.53 93.222 139.647 93.0422 139.763 92.8625L139.868 92.698C140.003 92.4877 140.138 92.2774 140.266 92.069L140.293 92.0249C140.415 91.8254 140.536 91.6241 140.652 91.4228L140.753 91.2512C140.872 91.049 140.989 90.8467 141.104 90.6427L141.131 90.596C141.253 90.3785 141.373 90.1596 141.49 89.9391C141.521 89.8816 141.552 89.824 141.579 89.7656C141.682 89.5763 141.783 89.3858 141.883 89.1941L141.939 89.0862C142.054 88.8652 142.166 88.6423 142.277 88.4185C145.818 81.3153 147.637 73.1256 147.22 64.3967ZM100.853 109.637C76.1209 109.637 55.1376 89.1608 53.9865 63.9007C52.8354 38.6405 71.9535 18.1649 96.6852 18.1649C121.417 18.1649 142.402 38.6414 143.553 63.9007C144.704 89.1599 125.587 109.637 100.853 109.637Z" fill="white"/>
<path d="M100.853 109.637C76.1211 109.637 55.1378 89.1608 53.9867 63.9007C52.8365 38.6414 71.951 18.1649 96.6854 18.1649C121.42 18.1649 142.402 38.6405 143.553 63.9007C144.704 89.1608 125.585 109.637 100.853 109.637Z" fill="white"/>
<g clip-path="url(#clip1_991_106081)">
<path d="M98.5052 109.442C123.56 110.757 144.037 91.4647 144.243 66.3527C144.449 41.2406 124.305 19.8178 99.2505 18.5035C74.1962 17.1892 53.7188 36.4811 53.513 61.5931C53.3072 86.7052 73.4509 108.128 98.5052 109.442Z" fill="#473BCB"/>
<path d="M116.59 65.4293L99.1095 35.5545L81.1528 63.5704L98.7878 74.8108L116.59 65.4293Z" fill="white"/>
<path d="M98.6437 92.3912L116.574 68.7366L98.7607 78.1151L81.1257 66.877L98.6437 92.3912Z" fill="white"/>
</g>
</g>
<g clip-path="url(#clip2_991_106081)">
<path d="M158.064 106.612L158.12 106.651C158.326 106.794 158.533 106.936 158.742 107.075L158.852 107.149C159.032 107.268 159.211 107.387 159.391 107.508L159.549 107.61C159.76 107.745 159.973 107.879 160.187 108.012L160.284 108.071C160.473 108.187 160.663 108.301 160.853 108.414L161.019 108.511C161.237 108.64 161.457 108.767 161.677 108.891L161.748 108.931C161.948 109.044 162.15 109.156 162.353 109.265L162.525 109.355C162.75 109.476 162.974 109.595 163.201 109.715L163.238 109.733C163.454 109.844 163.672 109.954 163.89 110.061L164.069 110.151C164.296 110.262 164.523 110.371 164.752 110.479L164.764 110.485C164.995 110.593 165.229 110.7 165.464 110.805L165.643 110.885C165.861 110.981 166.08 111.076 166.3 111.17L166.356 111.194C166.592 111.294 166.83 111.391 167.068 111.487L167.247 111.559C167.46 111.649 167.674 111.728 167.889 111.808L167.978 111.844C168.219 111.933 168.46 112.023 168.702 112.113L168.881 112.177C169.092 112.252 169.303 112.325 169.515 112.396L169.634 112.437C169.877 112.518 170.121 112.598 170.368 112.675L170.547 112.731C170.757 112.796 170.968 112.861 171.18 112.923L171.32 112.964C171.567 113.036 171.816 113.106 172.065 113.174L172.245 113.222C172.455 113.279 172.668 113.334 172.88 113.388L173.039 113.429C173.29 113.492 173.542 113.552 173.795 113.609L173.965 113.647C174.179 113.696 174.393 113.743 174.608 113.789L174.782 113.826C175.037 113.88 175.293 113.931 175.551 113.981L175.709 114.01C175.927 114.051 176.147 114.09 176.366 114.129L176.551 114.16C176.81 114.205 177.07 114.247 177.332 114.286L177.475 114.307C177.699 114.34 177.924 114.372 178.15 114.402L178.345 114.428C178.609 114.462 178.873 114.495 179.139 114.524L179.262 114.537C179.495 114.563 179.727 114.586 179.96 114.609L180.163 114.628C180.432 114.651 180.701 114.673 180.971 114.693L181.067 114.7C181.31 114.717 181.553 114.733 181.797 114.746L182.005 114.757C182.274 114.771 182.55 114.784 182.824 114.793H182.878C183.136 114.801 183.395 114.807 183.654 114.812H183.867C184.143 114.812 184.42 114.818 184.697 114.812C198.215 114.753 210.716 109.098 220.005 100.001C229.295 90.9033 235.369 78.3694 236.024 64.5468C236.679 50.7242 231.793 38.2334 223.365 29.2133C223.111 28.9437 222.853 28.6741 222.592 28.4045C222.508 28.3191 222.424 28.2355 222.34 28.152C222.16 27.9722 221.979 27.7925 221.795 27.6127C221.696 27.5169 221.597 27.4213 221.497 27.3261C221.323 27.1595 221.147 26.9945 220.97 26.8309L220.666 26.5523C220.476 26.3798 220.284 26.2099 220.091 26.0401C220.002 25.9628 219.912 25.8846 219.827 25.8082C219.545 25.5644 219.261 25.3247 218.973 25.0892L218.951 25.0713C218.67 24.8412 218.387 24.6147 218.101 24.3919C218.007 24.3182 217.911 24.2454 217.816 24.1726C217.614 24.0174 217.411 23.8637 217.207 23.7116C217.097 23.6289 216.985 23.548 216.874 23.4671C216.678 23.3239 216.482 23.1828 216.284 23.0438C216.217 22.9971 216.153 22.9486 216.085 22.9019L219.65 25.3849C222.291 27.2261 224.731 29.341 226.929 31.6946C230.061 35.0483 232.68 38.8473 234.703 42.9685L234.642 42.8418L234.662 42.8823L234.681 42.9218L234.721 43.0027C234.733 43.026 234.749 43.0584 234.761 43.0827L234.781 43.1231L234.82 43.2031L234.86 43.2831L234.88 43.3235L234.92 43.4035L234.94 43.4439L234.979 43.5239L234.999 43.5644C235.011 43.5886 235.028 43.6201 235.039 43.6443C238.547 50.7367 240.351 58.9013 239.938 67.6014C239.289 81.2919 233.276 93.7099 224.078 102.72C214.879 111.73 202.494 117.329 189.107 117.389C187.367 117.398 185.627 117.31 183.896 117.128L183.006 117.038C183.214 117.061 183.424 117.081 183.634 117.1C175.447 116.344 167.952 113.505 161.629 109.102L158.064 106.612Z" fill="#DFE3EB"/>
<path d="M142.711 88.4204C142.822 88.6441 142.935 88.8697 143.049 89.0881L143.106 89.1959C143.206 89.3871 143.307 89.5776 143.409 89.7675C143.44 89.8259 143.471 89.8834 143.499 89.9409C143.618 90.1614 143.738 90.3804 143.858 90.5979L143.885 90.6446C143.999 90.8486 144.117 91.0508 144.235 91.253L144.337 91.4247C144.456 91.626 144.577 91.8273 144.696 92.0268L144.723 92.0708C144.854 92.2838 144.985 92.4941 145.12 92.6999L145.225 92.8643C145.342 93.0441 145.458 93.2238 145.577 93.4036L145.642 93.5024C145.78 93.7085 145.919 93.9131 146.059 94.1162L146.164 94.2681C146.282 94.437 146.401 94.606 146.523 94.7732L146.613 94.8999C146.757 95.0994 146.903 95.298 147.049 95.4948C147.083 95.5397 147.117 95.5847 147.15 95.6287C147.273 95.7923 147.396 95.954 147.521 96.1158L147.629 96.256C147.781 96.4501 147.934 96.643 148.087 96.8347L148.177 96.9417C148.308 97.1034 148.44 97.2643 148.572 97.4243L148.695 97.5716C148.853 97.7604 149.013 97.9476 149.174 98.1333L149.233 98.2007C149.378 98.367 149.525 98.5323 149.672 98.6968L149.803 98.8424C149.969 99.0221 150.137 99.2099 150.306 99.3906C158.655 108.324 170.512 113.821 183.901 113.763C197.289 113.706 209.672 108.102 218.87 99.0931C228.069 90.0847 234.091 77.6703 234.74 63.9789C235.388 50.2875 230.55 37.9171 222.202 28.9833C221.995 28.7622 221.785 28.5439 221.574 28.3273L221.477 28.2275C221.274 28.022 221.071 27.818 220.867 27.6155L220.749 27.5005C220.541 27.2986 220.332 27.0982 220.121 26.8993L220.031 26.8157C219.818 26.6162 219.602 26.4176 219.385 26.2226L219.351 26.1911C219.129 25.9922 218.906 25.796 218.68 25.6025L218.567 25.5045C218.349 25.3176 218.129 25.1328 217.908 24.95L217.783 24.8467C217.557 24.6628 217.329 24.48 217.1 24.2985L217.019 24.2356C216.792 24.0558 216.564 23.8803 216.334 23.709L216.269 23.6604C216.034 23.4807 215.797 23.3066 215.558 23.1383L215.43 23.0484C215.196 22.8813 214.96 22.7162 214.723 22.5533L214.593 22.4634C214.349 22.2974 214.104 22.1333 213.856 21.9709L213.794 21.9314C213.551 21.7732 213.306 21.6174 213.06 21.464L212.97 21.4074C212.722 21.2529 212.471 21.1013 212.22 20.9527L212.079 20.8691C211.83 20.7229 211.58 20.5788 211.328 20.4369L211.197 20.3614C210.934 20.2149 210.671 20.0702 210.405 19.9291L210.37 19.9111C210.11 19.7721 209.846 19.6358 209.58 19.5022L209.467 19.4447C209.206 19.3135 208.943 19.1847 208.679 19.0583L208.529 18.9873C208.266 18.8627 208 18.7398 207.734 18.6188L207.608 18.564C207.331 18.44 207.052 18.3202 206.771 18.2045L206.761 18.2C206.479 18.0814 206.195 17.9655 205.911 17.8522L205.778 17.7992C205.504 17.6914 205.229 17.5862 204.954 17.4838L204.797 17.4263C204.519 17.3238 204.24 17.2241 203.959 17.127L203.844 17.0875C203.562 16.991 203.278 16.8969 202.994 16.8053L202.94 16.7882C202.65 16.6959 202.358 16.6061 202.064 16.5186L201.915 16.4737C201.633 16.3886 201.347 16.3065 201.059 16.2274L200.898 16.1843C200.606 16.1064 200.313 16.0306 200.018 15.9569L199.922 15.9336C199.631 15.8629 199.339 15.7946 199.046 15.7287L198.956 15.7089C198.659 15.6424 198.358 15.5795 198.059 15.5193L197.897 15.4869C197.602 15.4285 197.306 15.3737 197.008 15.3207L196.849 15.2937C196.546 15.2389 196.239 15.1912 195.93 15.149L195.859 15.1382C195.557 15.0933 195.253 15.0508 194.95 15.0106L194.834 14.9953C194.527 14.9567 194.22 14.9207 193.912 14.8875L193.822 14.8767L194.71 14.9693C202.472 15.7722 209.899 18.5527 216.284 23.0457C216.482 23.1847 216.679 23.3258 216.874 23.469C216.985 23.5499 217.097 23.6308 217.207 23.7135C217.412 23.865 217.615 24.0187 217.816 24.1745C217.911 24.2473 218.007 24.3201 218.101 24.3938C218.387 24.6166 218.67 24.8431 218.951 25.0732L218.973 25.0911C219.261 25.3278 219.545 25.5674 219.827 25.8101C219.916 25.8865 220.006 25.9646 220.091 26.0419C220.284 26.2118 220.476 26.3816 220.666 26.5542L220.97 26.8328C221.149 26.9963 221.325 27.1614 221.497 27.328C221.597 27.4232 221.696 27.5188 221.795 27.6146C221.978 27.7944 222.16 27.9741 222.34 28.1538C222.424 28.2374 222.508 28.321 222.592 28.4064C222.853 28.676 223.111 28.9402 223.365 29.2152C231.793 38.2335 236.677 50.7242 236.024 64.5469C235.372 78.3695 229.296 90.907 220.011 100.003C210.726 109.1 198.221 114.756 184.703 114.813C184.426 114.813 184.148 114.813 183.872 114.813H183.659C183.4 114.809 183.141 114.802 182.883 114.794H182.83C182.556 114.785 182.283 114.772 182.01 114.758L181.802 114.747C181.558 114.733 181.315 114.718 181.072 114.701L180.976 114.694C180.707 114.674 180.438 114.652 180.169 114.629L179.966 114.61C179.733 114.587 179.5 114.564 179.268 114.538L179.144 114.525C178.875 114.496 178.615 114.463 178.351 114.429L178.155 114.403C177.93 114.373 177.705 114.341 177.481 114.308L177.338 114.287C177.076 114.248 176.815 114.206 176.556 114.161L176.372 114.13C176.153 114.091 175.933 114.052 175.715 114.011L175.556 113.982C175.299 113.932 175.043 113.881 174.787 113.827L174.613 113.79C174.398 113.745 174.184 113.697 173.971 113.648L173.8 113.61C173.547 113.55 173.295 113.49 173.044 113.43L172.885 113.389C172.673 113.335 172.461 113.28 172.25 113.223L172.071 113.175C171.821 113.107 171.573 113.037 171.325 112.965L171.185 112.924C170.973 112.864 170.762 112.8 170.553 112.732L170.373 112.676C170.127 112.599 169.883 112.519 169.639 112.438L169.521 112.397C169.308 112.326 169.097 112.253 168.886 112.178L168.707 112.114C168.466 112.024 168.224 111.939 167.984 111.845L167.894 111.809C167.68 111.729 167.465 111.645 167.253 111.56L167.073 111.488C166.835 111.392 166.598 111.295 166.362 111.195L166.305 111.171C166.085 111.077 165.866 110.982 165.649 110.886L165.469 110.806C165.235 110.701 165.001 110.594 164.769 110.486L164.758 110.48C164.529 110.372 164.302 110.263 164.075 110.152L163.895 110.062C163.677 109.955 163.459 109.845 163.243 109.734L163.206 109.716C162.98 109.599 162.758 109.479 162.531 109.356L162.359 109.266C162.156 109.157 161.954 109.045 161.753 108.932L161.682 108.892C161.461 108.768 161.242 108.641 161.024 108.512L160.858 108.415C160.668 108.302 160.478 108.188 160.29 108.072L160.193 108.013C159.978 107.88 159.765 107.746 159.554 107.611L159.396 107.509C159.217 107.392 159.037 107.273 158.858 107.15L158.747 107.076C158.538 106.937 158.331 106.795 158.126 106.652C155.463 104.802 153.005 102.675 150.79 100.305C147.692 96.9869 145.096 93.2327 143.082 89.1618C142.948 88.894 142.815 88.6265 142.684 88.3593C142.689 88.3781 142.7 88.3988 142.711 88.4204Z" fill="#F0F2F7"/>
<path d="M137.776 64.3967C138.425 50.7053 144.438 38.2882 153.637 29.278C162.836 20.2678 175.22 14.6682 188.608 14.6097C190.379 14.6007 192.15 14.6907 193.912 14.8794C194.22 14.9126 194.527 14.9485 194.834 14.9872L194.95 15.0025C195.254 15.0456 195.556 15.0893 195.855 15.1337L195.926 15.1445C196.235 15.1912 196.541 15.2424 196.847 15.2954L197.006 15.3224C197.304 15.3754 197.6 15.4302 197.895 15.4887L198.058 15.521C198.358 15.5812 198.659 15.6441 198.955 15.7106L199.045 15.7304C199.337 15.7957 199.629 15.864 199.92 15.9353L200.016 15.9587C200.312 16.0318 200.605 16.1076 200.896 16.186L201.059 16.2274C201.346 16.3059 201.631 16.3864 201.916 16.4691L202.064 16.5141C202.358 16.6003 202.649 16.6902 202.94 16.7837L202.994 16.8007C203.278 16.8924 203.562 16.9865 203.844 17.0829L203.959 17.1225C204.24 17.2195 204.519 17.3193 204.797 17.4217L204.954 17.4792C205.229 17.5817 205.504 17.6868 205.778 17.7947L205.911 17.8477C206.195 17.9609 206.479 18.0769 206.761 18.1955L206.771 18.2C207.052 18.3198 207.331 18.4396 207.608 18.5595L207.734 18.6152C208 18.735 208.265 18.8578 208.53 18.9836L208.679 19.0546C208.943 19.181 209.206 19.3099 209.467 19.4411L209.58 19.4986C209.846 19.6328 210.109 19.7691 210.371 19.9075L210.406 19.9255C210.675 20.0665 210.934 20.2112 211.197 20.3577L211.327 20.4305C211.579 20.5725 211.83 20.7166 212.078 20.8628L212.219 20.9464C212.471 21.0955 212.721 21.2471 212.97 21.4011L213.059 21.4577C213.305 21.6111 213.55 21.7669 213.793 21.925L213.855 21.9646C214.103 22.1263 214.349 22.2905 214.593 22.457L214.722 22.5469C214.961 22.7099 215.197 22.8749 215.429 23.0421L215.557 23.1319C215.796 23.3033 216.034 23.4773 216.269 23.6541L216.333 23.7026C216.563 23.8764 216.791 24.0519 217.019 24.2292L217.099 24.2921C217.329 24.4719 217.557 24.6546 217.782 24.8403L217.907 24.9437C218.129 25.1234 218.349 25.3083 218.566 25.4982L218.679 25.5961C218.904 25.7903 219.128 25.9865 219.35 26.1848L219.385 26.2162C219.602 26.4112 219.817 26.6098 220.031 26.8094L220.12 26.8929C220.331 27.0912 220.54 27.2916 220.748 27.4942L220.866 27.6092C221.07 27.8117 221.274 28.0157 221.476 28.2212L221.573 28.3209C221.783 28.5375 221.993 28.7559 222.201 28.977C230.545 37.9108 235.389 50.2811 234.739 63.9726C234.088 77.664 228.076 90.0811 218.878 99.0913C209.679 108.101 197.296 113.703 183.908 113.761C170.52 113.82 158.662 108.323 150.313 99.3887C150.144 99.209 149.977 99.0248 149.811 98.8405L149.68 98.6949C149.533 98.5305 149.385 98.3651 149.24 98.1989L149.182 98.1315C149.02 97.9451 148.861 97.7579 148.703 97.5698L148.58 97.4224C148.447 97.2624 148.315 97.1016 148.184 96.9398L148.094 96.8329C147.941 96.6417 147.788 96.4488 147.637 96.2541L147.528 96.1139C147.404 95.9522 147.281 95.7904 147.158 95.6268C147.125 95.5819 147.09 95.537 147.056 95.4929C146.91 95.2961 146.764 95.0975 146.62 94.898L146.531 94.7713C146.411 94.6041 146.292 94.4352 146.172 94.2662L146.066 94.1143C145.926 93.9112 145.787 93.7066 145.65 93.5005L145.584 93.4017C145.466 93.222 145.349 93.0422 145.232 92.8625L145.127 92.698C144.993 92.4877 144.858 92.2774 144.73 92.069L144.703 92.0249C144.581 91.8254 144.46 91.6241 144.344 91.4228L144.243 91.2512C144.124 91.049 144.007 90.8467 143.892 90.6427L143.865 90.596C143.742 90.3785 143.623 90.1596 143.506 89.9391C143.475 89.8816 143.443 89.824 143.416 89.7656C143.314 89.5763 143.213 89.3858 143.113 89.1941L143.057 89.0862C142.942 88.8652 142.83 88.6423 142.718 88.4185C139.178 81.3153 137.359 73.1256 137.776 64.3967ZM184.143 109.637C208.875 109.637 229.858 89.1608 231.009 63.9007C232.16 38.6405 213.042 18.1649 188.311 18.1649C163.579 18.1649 142.594 38.6414 141.443 63.9007C140.292 89.1599 159.409 109.637 184.143 109.637Z" fill="white"/>
<path d="M184.143 109.637C208.875 109.637 229.858 89.1608 231.009 63.9007C232.159 38.6414 213.045 18.1649 188.31 18.1649C163.576 18.1649 142.594 38.6405 141.442 63.9007C140.291 89.1608 159.411 109.637 184.143 109.637Z" fill="#07080D"/>
<g style="mix-blend-mode:screen">
<path style="mix-blend-mode:color-dodge" d="M141.338 68.1824L132.916 63.3335L132.784 63.4096L141.206 68.2585L141.338 68.1824ZM140.683 68.5587L132.261 63.7098L132.129 63.7859L140.551 68.6348L140.683 68.5587ZM139.373 69.3126L130.951 64.4638L130.819 64.5398L139.241 69.3887L139.373 69.3126ZM136.756 70.8206L128.334 65.9717L128.202 66.0478L136.624 70.8966L136.756 70.8206ZM138.065 70.0666L129.643 65.2177L129.511 65.2938L137.933 70.1427L138.065 70.0666ZM138.72 69.6903L130.298 64.8414L130.166 64.9175L138.588 69.7664L138.72 69.6903ZM140.029 68.9363L131.607 64.0875L131.476 64.1636L139.898 69.0124L140.029 68.9363ZM141.992 67.8061L133.57 62.9572L133.439 63.0333L141.861 67.8822L141.992 67.8061ZM143.955 66.6758L135.533 61.827L135.402 61.9031L143.824 66.7519L143.955 66.6758ZM137.41 70.4443L128.988 65.5954L128.857 65.6715L137.279 70.5203L137.41 70.4443ZM143.301 67.0521L134.879 62.2033L134.747 62.2793L143.169 67.1282L143.301 67.0521ZM142.646 67.4284L134.224 62.5796L134.092 62.6556L142.514 67.5045L142.646 67.4284ZM187.716 41.4797L179.294 36.6308L179.162 36.7069L187.584 41.5558L187.716 41.4797ZM184.443 43.3639L176.022 38.5151L175.89 38.5911L184.312 43.44L184.443 43.3639ZM185.098 42.9876L176.676 38.1388L176.545 38.2149L184.966 43.0637L185.098 42.9876ZM189.68 40.3495L181.258 35.5006L181.127 35.5767L189.549 40.4255L189.68 40.3495ZM190.335 39.9732L181.913 35.1243L181.781 35.2004L190.203 40.0493L190.335 39.9732ZM189.026 40.7271L180.604 35.8783L180.472 35.9544L188.894 40.8032L189.026 40.7271ZM190.99 39.5969L182.568 34.748L182.436 34.8241L190.858 39.673L190.99 39.5969ZM191.645 39.2206L183.223 34.3717L183.091 34.4478L191.513 39.2967L191.645 39.2206ZM185.754 42.6127L177.332 37.7639L177.201 37.8399L185.623 42.6888L185.754 42.6127ZM187.064 41.8588L178.642 37.0099L178.51 37.086L186.932 41.9349L187.064 41.8588ZM186.409 42.2351L177.987 37.3862L177.855 37.4623L186.277 42.3111L186.409 42.2351ZM188.372 41.1048L179.95 36.2559L179.818 36.332L188.24 41.1809L188.372 41.1048ZM184.448 96.1716L192.87 101.02L193.001 100.944L184.579 96.0955L184.448 96.1716ZM183.793 96.5479L192.215 101.397L192.347 101.321L183.925 96.4718L183.793 96.5479ZM183.138 96.9242L191.56 101.773L191.692 101.697L183.27 96.8481L183.138 96.9242ZM185.101 95.7939L193.523 100.643L193.655 100.567L185.233 95.7179L185.101 95.7939ZM182.483 97.3019L190.905 102.151L191.037 102.075L182.615 97.2258L182.483 97.3019ZM189.028 93.5334L197.45 98.3823L197.582 98.3062L189.16 93.4574L189.028 93.5334ZM188.374 93.9097L196.796 98.7586L196.927 98.6825L188.505 93.8336L188.374 93.9097ZM187.719 94.286L196.141 99.1349L196.273 99.0588L187.851 94.2099L187.719 94.286ZM189.682 93.1558L198.104 98.0046L198.235 97.9286L189.814 93.0797L189.682 93.1558ZM185.754 95.4163L194.176 100.265L194.308 100.189L185.886 95.3402L185.754 95.4163ZM187.064 94.6623L195.486 99.5112L195.618 99.4351L187.196 94.5862L187.064 94.6623ZM186.409 95.0386L194.831 99.8875L194.963 99.8114L186.541 94.9625L186.409 95.0386ZM235.405 66.828L243.827 71.6769L243.959 71.6008L235.537 66.7519L235.405 66.828ZM236.06 66.4517L244.482 71.3006L244.614 71.2245L236.192 66.3756L236.06 66.4517ZM237.37 65.6978L245.792 70.5466L245.923 70.4705L237.501 65.6217L237.37 65.6978ZM236.715 66.0741L245.137 70.9229L245.269 70.8468L236.847 65.998L236.715 66.0741ZM234.751 67.2043L243.173 72.0532L243.304 71.9771L234.882 67.1282L234.751 67.2043ZM230.823 69.4648L239.245 74.3137L239.377 74.2376L230.955 69.3887L230.823 69.4648ZM234.096 67.5806L242.518 72.4295L242.65 72.3534L234.228 67.5045L234.096 67.5806ZM231.478 69.0885L239.9 73.9374L240.032 73.8613L231.61 69.0124L231.478 69.0885ZM230.169 69.8425L238.59 74.6913L238.722 74.6153L230.3 69.7664L230.169 69.8425ZM232.131 68.7122L240.553 73.5611L240.685 73.485L232.263 68.6361L232.131 68.7122ZM233.441 67.9583L241.863 72.8071L241.995 72.731L233.573 67.8822L233.441 67.9583ZM232.786 68.3346L241.208 73.1834L241.34 73.1073L232.918 68.2585L232.786 68.3346ZM155.623 93.6912L167.204 87.0231H162.569L156.04 90.7832C155.905 90.739 155.733 90.75 155.619 90.815C155.482 90.8939 155.482 91.0226 155.619 91.1014C155.757 91.1803 155.979 91.1803 156.116 91.1014C156.23 91.0364 156.248 90.9368 156.171 90.8593L162.647 87.131H166.753L155.492 93.6151L155.623 93.6912ZM159.284 94.2196C159.147 94.2985 159.147 94.4271 159.284 94.506C159.422 94.5848 159.644 94.5848 159.781 94.506C159.895 94.441 159.913 94.3414 159.837 94.2639L165.681 90.8994L165.549 90.8233L159.705 94.1878C159.57 94.1435 159.398 94.1546 159.284 94.2196ZM148.246 77.5121L163.74 68.5919L163.608 68.5158L148.114 77.436L148.246 77.5121ZM147.823 73.9028V71.0876H147.636V73.9471L148.906 74.6789L156.826 70.1192L133.966 56.9574L133.834 57.0334L156.563 70.1192L148.906 74.5267L147.823 73.9028ZM147.276 75.6182L148.062 75.1659L146.788 74.4326V71.4265L144.083 72.9842L145.454 73.7741L145.585 73.6981L144.347 72.9842L146.601 71.6866V74.4769L147.797 75.1659L147.276 75.4661L143.629 73.366L143.498 73.4421L147.278 75.6182H147.276ZM157.444 94.4534C157.557 94.387 157.575 94.2888 157.499 94.2113L165.473 89.6212L165.341 89.5451L157.367 94.1352C157.233 94.091 157.061 94.102 156.947 94.1671C156.81 94.2459 156.81 94.3746 156.947 94.4534C157.084 94.5323 157.306 94.5323 157.444 94.4534ZM163.029 97.9548L163.16 98.0309L170.642 93.723V92.0864L172.997 93.4421L164.095 98.5677L164.227 98.6438L173.261 93.4421L170.455 91.8263V93.6773L163.027 97.9535L163.029 97.9548ZM144.849 68.2889L139.698 71.2549L142.829 73.0575L147.98 70.0915L144.849 68.2889ZM147.716 70.0915L142.829 72.9054L139.961 71.2549L144.847 68.4411L147.715 70.0915H147.716ZM174.676 98.6479L174.544 98.5718L171.073 100.571L171.205 100.647L174.676 98.6479ZM166.741 98.7987L174.661 94.239L181.781 98.3381H178.175L174.493 96.2187L167.253 100.387L167.385 100.463L174.493 96.3708L178.097 98.446H182.232L174.661 94.0868L166.609 98.7226L166.741 98.7987ZM179.293 97.7999L174.776 95.1991L167.633 99.312L167.765 99.3881L174.776 95.3513L179.159 97.876L179.291 97.7999H179.293ZM175.8 100.063L171.245 102.686L171.377 102.762L175.931 100.139L175.8 100.063ZM175.247 103.992L182.929 99.5693H180.208L173.887 103.209L174.018 103.285L180.286 99.6772H182.478L175.114 103.916L175.246 103.992H175.247ZM153.993 70.1717L149.259 72.8971V69.6322L144.853 67.0964L137.432 71.3684L147.167 76.9726L159.366 69.949L133.884 55.2779L133.752 55.354L159.103 69.949L147.167 76.8204L137.697 71.3684L144.853 67.2486L149.071 69.6778V73.1585L154.257 70.1731L131.069 56.8232L111.33 68.1893L111.462 68.2654L131.072 56.9753L153.995 70.1731L153.993 70.1717ZM184.133 99.5402L174.958 104.823L175.089 104.9L184.133 99.6924L191.435 103.897L201.092 98.3367L184.069 88.5352L183.937 88.6113L200.828 98.3367L191.435 103.744L184.133 99.5402ZM177.726 100.327L175.493 99.0408L171.395 101.401L169.74 100.448L174.731 97.5744L177.194 98.9924H182.958V98.8845H177.271L174.731 97.4222L169.476 100.448L171.396 101.553L175.494 99.193L177.464 100.327L172.298 103.291L172.43 103.367L177.728 100.327H177.726ZM154.397 92.9842L154.529 93.0603L163.638 87.8158L163.506 87.7397L154.397 92.9842ZM199.843 45.3533L196.063 43.1772L195.931 43.2532L199.578 45.3533L199.058 45.6521L197.862 44.9631H193.015L195.27 43.6655L196.508 44.3793L196.64 44.3033L195.27 43.5133L192.564 45.0711H197.785L199.058 45.8043L199.842 45.3533H199.843ZM192.265 40.99L187.114 43.956L190.245 45.7586L195.396 42.7926L192.265 40.99ZM195.132 42.7926L190.246 45.6064L187.379 43.956L192.265 41.1422L195.132 42.7926ZM188.131 25.2647L169.364 36.0692L172.1 37.6449L190.866 26.8404L188.131 25.2647ZM190.603 26.8404L172.101 37.4927L169.629 36.0692L188.131 25.4169L190.603 26.8404ZM196.943 45.5594H191.976V45.6673H196.865L197.948 46.2912L190.292 50.6988L167.563 37.6131L167.432 37.6892L190.292 50.851L198.212 46.2912L196.941 45.5594H196.943ZM192.465 39.6854L185.044 43.9574L189.45 46.4932H195.121L190.386 49.2185L167.464 36.0208L187.074 24.7321L186.942 24.656L167.2 36.0221L190.388 49.3721L195.573 46.3867H189.529L185.311 43.9574L192.467 39.8376L201.937 45.2896L190.001 52.1611L164.65 37.566L164.518 37.6421L190.001 52.3132L202.2 45.2896L192.466 39.6854H192.465ZM187.93 26.3839L171.308 35.9544L172.3 36.5257L188.922 26.9552L187.93 26.3839ZM188.658 26.9552L172.3 36.3735L171.571 35.9544L187.931 26.5361L188.659 26.9552H188.658ZM209.852 61.4202C209.966 61.3552 209.984 61.2556 209.908 61.1782L217.13 57.0196V53.0257L205.204 59.893L205.335 59.969L216.944 53.2858V56.9767L209.776 61.1034C209.641 61.0592 209.469 61.0702 209.356 61.1353C209.218 61.2141 209.218 61.3428 209.356 61.4216C209.493 61.5005 209.715 61.5005 209.852 61.4216V61.4202ZM215.423 56.2905C215.561 56.2117 215.561 56.083 215.423 56.0042C215.286 55.9253 215.064 55.9253 214.927 56.0042C214.813 56.0692 214.795 56.1688 214.871 56.2463L204.738 62.0801C204.603 62.0359 204.431 62.0469 204.317 62.112C204.18 62.1908 204.18 62.3195 204.317 62.3983C204.455 62.4772 204.676 62.4772 204.814 62.3983C204.928 62.3333 204.946 62.2337 204.869 62.1562L215.003 56.3224C215.138 56.3666 215.31 56.3556 215.423 56.2905ZM205.03 43.5687L212.41 39.3202L212.279 39.2441L204.844 43.5244V46.2788L187.244 56.4123L171.267 47.214V43.855L162.497 38.8056L162.365 38.8817L171.082 43.8993V47.2582L187.244 56.5645L205.03 46.3244V43.57V43.5687ZM187.638 54.831L203.132 45.9108L203.001 45.8347L187.507 54.755L187.638 54.831ZM185.262 53.6717L185.394 53.5957L173.837 46.9414V44.6546L187.379 52.4516L187.511 52.3755L173.649 44.3946V46.9857L185.262 53.6717ZM198.875 32.5263L191.194 36.949H193.914L200.236 33.3093L200.104 33.2332L193.837 36.8411H191.645L199.008 32.6023L198.876 32.5263H198.875ZM206.738 36.0553L199.63 40.1475L196.026 38.0724H191.89L199.462 42.4315L207.513 37.7957L207.382 37.7196L199.462 42.2793L192.341 38.1803H195.948L199.63 40.2997L206.87 36.1314L206.738 36.0553ZM189.991 36.9781L199.166 31.6948L199.035 31.6187L189.991 36.8259L182.689 32.6217L173.032 38.1816L190.055 47.9831L190.187 47.9071L173.296 38.1816L182.689 32.7739L189.991 36.9781ZM216.324 52.1113C216.186 52.0324 215.964 52.0324 215.827 52.1113C215.713 52.1763 215.695 52.2759 215.772 52.3533L201.319 60.6746L201.451 60.7507L215.903 52.4294C216.038 52.4737 216.21 52.4626 216.324 52.3976C216.461 52.3188 216.461 52.1901 216.324 52.1113ZM194.831 38.7184L199.348 41.3192L206.491 37.2063L206.359 37.1303L199.348 41.1671L194.963 38.6423L194.831 38.7184ZM210.028 37.9492L209.897 37.8731L200.863 43.0748L203.669 44.6906V42.8396L211.097 38.5635L210.965 38.4874L203.483 42.7953V44.4319L201.128 43.0762L210.03 37.9506L210.028 37.9492ZM199.449 37.8704L199.581 37.9465L203.052 35.9474L202.92 35.8713L199.449 37.8704ZM190.866 29.5118L187.175 31.6367L190.206 33.3826L193.898 31.2577L190.866 29.5118ZM193.634 31.2577L190.207 33.2304L187.44 31.6367L190.866 29.664L193.634 31.2577ZM196.399 36.1895L198.632 37.4761L202.73 35.116L204.385 36.0692L199.394 38.9425L196.931 37.5245H191.167V37.6324H196.854L199.394 39.0947L204.649 36.0692L202.729 34.9638L198.631 37.3239L196.662 36.1895L201.828 33.2263L201.697 33.1502L196.399 36.1895ZM191.062 28.4064L185.255 31.7502L190.011 34.4879L195.818 31.1442L191.062 28.4064ZM195.553 31.1442L190.011 34.3358L185.52 31.7502L191.062 28.5586L195.553 31.1442ZM198.324 36.4538L202.879 33.8308L202.747 33.7547L198.192 36.3777L198.324 36.4538ZM191.295 27.0867L182.962 31.8843L189.776 35.8077L198.109 31.01L191.295 27.0867ZM197.844 31.01L189.776 35.6555L183.227 31.8843L191.295 27.2388L197.844 31.01ZM214.598 51.4043C214.484 51.4693 214.466 51.569 214.543 51.6464L200.09 59.9677L200.222 60.0438L214.674 51.7225C214.809 51.7668 214.981 51.7557 215.095 51.6907C215.232 51.6118 215.232 51.4832 215.095 51.4043C214.957 51.3255 214.735 51.3255 214.598 51.4043ZM169.393 62.4011C169.531 62.4799 169.753 62.4799 169.89 62.4011C170.027 62.3222 170.027 62.1936 169.89 62.1147C169.776 62.0497 169.603 62.0386 169.47 62.0829L159.336 56.249C159.412 56.1716 159.394 56.072 159.28 56.0069C159.143 55.9281 158.921 55.9281 158.784 56.0069C158.646 56.0858 158.646 56.2145 158.784 56.2933C158.897 56.3583 159.071 56.3694 159.204 56.3251L169.338 62.159C169.261 62.2365 169.28 62.3361 169.393 62.4011ZM172.888 60.6746L158.435 52.3533C158.512 52.2759 158.494 52.1763 158.38 52.1113C158.243 52.0324 158.021 52.0324 157.883 52.1113C157.746 52.1901 157.746 52.3188 157.883 52.3976C157.997 52.4626 158.17 52.4737 158.304 52.4294L172.756 60.7507L172.888 60.6746ZM213.505 85.5152L201.579 78.6479L201.447 78.724L213.055 85.4073H206.646L199.478 81.2805C199.555 81.2031 199.537 81.1035 199.423 81.0384C199.286 80.9596 199.064 80.9596 198.926 81.0384C198.789 81.1173 198.789 81.246 198.926 81.3248C199.04 81.3898 199.213 81.4009 199.347 81.3566L206.569 85.5152H213.506H213.505ZM150.686 47.8918C150.763 47.8144 150.745 47.7148 150.631 47.6497C150.493 47.5709 150.271 47.5709 150.134 47.6497C149.997 47.7286 149.997 47.8573 150.134 47.9361C150.248 48.0011 150.421 48.0122 150.554 47.9679L156.226 51.2328V52.536L151.184 49.6336L151.052 49.7096L156.413 52.796V51.1885L150.688 47.8918H150.686ZM201.319 75.7815L215.772 84.1027C215.695 84.1802 215.713 84.2798 215.827 84.3448C215.964 84.4237 216.186 84.4237 216.324 84.3448C216.461 84.266 216.461 84.1373 216.324 84.0584C216.21 83.992 216.037 83.9824 215.903 84.0266L201.451 75.7054L201.319 75.7815ZM147.928 50.3419C148.005 50.2644 147.987 50.1648 147.873 50.0998C147.736 50.0209 147.514 50.0209 147.376 50.0998C147.239 50.1786 147.239 50.3073 147.376 50.3861C147.49 50.4512 147.663 50.4622 147.797 50.418L154.272 54.1463V56.5105L143.011 50.0264L142.879 50.1025L154.46 56.7706V54.102L147.93 50.3419H147.928ZM151.784 47.2596L157.509 50.5563H160.3L154.94 47.4699L154.808 47.546L159.849 50.4484H157.586L151.915 47.1835C151.992 47.1061 151.974 47.0065 151.86 46.9414C151.723 46.8626 151.501 46.8626 151.363 46.9414C151.226 47.0203 151.226 47.1489 151.363 47.2278C151.477 47.2928 151.65 47.3039 151.784 47.2596ZM141.884 52.5277L147.729 55.8921L147.86 55.816L142.016 52.4516C142.092 52.3741 142.074 52.2745 141.96 52.2095C141.823 52.1306 141.601 52.1306 141.464 52.2095C141.326 52.2883 141.326 52.417 141.464 52.4958C141.578 52.5609 141.751 52.5719 141.884 52.5277ZM144.102 49.397L143.971 49.4731L153.079 54.7176L153.211 54.6415L144.102 49.397ZM157.079 53.0257V57.0196L164.301 61.1782C164.224 61.2556 164.242 61.3552 164.356 61.4202C164.494 61.4991 164.715 61.4991 164.853 61.4202C164.99 61.3414 164.99 61.2127 164.853 61.1339C164.739 61.0689 164.566 61.0578 164.432 61.1021L157.265 56.9753V53.2844L168.873 59.9677L169.005 59.8916L157.079 53.0243V53.0257ZM197.722 78.1374C197.585 78.0586 197.363 78.0586 197.226 78.1374C197.088 78.2163 197.088 78.3449 197.226 78.4238C197.339 78.4888 197.513 78.4999 197.646 78.4556L207.78 84.2895C207.703 84.3669 207.721 84.4666 207.835 84.5316C207.973 84.6104 208.195 84.6104 208.332 84.5316C208.469 84.4527 208.469 84.3241 208.332 84.2452C208.218 84.1802 208.045 84.1691 207.912 84.2134L197.778 78.3795C197.854 78.3021 197.836 78.2024 197.722 78.1374ZM176.488 58.3159C176.625 58.3947 176.847 58.3947 176.984 58.3159C177.122 58.237 177.122 58.1084 176.984 58.0295C176.871 57.9645 176.697 57.9534 176.564 57.9977L166.43 52.1638C166.506 52.0863 166.488 51.9867 166.375 51.9217C166.237 51.8429 166.015 51.8429 165.878 51.9217C165.741 52.0006 165.741 52.1292 165.878 52.2081C165.992 52.2731 166.165 52.2842 166.298 52.2399L176.432 58.0738C176.356 58.1512 176.374 58.2508 176.488 58.3159ZM158.227 41.2625L158.096 41.3386L165.549 45.63L165.681 45.5539L158.227 41.2625ZM158.492 42.9641L165.342 46.9082L165.474 46.8321L158.624 42.888C158.7 42.8106 158.682 42.7109 158.569 42.6459C158.431 42.5671 158.209 42.5671 158.072 42.6459C157.935 42.7248 157.935 42.8534 158.072 42.9323C158.186 42.9973 158.359 43.0084 158.492 42.9641ZM197.226 58.0295C197.088 58.1084 197.088 58.237 197.226 58.3159C197.363 58.3947 197.585 58.3947 197.722 58.3159C197.836 58.2508 197.854 58.1512 197.778 58.0738L207.912 52.2399C208.046 52.2842 208.218 52.2731 208.332 52.2081C208.469 52.1292 208.469 52.0006 208.332 51.9217C208.195 51.8429 207.973 51.8429 207.835 51.9217C207.721 51.9881 207.703 52.0863 207.78 52.1638L197.646 57.9977C197.511 57.9534 197.339 57.9645 197.226 58.0295ZM199.348 55.0967C199.213 55.0524 199.041 55.0635 198.928 55.1285C198.79 55.2073 198.79 55.336 198.928 55.4148C199.065 55.4937 199.287 55.4937 199.424 55.4148C199.538 55.3498 199.556 55.2502 199.48 55.1727L206.648 51.046H213.057L201.448 57.7293L201.58 57.8054L213.508 50.9381H206.57L199.348 55.0967ZM154.532 43.3916L154.4 43.4677L163.509 48.7122L163.64 48.6361L154.532 43.3916ZM156.041 45.6701L162.571 49.4302H167.206L155.625 42.7621L155.493 42.8382L166.755 49.3223H162.648L156.173 45.594C156.249 45.5165 156.231 45.4169 156.117 45.3519C155.98 45.273 155.758 45.273 155.621 45.3519C155.483 45.4307 155.483 45.5594 155.621 45.6383C155.734 45.7033 155.908 45.7143 156.041 45.6701ZM204.815 74.0536C204.678 73.9747 204.456 73.9747 204.319 74.0536C204.181 74.1324 204.181 74.2611 204.319 74.34C204.432 74.405 204.606 74.416 204.739 74.3718L214.873 80.2056C214.796 80.2831 214.814 80.3827 214.928 80.4477C215.066 80.5266 215.288 80.5266 215.425 80.4477C215.562 80.3689 215.562 80.2402 215.425 80.1614C215.311 80.0963 215.138 80.0853 215.005 80.1295L204.871 74.2957C204.947 74.2182 204.929 74.1186 204.815 74.0536ZM146.067 60.6442H150.038L161.596 67.2984L161.727 67.2223L150.116 60.5362H145.617L159.479 68.5172L159.61 68.4411L146.068 60.6442H146.067ZM217.133 83.4276V79.4337L209.911 75.2751C209.987 75.1977 209.969 75.0981 209.855 75.033C209.718 74.9542 209.496 74.9542 209.358 75.033C209.221 75.1119 209.221 75.2406 209.358 75.3194C209.472 75.3844 209.646 75.3955 209.779 75.3512L216.947 79.478V83.1689L205.338 76.4856L205.206 76.5617L217.133 83.429V83.4276ZM179.193 56.4856C179.116 56.5631 179.134 56.6627 179.248 56.7277C179.386 56.8066 179.608 56.8066 179.745 56.7277C179.882 56.6489 179.882 56.5202 179.745 56.4413C179.631 56.3763 179.458 56.3653 179.325 56.4095L168.569 50.2174H161.919L152.298 44.6782L152.166 44.7543L161.842 50.3253H168.493L179.193 56.4856ZM160.702 50.9395L172.628 57.8068L172.76 57.7307L161.152 51.0474H167.561L174.729 55.1741C174.652 55.2516 174.67 55.3512 174.784 55.4162C174.921 55.4951 175.143 55.4951 175.281 55.4162C175.418 55.3374 175.418 55.2087 175.281 55.1299C175.167 55.0648 174.994 55.0538 174.86 55.098L167.638 50.9395H160.701H160.702ZM243.174 77.3309L259.796 67.7604L258.804 67.1891L242.182 76.7595L243.174 77.3309ZM242.446 76.7595L258.804 67.3413L259.532 67.7604L243.174 77.1787L242.446 76.7595ZM231.292 58.807L238.774 54.499L238.642 54.4229L231.214 58.6991H227.999L230.805 60.3149L239.839 55.1133L239.707 55.0372L230.805 60.1627L228.45 58.807H231.291H231.292ZM211.269 73.2014C211.345 73.1239 211.327 73.0243 211.213 72.9593C211.076 72.8805 210.854 72.8805 210.717 72.9593C210.579 73.0382 210.579 73.1668 210.717 73.2457C210.83 73.3107 211.004 73.3218 211.137 73.2775L222.847 80.0203H227.701L235.017 84.2328L235.149 84.1567L227.777 79.9124H222.923L211.267 73.2014H211.269ZM207.641 68.1561L225.241 58.0226H230.024L237.458 53.7423L237.327 53.6662L229.947 57.9147H225.163L207.377 68.1547L223.54 77.4609H229.374L238.09 82.4786L238.221 82.4025L229.451 77.353H223.618L207.641 68.1547V68.1561ZM226.012 59.085L225.881 59.009L210.386 67.9292L210.518 68.0053L226.012 59.085ZM239.495 65.4806V63.0997L235.891 61.0246L242.999 56.9324L242.867 56.8564L235.627 61.0246L239.308 63.144V65.2205L232.187 61.1214L240.107 56.5617L239.975 56.4856L231.923 61.1214L239.495 65.4806ZM222.282 66.5375L239.305 76.339L248.962 70.779L241.659 66.5749L250.703 61.3677L250.571 61.2916L241.395 66.5749L248.698 70.779L239.305 76.1868L222.414 66.4614L222.282 66.5375ZM242.437 61.8533L246.992 59.2303L246.86 59.1542L242.306 61.7772L242.437 61.8533ZM219.68 93.0645L219.811 92.9884L210.703 87.7439L210.571 87.8199L219.68 93.0645ZM247.91 59.7602L242.765 62.7345L240.795 61.6001L244.893 59.24L242.973 58.1346L237.718 61.1602L240.258 62.6224V65.8956H240.445V62.5768L237.983 61.1588L242.974 58.2854L244.629 59.2386L240.531 61.5987L242.765 62.8853L248.043 59.8349L247.911 59.7588L247.91 59.7602ZM238.506 63.7126L234.122 61.1878L241.133 57.151L241.002 57.0749L233.859 61.1878L238.375 63.7887L238.507 63.7126H238.506ZM247.902 60.7534L247.77 60.6774L241.448 64.3171V65.8831L249.129 61.4604L248.998 61.3843L241.634 65.6231V64.3614L247.902 60.7534ZM166.626 44.8539V47.6484L178.335 54.3911C178.259 54.4686 178.277 54.5682 178.391 54.6332C178.528 54.7121 178.75 54.7121 178.888 54.6332C179.025 54.5544 179.025 54.4257 178.888 54.3468C178.774 54.2818 178.6 54.2708 178.467 54.315L166.812 47.6041V44.8096L159.44 40.5653L159.308 40.6414L166.624 44.8539H166.626ZM222.426 89.1951L216.701 85.8984H213.91L219.27 88.9848L219.402 88.9087L214.361 86.0063H216.623L222.294 89.2711C222.218 89.3486 222.236 89.4482 222.35 89.5133C222.487 89.5921 222.709 89.5921 222.847 89.5133C222.984 89.4344 222.984 89.3057 222.847 89.2269C222.733 89.1619 222.559 89.1508 222.426 89.1951ZM159.534 51.7225L173.986 60.0438L174.118 59.9677L159.666 51.6464C159.742 51.569 159.724 51.4693 159.61 51.4043C159.473 51.3255 159.251 51.3255 159.114 51.4043C158.976 51.4832 158.976 51.6118 159.114 51.6907C159.228 51.7557 159.401 51.7668 159.534 51.7225ZM214.676 84.7335L200.223 76.4123L200.092 76.4884L214.544 84.8096C214.468 84.8871 214.486 84.9867 214.599 85.0517C214.737 85.1306 214.959 85.1306 215.096 85.0517C215.233 84.9729 215.233 84.8442 215.096 84.7654C214.982 84.699 214.809 84.6893 214.676 84.7335ZM218.169 90.7846L211.639 87.0245H207.004L218.585 93.6925L218.717 93.6165L207.455 87.1324H211.561L218.037 90.8607C217.961 90.9382 217.979 91.0378 218.093 91.1028C218.23 91.1816 218.452 91.1816 218.589 91.1028C218.726 91.0239 218.726 90.8953 218.589 90.8164C218.475 90.75 218.302 90.7403 218.169 90.7846ZM195.017 79.9705C195.093 79.893 195.075 79.7934 194.962 79.7284C194.824 79.6495 194.602 79.6495 194.465 79.7284C194.328 79.8072 194.328 79.9359 194.465 80.0147C194.579 80.0797 194.752 80.0908 194.885 80.0465L205.641 86.2387H212.291L221.912 91.7779L222.043 91.7018L212.367 86.1308H205.717L195.017 79.9705ZM223.522 88.5642C223.446 88.6417 223.464 88.7413 223.578 88.8063C223.715 88.8852 223.937 88.8852 224.074 88.8063C224.212 88.7275 224.212 88.5988 224.074 88.52C223.961 88.4549 223.787 88.4439 223.654 88.4881L217.983 85.2233V83.9201L223.024 86.8225L223.156 86.7464L217.796 83.66V85.2675L223.521 88.5642H223.522ZM232.235 85.2731L224.262 80.6829L224.13 80.759L232.104 85.3492C232.027 85.4266 232.045 85.5262 232.159 85.5913C232.297 85.6701 232.519 85.6701 232.656 85.5913C232.793 85.5124 232.793 85.3838 232.656 85.3049C232.542 85.2385 232.369 85.2288 232.235 85.2731ZM207.079 72.4654C206.942 72.5443 206.942 72.6729 207.079 72.7518C207.193 72.8168 207.366 72.8279 207.5 72.7836L218.199 78.944V82.7733L227.875 88.3443L228.007 88.2682L218.387 82.729V78.8997L207.631 72.7075C207.708 72.6301 207.69 72.5304 207.576 72.4654C207.438 72.3866 207.217 72.3866 207.079 72.4654ZM226.281 86.1142C226.205 86.1917 226.223 86.2913 226.337 86.3563C226.474 86.4352 226.696 86.4352 226.834 86.3563C226.971 86.2774 226.971 86.1488 226.834 86.0699C226.72 86.0049 226.546 85.9938 226.413 86.0381L219.938 82.3098V79.9456L231.199 86.4296L231.331 86.3535L219.75 79.6855V82.3541L226.28 86.1142H226.281ZM232.326 83.927L226.481 80.5626L226.349 80.6386L232.194 84.0031C232.118 84.0806 232.136 84.1802 232.249 84.2452C232.387 84.3241 232.609 84.3241 232.746 84.2452C232.883 84.1663 232.883 84.0377 232.746 83.9588C232.632 83.8938 232.459 83.8828 232.326 83.927ZM230.107 87.0577L230.239 86.9816L221.131 81.7371L220.999 81.8132L230.107 87.0577ZM239.713 61.0523L239.845 61.1283L243.315 59.1293L243.184 59.0532L239.713 61.0523ZM219.27 47.4699L213.91 50.5563H216.701L222.426 47.2596C222.561 47.3039 222.733 47.2928 222.847 47.2278C222.984 47.1489 222.984 47.0203 222.847 46.9414C222.709 46.8626 222.487 46.8626 222.35 46.9414C222.236 47.0078 222.218 47.1061 222.294 47.1835L216.623 50.4484H214.361L219.402 47.546L219.27 47.4699ZM228.061 75.8742H224.09L212.532 69.2199L212.401 69.296L224.012 75.9821H228.511L214.649 68.0012L214.518 68.0772L228.06 75.8742H228.061ZM221.131 54.7176L230.239 49.4731L230.107 49.397L220.999 54.6415L221.131 54.7176ZM218.199 57.5107L207.5 63.6711C207.365 63.6268 207.193 63.6379 207.079 63.7029C206.942 63.7817 206.942 63.9104 207.079 63.9893C207.217 64.0681 207.438 64.0681 207.576 63.9893C207.69 63.9228 207.708 63.8246 207.631 63.7472L218.387 57.555V53.7257L228.007 48.1865L227.875 48.1104L218.199 53.6814V57.5107ZM205.639 50.216L194.884 56.4081C194.749 56.3639 194.577 56.3749 194.464 56.44C194.326 56.5188 194.326 56.6475 194.464 56.7263C194.601 56.8052 194.823 56.8052 194.96 56.7263C195.074 56.6599 195.092 56.5617 195.016 56.4842L205.716 50.3239H212.366L222.042 44.7529L221.91 44.6768L212.29 50.216H205.639ZM214.924 42.2337C215.061 42.1548 215.061 42.0262 214.924 41.9473C214.787 41.8685 214.565 41.8685 214.427 41.9473C214.314 42.0123 214.296 42.1119 214.372 42.1894L208.527 45.5539L208.659 45.63L214.504 42.2655C214.638 42.3098 214.81 42.2987 214.924 42.2337ZM207.397 44.8082V47.6027L195.741 54.3136C195.607 54.2694 195.435 54.2804 195.321 54.3455C195.184 54.4243 195.184 54.553 195.321 54.6318C195.458 54.7107 195.68 54.7107 195.818 54.6318C195.931 54.5668 195.949 54.4672 195.873 54.3897L207.583 47.647V44.8525L214.899 40.64L214.767 40.5639L207.395 44.8082H207.397ZM219.938 54.1449L226.413 50.4166C226.548 50.4608 226.72 50.4498 226.834 50.3847C226.971 50.3059 226.971 50.1772 226.834 50.0984C226.696 50.0195 226.474 50.0195 226.337 50.0984C226.223 50.1634 226.205 50.263 226.281 50.3405L219.752 54.1006V56.7692L231.332 50.1011L231.201 50.0251L219.939 56.5091V54.1449H219.938ZM208.867 46.9082L216.841 42.3167C216.976 42.3609 217.148 42.3499 217.262 42.2849C217.399 42.206 217.399 42.0773 217.262 41.9985C217.124 41.9196 216.902 41.9196 216.765 41.9985C216.651 42.0635 216.633 42.1631 216.709 42.2406L208.736 46.8321L208.867 46.9082ZM211.639 49.4288L218.169 45.6687C218.303 45.713 218.475 45.7019 218.589 45.6369C218.726 45.558 218.726 45.4294 218.589 45.3505C218.452 45.2716 218.23 45.2716 218.093 45.3505C217.979 45.4155 217.961 45.5151 218.037 45.5926L211.561 49.3209H207.455L218.717 42.8368L218.585 42.7608L207.004 49.4288H211.639ZM210.701 48.7108L219.81 43.4663L219.678 43.3902L210.569 48.6347L210.701 48.7108ZM223.159 49.7055L223.027 49.6294L217.986 52.5318V51.2286L223.657 47.9638C223.791 48.008 223.963 47.997 224.077 47.932C224.214 47.8531 224.214 47.7244 224.077 47.6456C223.94 47.5667 223.718 47.5667 223.58 47.6456C223.467 47.7106 223.449 47.8102 223.525 47.8877L217.8 51.1844V52.7919L223.16 49.7055H223.159ZM220.132 66.3438L224.866 63.6171V66.882L229.271 69.4178L236.691 65.1458L226.957 59.5416L214.758 66.5652L240.24 81.2363L240.372 81.1602L215.021 66.5652L226.957 59.6937L236.426 65.1458L229.27 69.2656L225.051 66.8363V63.3556L219.865 66.3411L243.053 79.691L262.795 68.3249L262.663 68.2488L243.053 79.5388L220.13 66.3411L220.132 66.3438ZM229.278 68.2267L234.429 65.2606L231.298 63.458L226.147 66.4241L229.278 68.2267ZM226.41 66.4241L231.296 63.6102L234.164 65.2606L229.278 68.0745L226.41 66.4241ZM226.85 60.8987L226.066 61.3497L227.34 62.0829V65.0891L230.045 63.5313L228.674 62.7414L228.543 62.8175L229.781 63.5313L227.527 64.829V62.0386L226.331 61.3497L226.852 61.0509L230.5 63.1509L230.632 63.0748L226.852 60.8987H226.85ZM226.304 62.6141V65.4294H226.491V62.5699L225.22 61.838L217.3 66.3978L240.161 79.5596L240.293 79.4835L217.564 66.3978L225.22 61.9902L226.304 62.6141ZM242.973 78.4473L261.739 67.6428L259.004 66.0671L240.237 76.8716L242.973 78.4473ZM240.501 76.8716L259.002 66.2193L261.474 67.6428L242.973 78.2951L240.501 76.8716ZM231.532 51.7944C231.67 51.7156 231.67 51.5869 231.532 51.5081C231.395 51.4292 231.173 51.4292 231.036 51.5081C230.922 51.5731 230.904 51.6727 230.98 51.7502L224.13 55.6943L224.262 55.7704L231.112 51.8263C231.246 51.8705 231.418 51.8595 231.532 51.7944ZM226.481 55.8907L233.935 51.5994L233.803 51.5233L226.349 55.8147L226.481 55.8907ZM222.847 56.4344L211.137 63.1772C211.002 63.1329 210.83 63.144 210.717 63.209C210.579 63.2879 210.579 63.4165 210.717 63.4954C210.854 63.5742 211.076 63.5742 211.213 63.4954C211.327 63.429 211.345 63.3307 211.269 63.2533L222.924 56.5423H227.778L235.15 52.298L235.018 52.2219L227.702 56.4344H222.848H222.847ZM250.671 68.1934L254.362 66.0685L251.331 64.3227L247.639 66.4476L250.671 68.1934ZM247.903 66.4476L251.33 64.4748L254.097 66.0685L250.671 68.0413L247.903 66.4476ZM250.241 70.6186L258.574 65.8209L251.76 61.8975L243.426 66.6952L250.241 70.6186ZM243.691 66.6952L251.76 62.0497L258.309 65.8209L250.241 70.4664L243.691 66.6952ZM250.475 69.2988L256.282 65.9551L251.527 63.2173L245.72 66.561L250.475 69.2988ZM245.984 66.561L251.527 63.3695L256.017 65.9551L250.475 69.1466L245.984 66.561ZM188.865 82.8466L188.733 82.9227L200.29 89.5769V91.8637L186.748 84.0667L186.616 84.1428L200.477 92.1237V89.5326L188.865 82.8466ZM162.998 72.9565C162.884 73.0216 162.866 73.1212 162.943 73.1986L151.287 79.9096H146.433L139.061 84.1539L139.193 84.23L146.509 80.0175H151.363L163.073 73.2747C163.208 73.319 163.38 73.3079 163.493 73.2429C163.631 73.1641 163.631 73.0354 163.493 72.9565C163.356 72.8777 163.134 72.8777 162.997 72.9565H162.998ZM131.365 73.7852L133.333 74.9182L129.235 77.2783L131.155 78.3837L136.41 75.3582L133.87 73.8959V70.6227H133.683V73.9415L136.145 75.3595L131.154 78.2329L129.499 77.2797L133.597 74.9196L131.363 73.633L126.085 76.6835L126.217 76.7595L131.362 73.7852H131.365ZM143.011 86.4268L154.272 79.9428V82.307L147.797 86.0353C147.662 85.9911 147.49 86.0021 147.376 86.0672C147.239 86.146 147.239 86.2747 147.376 86.3535C147.514 86.4324 147.736 86.4324 147.873 86.3535C147.987 86.2871 148.005 86.1889 147.928 86.1114L154.458 82.3513V79.6827L142.877 86.3508L143.009 86.4268H143.011ZM126.228 75.7663L126.359 75.8423L132.681 72.2026V70.6366L125 75.0593L125.132 75.1354L132.495 70.8966V72.1583L126.228 75.7663ZM144.102 87.0563L153.211 81.8118L153.079 81.7357L143.971 86.9802L144.102 87.0563ZM142.678 84.6561C142.54 84.7349 142.54 84.8636 142.678 84.9424C142.815 85.0213 143.037 85.0213 143.174 84.9424C143.288 84.8774 143.306 84.7778 143.23 84.7003L150.08 80.7562L149.948 80.6801L143.098 84.6243C142.963 84.58 142.791 84.5911 142.678 84.6561ZM134.415 75.4661L134.283 75.39L130.813 77.389L130.944 77.4651L134.415 75.4661ZM134.633 71.0391V73.42L138.237 75.4951L131.129 79.5872L131.261 79.6633L138.501 75.4951L134.819 73.3757V71.2992L141.94 75.3983L134.02 79.958L134.152 80.0341L142.203 75.3983L134.632 71.0391H134.633ZM125.43 65.7407L134.823 60.3329L151.714 70.0583L151.846 69.9822L134.823 60.1807L125.166 65.7407L132.469 69.9448L123.425 75.152L123.557 75.2281L132.733 69.9448L125.43 65.7407ZM146.128 77.8192L143.321 76.2034L134.288 81.4051L134.419 81.4811L143.321 76.3556L145.677 77.7113H142.836L135.354 82.0193L135.486 82.0954L142.914 77.8192H146.129H146.128ZM131.692 74.6664L127.138 77.2894L127.27 77.3655L131.824 74.7425L131.692 74.6664ZM135.624 72.8071L140.009 75.3319L132.997 79.3687L133.129 79.4448L140.272 75.3319L135.755 72.731L135.624 72.8071ZM174.863 81.3566C174.998 81.4009 175.17 81.3898 175.284 81.3248C175.421 81.246 175.421 81.1173 175.284 81.0384C175.146 80.9596 174.924 80.9596 174.787 81.0384C174.673 81.1035 174.655 81.2031 174.731 81.2805L167.563 85.4073H161.154L172.763 78.724L172.631 78.6479L160.704 85.5152H167.641L174.863 81.3566ZM151.861 89.5133C151.975 89.4482 151.993 89.3486 151.917 89.2711L157.588 86.0063H159.85L154.809 88.9087L154.941 88.9848L160.301 85.8984H157.51L151.785 89.1951C151.65 89.1508 151.478 89.1619 151.365 89.2269C151.227 89.3057 151.227 89.4344 151.365 89.5133C151.502 89.5921 151.724 89.5921 151.861 89.5133ZM140.408 84.93L147.862 80.6386L147.73 80.5626L140.276 84.8539L140.408 84.93ZM179.748 80.0133C179.885 79.9345 179.885 79.8058 179.748 79.727C179.61 79.6481 179.388 79.6481 179.251 79.727C179.137 79.792 179.119 79.8916 179.196 79.9691L168.496 86.1294H161.845L152.169 91.7004L152.301 91.7765L161.922 86.2373H168.572L179.327 80.0452C179.462 80.0894 179.634 80.0784 179.748 80.0133ZM150.557 88.4881C150.423 88.4439 150.251 88.4549 150.137 88.52C150 88.5988 150 88.7275 150.137 88.8063C150.274 88.8852 150.496 88.8852 150.634 88.8063C150.747 88.7413 150.765 88.6417 150.689 88.5642L156.414 85.2675V83.66L151.054 86.7464L151.186 86.8225L156.227 83.9201V85.2233L150.556 88.4881H150.557ZM176.49 78.1388C176.377 78.2052 176.359 78.3034 176.435 78.3809L166.301 84.2148C166.167 84.1705 165.995 84.1816 165.881 84.2466C165.743 84.3254 165.743 84.4541 165.881 84.533C166.018 84.6118 166.24 84.6118 166.377 84.533C166.491 84.4679 166.509 84.3683 166.433 84.2909L176.567 78.457C176.701 78.5013 176.873 78.4902 176.987 78.4252C177.124 78.3463 177.124 78.2177 176.987 78.1388C176.85 78.06 176.628 78.06 176.49 78.1388ZM158.788 80.1641C158.65 80.243 158.65 80.3716 158.788 80.4505C158.925 80.5294 159.147 80.5294 159.284 80.4505C159.398 80.3855 159.416 80.2859 159.34 80.2084L169.474 74.3745C169.608 74.4188 169.78 74.4077 169.894 74.3427C170.031 74.2639 170.031 74.1352 169.894 74.0564C169.757 73.9775 169.535 73.9775 169.397 74.0564C169.284 74.1214 169.266 74.221 169.342 74.2985L159.208 80.1323C159.074 80.088 158.902 80.0991 158.788 80.1641ZM166.637 72.4654C166.523 72.5304 166.505 72.6301 166.581 72.7075L155.826 78.8997V82.729L146.205 88.2682L146.337 88.3443L156.013 82.7733V78.944L166.713 72.7836C166.848 72.8279 167.02 72.8168 167.133 72.7518C167.271 72.6729 167.271 72.5443 167.133 72.4654C166.996 72.3866 166.774 72.3866 166.637 72.4654ZM164.359 75.0344C164.245 75.0995 164.227 75.1991 164.303 75.2765L157.081 79.4351V83.429L169.008 76.5617L168.876 76.4856L157.267 83.1689V79.478L164.435 75.3512C164.57 75.3955 164.742 75.3844 164.856 75.3194C164.993 75.2406 164.993 75.1119 164.856 75.033C164.718 74.9542 164.496 74.9542 164.359 75.033V75.0344ZM173.989 76.4123L159.537 84.7335C159.402 84.6893 159.23 84.7003 159.117 84.7654C158.979 84.8442 158.979 84.9729 159.117 85.0517C159.254 85.1306 159.476 85.1306 159.613 85.0517C159.727 84.9853 159.745 84.8871 159.669 84.8096L174.121 76.4884L173.989 76.4123ZM172.76 75.7054L158.308 84.0266C158.173 83.9824 158.001 83.9934 157.887 84.0584C157.75 84.1373 157.75 84.266 157.887 84.3448C158.025 84.4237 158.247 84.4237 158.384 84.3448C158.498 84.2798 158.516 84.1802 158.44 84.1027L172.892 75.7815L172.76 75.7054ZM163.076 63.18L151.366 56.4372H146.512L139.196 52.2247L139.064 52.3008L146.436 56.5451H151.29L162.945 63.256C162.869 63.3335 162.887 63.4331 163.001 63.4981C163.138 63.577 163.36 63.577 163.497 63.4981C163.635 63.4193 163.635 63.2906 163.497 63.2118C163.384 63.1468 163.21 63.1357 163.077 63.18H163.076ZM136.04 54.0411L135.908 54.1172L144.678 59.1667H150.511L166.488 68.365L148.888 78.4985H144.105L136.671 82.7788L136.803 82.8549L144.183 78.6064H148.966L166.752 68.3664L150.589 59.0601H144.756L136.04 54.0425V54.0411ZM169.098 92.951L161.718 97.1995L161.849 97.2756L169.284 92.9953V90.2409L186.884 80.1074L202.861 89.3057V92.6647L211.631 97.7141L211.763 97.638L203.046 92.6204V89.2615L186.884 79.9552L169.098 90.1953V92.9497V92.951ZM166.814 88.852L178.47 82.141C178.605 82.1853 178.777 82.1742 178.89 82.1092C179.028 82.0304 179.028 81.9017 178.89 81.8228C178.753 81.744 178.531 81.744 178.394 81.8228C178.28 81.8879 178.262 81.9875 178.338 82.0649L166.627 88.8077V91.6022L159.311 95.8147L159.443 95.8908L166.814 91.6465V88.852ZM181.663 96.8343L189.084 92.5623L184.678 90.0265H179.007L183.742 87.3012L206.664 100.499L187.054 111.789L187.186 111.865L206.928 100.499L183.74 87.149L178.555 90.1344H184.599L188.817 92.5637L181.662 96.6835L172.193 91.2314L184.129 84.36L209.479 98.9551L209.611 98.879L184.129 84.2079L171.929 91.2314L181.663 96.8357V96.8343ZM186.49 81.6887L170.996 90.6089L171.127 90.685L186.621 81.7647L186.49 81.6887ZM195.324 81.8228C195.186 81.9017 195.186 82.0304 195.324 82.1092C195.437 82.1756 195.611 82.1853 195.744 82.141L207.4 88.852V91.6465L214.771 95.8908L214.903 95.8147L207.587 91.6022V88.8077L195.876 82.0649C195.952 81.9875 195.934 81.8879 195.82 81.8228C195.683 81.744 195.461 81.744 195.324 81.8228ZM215.985 95.1922L216.117 95.1161L208.663 90.8247L208.532 90.9008L215.985 95.1922ZM141.553 50.8648C141.415 50.9436 141.415 51.0723 141.553 51.1512C141.666 51.2162 141.84 51.2272 141.973 51.183L149.947 55.7731L150.079 55.6971L142.105 51.1069C142.181 51.0294 142.163 50.9298 142.049 50.8648C141.912 50.7859 141.69 50.7859 141.553 50.8648ZM167.131 63.9906C167.268 63.9118 167.268 63.7831 167.131 63.7043C167.017 63.6392 166.843 63.6282 166.71 63.6724L156.01 57.5121V53.6828L146.334 48.1118L146.203 48.1879L155.823 53.7271V57.5564L166.579 63.7485C166.502 63.826 166.52 63.9256 166.634 63.9906C166.771 64.0695 166.993 64.0695 167.131 63.9906ZM181.86 95.5297L187.011 92.5637L183.88 90.7611L178.729 93.7271L181.86 95.5297ZM178.993 93.7271L183.879 90.9133L186.746 92.5637L181.86 95.3775L178.993 93.7271ZM215.718 93.4892L208.867 89.5451L208.736 89.6212L215.586 93.5653C215.509 93.6427 215.528 93.7423 215.641 93.8074C215.779 93.8862 216.001 93.8862 216.138 93.8074C216.275 93.7285 216.275 93.5999 216.138 93.521C216.024 93.456 215.851 93.4449 215.718 93.4892ZM123.652 67.2195L117.845 70.5632L122.6 73.301L128.407 69.9573L123.652 67.2195ZM128.142 69.9573L122.6 73.1488L118.11 70.5632L123.652 67.3717L128.142 69.9573ZM183.919 103.137L180.228 105.262L183.259 107.008L186.95 104.883L183.919 103.137ZM186.687 104.883L183.26 106.856L180.493 105.262L183.919 103.289L186.687 104.883ZM123.886 65.8997L115.553 70.6974L122.367 74.6208L130.7 69.8231L123.886 65.8997ZM130.435 69.8231L122.367 74.4686L115.818 70.6974L123.886 66.0519L130.435 69.8231ZM130.954 59.1902L114.331 68.7593L115.323 69.3306L131.945 59.7602L130.953 59.1888L130.954 59.1902ZM131.682 59.7615L115.324 69.1784L114.596 68.7593L130.954 59.341L131.682 59.7602V59.7615ZM131.155 58.071L112.387 68.8741L115.123 70.4498L133.889 59.6453L131.154 58.0696L131.155 58.071ZM133.627 59.6467L115.123 70.2976L112.651 68.8741L131.152 58.2218L133.625 59.6453L133.627 59.6467ZM123.457 68.3263L119.766 70.4512L122.797 72.197L126.489 70.0721L123.457 68.3263ZM126.225 70.0721L122.798 72.0449L120.031 70.4512L123.457 68.4784L126.225 70.0721ZM174.283 91.1692L178.064 93.3453L178.195 93.2692L174.547 91.1692L175.067 90.869L176.263 91.5579H181.11L178.856 92.8556L177.617 92.1417L177.485 92.2178L178.856 93.0078L181.561 91.45H176.341L175.067 90.7168L174.282 91.1692H174.283ZM177.184 90.9617H182.15V90.8538H177.26L176.177 90.2299L183.833 85.8223L206.562 98.908L206.694 98.8319L183.833 85.6701L175.913 90.2299L177.184 90.9617ZM202.027 98.8762L183.26 109.681L185.996 111.256L204.762 100.452L202.027 98.8762ZM204.499 100.452L185.997 111.104L183.525 109.681L202.027 99.0284L204.499 100.452ZM184.351 100.713L176.017 105.511L182.832 109.434L191.165 104.637L184.351 100.713ZM190.9 104.637L182.832 109.282L176.282 105.511L184.351 100.866L190.9 104.637ZM184.116 102.033L178.309 105.377L183.065 108.115L188.872 104.771L184.116 102.033ZM188.607 104.771L183.065 107.962L178.574 105.377L184.116 102.185L188.607 104.771ZM201.826 99.9954L185.204 109.566L186.196 110.137L202.818 100.567L201.826 99.9954ZM202.554 100.567L186.196 109.985L185.467 109.566L201.826 100.148L202.554 100.567Z" fill="url(#paint0_radial_991_106081)"/>
</g>
<mask id="mask0_991_106081" style="mask-type:alpha" maskUnits="userSpaceOnUse" x="137" y="14" width="98" height="100">
<path d="M137.776 64.3967C138.425 50.7053 144.438 38.2882 153.637 29.278C162.836 20.2678 175.22 14.6682 188.608 14.6097C190.379 14.6007 192.15 14.6907 193.912 14.8794C194.22 14.9126 194.527 14.9485 194.834 14.9872L194.95 15.0025C195.254 15.0456 195.556 15.0893 195.855 15.1337L195.926 15.1445C196.235 15.1912 196.541 15.2424 196.847 15.2954L197.006 15.3224C197.304 15.3754 197.6 15.4302 197.895 15.4887L198.058 15.521C198.358 15.5812 198.659 15.6441 198.955 15.7106L199.045 15.7304C199.337 15.7957 199.629 15.864 199.92 15.9353L200.016 15.9587C200.312 16.0318 200.605 16.1076 200.896 16.186L201.059 16.2274C201.346 16.3059 201.631 16.3864 201.916 16.4691L202.064 16.5141C202.358 16.6003 202.649 16.6902 202.94 16.7837L202.994 16.8007C203.278 16.8924 203.562 16.9865 203.844 17.0829L203.959 17.1225C204.24 17.2195 204.519 17.3193 204.797 17.4217L204.954 17.4792C205.229 17.5817 205.504 17.6868 205.778 17.7947L205.911 17.8477C206.195 17.9609 206.479 18.0769 206.761 18.1955L206.771 18.2C207.052 18.3198 207.331 18.4396 207.608 18.5595L207.734 18.6152C208 18.735 208.265 18.8578 208.53 18.9836L208.679 19.0546C208.943 19.181 209.206 19.3099 209.467 19.4411L209.58 19.4986C209.846 19.6328 210.109 19.7691 210.371 19.9075L210.406 19.9255C210.675 20.0665 210.934 20.2112 211.197 20.3577L211.327 20.4305C211.579 20.5725 211.83 20.7166 212.078 20.8628L212.219 20.9464C212.471 21.0955 212.721 21.2471 212.97 21.4011L213.059 21.4577C213.305 21.6111 213.55 21.7669 213.793 21.925L213.855 21.9646C214.103 22.1263 214.349 22.2905 214.593 22.457L214.722 22.5469C214.961 22.7099 215.197 22.8749 215.429 23.0421L215.557 23.1319C215.796 23.3033 216.034 23.4773 216.269 23.6541L216.333 23.7026C216.563 23.8764 216.791 24.0519 217.019 24.2292L217.099 24.2921C217.329 24.4719 217.557 24.6546 217.782 24.8403L217.907 24.9437C218.129 25.1234 218.349 25.3083 218.566 25.4982L218.679 25.5961C218.904 25.7903 219.128 25.9865 219.35 26.1848L219.385 26.2162C219.602 26.4112 219.817 26.6098 220.031 26.8094L220.12 26.8929C220.331 27.0912 220.54 27.2916 220.748 27.4942L220.866 27.6092C221.07 27.8117 221.274 28.0157 221.476 28.2212L221.573 28.3209C221.783 28.5375 221.993 28.7559 222.201 28.977C230.545 37.9108 235.389 50.2811 234.739 63.9726C234.088 77.664 228.076 90.0811 218.878 99.0913C209.679 108.101 197.296 113.703 183.908 113.761C170.52 113.82 158.662 108.323 150.313 99.3887C150.144 99.209 149.977 99.0248 149.811 98.8405L149.68 98.6949C149.533 98.5305 149.385 98.3651 149.24 98.1989L149.182 98.1315C149.02 97.9451 148.861 97.7579 148.703 97.5698L148.58 97.4224C148.447 97.2624 148.315 97.1016 148.184 96.9398L148.094 96.8329C147.941 96.6417 147.788 96.4488 147.637 96.2541L147.528 96.1139C147.404 95.9522 147.281 95.7904 147.158 95.6268C147.125 95.5819 147.09 95.537 147.056 95.4929C146.91 95.2961 146.764 95.0975 146.62 94.898L146.531 94.7713C146.411 94.6041 146.292 94.4352 146.172 94.2662L146.066 94.1143C145.926 93.9112 145.787 93.7066 145.65 93.5005L145.584 93.4017C145.466 93.222 145.349 93.0422 145.232 92.8625L145.127 92.698C144.993 92.4877 144.858 92.2774 144.73 92.069L144.703 92.0249C144.581 91.8254 144.46 91.6241 144.344 91.4228L144.243 91.2512C144.124 91.049 144.007 90.8467 143.892 90.6427L143.865 90.596C143.742 90.3785 143.623 90.1596 143.506 89.9391C143.475 89.8816 143.443 89.824 143.416 89.7656C143.314 89.5763 143.213 89.3858 143.113 89.1941L143.057 89.0862C142.942 88.8652 142.83 88.6423 142.718 88.4185C139.178 81.3153 137.359 73.1256 137.776 64.3967ZM184.143 109.637C208.875 109.637 229.858 89.1608 231.009 63.9007C232.16 38.6405 213.042 18.1649 188.311 18.1649C163.579 18.1649 142.594 38.6414 141.443 63.9007C140.292 89.1599 159.409 109.637 184.143 109.637Z" fill="white"/>
</mask>
<g mask="url(#mask0_991_106081)">
<path d="M184.143 109.637C208.875 109.637 229.858 89.1608 231.009 63.9007C232.159 38.6414 213.045 18.1649 188.31 18.1649C163.576 18.1649 142.594 38.6405 141.442 63.9007C140.291 89.1608 159.411 109.637 184.143 109.637Z" fill="white"/>
</g>
<g clip-path="url(#clip3_991_106081)">
<path style="mix-blend-mode:multiply" d="M179.789 109.612C168.139 107.546 159.417 101.824 160.307 96.8328C161.197 91.8416 171.363 89.4709 183.013 91.5377C194.663 93.6045 203.385 99.3261 202.495 104.317C201.605 109.308 191.439 111.679 179.789 109.612Z" fill="url(#paint1_radial_991_106081)"/>
<path d="M180.737 99.0557L184.343 78.8394L203.605 71.499L180.737 99.0557ZM205.604 68.6428L184.744 76.5901L192.677 32.1184L205.604 68.6428Z" fill="url(#paint2_linear_991_106081)"/>
<path d="M180.737 99.0558L168.796 65.3238L184.343 78.8396L180.737 99.0558ZM192.677 32.1185L184.744 76.5902L167.908 61.9554L192.677 32.1185Z" fill="url(#paint3_linear_991_106081)"/>
<path style="mix-blend-mode:color-dodge" d="M179.369 106.727C177.663 106.424 180.25 83.9193 185.148 56.461C190.045 29.0028 195.399 6.98895 197.106 7.29169C198.812 7.59443 196.225 30.0991 191.327 57.5574C186.43 85.0156 181.076 107.029 179.369 106.727Z" fill="url(#paint4_radial_991_106081)"/>
<path style="mix-blend-mode:screen" d="M184.998 75.1679C179.384 74.1719 176.283 65.2346 178.072 55.2059C179.861 45.1772 185.862 37.8547 191.476 38.8507C197.09 39.8466 200.191 48.784 198.402 58.8127C196.614 68.8414 190.612 76.1639 184.998 75.1679Z" fill="url(#paint5_radial_991_106081)"/>
<path style="mix-blend-mode:color-dodge" d="M173.632 138.893C171.925 138.59 174.512 116.085 179.41 88.6272C184.308 61.169 189.661 39.1551 191.368 39.4578C193.074 39.7606 190.487 62.2653 185.59 89.7235C180.692 117.182 175.338 139.196 173.632 138.893Z" fill="url(#paint6_radial_991_106081)"/>
<path style="mix-blend-mode:screen" d="M179.261 107.334C173.647 106.338 170.546 97.4005 172.335 87.3718C174.123 77.343 180.125 70.0206 185.739 71.0165C191.353 72.0125 194.454 80.9498 192.665 90.9786C190.876 101.007 184.875 108.33 179.261 107.334Z" fill="url(#paint7_radial_991_106081)"/>
<path style="mix-blend-mode:color-dodge" d="M219.394 107.624C217.753 108.141 208.899 87.0414 199.614 60.4906C190.328 33.9439 184.127 12.0002 185.768 11.4835C187.409 10.9668 196.263 32.0663 205.549 58.6171C214.834 85.1678 221.035 107.107 219.394 107.624Z" fill="url(#paint8_radial_991_106081)"/>
<path style="mix-blend-mode:screen" d="M192.815 62.645C189.423 52.9492 191.046 43.7083 196.441 42.0048C201.836 40.3013 208.959 46.7804 212.351 56.4762C215.743 66.172 214.119 75.4129 208.724 77.1164C203.33 78.8199 196.207 72.3408 192.815 62.645Z" fill="url(#paint9_radial_991_106081)"/>
<path style="mix-blend-mode:color-dodge" d="M161.322 123.829C159.948 122.798 173.077 104.147 190.646 82.175C208.218 60.2035 223.573 43.2258 224.951 44.2574C226.324 45.2884 213.195 63.9388 195.623 85.9103C178.05 107.882 162.695 124.86 161.318 123.828L161.322 123.829Z" fill="url(#paint10_radial_991_106081)"/>
<path style="mix-blend-mode:screen" d="M181.518 98.5748C176.993 95.182 178.528 85.9259 184.945 77.9006C191.362 69.8754 200.232 66.12 204.757 69.5128C209.282 72.9056 207.748 82.1618 201.33 90.187C194.913 98.2123 186.043 101.968 181.518 98.5748Z" fill="url(#paint11_radial_991_106081)"/>
<path style="mix-blend-mode:color-dodge" d="M190.395 128.987C192.041 128.491 186.167 106.47 177.27 79.8023C168.374 53.135 159.831 31.9177 158.181 32.4122C156.536 32.9075 162.41 54.9293 171.307 81.5965C180.203 108.264 188.745 129.481 190.395 128.987Z" fill="url(#paint12_radial_991_106081)"/>
<path style="mix-blend-mode:screen" d="M164.475 83.6484C161.227 73.9084 162.987 64.6924 168.408 63.064C173.828 61.4355 180.856 68.0112 184.104 77.7512C187.353 87.4912 185.592 96.7072 180.171 98.3357C174.751 99.9642 167.724 93.3884 164.475 83.6484Z" fill="url(#paint13_radial_991_106081)"/>
<path style="mix-blend-mode:color-dodge" d="M141.488 93.8034C142.85 94.8528 158.457 78.0929 176.354 56.3644C194.251 34.636 207.654 16.1784 206.297 15.1297C204.935 14.0803 189.328 30.8402 171.431 52.5686C153.534 74.2931 140.126 92.7579 141.488 93.8074L141.488 93.8034Z" fill="url(#paint14_radial_991_106081)"/>
<path style="mix-blend-mode:screen" d="M162.055 68.8282C157.58 65.3739 159.252 56.1414 165.788 48.207C172.325 40.2726 181.252 36.6409 185.726 40.0953C190.201 43.5496 188.53 52.7821 181.993 60.7165C175.456 68.6509 166.53 72.2826 162.055 68.8282Z" fill="url(#paint15_radial_991_106081)"/>
</g>
</g>
<g filter="url(#filter0_b_991_106081)">
<rect x="113.758" y="43.0807" width="47.4194" height="45.8387" rx="22.9194" fill="white" fill-opacity="0.25"/>
</g>
<g style="mix-blend-mode:hard-light" filter="url(#filter1_b_991_106081)">
<rect x="113.314" y="43.2094" width="47.8049" height="45.5814" rx="22.7907" fill="white" fill-opacity="0.25"/>
<g style="mix-blend-mode:hard-light">
<path d="M122.683 68.7799V63.2132C122.683 62.2878 123.46 61.5433 124.426 61.5433L136.629 61.5433V55.4408C136.629 54.2022 138.19 53.583 139.105 54.4597L150.16 65.0433C150.705 65.5652 150.705 66.421 150.16 66.9429L139.105 77.5404C138.19 78.4171 136.629 77.7978 136.629 76.5593V70.4499H124.426C123.46 70.4499 122.683 69.7053 122.683 68.7799Z" fill="#121D33"/>
</g>
<rect x="113.274" y="43.1698" width="47.8839" height="45.6604" rx="22.8302" stroke="#B8B9BD" stroke-width="0.0790323"/>
</g>
<defs>
<filter id="filter0_b_991_106081" x="109.806" y="39.1291" width="55.3225" height="53.742" filterUnits="userSpaceOnUse" color-interpolation-filters="sRGB">
<feFlood flood-opacity="0" result="BackgroundImageFix"/>
<feGaussianBlur in="BackgroundImageFix" stdDeviation="1.97581"/>
<feComposite in2="SourceAlpha" operator="in" result="effect1_backgroundBlur_991_106081"/>
<feBlend mode="normal" in="SourceGraphic" in2="effect1_backgroundBlur_991_106081" result="shape"/>
</filter>
<filter id="filter1_b_991_106081" x="100.59" y="30.4852" width="73.2532" height="71.0297" filterUnits="userSpaceOnUse" color-interpolation-filters="sRGB">
<feFlood flood-opacity="0" result="BackgroundImageFix"/>
<feGaussianBlur in="BackgroundImageFix" stdDeviation="6.32258"/>
<feComposite in2="SourceAlpha" operator="in" result="effect1_backgroundBlur_991_106081"/>
<feBlend mode="normal" in="SourceGraphic" in2="effect1_backgroundBlur_991_106081" result="shape"/>
</filter>
<radialGradient id="paint0_radial_991_106081" cx="0" cy="0" r="1" gradientUnits="userSpaceOnUse" gradientTransform="translate(187.063 68.2599) scale(60.785 60.6171)">
<stop offset="0.14" stop-color="#9F65FF"/>
<stop offset="0.161458" stop-color="#A965FF" stop-opacity="0.99"/>
<stop offset="0.35" stop-color="#8C66F8" stop-opacity="0.64"/>
<stop offset="0.53" stop-color="#5E00D6" stop-opacity="0.37"/>
<stop offset="0.68" stop-color="#5700AE" stop-opacity="0.17"/>
<stop offset="0.79" stop-color="#410083" stop-opacity="0.05"/>
<stop offset="0.86" stop-color="#120045" stop-opacity="0"/>
</radialGradient>
<radialGradient id="paint1_radial_991_106081" cx="0" cy="0" r="1" gradientUnits="userSpaceOnUse" gradientTransform="translate(219.325 119.581) rotate(-154.078) scale(20.9248 7.83437)">
<stop stop-color="#8171D6"/>
<stop offset="0.15" stop-color="#8273D6" stop-opacity="0.98"/>
<stop offset="0.27" stop-color="#8879D8" stop-opacity="0.94"/>
<stop offset="0.39" stop-color="#9385DB" stop-opacity="0.86"/>
<stop offset="0.5" stop-color="#A195E0" stop-opacity="0.74"/>
<stop offset="0.6" stop-color="#B3AAE6" stop-opacity="0.6"/>
<stop offset="0.7" stop-color="#CAC3ED" stop-opacity="0.42"/>
<stop offset="0.8" stop-color="#E4E1F6" stop-opacity="0.21"/>
<stop offset="0.88" stop-color="white" stop-opacity="0"/>
</radialGradient>
<linearGradient id="paint2_linear_991_106081" x1="201.431" y1="44.013" x2="184.726" y2="92.3904" gradientUnits="userSpaceOnUse">
<stop stop-color="#7F70D1"/>
<stop offset="1" stop-color="#402F9E"/>
</linearGradient>
<linearGradient id="paint3_linear_991_106081" x1="177.23" y1="100.268" x2="180.972" y2="42.7748" gradientUnits="userSpaceOnUse">
<stop stop-color="#7760BD"/>
<stop offset="1" stop-color="#C17FFF"/>
</linearGradient>
<radialGradient id="paint4_radial_991_106081" cx="0" cy="0" r="1" gradientUnits="userSpaceOnUse" gradientTransform="translate(188.9 57.3801) rotate(100.114) scale(50.5929 3.23142)">
<stop stop-color="white"/>
<stop offset="0.02" stop-color="#F6F6F6" stop-opacity="0.97"/>
<stop offset="0.13" stop-color="#BDBDBD" stop-opacity="0.74"/>
<stop offset="0.25" stop-color="#8A8A8A" stop-opacity="0.54"/>
<stop offset="0.37" stop-color="#606060" stop-opacity="0.38"/>
<stop offset="0.49" stop-color="#3D3D3D" stop-opacity="0.24"/>
<stop offset="0.62" stop-color="#222222" stop-opacity="0.14"/>
<stop offset="0.74" stop-color="#0F0F0F" stop-opacity="0.06"/>
<stop offset="0.87" stop-color="#030303" stop-opacity="0.01"/>
<stop offset="1" stop-opacity="0"/>
</radialGradient>
<radialGradient id="paint5_radial_991_106081" cx="0" cy="0" r="1" gradientUnits="userSpaceOnUse" gradientTransform="translate(187.555 56.8421) rotate(100.114) scale(18.4268 10.236)">
<stop stop-color="#D065D6"/>
<stop offset="0.34" stop-color="#803E83" stop-opacity="0.62"/>
<stop offset="0.66" stop-color="#3B1C3C" stop-opacity="0.28"/>
<stop offset="0.88" stop-color="#100710" stop-opacity="0.08"/>
<stop offset="1" stop-opacity="0"/>
</radialGradient>
<radialGradient id="paint6_radial_991_106081" cx="0" cy="0" r="1" gradientUnits="userSpaceOnUse" gradientTransform="translate(158.924 85.3128) rotate(100.114) scale(50.5929 3.23142)">
<stop stop-color="white"/>
<stop offset="0.02" stop-color="#F6F6F6" stop-opacity="0.97"/>
<stop offset="0.13" stop-color="#BDBDBD" stop-opacity="0.74"/>
<stop offset="0.25" stop-color="#8A8A8A" stop-opacity="0.54"/>
<stop offset="0.37" stop-color="#606060" stop-opacity="0.38"/>
<stop offset="0.49" stop-color="#3D3D3D" stop-opacity="0.24"/>
<stop offset="0.62" stop-color="#222222" stop-opacity="0.14"/>
<stop offset="0.74" stop-color="#0F0F0F" stop-opacity="0.06"/>
<stop offset="0.87" stop-color="#030303" stop-opacity="0.01"/>
<stop offset="1" stop-opacity="0"/>
</radialGradient>
<radialGradient id="paint7_radial_991_106081" cx="0" cy="0" r="1" gradientUnits="userSpaceOnUse" gradientTransform="translate(99.997 74.456) rotate(100.114) scale(0.144072 0.0800315)">
<stop stop-color="#D065D6"/>
<stop offset="0.34" stop-color="#803E83" stop-opacity="0.62"/>
<stop offset="0.66" stop-color="#3B1C3C" stop-opacity="0.28"/>
<stop offset="0.88" stop-color="#100710" stop-opacity="0.08"/>
<stop offset="1" stop-opacity="0"/>
</radialGradient>
<radialGradient id="paint8_radial_991_106081" cx="0" cy="0" r="1" gradientUnits="userSpaceOnUse" gradientTransform="translate(203.926 59.3733) rotate(70.7183) scale(51.0229 3.20519)">
<stop stop-color="white"/>
<stop offset="0.02" stop-color="#F6F6F6" stop-opacity="0.97"/>
<stop offset="0.13" stop-color="#BDBDBD" stop-opacity="0.74"/>
<stop offset="0.25" stop-color="#8A8A8A" stop-opacity="0.54"/>
<stop offset="0.37" stop-color="#606060" stop-opacity="0.38"/>
<stop offset="0.49" stop-color="#3D3D3D" stop-opacity="0.24"/>
<stop offset="0.62" stop-color="#222222" stop-opacity="0.14"/>
<stop offset="0.74" stop-color="#0F0F0F" stop-opacity="0.06"/>
<stop offset="0.87" stop-color="#030303" stop-opacity="0.01"/>
<stop offset="1" stop-opacity="0"/>
</radialGradient>
<radialGradient id="paint9_radial_991_106081" cx="0" cy="0" r="1" gradientUnits="userSpaceOnUse" gradientTransform="translate(201.73 59.7654) rotate(70.7183) scale(18.5776 10.1498)">
<stop stop-color="#D065D6"/>
<stop offset="0.34" stop-color="#803E83" stop-opacity="0.62"/>
<stop offset="0.66" stop-color="#3B1C3C" stop-opacity="0.28"/>
<stop offset="0.88" stop-color="#100710" stop-opacity="0.08"/>
<stop offset="1" stop-opacity="0"/>
</radialGradient>
<radialGradient id="paint10_radial_991_106081" cx="0" cy="0" r="1" gradientUnits="userSpaceOnUse" gradientTransform="translate(193.431 84.6311) rotate(128.647) scale(51.0323 3.2036)">
<stop stop-color="white"/>
<stop offset="0.02" stop-color="#F6F6F6" stop-opacity="0.97"/>
<stop offset="0.13" stop-color="#BDBDBD" stop-opacity="0.74"/>
<stop offset="0.25" stop-color="#8A8A8A" stop-opacity="0.54"/>
<stop offset="0.37" stop-color="#606060" stop-opacity="0.38"/>
<stop offset="0.49" stop-color="#3D3D3D" stop-opacity="0.24"/>
<stop offset="0.62" stop-color="#222222" stop-opacity="0.14"/>
<stop offset="0.74" stop-color="#0F0F0F" stop-opacity="0.06"/>
<stop offset="0.87" stop-color="#030303" stop-opacity="0.01"/>
<stop offset="1" stop-opacity="0"/>
</radialGradient>
<radialGradient id="paint11_radial_991_106081" cx="0" cy="0" r="1" gradientUnits="userSpaceOnUse" gradientTransform="translate(192.659 83.5843) rotate(128.647) scale(18.5839 10.1463)">
<stop stop-color="#D065D6"/>
<stop offset="0.34" stop-color="#803E83" stop-opacity="0.62"/>
<stop offset="0.66" stop-color="#3B1C3C" stop-opacity="0.28"/>
<stop offset="0.88" stop-color="#100710" stop-opacity="0.08"/>
<stop offset="1" stop-opacity="0"/>
</radialGradient>
<radialGradient id="paint12_radial_991_106081" cx="0" cy="0" r="1" gradientUnits="userSpaceOnUse" gradientTransform="translate(173.709 81.1742) rotate(71.5557) scale(50.9923 3.20611)">
<stop stop-color="white"/>
<stop offset="0.02" stop-color="#F6F6F6" stop-opacity="0.97"/>
<stop offset="0.13" stop-color="#BDBDBD" stop-opacity="0.74"/>
<stop offset="0.25" stop-color="#8A8A8A" stop-opacity="0.54"/>
<stop offset="0.37" stop-color="#606060" stop-opacity="0.38"/>
<stop offset="0.49" stop-color="#3D3D3D" stop-opacity="0.24"/>
<stop offset="0.62" stop-color="#222222" stop-opacity="0.14"/>
<stop offset="0.74" stop-color="#0F0F0F" stop-opacity="0.06"/>
<stop offset="0.87" stop-color="#030303" stop-opacity="0.01"/>
<stop offset="1" stop-opacity="0"/>
</radialGradient>
<radialGradient id="paint13_radial_991_106081" cx="0" cy="0" r="1" gradientUnits="userSpaceOnUse" gradientTransform="translate(174.928 80.429) rotate(71.5557) scale(18.5693 10.1543)">
<stop stop-color="#D065D6"/>
<stop offset="0.34" stop-color="#803E83" stop-opacity="0.62"/>
<stop offset="0.66" stop-color="#3B1C3C" stop-opacity="0.28"/>
<stop offset="0.88" stop-color="#100710" stop-opacity="0.08"/>
<stop offset="1" stop-opacity="0"/>
</radialGradient>
<radialGradient id="paint14_radial_991_106081" cx="0" cy="0" r="1" gradientUnits="userSpaceOnUse" gradientTransform="translate(172.601 53.7724) rotate(129.483) scale(51.0637 3.20263)">
<stop stop-color="white"/>
<stop offset="0.02" stop-color="#F6F6F6" stop-opacity="0.97"/>
<stop offset="0.13" stop-color="#BDBDBD" stop-opacity="0.74"/>
<stop offset="0.25" stop-color="#8A8A8A" stop-opacity="0.54"/>
<stop offset="0.37" stop-color="#606060" stop-opacity="0.38"/>
<stop offset="0.49" stop-color="#3D3D3D" stop-opacity="0.24"/>
<stop offset="0.62" stop-color="#222222" stop-opacity="0.14"/>
<stop offset="0.74" stop-color="#0F0F0F" stop-opacity="0.06"/>
<stop offset="0.87" stop-color="#030303" stop-opacity="0.01"/>
<stop offset="1" stop-opacity="0"/>
</radialGradient>
<radialGradient id="paint15_radial_991_106081" cx="0" cy="0" r="1" gradientUnits="userSpaceOnUse" gradientTransform="translate(174.639 54.966) rotate(129.483) scale(18.5924 10.1417)">
<stop stop-color="#D065D6"/>
<stop offset="0.34" stop-color="#803E83" stop-opacity="0.62"/>
<stop offset="0.66" stop-color="#3B1C3C" stop-opacity="0.28"/>
<stop offset="0.88" stop-color="#100710" stop-opacity="0.08"/>
<stop offset="1" stop-opacity="0"/>
</radialGradient>
<clipPath id="clip0_991_106081">
<rect width="102.279" height="102.78" fill="white" transform="translate(44.9998 14.6097)"/>
</clipPath>
<clipPath id="clip1_991_106081">
<rect width="90.8545" height="90.9418" fill="white" transform="matrix(0.998627 0.0523862 -0.00819506 0.999966 53.8856 16.1238)"/>
</clipPath>
<clipPath id="clip2_991_106081">
<rect width="102.279" height="102.78" fill="white" transform="matrix(-1 0 0 1 239.996 14.6097)"/>
</clipPath>
<clipPath id="clip3_991_106081">
<rect width="88.6514" height="133.682" fill="white" transform="matrix(-0.984625 -0.174679 -0.1756 0.984462 244.868 21.7604)"/>
</clipPath>
</defs>
</svg>
