<svg width="19" height="20" viewBox="0 0 19 20" fill="none" xmlns="http://www.w3.org/2000/svg">
<path fill-rule="evenodd" clip-rule="evenodd" d="M4.5 7.5C4.5 6.11929 5.61929 5 7 5C8.38071 5 9.5 6.11929 9.5 7.5C9.5 8.88071 8.38071 10 7 10C5.61929 10 4.5 8.88071 4.5 7.5ZM7 7C6.72386 7 6.5 7.22386 6.5 7.5C6.5 7.77614 6.72386 8 7 8C7.27614 8 7.5 7.77614 7.5 7.5C7.5 7.22386 7.27614 7 7 7Z" fill="#121D33"/>
<path fill-rule="evenodd" clip-rule="evenodd" d="M10.7698 0.340269C9.98406 -0.113423 9.01594 -0.113423 8.23018 0.340269L1.76978 4.07042C0.984017 4.52411 0.5 5.36253 0.5 6.26985V13.7301C0.5 14.6375 0.984016 15.4759 1.76978 15.9296L8.23018 19.6597C9.01594 20.1134 9.98406 20.1134 10.7698 19.6597L17.2302 15.9296C18.016 15.4759 18.5 14.6375 18.5 13.7301V6.26985C18.5 5.36253 18.016 4.52411 17.2302 4.07042L10.7698 0.340269ZM9.23022 2.07229C9.39717 1.9759 9.60284 1.9759 9.76978 2.07229L16.2302 5.80244C16.3971 5.89884 16.5 6.077 16.5 6.26985V9.58579L14.2071 7.29289C13.8166 6.90237 13.1834 6.90237 12.7929 7.29289L4.74677 15.339L2.76982 14.1976C2.60288 14.1012 2.5 13.923 2.5 13.7301V6.26985C2.5 6.077 2.60288 5.89884 2.76982 5.80244L9.23022 2.07229ZM6.53988 16.3743L9.23022 17.9277C9.39717 18.0241 9.60284 18.0241 9.76978 17.9277L16.2302 14.1976C16.3971 14.1012 16.5 13.923 16.5 13.7301V12.4142L13.5 9.41421L6.53988 16.3743Z" fill="#121D33"/>
</svg>
