<svg width="116" height="20" viewBox="0 0 116 20" fill="none" xmlns="http://www.w3.org/2000/svg">
<g clip-path="url(#clip0_788_23339)">
<g clip-path="url(#clip1_788_23339)">
<path d="M106 18C110.418 18 114 14.4183 114 10C114 5.58172 110.418 2 106 2C101.582 2 98 5.58172 98 10C98 14.4183 101.582 18 106 18Z" fill="#BFBBBB"/>
<path fill-rule="evenodd" clip-rule="evenodd" d="M103.214 11.607L102.5 11.884L102.844 10.5045L103.566 10.2145L104.607 6H107.171L106.411 9.098L107.116 8.8125L106.776 10.1875L106.063 10.473L105.639 12.2145H109.5L109.064 14H102.626L103.214 11.607Z" fill="white"/>
</g>
</g>
<rect x="97" y="1" width="18" height="18" rx="9" stroke="white" stroke-width="2"/>
<g clip-path="url(#clip2_788_23339)">
<g clip-path="url(#clip3_788_23339)">
<path d="M90 18C94.4183 18 98 14.4183 98 10C98 5.58172 94.4183 2 90 2C85.5817 2 82 5.58172 82 10C82 14.4183 85.5817 18 90 18Z" fill="#5546FF"/>
<path d="M93.2635 14.2152L91.5413 11.5118H94.0144V10.4905H85.9043V11.5118H88.3774L86.6552 14.2152H87.9368L89.9594 11.0412L91.9819 14.2152H93.2635ZM94.0144 9.49931V8.47803H91.5914L93.2935 5.80469H92.0019L89.9594 9.02872L87.9168 5.80469H86.6252L88.3273 8.47803H85.9043V9.50932L94.0144 9.49931Z" fill="white"/>
</g>
</g>
<rect x="81" y="1" width="18" height="18" rx="9" stroke="white" stroke-width="2"/>
<g clip-path="url(#clip4_788_23339)">
<g clip-path="url(#clip5_788_23339)">
<path d="M74 18C78.4183 18 82 14.4183 82 10C82 5.58172 78.4183 2 74 2C69.5817 2 66 5.58172 66 10C66 14.4183 69.5817 18 74 18Z" fill="black"/>
<path d="M79 6.13592V6.99985L69 12.0955V11.2311L69.3634 11.0458C69.4987 10.9769 69.6106 10.8695 69.6849 10.7371C69.7593 10.6048 69.7929 10.4534 69.7814 10.302C69.7733 10.1951 69.7692 10.0878 69.7692 9.98006C69.7691 9.19993 69.9847 8.43497 70.3922 7.76972C70.7997 7.10447 71.3832 6.56484 72.0781 6.21047C72.7731 5.8561 73.5526 5.70079 74.3303 5.7617C75.1081 5.82261 75.8538 6.09737 76.4852 6.55562L75.6932 6.95924C75.1663 6.66499 74.5717 6.5135 73.9683 6.51975C73.3649 6.526 72.7736 6.68979 72.253 6.99489C71.7323 7.29999 71.3004 7.73581 71.0001 8.25919C70.6997 8.78257 70.5412 9.37534 70.5404 9.97879C70.5405 10.13 70.5504 10.2811 70.5701 10.4311L79 6.13592Z" fill="white"/>
<path d="M71.1061 11.8848L79 7.86553V8.72693L78.6361 8.91224C78.501 8.98127 78.3893 9.08869 78.315 9.22102C78.2407 9.35335 78.2071 9.50469 78.2186 9.65602C78.2266 9.76348 78.2308 9.87221 78.2308 9.98095C78.2306 10.761 78.0147 11.5257 77.607 12.1907C77.1994 12.8558 76.6158 13.3951 75.9208 13.7493C75.2258 14.1034 74.4464 14.2585 73.6688 14.1974C72.8912 14.1364 72.1456 13.8615 71.5144 13.4033L72.2615 13.0225L72.3039 13.0001C72.8308 13.2955 73.4259 13.448 74.03 13.4424C74.6341 13.4368 75.2263 13.2733 75.7477 12.9681C76.2691 12.6629 76.7016 12.2267 77.0022 11.7027C77.3029 11.1786 77.4613 10.5851 77.4617 9.98095C77.4616 9.82872 77.4517 9.67666 77.4321 9.52571L69 13.8221V12.9586L71.1061 11.8848Z" fill="white"/>
</g>
</g>
<rect x="65" y="1" width="18" height="18" rx="9" stroke="white" stroke-width="2"/>
<g clip-path="url(#clip6_788_23339)">
<g clip-path="url(#clip7_788_23339)">
<path d="M58 18C62.4183 18 66 14.4183 66 10C66 5.58172 62.4183 2 58 2C53.5817 2 50 5.58172 50 10C50 14.4183 53.5817 18 58 18Z" fill="#8DC351"/>
<path d="M60.6033 7.26712C60.2153 6.28112 59.2423 6.19212 58.1093 6.41212L57.7058 5.00562L56.8498 5.25112L57.2428 6.62111C57.0178 6.68511 56.7888 6.75612 56.5613 6.82612L56.1663 5.44712L55.3108 5.69212L55.7133 7.09861C55.5293 7.15561 55.3483 7.21162 55.1708 7.26261L55.1693 7.25762L53.9883 7.59612L54.2508 8.51112C54.2508 8.51112 54.8798 8.31711 54.8723 8.33211C55.2193 8.23261 55.3898 8.40162 55.4723 8.56612L56.5773 12.4191C56.5933 12.5326 56.5793 12.7251 56.3373 12.7951C56.3508 12.8016 55.7143 12.9731 55.7143 12.9731L55.8378 14.0446L56.9518 13.7246C57.1593 13.6661 57.3643 13.6111 57.5648 13.5546L57.9733 14.9771L58.8283 14.7321L58.4248 13.3246C58.6541 13.2638 58.8828 13.2004 59.1108 13.1346L59.5118 14.5361L60.3683 14.2906L59.9613 12.8706C61.3768 12.3751 62.2803 11.7236 62.0178 10.3356C61.8068 9.21862 61.1558 8.87962 60.2823 8.91762C60.7063 8.52262 60.8888 7.98812 60.6033 7.26712ZM60.2783 10.6521C60.5833 11.7156 58.7283 12.1166 58.1483 12.2836L57.6078 10.3986C58.1878 10.2321 59.9598 9.54362 60.2778 10.6526L60.2783 10.6521ZM59.1173 8.10712C59.3943 9.07462 57.8438 9.39711 57.3603 9.53561L56.8703 7.82612C57.3533 7.68762 58.8278 7.09862 59.1173 8.10762V8.10712Z" fill="white"/>
</g>
</g>
<rect x="49" y="1" width="18" height="18" rx="9" stroke="white" stroke-width="2"/>
<g clip-path="url(#clip8_788_23339)">
<g clip-path="url(#clip9_788_23339)">
<path d="M42 18C46.4183 18 50 14.4183 50 10C50 5.58172 46.4183 2 42 2C37.5817 2 34 5.58172 34 10C34 14.4183 37.5817 18 42 18Z" fill="#8247E5"/>
<path d="M44.6487 8.28847C44.4569 8.17685 44.2074 8.17685 43.9964 8.28847L42.4997 9.14429L41.4827 9.70243L39.986 10.5582C39.7941 10.6699 39.5447 10.6699 39.3336 10.5582L38.144 9.88847C37.9521 9.77685 37.8178 9.57219 37.8178 9.34893V8.028C37.8178 7.80475 37.9329 7.6001 38.144 7.48847L39.3144 6.8373C39.5063 6.72568 39.7558 6.72568 39.9668 6.8373L41.1373 7.48847C41.3292 7.6001 41.4635 7.80475 41.4635 8.028V8.88382L42.4805 8.30707V7.45125C42.4805 7.228 42.3654 7.02335 42.1543 6.91172L39.986 5.68382C39.7941 5.57219 39.5447 5.57219 39.3336 5.68382L37.127 6.91172C36.9159 7.02335 36.8008 7.228 36.8008 7.45125V9.92568C36.8008 10.1489 36.9159 10.3536 37.127 10.4652L39.3336 11.6931C39.5255 11.8048 39.775 11.8048 39.986 11.6931L41.4827 10.8559L42.4997 10.2792L43.9964 9.44196C44.1882 9.33033 44.4377 9.33033 44.6487 9.44196L45.8192 10.0931C46.0111 10.2048 46.1454 10.4094 46.1454 10.6327V11.9536C46.1454 12.1768 46.0303 12.3815 45.8192 12.4931L44.6487 13.1629C44.4569 13.2745 44.2074 13.2745 43.9964 13.1629L42.8259 12.5117C42.634 12.4001 42.4997 12.1954 42.4997 11.9722V11.1164L41.4827 11.6931V12.5489C41.4827 12.7722 41.5978 12.9768 41.8089 13.0885L44.0155 14.3164C44.2074 14.428 44.4569 14.428 44.6679 14.3164L46.8746 13.0885C47.0665 12.9768 47.2008 12.7722 47.2008 12.5489V10.0745C47.2008 9.85125 47.0857 9.64661 46.8746 9.53497L44.6487 8.28847Z" fill="white"/>
</g>
</g>
<rect x="33" y="1" width="18" height="18" rx="9" stroke="white" stroke-width="2"/>
<g clip-path="url(#clip10_788_23339)">
<g clip-path="url(#clip11_788_23339)">
<path d="M26 18C30.4183 18 34 14.4183 34 10C34 5.58172 30.4183 2 26 2C21.5817 2 18 5.58172 18 10C18 14.4183 21.5817 18 26 18Z" fill="#473BCB"/>
<path d="M29.1242 10.0927L25.9998 5L22.875 10.0927L25.9998 11.9069L29.1242 10.0927Z" fill="white"/>
<path d="M25.9998 15L29.1263 10.6745L25.9998 12.4882L22.875 10.6745L25.9998 15Z" fill="white"/>
</g>
</g>
<rect x="17" y="1" width="18" height="18" rx="9" stroke="white" stroke-width="2"/>
<g clip-path="url(#clip12_788_23339)">
<g clip-path="url(#clip13_788_23339)">
<path d="M10 18C14.4183 18 18 14.4183 18 10C18 5.58172 14.4183 2 10 2C5.58172 2 2 5.58172 2 10C2 14.4183 5.58172 18 10 18Z" fill="#FF9B22"/>
<path d="M13.5941 9.01C13.7511 7.962 12.9526 7.3985 11.8616 7.0225L12.2156 5.6025L11.3516 5.3875L11.0066 6.77C10.7796 6.713 10.5466 6.66 10.3141 6.607L10.6616 5.2155L9.79762 5L9.44362 6.4195C9.25562 6.3765 9.07063 6.3345 8.89163 6.2895L8.89263 6.285L7.70063 5.9875L7.47063 6.9105C7.47063 6.9105 8.11213 7.0575 8.09862 7.0665C8.44863 7.154 8.51163 7.3855 8.50113 7.5695L7.53163 11.459C7.48863 11.565 7.38013 11.7245 7.13513 11.664C7.14413 11.6765 6.50713 11.5075 6.50713 11.5075L6.07812 12.4965L7.20312 12.777C7.41212 12.8295 7.61712 12.8845 7.81862 12.936L7.46113 14.372L8.32462 14.587L8.67862 13.167C8.91462 13.2305 9.14363 13.2895 9.36762 13.3455L9.01462 14.7595L9.87863 14.9745L10.2361 13.5415C11.7101 13.8205 12.8181 13.708 13.2846 12.375C13.6606 11.302 13.2661 10.6825 12.4906 10.279C13.0556 10.149 13.4806 9.7775 13.5941 9.01ZM11.6191 11.779C11.3526 12.8525 9.54512 12.272 8.95912 12.1265L9.43413 10.224C10.0201 10.3705 11.8986 10.66 11.6191 11.779ZM11.8866 8.9945C11.6431 9.971 10.1391 9.4745 9.65162 9.353L10.0816 7.628C10.5691 7.7495 12.1406 7.976 11.8866 8.9945Z" fill="white"/>
</g>
</g>
<rect x="1" y="1" width="18" height="18" rx="9" stroke="white" stroke-width="2"/>
<defs>
<clipPath id="clip0_788_23339">
<rect x="98" y="2" width="16" height="16" rx="8" fill="white"/>
</clipPath>
<clipPath id="clip1_788_23339">
<rect width="16" height="16" fill="white" transform="translate(98 2)"/>
</clipPath>
<clipPath id="clip2_788_23339">
<rect x="82" y="2" width="16" height="16" rx="8" fill="white"/>
</clipPath>
<clipPath id="clip3_788_23339">
<rect width="16" height="16" fill="white" transform="translate(82 2)"/>
</clipPath>
<clipPath id="clip4_788_23339">
<rect x="66" y="2" width="16" height="16" rx="8" fill="white"/>
</clipPath>
<clipPath id="clip5_788_23339">
<rect width="16" height="16" fill="white" transform="translate(66 2)"/>
</clipPath>
<clipPath id="clip6_788_23339">
<rect x="50" y="2" width="16" height="16" rx="8" fill="white"/>
</clipPath>
<clipPath id="clip7_788_23339">
<rect width="16" height="16" fill="white" transform="translate(50 2)"/>
</clipPath>
<clipPath id="clip8_788_23339">
<rect x="34" y="2" width="16" height="16" rx="8" fill="white"/>
</clipPath>
<clipPath id="clip9_788_23339">
<rect width="16" height="16" fill="white" transform="translate(34 2)"/>
</clipPath>
<clipPath id="clip10_788_23339">
<rect x="18" y="2" width="16" height="16" rx="8" fill="white"/>
</clipPath>
<clipPath id="clip11_788_23339">
<rect width="16" height="16" fill="white" transform="translate(18 2)"/>
</clipPath>
<clipPath id="clip12_788_23339">
<rect x="2" y="2" width="16" height="16" rx="8" fill="white"/>
</clipPath>
<clipPath id="clip13_788_23339">
<rect width="16" height="16" fill="white" transform="translate(2 2)"/>
</clipPath>
</defs>
</svg>
