<svg width="24" height="24" viewBox="0 0 24 24" fill="none" xmlns="http://www.w3.org/2000/svg">
<path fill-rule="evenodd" clip-rule="evenodd" d="M14 4.67626C13.5683 4.58993 13.0504 4.58993 12.6187 4.58993C8.21583 4.58993 4.58993 8.21583 4.58993 12.6187C4.58993 12.8345 4.61151 13.0719 4.63309 13.3094C4.65468 13.5468 4.67626 13.7842 4.67626 14C3.03597 12.7914 2 10.8058 2 8.64748C2 4.93525 5.02158 2 8.64748 2C10.8921 2 12.7914 3.03597 14 4.67626ZM22.0001 14.3C22.0001 18.5526 18.5527 22 14.3001 22C10.0475 22 6.6001 18.5526 6.6001 14.3C6.6001 10.0474 10.0475 6.59998 14.3001 6.59998C18.5527 6.59998 22.0001 10.0474 22.0001 14.3Z" fill="#121D33"/>
</svg>
