<svg width="24" height="24" viewBox="0 0 24 24" fill="none" xmlns="http://www.w3.org/2000/svg">
<path d="M15.3968 6H8.53968C7.14286 6 6 7.14286 6 8.53968V15.4603C6 16.8571 7.14286 18 8.53968 18H15.4603C16.8571 18 18 16.8571 18 15.4603V8.53968C17.9365 7.14286 16.7937 6 15.3968 6Z" fill="#121D33"/>
<path fill-rule="evenodd" clip-rule="evenodd" d="M6.4 2H8C8.5 2 9 2.4 9 3C9 3.6 8.6 4 8 4H6.4C5.1 4 4 5.1 4 6.4V8C4 8.6 3.6 9 3 9C2.4 9 2 8.6 2 8V6.4C2 4 4 2 6.4 2ZM16.014 2H17.6363C20.0698 2 22.0978 4 21.9964 6.4V8C21.9964 8.6 21.5908 9 20.9824 9C20.374 9 19.9684 8.6 19.9684 8V6.3C19.9684 5 18.9545 4 17.6363 4H16.014C15.4056 4 15 3.6 15 3C15 2.4 15.4056 2 16.014 2ZM21 15C20.4 15 20 15.4056 20 16.014V17.6363C20 18.9545 19 19.9684 17.7 19.9684H16C15.4 19.9684 15 20.374 15 20.9824C15 21.5908 15.4 21.9964 16 21.9964H17.6C20 22.0978 22 20.0698 22 17.6363V16.014C22 15.507 21.5 15 21 15ZM6.46013 20H8.08247C8.58945 20 9.09644 20.4 9.09644 21C9.09644 21.6 8.69085 22 8.08247 22H6.46013C4.02661 22 1.99868 20 2.10008 17.6V16C2.10008 15.4 2.50567 15 3.11404 15C3.72242 15 4.12801 15.4 4.12801 16V17.7C4.12801 19 5.14197 20 6.46013 20Z" fill="#121D33"/>
</svg>
