<svg width="24" height="24" viewBox="0 0 24 24" fill="none" xmlns="http://www.w3.org/2000/svg">
<path fill-rule="evenodd" clip-rule="evenodd" d="M20 12C20 16.4183 16.4183 20 12 20C7.58172 20 4 16.4183 4 12C4 7.58172 7.58172 4 12 4C16.4183 4 20 7.58172 20 12ZM22 12C22 17.5228 17.5228 22 12 22C6.47715 22 2 17.5228 2 12C2 6.47715 6.47715 2 12 2C17.5228 2 22 6.47715 22 12ZM10.4693 6.30448C11.2002 6.00173 12.0044 5.92252 12.7804 6.07686C13.5563 6.2312 14.269 6.61216 14.8284 7.17158C15.3878 7.73099 15.7688 8.44372 15.9231 9.21964C16.0775 9.99556 15.9983 10.7998 15.6955 11.5307C15.3928 12.2616 14.8801 12.8864 14.2223 13.3259C13.5645 13.7654 12.7911 14 12 14C11.4477 14 11 13.5523 11 13C11 12.4477 11.4477 12 12 12C12.3956 12 12.7822 11.8827 13.1111 11.6629C13.44 11.4432 13.6964 11.1308 13.8478 10.7654C13.9991 10.3999 14.0387 9.99778 13.9616 9.60982C13.8844 9.22186 13.6939 8.86549 13.4142 8.58579C13.1345 8.30608 12.7781 8.1156 12.3902 8.03843C12.0022 7.96126 11.6001 8.00087 11.2346 8.15224C10.8692 8.30362 10.5568 8.55996 10.3371 8.88886C10.1173 9.21776 10 9.60444 10 10C10 10.5523 9.55228 11 9 11C8.44772 11 8 10.5523 8 10C8 9.20888 8.2346 8.43552 8.67412 7.77772C9.11365 7.11992 9.73836 6.60723 10.4693 6.30448ZM12 15C12.5523 15 13 15.4477 13 16V17C13 17.5523 12.5523 18 12 18C11.4477 18 11 17.5523 11 17V16C11 15.4477 11.4477 15 12 15Z" fill="#121D33"/>
</svg>
