<svg width="24" height="24" viewBox="0 0 24 24" fill="none" xmlns="http://www.w3.org/2000/svg">
<path fill-rule="evenodd" clip-rule="evenodd" d="M9.07391 16.2132C8.49249 16.2132 7.91107 16.0101 7.42656 15.604C6.94205 15.1979 6.55443 14.5888 6.45753 13.9797L4.90709 6.06089L4.6621 4.94414L4.44416 3.82741H2.87213C2.38761 3.82741 2 3.42132 2 2.91371C2 2.40609 2.38761 2 2.87213 2H5C5.38761 2 5.87607 2.40605 5.97297 2.91367L6.45753 4.94414H21.0899C21.3806 4.94414 21.5744 5.04566 21.7682 5.24871C21.962 5.45175 22.0589 5.75632 21.962 6.06089L20.5084 13.9797C20.4115 14.6903 20.0239 15.1979 19.5394 15.604C19.0549 16.0101 18.3766 16.2132 17.7952 16.2132H9.07391ZM6.84514 6.77155L8.10488 13.5736C8.10488 13.7766 8.29869 13.9797 8.39559 14.0812C8.58939 14.1827 8.7832 14.2842 8.977 14.2842H17.7952C17.989 14.2842 18.2797 14.1827 18.3766 14.0812C18.5704 13.9797 18.6673 13.7766 18.6673 13.5736L19.927 6.77155H6.84514ZM10.962 20C10.962 21.1046 10.0666 22 8.96204 22C7.85747 22 6.96204 21.1046 6.96204 20C6.96204 18.8954 7.85747 18 8.96204 18C10.0666 18 10.962 18.8954 10.962 20ZM17.962 22C19.0666 22 19.962 21.1046 19.962 20C19.962 18.8954 19.0666 18 17.962 18C16.8575 18 15.962 18.8954 15.962 20C15.962 21.1046 16.8575 22 17.962 22Z" fill="#121D33"/>
</svg>
