<svg width="24" height="24" viewBox="0 0 24 24" fill="none" xmlns="http://www.w3.org/2000/svg">
<g clip-path="url(#clip0_4153_4437)">
<path fill-rule="evenodd" clip-rule="evenodd" d="M12 24C18.6274 24 24 18.6274 24 12C24 5.37258 18.6274 0 12 0C5.37258 0 0 5.37258 0 12C0 18.6274 5.37258 24 12 24ZM14.1649 7.07903C13.7827 6.69684 13.166 6.6875 12.7724 7.05794L7.52158 11.9999H9C9.55228 11.9999 10 12.4476 10 12.9999C10 13.5522 9.55228 13.9999 9 13.9999H5C4.44772 13.9999 4 13.5522 4 12.9999V8.99991C4 8.44763 4.44772 7.99991 5 7.99991C5.55228 7.99991 6 8.44763 6 8.99991V10.6855L11.4017 5.60154C12.5825 4.49024 14.4326 4.51826 15.5791 5.66481L16.2071 6.29281C16.5976 6.68333 16.5976 7.31649 16.2071 7.70702C15.8166 8.09754 15.1834 8.09754 14.7929 7.70702L14.1649 7.07903ZM9.8351 16.9209C10.2173 17.3031 10.834 17.3124 11.2276 16.942L16.4784 12H15C14.4477 12 14 11.5523 14 11C14 10.4477 14.4477 10 15 10H19C19.5523 10 20 10.4477 20 11V15C20 15.5523 19.5523 16 19 16C18.4477 16 18 15.5523 18 15V13.3144L12.5983 18.3984C11.4175 19.5097 9.56744 19.4817 8.42089 18.3351L7.79289 17.7071C7.40237 17.3166 7.40237 16.6834 7.79289 16.2929C8.18342 15.9024 8.81658 15.9024 9.20711 16.2929L9.8351 16.9209Z" fill="#121D33"/>
</g>
<defs>
<clipPath id="clip0_4153_4437">
<rect width="24" height="24" fill="white"/>
</clipPath>
</defs>
</svg>
