<svg width="24" height="24" viewBox="0 0 24 24" fill="none" xmlns="http://www.w3.org/2000/svg">
<path fill-rule="evenodd" clip-rule="evenodd" d="M13.4021 2.08447C13.8131 2.26495 14.0534 2.69714 13.9899 3.14148L13.153 9.00006H20C20.3864 9.00006 20.7382 9.22266 20.9037 9.57183C21.0691 9.921 21.0186 10.3342 20.774 10.6333L11.774 21.6333C11.4897 21.9807 11.0089 22.0961 10.5979 21.9157C10.1869 21.7352 9.94657 21.303 10.01 20.8586L10.847 15.0001H4C3.61361 15.0001 3.26179 14.7775 3.09633 14.4283C2.93086 14.0791 2.98136 13.6659 3.22604 13.3668L12.226 2.36682C12.5103 2.01943 12.9911 1.90398 13.4021 2.08447ZM6.11024 13.0001H12C12.2899 13.0001 12.5655 13.1259 12.7554 13.3449C12.9454 13.5639 13.0309 13.8545 12.9899 14.1415L12.4972 17.591L17.8898 11.0001H12C11.7101 11.0001 11.4345 10.8743 11.2445 10.6553C11.0546 10.4363 10.969 10.1456 11.01 9.85864L11.5028 6.40911L6.11024 13.0001Z" fill="#121D33"/>
</svg>
