<svg width="24" height="24" viewBox="0 0 24 24" fill="none" xmlns="http://www.w3.org/2000/svg">
<path fill-rule="evenodd" clip-rule="evenodd" d="M4.23246 7.99969C4.00557 7.99969 3.95397 7.6817 4.16921 7.60996L11.747 5.08402C11.9112 5.02928 12.0888 5.02928 12.253 5.08402L19.8308 7.60996C20.046 7.6817 19.9944 7.99969 19.7675 7.99969H4.23246ZM12.8854 3.18666L20.4632 5.71259C22.831 6.50183 22.2631 9.99969 19.7675 9.99969H4.23246C1.73677 9.99969 1.16913 6.5018 3.53675 5.71259L11.1146 3.18666C11.6893 2.99507 12.3107 2.99507 12.8854 3.18666Z" fill="#121D33"/>
<path d="M2 19.9997C2 19.4474 2.44772 18.9997 3 18.9997H21C21.5523 18.9997 22 19.4474 22 19.9997C22 20.552 21.5523 20.9997 21 20.9997H3C2.44772 20.9997 2 20.552 2 19.9997Z" fill="#121D33"/>
<path fill-rule="evenodd" clip-rule="evenodd" d="M5.5 10.9998C6.32843 10.9998 7 11.6713 7 12.4998V16.4998C7 17.3282 6.32843 17.9998 5.5 17.9998C4.67157 17.9998 4 17.3282 4 16.4998V12.4998C4 11.6713 4.67157 10.9998 5.5 10.9998Z" fill="#121D33"/>
<path fill-rule="evenodd" clip-rule="evenodd" d="M12 10.9998C12.8284 10.9998 13.5 11.6713 13.5 12.4998V16.4998C13.5 17.3282 12.8284 17.9998 12 17.9998C11.1716 17.9998 10.5 17.3282 10.5 16.4998V12.4998C10.5 11.6713 11.1716 10.9998 12 10.9998Z" fill="#121D33"/>
<path fill-rule="evenodd" clip-rule="evenodd" d="M18.5 10.9998C19.3284 10.9998 20 11.6713 20 12.4998V16.4998C20 17.3282 19.3284 17.9998 18.5 17.9998C17.6716 17.9998 17 17.3282 17 16.4998V12.4998C17 11.6713 17.6716 10.9998 18.5 10.9998Z" fill="#121D33"/>
</svg>
