<svg width="25" height="24" viewBox="0 0 25 24" fill="none" xmlns="http://www.w3.org/2000/svg">
<path fill-rule="evenodd" clip-rule="evenodd" d="M9.5 5.5C9.5 7.433 7.933 9 6 9C4.067 9 2.5 7.433 2.5 5.5C2.5 3.567 4.067 2 6 2C7.933 2 9.5 3.567 9.5 5.5Z" fill="#121D33"/>
<path fill-rule="evenodd" clip-rule="evenodd" d="M22.5 18.5C22.5 20.433 20.933 22 19 22C17.067 22 15.5 20.433 15.5 18.5C15.5 16.567 17.067 15 19 15C20.933 15 22.5 16.567 22.5 18.5Z" fill="#121D33"/>
<path fill-rule="evenodd" clip-rule="evenodd" d="M21.5156 4.04496L20.4549 2.9843C19.5763 2.10562 18.1516 2.10562 17.273 2.9843L3.48438 16.7729C2.6057 17.6516 2.6057 19.0762 3.48438 19.9549L4.54504 21.0155C5.42372 21.8942 6.84834 21.8942 7.72702 21.0155L21.5156 7.22694C22.3943 6.34826 22.3943 4.92364 21.5156 4.04496Z" fill="#121D33"/>
</svg>
