<svg width="20" height="20" viewBox="0 0 20 20" fill="none" xmlns="http://www.w3.org/2000/svg">
<path fill-rule="evenodd" clip-rule="evenodd" d="M9.09963 0.706265C9.3074 1.09587 9.23506 1.57563 8.92164 1.88665C7.73378 3.06541 7 4.69639 7 6.50061C7 10.0905 9.91015 13.0006 13.5 13.0006C15.304 13.0006 16.9348 12.267 18.1135 11.0794C18.4246 10.766 18.9043 10.6937 19.2939 10.9015C19.6835 11.1093 19.8907 11.5481 19.8037 11.9809C18.8841 16.555 14.8455 20.0003 10 20.0003C4.47715 20.0003 0 15.5231 0 10.0003C0 5.15444 3.44578 1.11563 8.02026 0.196424C8.45315 0.109438 8.89185 0.31666 9.09963 0.706265ZM5.62224 3.303C3.44087 4.73201 2 7.19846 2 10.0003C2 14.4186 5.58172 18.0003 10 18.0003C12.8016 18.0003 15.2678 16.5597 16.6969 14.3787C15.7099 14.7796 14.6306 15.0006 13.5 15.0006C8.80558 15.0006 5 11.195 5 6.50061C5 5.36978 5.22113 4.29016 5.62224 3.303Z" fill="#121D33"/>
</svg>
